<?xml version="1.0" encoding="UTF-8" standalone="no"?>
<svg
   xmlns:dc="http://purl.org/dc/elements/1.1/"
   xmlns:cc="http://creativecommons.org/ns#"
   xmlns:rdf="http://www.w3.org/1999/02/22-rdf-syntax-ns#"
   xmlns:svg="http://www.w3.org/2000/svg"
   xmlns="http://www.w3.org/2000/svg"
   xmlns:sodipodi="http://sodipodi.sourceforge.net/DTD/sodipodi-0.dtd"
   xmlns:inkscape="http://www.inkscape.org/namespaces/inkscape"
   version="1.1"
   viewBox="0 0 100 99.999998"
   id="svg28"
   sodipodi:docname="circuit-radio.svg"
   width="100"
   height="100"
   inkscape:version="0.92.5 (2060ec1f9f, 2020-04-08)">
  <metadata
     id="metadata32">
    <rdf:RDF>
      <cc:Work
         rdf:about="">
        <dc:format>image/svg+xml</dc:format>
        <dc:type
           rdf:resource="http://purl.org/dc/dcmitype/StillImage" />
        <dc:title></dc:title>
      </cc:Work>
    </rdf:RDF>
  </metadata>
  <sodipodi:namedview
     pagecolor="#ffffff"
     bordercolor="#666666"
     borderopacity="1"
     objecttolerance="10"
     gridtolerance="10"
     guidetolerance="10"
     inkscape:pageopacity="0"
     inkscape:pageshadow="2"
     inkscape:window-width="1792"
     inkscape:window-height="938"
     id="namedview30"
     showgrid="false"
     inkscape:zoom="4"
     inkscape:cx="21.463996"
     inkscape:cy="71.282556"
     inkscape:window-x="964"
     inkscape:window-y="434"
     inkscape:window-maximized="0"
     inkscape:current-layer="g18" />
  <g
     transform="matrix(25.552322,0,0,25.552322,34.287554,27.877173)"
     id="g18"
     style="opacity:1">
    <g
       id="g846"
       transform="translate(-0.00978216,-0.03335745)"
       style="fill:#000000">
      <g
         id="g6"
         style="fill:#000000">
        <path
           style="fill:#000000;fill-rule:nonzero"
           inkscape:connector-curvature="0"
           id="path4"
           d="m -0.6344268,-0.53248805 c -0.11983867,0.0780237 -0.19363126,0.2322691 -0.11069702,0.35965007 0.0676569,0.10391605 0.19004236,0.12327572 0.32880294,0.0651508 0.0121964,0.05172279 0.0310971,0.09908062 0.0567412,0.13846816 0.0785693,0.12067671 0.19592656,0.14331009 0.30654687,0.07128825 0.0846413,-0.05510762 0.14782862,-0.15233088 0.17605381,-0.24827013 0.002592,-0.008848 0.003217,-0.0152202 4.8843e-4,-0.0194104 -0.002728,-0.00419 -0.006879,-0.005067 -0.0110692,-0.002339 -0.003352,0.002182 -0.005905,0.007425 -0.009336,0.0168178 -0.02945202,0.08122548 -0.08790355,0.17655867 -0.17003076,0.23002944 -0.09553572,0.06220068 -0.19541193,0.03892529 -0.26416005,-0.06666683 -0.0250985,-0.0385495 -0.043746,-0.08368565 -0.0556892,-0.13318676 0.0225877,-0.0111264 0.0457602,-0.0250201 0.0692251,-0.0402975 0.23883931,-0.15550171 0.39981829,-0.54788898 0.29615048,-0.70711519 -0.03655654,-0.0561482 -0.09274069,-0.0672991 -0.15810723,-0.0247407 -0.19023342,0.12385575 -0.29467541,0.49494586 -0.24236608,0.76039969 -0.12987384,0.05711205 -0.23674671,0.03958527 -0.30058426,-0.0584646 -0.0731131,-0.11229638 -0.004759,-0.25106843 0.0966432,-0.31708845 0.0695567,-0.0452865 0.11835538,-0.0436463 0.12505965,-0.0480113 0.003352,-0.002182 0.004229,-0.006333 0.001501,-0.0105236 -0.005456,-0.00838 -0.0681306,-0.009339 -0.13517288,0.0343102 z m 0.46801429,-0.34050936 c 0.05112,-0.0332828 0.09426643,-0.0219964 0.12263867,0.0215813 0.09712037,0.14916982 -0.06031045,0.52134792 -0.28406517,0.66702847 -0.0226269,0.0147317 -0.0441233,0.0275342 -0.0644893,0.0384074 -0.0521345,-0.25602146 0.0449007,-0.60916329 0.2259158,-0.72701717 z m 0.55392727,0.44413974 c 0,0 0.003713,-0.006871 0.002921,-0.010792 -9.8999e-4,-0.004901 -0.005703,-0.00803 -0.011584,-0.006842 -0.003921,7.9199e-4 -0.007634,0.007663 -0.007634,0.007663 0,0 -0.0701808,0.1172163 -0.12899288,0.12909622 -0.0225447,0.004554 -0.0400197,-0.006199 -0.0445736,-0.0287435 -0.0114839,-0.0568517 0.0443996,-0.16403864 0.0621825,-0.19721647 0.002931,-0.005693 0.003119,-0.009812 0.002723,-0.0117722 -0.001188,-0.005881 -0.007079,-0.009792 -0.0139404,-0.008406 -0.0156832,0.003168 -0.0908945,0.15608714 -0.0774306,0.2227409 0.007128,0.0352873 0.0350088,0.0520998 0.0683356,0.0453678 0.0754756,-0.0152459 0.14799315,-0.14109581 0.14799338,-0.14109575 z m -0.0780039,-0.2801007 c -0.0137228,0.002772 -0.0250501,0.0275044 -0.0216841,0.0441678 0.00198,0.009802 0.009831,0.0133171 0.0186532,0.0115351 0.0156832,-0.003168 0.0242581,-0.0314252 0.0214861,-0.045148 -0.001782,-0.008822 -0.009633,-0.0123368 -0.0184552,-0.0105549 z m 0.0925684,0.26159927 c 0,0 -0.004923,0.006063 -0.004873,0.0100627 5.08e-5,0.004 0.003101,0.007961 0.009101,0.007885 0.005,-6.349e-5 0.009936,-0.005127 0.009936,-0.005127 0.0364637,-0.0424665 0.0797363,-0.10002063 0.0944684,-0.12120942 0.005898,-0.008076 0.00786,-0.0111007 0.0118593,-0.0111515 0.006,-7.62e-5 0.0241378,0.0106943 0.0443139,0.0244392 0.007063,0.004911 0.0121006,0.007847 0.0121768,0.0138465 4.8256e-4,0.0379969 -0.0817488,0.0990461 -0.0809615,0.16104111 3.9366e-4,0.0309975 0.024633,0.0496912 0.0526308,0.0493356 0.0529957,-6.7305e-4 0.1202664,-0.058532 0.17548725,-0.1202382 0,0 0.004923,-0.006063 0.004873,-0.0100627 -6.349e-5,-0.005 -0.004114,-0.008948 -0.009114,-0.008885 -0.005,6.349e-5 -0.009923,0.006127 -0.009923,0.006127 -0.0512593,0.0586557 -0.11059409,0.11141341 -0.15559046,0.11198487 -0.0189985,2.4128e-4 -0.0321498,-0.0115927 -0.0323911,-0.0305911 -7.3654e-4,-0.0579953 0.0854564,-0.12209505 0.0849104,-0.16509158 -1.0159e-4,-0.007999 -0.003165,-0.0129609 -0.0142275,-0.0178208 -0.0201381,-0.0107451 -0.0604396,-0.0342352 -0.0605285,-0.0412347 -2.0318e-4,-0.0159987 0.0422981,-0.0555416 0.0421076,-0.0705404 -1.0159e-4,-0.007999 -0.011215,-0.0168589 -0.0192144,-0.0167574 -0.0209983,2.6668e-4 -0.039184,0.0645028 -0.0508783,0.0886533 -0.015605,0.0312007 -0.0706481,0.10690577 -0.10416269,0.14533452 z m 0.63223684,0.0735157 c 0,0 0.00611,-0.004865 0.00692,-0.008782 0.00101,-0.004897 -0.0021,-0.009623 -0.00699,-0.0106339 -0.0049,-0.001011 -0.011007,0.003854 -0.011007,0.003854 -0.0287614,0.0206102 -0.12706319,0.0911918 -0.22205964,0.0715786 -0.0411325,-0.008492 -0.0578253,-0.0364449 -0.0509506,-0.0697426 0.0169846,-0.082265 0.13392557,-0.15410368 0.20150036,-0.14015208 0.0146902,0.003033 0.0216845,0.0136668 0.0190559,0.0263983 -0.003437,0.0166489 -0.0225126,0.0249637 -0.0233214,0.028881 -0.001011,0.004897 0.003077,0.009825 0.007974,0.0108361 0.004897,0.001011 0.0326471,-0.0147025 0.0368933,-0.0352688 0.005257,-0.025463 -0.0118718,-0.046358 -0.0432108,-0.0528283 -0.0744302,-0.015367 -0.20710402,0.0634344 -0.22611055,0.15549283 -0.009099,0.0440705 0.017122,0.0852223 0.0700066,0.0961409 0.1047899,0.0216351 0.21274623,-0.056143 0.24130553,-0.0757739 z m 0.379183,0.17333989 c 0,0 0.0071,-0.003261 0.00882,-0.006871 0.00215,-0.004512 2.67e-4,-0.009845 -0.00425,-0.011999 -0.00451,-0.002154 -0.011609,0.001107 -0.011609,0.001107 0,0 -0.1073558,0.0484842 -0.1615038,0.0226386 -0.021659,-0.0103382 -0.025678,-0.0344182 -0.017925,-0.0506626 0.00646,-0.013537 0.016574,-0.0231153 0.027629,-0.0300271 0.0305,-0.019792 0.074764,-0.0452036 0.1031514,-0.0582476 0.0071,-0.003261 0.010194,-0.005107 0.011486,-0.007814 0.00215,-0.004512 -0.00205,-0.0142757 -0.00747,-0.0168602 -0.00361,-0.001723 -0.00761,-3.0792e-4 -0.017373,0.003896 -0.027054,0.0125723 -0.065554,0.0351945 -0.1103302,0.0570372 -0.067831,0.0329998 -0.1491167,0.0640096 -0.1915326,0.0437638 -0.018952,-0.009046 -0.026458,-0.0281419 -0.015689,-0.0507035 0.033599,-0.0703924 0.1654249,-0.12603408 0.1982839,-0.13915997 0.00667,-0.002359 0.011096,-0.004676 0.012389,-0.007384 0.00258,-0.005415 -7.174e-4,-0.0147474 -0.00794,-0.0181935 -0.013537,-0.006461 -0.1940565,0.0769094 -0.23110187,0.15452154 -0.0142151,0.0297814 -0.001951,0.0644453 0.0296356,0.0795219 0.053246,0.0254149 0.143823,-0.0111326 0.1753897,-0.021551 -0.013272,0.0324479 -5.765e-4,0.0662093 0.029205,0.0804244 0.059563,0.0284302 0.1807226,-0.0234379 0.1807226,-0.0234379 z m 0.1773214,0.14855889 c 0,0 0.00762,-0.0016943 0.010069,-0.0048607 0.00306,-0.003958 0.00233,-0.0095685 -0.00242,-0.01323482 -0.00317,-0.0024442 -0.010791,-7.4989e-4 -0.010791,-7.4989e-4 0,0 -0.1345425,0.02373434 -0.1820381,-0.01292861 -0.018207,-0.01405413 -0.021526,-0.03430216 -0.00747,-0.05250879 0.035441,-0.0459124 0.1530405,-0.0738824 0.1897592,-0.0821734 0.00622,-0.001514 0.00946,-0.004069 0.010679,-0.005652 0.00367,-0.00475 0.00276,-0.0117628 -0.00278,-0.0160401 -0.012665,-0.009777 -0.1774827,0.0335391 -0.2190341,0.0873674 -0.021998,0.0284973 -0.016443,0.06057755 0.010471,0.08135322 0.060953,0.04705079 0.2035499,0.0194279 0.2035499,0.0194279 z m 0.1605808,-0.2423939 c -0.011082,-0.008555 -0.037191,-9.1644e-4 -0.047579,0.0125406 -0.00611,0.007916 -0.00362,0.0161512 0.0035,0.0216507 0.012665,0.009777 0.039635,-0.00225 0.04819,-0.0133322 0.0055,-0.007124 0.00301,-0.0153596 -0.00411,-0.0208591 z m 0.00929,0.13783447 c 0.011076,0.0115462 0.024171,0.0280851 0.037236,0.0460379 -0.092978,0.01575047 -0.1918761,0.04410867 -0.2423907,0.09256771 -0.025257,0.02422952 -0.024489,0.05536487 -0.00234,0.07845725 0.056766,0.0591742 0.1955349,0.05215457 0.1955349,0.05215457 0,0 0.00779,-5.4544e-4 0.010678,-0.003315 0.00361,-0.003461 0.00373,-0.009117 -4.28e-4,-0.01344682 -0.00277,-0.0028865 -0.01056,-0.0023411 -0.01056,-0.0023411 0,0 -0.1239372,0.0080349 -0.1723963,-0.04247966 -0.012461,-0.01298946 -0.014878,-0.03284291 0.00172,-0.04876517 0.051958,-0.04984358 0.1479692,-0.07543269 0.2373685,-0.08913571 0.024083,0.03232682 0.048828,0.0667892 0.066827,0.08555175 0.00623,0.00649473 0.019677,0.00606674 0.022564,0.00329765 0.00289,-0.002769087 0.00156,-0.00704018 -0.00398,-0.01281327 -0.016614,-0.01731928 -0.037899,-0.04817347 -0.061289,-0.07977866 0.078029,-0.01111012 0.1466773,-0.01322071 0.167223,-0.01491578 0.012755,-0.00115 0.016275,-3.6926e-4 0.019883,-0.003831 0.00433,-0.004154 0.00456,-0.0154649 0.0011,-0.0190731 -0.00277,-0.002887 -0.0084,-0.004418 -0.017601,-0.003902 -0.022652,9.4408e-4 -0.099813,0.004292 -0.187798,0.0180248 -0.015142,-0.0201177 -0.028899,-0.0387922 -0.042745,-0.0532249 -0.028383,-0.0295871 -0.051006,-0.0300569 -0.056779,-0.0245188 -0.00361,0.003461 -0.003,0.008425 4.574e-4,0.0120329 0.00346,0.003608 0.018322,0.00321 0.037706,0.0234154 z" />
      </g>
      <g
         id="g10"
         style="fill:#000000">
        <path
           style="fill:#000000;fill-rule:nonzero"
           inkscape:connector-curvature="0"
           id="path8"
           d="m 0.07097851,2.6371013 0.0588354,-0.2139321 0.0903938,0.02486 q 0.0138604,0.00381 0.0237358,0.012686 0.009875,0.00887 0.0157697,0.021028 0.005894,0.012154 0.007291,0.025341 0.001397,0.013186 -0.002,0.02554 -0.004226,0.015367 -0.0138308,0.02731 -0.009605,0.011943 -0.0228701,0.018342 -0.0132655,0.0064 -0.0285572,0.00543 l 0.0297229,0.096979 -0.0238037,-0.00655 L 0.17705716,2.58136 0.11378149,2.563958 0.0920704,2.6429019 Z m 0.04794072,-0.091825 0.0699045,0.019225 q 0.0126551,0.00348 0.0239018,-8.809e-4 0.0112466,-0.00436 0.0194765,-0.014252 0.00823,-0.00989 0.0117102,-0.022546 0.003563,-0.012957 7.1231e-4,-0.02557 -0.002851,-0.012614 -0.0107791,-0.022086 -0.007928,-0.00947 -0.0199807,-0.012787 l -0.0680967,-0.018728 z m 0.2793799,-0.063076 0.0183055,0.0022 0.0650255,0.2312979 -0.0229594,-0.00276 -0.0202576,-0.072312 -0.0989738,-0.011907 -0.0365205,0.065482 -0.0232697,-0.0028 z M 0.4355018,2.6229644 0.40423594,2.5087245 0.34614613,2.6122143 Z m 0.11623805,0.094293 -0.008009,-0.2217303 0.0752634,-0.00272 q 0.0352895,-0.00127 0.0594037,0.012708 0.0241142,0.013982 0.0368896,0.038693 0.0127754,0.024711 0.0138809,0.055316 0.001218,0.033728 -0.0108395,0.05918 -0.0120578,0.025452 -0.0354521,0.040056 -0.0233943,0.014604 -0.0558731,0.015777 z M 0.70730724,2.6003154 Q 0.70634836,2.5737702 0.69576649,2.553514 0.68518461,2.5332578 0.66602379,2.5222235 0.64686298,2.5111893 0.6196932,2.5121707 l -0.0534027,0.00193 0.006611,0.1830056 0.0534027,-0.00193 q 0.0274821,-9.928e-4 0.0457799,-0.013849 0.0182978,-0.012856 0.0272288,-0.033974 0.008931,-0.021117 0.007994,-0.047038 z m 0.0944891,0.099444 -0.0319879,-0.219557 0.0216465,-0.00315 0.0319879,0.2195571 z m 0.19162567,-0.036805 q -0.0226664,0.00596 -0.0434867,0.00175 -0.0208203,-0.00422 -0.0382121,-0.016284 -0.0173918,-0.012066 -0.0297726,-0.029651 -0.0123809,-0.017585 -0.0177867,-0.038136 -0.005644,-0.021458 -0.003216,-0.042938 0.002428,-0.021481 0.0121642,-0.04036 0.009736,-0.018879 0.0258265,-0.032644 0.0160902,-0.013765 0.0375477,-0.019409 0.0226664,-0.00596 0.0435662,-0.00144 0.0208998,0.00452 0.0381802,0.016777 0.01728,0.012257 0.029622,0.029691 0.012341,0.017434 0.017667,0.037683 0.00564,0.021458 0.00322,0.042938 -0.00243,0.021481 -0.012013,0.04032 -0.00959,0.018839 -0.025715,0.032453 -0.01613,0.013614 -0.0375875,0.019258 z M 0.88531919,2.5750636 q 0.004611,0.017529 0.0146062,0.032187 0.009995,0.014658 0.0238721,0.024418 0.0138768,0.00976 0.0304821,0.013308 0.0166053,0.00355 0.034134,-0.00106 0.0184353,-0.00485 0.0310657,-0.016412 0.01263,-0.011562 0.019678,-0.027149 0.00705,-0.015587 0.00827,-0.033035 0.00123,-0.017449 -0.00315,-0.034071 -0.00461,-0.017529 -0.014566,-0.032036 -0.00996,-0.014507 -0.024023,-0.024378 -0.0140677,-0.00987 -0.0304821,-0.013308 -0.0164145,-0.00344 -0.0339432,0.00117 -0.0181331,0.00477 -0.0308033,0.016181 -0.0126702,0.011411 -0.0197181,0.026998 -0.007048,0.015587 -0.008426,0.033075 -0.001378,0.017488 0.002995,0.03411 z" />
      </g>
      <g
         id="g16"
         clip-path="url(#SvgjsClipPath1003)"
         style="fill:#000000">
        <g
           id="g14"
           clip-path="url(#SvgjsClipPath1000)"
           style="fill:#000000">
          <path
             style="fill:#000000;fill-rule:nonzero"
             inkscape:connector-curvature="0"
             id="path12"
             d="m 0.76994897,1.1239139 c -0.002487,-0.010772 6.6336e-4,-0.02207 0.008365,-0.030002 0.007701,-0.00793 0.0189015,-0.011413 0.0297421,-0.00924 L 1.113773,1.1458289 c 0.013618,0.00273 0.027468,-0.00348 0.034487,-0.015469 0.00702,-0.011985 0.00566,-0.027103 -0.00338,-0.037646 L 0.21820647,0.01152482 C 0.20845119,1.5249851e-4 0.19219378,-0.00309322 0.17881955,0.00366141 0.16544532,0.01041603 0.15840819,0.0254266 0.16177067,0.04002758 L 0.3903625,1.0305596 c 0.002355,0.010222 -3.6049e-4,0.020952 -0.007293,0.028825 -0.006933,0.00787 -0.0172341,0.011921 -0.0276718,0.010878 L 0.0358933,1.0383256 c -0.01333914,-0.00133 -0.02612984,0.00565 -0.0322254,0.017592 -0.00609557,0.011939 -0.004249726,0.026394 0.00465048,0.036419 L 0.942496,2.1433413 c 0.009884,0.011132 0.0260594,0.014141 0.0392854,0.00731 0.0132261,-0.00683 0.0201334,-0.021765 0.016776,-0.036267 z" />
        </g>
      </g>
    </g>
  </g>
  <defs
     id="defs26">
    <clipPath
       id="SvgjsClipPath1003">
      <path
         d="M 0,0 H 1.152905 V 2.1544084 H 0 Z"
         id="path20"
         inkscape:connector-curvature="0" />
    </clipPath>
    <clipPath
       id="SvgjsClipPath1000">
      <path
         d="M 0,0 H 1.152905 V 2.1544084 H 0 Z"
         id="path23"
         inkscape:connector-curvature="0" />
    </clipPath>
  </defs>
</svg>
