<?xml version="1.0" encoding="UTF-8" standalone="no"?>
<svg
   version="1.1"
   viewBox="0 0 99.999999 99.999995"
   id="svg586"
   sodipodi:docname="kpop.svg"
   width="100"
   height="100"
   inkscape:version="1.2.2 (732a01da63, 2022-12-09)"
   xmlns:inkscape="http://www.inkscape.org/namespaces/inkscape"
   xmlns:sodipodi="http://sodipodi.sourceforge.net/DTD/sodipodi-0.dtd"
   xmlns="http://www.w3.org/2000/svg"
   xmlns:svg="http://www.w3.org/2000/svg"
   xmlns:rdf="http://www.w3.org/1999/02/22-rdf-syntax-ns#"
   xmlns:cc="http://creativecommons.org/ns#"
   xmlns:dc="http://purl.org/dc/elements/1.1/">
  <metadata
     id="metadata590">
    <rdf:RDF>
      <cc:Work
         rdf:about="">
        <dc:format>image/svg+xml</dc:format>
        <dc:type
           rdf:resource="http://purl.org/dc/dcmitype/StillImage" />
        <dc:title />
      </cc:Work>
    </rdf:RDF>
  </metadata>
  <sodipodi:namedview
     pagecolor="#ffffff"
     bordercolor="#666666"
     borderopacity="1"
     objecttolerance="10"
     gridtolerance="10"
     guidetolerance="10"
     inkscape:pageopacity="0"
     inkscape:pageshadow="2"
     inkscape:window-width="1584"
     inkscape:window-height="861"
     id="namedview588"
     showgrid="false"
     inkscape:zoom="8"
     inkscape:cx="49.4375"
     inkscape:cy="37"
     inkscape:window-x="0"
     inkscape:window-y="0"
     inkscape:window-maximized="0"
     inkscape:current-layer="g574"
     inkscape:showpageshadow="2"
     inkscape:pagecheckerboard="0"
     inkscape:deskcolor="#d1d1d1" />
  <g
     id="g6"
     transform="matrix(14.300158,0,0,14.300158,0.27175681,53.741859)"
     style="fill:#6e40c9;fill-opacity:1">
    <path
       style="fill:#6e40c9;fill-rule:nonzero;fill-opacity:1"
       inkscape:connector-curvature="0"
       id="path4"
       d="M 0.231,0.0735 V 0.603 H 1.146 V 0.0735 Z M 1.023,0.174 V 0.5025 H 0.3525 V 0.174 Z M 0.0735,0.7845 v 0.102 H 0.387 v 0.48 h 0.1245 v -0.48 h 0.357 v 0.48 H 0.993 v -0.48 H 1.3035 V 0.7845 Z M 2.4569744,0 v 0.8205 h 0.1245 V 0 Z m -0.7815,0.8925 v 0.102 h 0.7815 v 0.363 h 0.1245 v -0.465 z m -0.1545,-0.798 v 0.102 h 0.3105 V 0.249 c 0,0.192 -0.1395,0.369 -0.3435,0.441 l 0.0645,0.096 c 0.162,-0.057 0.2865,-0.1785 0.345,-0.3315 0.06,0.141 0.183,0.2535 0.339,0.306 l 0.063,-0.0975 c -0.201,-0.066 -0.342,-0.2325 -0.342,-0.414 V 0.1965 h 0.306 v -0.102 z m 1.6649743,0.012 c -0.1785,0 -0.3075,0.1365 -0.3075,0.33 0,0.1935 0.129,0.3285 0.3075,0.3285 0.1785,0 0.309,-0.135 0.309,-0.3285 0,-0.1935 -0.1305,-0.33 -0.309,-0.33 z m 0,0.1065 c 0.1125,0 0.195,0.093 0.195,0.2235 0,0.1305 -0.0825,0.2235 -0.195,0.2235 -0.1125,0 -0.195,-0.093 -0.195,-0.2235 0,-0.1305 0.0825,-0.2235 0.195,-0.2235 z m 0.414,-0.186 v 0.945 h 0.117 V 0.4995 h 0.1725 V 1.02 h 0.1185 V 0.0015 h -0.1185 V 0.396 h -0.1725 V 0.027 Z m -0.477,0.8595 v 0.441 h 0.9255 v -0.102 h -0.801 V 0.8865 Z M 4.9934231,0.5205 V 0.624 h 0.258 v 0.735 h 0.123 V 0 h -0.123 v 0.5205 z m -0.687,-0.3945 v 0.102 h 0.4845 v 0.2715 h -0.48 v 0.534 h 0.1035 c 0.243,0 0.417,-0.009 0.6195,-0.045 l -0.0105,-0.1035 c -0.1935,0.036 -0.3615,0.0435 -0.5895,0.0435 v -0.327 h 0.4785 V 0.126 Z m 1.3484744,0.948 v 0.1035 h 1.23 V 1.074 Z m 0.144,-0.9765 V 0.804 h 0.9375 V 0.0975 h -0.123 V 0.348 h -0.69 V 0.0975 Z m 0.1245,0.351 h 0.69 v 0.255 h -0.69 z" />
  </g>
  <g
     id="g8"
     transform="matrix(13.356063,0,0,13.356063,3.5217568,53.494831)" />
  <g
     id="g574"
     clip-path="url(#SvgjsClipPath1003)"
     transform="matrix(14.300158,0,0,14.300158,0.27175681,53.741859)">
    <g
       id="g12"
       clip-path="url(#b)">
      <path
         style="fill:#c84449;fill-rule:nonzero;stroke:#382d5e;stroke-width:0.00624697;stroke-linecap:round;stroke-linejoin:miter;stroke-miterlimit:4;stroke-dasharray:none"
         inkscape:connector-curvature="0"
         id="path10"
         stroke-miterlimit="4"
         d="m 0.09992648,-0.42961278 -0.0201902,-1.7492e-4 c 0,0 -0.01340599,8.4959e-4 -0.01340599,-0.0180912 v -0.0779996 c 0,0 3.3734e-4,-0.011307 0.0206025,-0.011307 0.01118207,0 0.01343097,5.3724e-4 0.01343097,5.3724e-4" />
    </g>
    <g
       id="g16"
       clip-path="url(#b)">
      <path
         style="fill:#c84449;fill-rule:nonzero"
         inkscape:connector-curvature="0"
         id="path14"
         d="m 0.04410358,-0.50957395 0.02921082,6.3719e-4 -8.7458e-4,0.0469022 -0.02854863,-2.9985e-4 z" />
    </g>
    <g
       id="g20"
       clip-path="url(#b)">
      <path
         style="fill:none;fill-rule:nonzero;stroke:#382d5e;stroke-width:0.00624697;stroke-linecap:round;stroke-linejoin:miter;stroke-miterlimit:4;stroke-dasharray:none"
         inkscape:connector-curvature="0"
         id="path18"
         stroke-miterlimit="4"
         d="m 0.04410358,-0.50957395 0.02921082,6.3719e-4 -8.7458e-4,0.0469022 -0.02854863,-2.9985e-4 z" />
    </g>
    <g
       id="g24"
       clip-path="url(#b)">
      <path
         style="fill:#c84449;fill-rule:nonzero"
         inkscape:connector-curvature="0"
         id="path22"
         d="m 0.05142503,-0.4520269 -1.8741e-4,-0.069991 c 0,0 0,-0.006559 -0.0086458,-0.0112945 -0.0087333,-0.00481 -0.02869857,-0.0139557 -0.02869857,-0.0139557 0,0 -0.01035747,-0.007209 -0.01063233,0.008846 -3.1235e-4,0.0160797 0,0.10608599 0,0.10608599 0,0 -2.124e-4,0.011332 0.01141945,0.005372 0.0115319,-0.005972 0.02791145,-0.0146054 0.02791145,-0.0146054 0,0 0.0079336,-0.003461 0.0088332,-0.0104574" />
    </g>
    <g
       id="g28"
       clip-path="url(#b)">
      <path
         style="fill:none;fill-rule:nonzero;stroke:#382d5e;stroke-width:0.00624697;stroke-linecap:round;stroke-linejoin:miter;stroke-miterlimit:4;stroke-dasharray:none"
         inkscape:connector-curvature="0"
         id="path26"
         stroke-miterlimit="4"
         d="m 0.05142503,-0.4520269 -1.8741e-4,-0.069991 c 0,0 0,-0.006559 -0.0086458,-0.0112945 -0.0087333,-0.00481 -0.02869857,-0.0139557 -0.02869857,-0.0139557 0,0 -0.01035747,-0.007209 -0.01063233,0.008846 -3.1235e-4,0.0160797 0,0.10608599 0,0.10608599 0,0 -2.124e-4,0.011332 0.01141945,0.005372 0.0115319,-0.005972 0.02791145,-0.0146054 0.02791145,-0.0146054 0,0 0.0079336,-0.003461 0.0088332,-0.0104574 z" />
    </g>
    <g
       id="g32"
       clip-path="url(#b)">
      <path
         style="fill:#c84449;fill-rule:nonzero"
         inkscape:connector-curvature="0"
         id="path30"
         d="m 4.1266212,-1.3128089 -0.023851,-0.013281 0.024376,-0.042155 0.023526,0.012669 z" />
    </g>
    <g
       id="g36"
       clip-path="url(#b)">
      <path
         style="fill:none;fill-rule:nonzero;stroke:#382d5e;stroke-width:0.00624697;stroke-linecap:round;stroke-linejoin:miter;stroke-miterlimit:4;stroke-dasharray:none"
         inkscape:connector-curvature="0"
         id="path34"
         stroke-miterlimit="4"
         d="m 4.1266212,-1.3128089 -0.023851,-0.013281 0.024376,-0.042155 0.023526,0.012669 z" />
    </g>
    <g
       id="g40"
       clip-path="url(#b)">
      <path
         style="fill:#c84449;fill-rule:nonzero;stroke:#382d5e;stroke-width:0.00624697;stroke-linecap:round;stroke-linejoin:miter;stroke-miterlimit:4;stroke-dasharray:none"
         inkscape:connector-curvature="0"
         id="path38"
         stroke-miterlimit="4"
         d="m 4.1166885,-1.4099992 0.018728,0.00983 c 0,0 0.01067,0.00467 0.00132,0.02139 -0.00892,0.016005 -0.038394,0.068667 -0.038394,0.068667 0,0 -0.00581,0.00988 -0.02134,0.00169 -0.00853,-0.00445 -0.01002,-0.00585 -0.01002,-0.00585" />
    </g>
    <g
       id="g44"
       clip-path="url(#b)">
      <path
         style="fill:#c84449;fill-rule:nonzero"
         inkscape:connector-curvature="0"
         id="path42"
         d="m 4.150647,-1.3666453 -0.034233,0.062107 c 0,0 -0.00312,0.00575 0.00167,0.013731 0.0047,0.00803 0.016505,0.024726 0.016505,0.024726 0,0 0.00489,0.010882 0.013081,-0.00324 0.00811,-0.014093 0.051925,-0.093954 0.051925,-0.093954 0,0 0.00563,-0.00993 -0.00672,-0.00965 -0.012357,3.123e-4 -0.029998,8.496e-4 -0.029998,8.496e-4 0,0 -0.00811,-3.624e-4 -0.012232,0.00542" />
    </g>
    <g
       id="g48"
       clip-path="url(#b)">
      <path
         style="fill:none;fill-rule:nonzero;stroke:#382d5e;stroke-width:0.00624697;stroke-linecap:round;stroke-linejoin:miter;stroke-miterlimit:4;stroke-dasharray:none"
         inkscape:connector-curvature="0"
         id="path46"
         stroke-miterlimit="4"
         d="m 4.150647,-1.3666453 -0.034233,0.062107 c 0,0 -0.00312,0.00575 0.00167,0.013731 0.0047,0.00803 0.016505,0.024726 0.016505,0.024726 0,0 0.00489,0.010882 0.013081,-0.00324 0.00811,-0.014093 0.051925,-0.093954 0.051925,-0.093954 0,0 0.00563,-0.00993 -0.00672,-0.00965 -0.012357,3.123e-4 -0.029998,8.496e-4 -0.029998,8.496e-4 0,0 -0.00811,-3.624e-4 -0.012232,0.00542 z" />
    </g>
    <g
       id="g52"
       clip-path="url(#b)"
       style="fill:#6e40c9;fill-opacity:1">
      <path
         style="fill:#6e40c9;fill-rule:nonzero;fill-opacity:1"
         inkscape:connector-curvature="0"
         id="path50"
         d="m 3.5539867,-0.71457441 c 0,0 -0.2227668,-0.080361 -0.078262,-0.34546979 0.1444299,-0.2651212 0.429504,-0.2289638 0.5539061,-0.2430444 0.1245145,-0.014043 0.160597,-0.2510656 -0.1826238,-0.3554899 -0.3432084,-0.1044618 -0.7887046,0.078324 -1.1199187,0.1687056 -0.3311142,0.090356 -0.5679368,-0.038144 -0.5679368,-0.038144 L 1.7703903,-1.687377 C 1.4939371,-1.8017215 0.83724345,-2.0792867 0.45213045,-1.6735962 0.06699247,-1.2679057 0.102975,-0.7547549 0.0879448,-0.1371548 0.07288961,0.48049528 0.3558522,0.87066832 0.80142334,0.9339251 1.246982,0.9971569 1.6353309,0.77424014 1.9845363,0.61304342 c 0.349243,-0.16117174 0.45308,-0.097915 0.7917406,0.0346707 0.338673,0.13253565 0.5439608,0.0768002 0.6101287,0.0537114 0.066243,-0.0230888 0.1785883,-0.0823475 0.1766267,-0.18578478 -0.00201,-0.10344977 -0.094317,-0.11549392 -0.094317,-0.11549392 0,0 -0.2077491,-0.0201027 -0.3080504,-0.10043873 C 3.060264,0.21939707 3.0430099,0.09704398 3.035576,0.03416202 3.028226,-0.02871995 3.054417,-0.14713745 3.082916,-0.18852985 3.111377,-0.22998475 3.1413,-0.23034705 3.1413,-0.23034705 Z" />
    </g>
    <g
       id="g56"
       clip-path="url(#b)">
      <path
         style="fill:none;fill-rule:nonzero;stroke:#382d5e;stroke-width:0.00624697;stroke-linecap:butt;stroke-linejoin:miter;stroke-miterlimit:4;stroke-dasharray:none"
         inkscape:connector-curvature="0"
         id="path54"
         stroke-miterlimit="4"
         d="m 3.5539867,-0.71457441 c 0,0 -0.2227668,-0.080361 -0.078262,-0.34546979 0.1444299,-0.2651212 0.429504,-0.2289638 0.5539061,-0.2430444 0.1245145,-0.014043 0.160597,-0.2510656 -0.1826238,-0.3554899 -0.3432084,-0.1044618 -0.7887046,0.078324 -1.1199187,0.1687056 -0.3311142,0.090356 -0.5679368,-0.038144 -0.5679368,-0.038144 L 1.7703903,-1.687377 C 1.4939371,-1.8017215 0.83724345,-2.0792867 0.45213045,-1.6735962 0.06699247,-1.2679057 0.102975,-0.7547549 0.0879448,-0.1371548 0.07288961,0.48049528 0.3558522,0.87066832 0.80142334,0.9339251 1.246982,0.9971569 1.6353309,0.77424014 1.9845363,0.61304342 c 0.349243,-0.16117174 0.45308,-0.097915 0.7917406,0.0346707 0.338673,0.13253565 0.5439608,0.0768002 0.6101287,0.0537114 0.066243,-0.0230888 0.1785883,-0.0823475 0.1766267,-0.18578478 -0.00201,-0.10344977 -0.094317,-0.11549392 -0.094317,-0.11549392 0,0 -0.2077491,-0.0201027 -0.3080504,-0.10043873 C 3.060264,0.21939707 3.0430099,0.09704398 3.035576,0.03416202 3.028226,-0.02871995 3.054417,-0.14713745 3.082916,-0.18852985 3.111377,-0.22998475 3.1413,-0.23034705 3.1413,-0.23034705 Z" />
    </g>
    <g
       id="g60"
       clip-path="url(#b)"
       style="fill:#6e40c9;fill-opacity:1">
      <path
         style="fill:#6e40c9;fill-rule:nonzero;fill-opacity:1"
         inkscape:connector-curvature="0"
         id="path58"
         d="m 3.0041662,-0.23004719 -0.059221,0.14280566 c 0,0 -0.076226,0.1449671 0.022089,0.34172156 0,0 0.063619,0.15088923 0.2759035,0.21384616 0.158473,0.0470397 0.2084737,0.0222267 0.2136337,0.0662179 0.00515,0.0439412 -0.1383328,0.086533 -0.1869842,0.0940168 C 3.2209235,0.63606974 3.1090028,0.6439784 3.0050158,0.6176037 2.9010288,0.59122901 2.834786,0.56861499 2.8001778,0.55579622 2.7654197,0.54296495 2.5635177,0.45095962 2.4784215,0.43589194 2.3932129,0.42082426 2.2637008,0.39291281 2.0572385,0.47056261 1.8508138,0.54826238 1.8681554,0.56031902 1.6307331,0.65833393 1.3934983,0.75634883 1.1840251,0.81629472 1.1459311,0.82311641 1.1078745,0.82997558 0.98873239,0.85541323 0.94762735,0.76349536 0.90668473,0.67158999 0.98773287,0.60613427 1.087322,0.47416086 1.1869861,0.34219994 1.2631366,0.30205693 1.2993441,0.11733413 c 0,0 0.016579,-0.0840342 0.016579,-0.24339431 0,0 -0.00127,-0.0155425 0.015655,-0.0155425 h 0.072515 c 0,0 0.041955,0.002924 0.041955,-0.0602957 v -0.56490069 c 0,0 0.00119,-0.044166 -0.049001,-0.044166 h -0.065131 c 0,0 -0.019728,0.001699 -0.019728,-0.0197779 0,-0.0214146 -7.49e-5,-0.31824553 0.4519805,-0.30254063 0.3945335,0.013718 0.5544308,0.30229075 1.1542895,0.22922623 0,0 0.1266635,-0.017454 0.1764019,-0.0342209 0.049763,-0.0167669 0.1177803,-0.0364948 0.1528258,0.0147803 0.035008,0.0513126 0.0054,0.0947415 -0.045878,0.20427581 z" />
    </g>
    <g
       id="g64"
       clip-path="url(#b)">
      <path
         style="fill:none;fill-rule:nonzero;stroke:#382d5e;stroke-width:0.00624697;stroke-linecap:butt;stroke-linejoin:miter;stroke-miterlimit:4;stroke-dasharray:none"
         inkscape:connector-curvature="0"
         id="path62"
         stroke-miterlimit="4"
         d="m 3.0041662,-0.23004719 -0.059221,0.14280566 c 0,0 -0.076226,0.1449671 0.022089,0.34172156 0,0 0.063619,0.15088923 0.2759035,0.21384616 0.158473,0.0470397 0.2084737,0.0222267 0.2136337,0.0662179 0.00515,0.0439412 -0.1383328,0.086533 -0.1869842,0.0940168 C 3.2209235,0.63606974 3.1090028,0.6439784 3.0050158,0.6176037 2.9010288,0.59122901 2.834786,0.56861499 2.8001778,0.55579622 2.7654197,0.54296495 2.5635177,0.45095962 2.4784215,0.43589194 2.3932129,0.42082426 2.2637008,0.39291281 2.0572385,0.47056261 1.8508138,0.54826238 1.8681554,0.56031902 1.6307331,0.65833393 1.3934983,0.75634883 1.1840251,0.81629472 1.1459311,0.82311641 1.1078745,0.82997558 0.98873239,0.85541323 0.94762735,0.76349536 0.90668473,0.67158999 0.98773287,0.60613427 1.087322,0.47416086 1.1869861,0.34219994 1.2631366,0.30205693 1.2993441,0.11733413 c 0,0 0.016579,-0.0840342 0.016579,-0.24339431 0,0 -0.00127,-0.0155425 0.015655,-0.0155425 h 0.072515 c 0,0 0.041955,0.002924 0.041955,-0.0602957 v -0.56490069 c 0,0 0.00119,-0.044166 -0.049001,-0.044166 h -0.065131 c 0,0 -0.019728,0.001699 -0.019728,-0.0197779 0,-0.0214146 -7.49e-5,-0.31824553 0.4519805,-0.30254063 0.3945335,0.013718 0.5544308,0.30229075 1.1542895,0.22922623 0,0 0.1266635,-0.017454 0.1764019,-0.0342209 0.049763,-0.0167669 0.1177803,-0.0364948 0.1528258,0.0147803 0.035008,0.0513126 0.0054,0.0947415 -0.045878,0.20427581 z" />
    </g>
    <g
       id="g68"
       clip-path="url(#b)">
      <path
         style="fill:#c84449;fill-rule:nonzero"
         inkscape:connector-curvature="0"
         id="path66"
         d="m 7.0332972,-0.67316952 -3.4823465,-0.044266 c 0,0 -0.5770323,-0.002561 -0.6079798,-0.002561 -0.030935,0 -0.069216,-0.007446 -0.069216,0.24460623 0,0.25204011 0.043092,0.25054084 0.069554,0.25054084 0,0 3.5223521,-0.0532991 4.0878775,-0.060833 z" />
    </g>
    <g
       id="g72"
       clip-path="url(#b)">
      <path
         style="fill:none;fill-rule:nonzero;stroke:#382d5e;stroke-width:0.00624697;stroke-linecap:butt;stroke-linejoin:miter;stroke-miterlimit:4;stroke-dasharray:none"
         inkscape:connector-curvature="0"
         id="path70"
         stroke-miterlimit="4"
         d="m 7.0332972,-0.67316952 -3.4823465,-0.044266 c 0,0 -0.5770323,-0.002561 -0.6079798,-0.002561 -0.030935,0 -0.069216,-0.007446 -0.069216,0.24460623 0,0.25204011 0.043092,0.25054084 0.069554,0.25054084 0,0 3.5223521,-0.0532991 4.0878775,-0.060833 z" />
    </g>
    <g
       id="g76"
       clip-path="url(#b)">
      <path
         style="fill:#c84449;fill-rule:nonzero"
         inkscape:connector-curvature="0"
         id="path74"
         d="m 4.9116525,-0.26679185 c 0,0.0134185 0.00995,0.0126564 0.00995,0.0126564 h 0.00793 c 0.0089,0 0.00816,-0.0127813 0.00816,-0.0127813 l -1.124e-4,-0.41952128 c 0,0 6.996e-4,-0.0128063 -0.0083,-0.0128063 h -0.00793 c 0,0 -0.00981,-7.7463e-4 -0.00981,0.0126938 z" />
    </g>
    <g
       id="g80"
       clip-path="url(#b)">
      <path
         style="fill:none;fill-rule:nonzero;stroke:#382d5e;stroke-width:0.00624697;stroke-linecap:butt;stroke-linejoin:miter;stroke-miterlimit:4;stroke-dasharray:none"
         inkscape:connector-curvature="0"
         id="path78"
         stroke-miterlimit="4"
         d="m 4.9116525,-0.26679185 c 0,0.0134185 0.00995,0.0126564 0.00995,0.0126564 h 0.00793 c 0.0089,0 0.00816,-0.0127813 0.00816,-0.0127813 l -1.124e-4,-0.41952128 c 0,0 6.996e-4,-0.0128063 -0.0083,-0.0128063 h -0.00793 c 0,0 -0.00981,-7.7463e-4 -0.00981,0.0126938 z" />
    </g>
    <g
       id="g84"
       clip-path="url(#b)">
      <path
         style="fill:#c84449;fill-rule:nonzero"
         inkscape:connector-curvature="0"
         id="path82"
         d="m 4.7112873,-0.26679185 c 0,0.0134185 0.00993,0.0126564 0.00993,0.0126564 h 0.00792 c 0.00888,0 0.0083,-0.0127813 0.0083,-0.0127813 l -2.249e-4,-0.41952128 c 0,0 6.996e-4,-0.0128063 -0.00817,-0.0128063 h -0.00793 c 0,0 -0.00993,-7.7463e-4 -0.00993,0.0126938 z" />
    </g>
    <g
       id="g88"
       clip-path="url(#b)">
      <path
         style="fill:none;fill-rule:nonzero;stroke:#382d5e;stroke-width:0.00624697;stroke-linecap:butt;stroke-linejoin:miter;stroke-miterlimit:4;stroke-dasharray:none"
         inkscape:connector-curvature="0"
         id="path86"
         stroke-miterlimit="4"
         d="m 4.7112873,-0.26679185 c 0,0.0134185 0.00993,0.0126564 0.00993,0.0126564 h 0.00792 c 0.00888,0 0.0083,-0.0127813 0.0083,-0.0127813 l -2.249e-4,-0.41952128 c 0,0 6.996e-4,-0.0128063 -0.00817,-0.0128063 h -0.00793 c 0,0 -0.00993,-7.7463e-4 -0.00993,0.0126938 z" />
    </g>
    <g
       id="g92"
       clip-path="url(#b)">
      <path
         style="fill:#c84449;fill-rule:nonzero"
         inkscape:connector-curvature="0"
         id="path90"
         d="m 4.5230162,-0.26193171 c 0,0.013456 0.00991,0.0126938 0.00991,0.0126938 h 0.00793 c 0.00888,0 0.0082,-0.0128313 0.0082,-0.0128313 l -1.124e-4,-0.42967885 c 0,0 6.872e-4,-0.0128188 -0.0083,-0.0128188 h -0.00783 c 0,0 -0.00995,-7.3714e-4 -0.00995,0.0126813 z" />
    </g>
    <g
       id="g96"
       clip-path="url(#b)">
      <path
         style="fill:none;fill-rule:nonzero;stroke:#382d5e;stroke-width:0.00624697;stroke-linecap:butt;stroke-linejoin:miter;stroke-miterlimit:4;stroke-dasharray:none"
         inkscape:connector-curvature="0"
         id="path94"
         stroke-miterlimit="4"
         d="m 4.5230162,-0.26193171 c 0,0.013456 0.00991,0.0126938 0.00991,0.0126938 h 0.00793 c 0.00888,0 0.0082,-0.0128313 0.0082,-0.0128313 l -1.124e-4,-0.42967885 c 0,0 6.872e-4,-0.0128188 -0.0083,-0.0128188 h -0.00783 c 0,0 -0.00995,-7.3714e-4 -0.00995,0.0126813 z" />
    </g>
    <g
       id="g100"
       clip-path="url(#b)">
      <path
         style="fill:#c84449;fill-rule:nonzero"
         inkscape:connector-curvature="0"
         id="path98"
         d="m 4.3467768,-0.25974527 c 0,0.013456 0.00982,0.0126938 0.00982,0.0126938 h 0.00793 c 0.00898,0 0.00828,-0.0128188 0.00828,-0.0128188 l -2.499e-4,-0.43318965 c 0,0 7.247e-4,-0.0128188 -0.00815,-0.0128188 h -0.00793 c 0,0 -0.00993,-7.7463e-4 -0.00993,0.0126813 z" />
    </g>
    <g
       id="g104"
       clip-path="url(#b)">
      <path
         style="fill:none;fill-rule:nonzero;stroke:#382d5e;stroke-width:0.00624697;stroke-linecap:butt;stroke-linejoin:miter;stroke-miterlimit:4;stroke-dasharray:none"
         inkscape:connector-curvature="0"
         id="path102"
         stroke-miterlimit="4"
         d="m 4.3467768,-0.25974527 c 0,0.013456 0.00982,0.0126938 0.00982,0.0126938 h 0.00793 c 0.00898,0 0.00828,-0.0128188 0.00828,-0.0128188 l -2.499e-4,-0.43318965 c 0,0 7.247e-4,-0.0128188 -0.00815,-0.0128188 h -0.00793 c 0,0 -0.00993,-7.7463e-4 -0.00993,0.0126813 z" />
    </g>
    <g
       id="g108"
       clip-path="url(#b)">
      <path
         style="fill:#c84449;fill-rule:nonzero"
         inkscape:connector-curvature="0"
         id="path106"
         d="m 4.177334,-0.25665927 c 0,0.0135059 0.00995,0.0127313 0.00995,0.0127313 h 0.00793 c 0.009,0 0.0083,-0.0128063 0.0083,-0.0128063 l -9.99e-5,-0.43897434 c 0,0 6.996e-4,-0.0128313 -0.00831,-0.0128313 h -0.00797 c 0,0 -0.0098,-7.6213e-4 -0.0098,0.0126938 z" />
    </g>
    <g
       id="g112"
       clip-path="url(#b)">
      <path
         style="fill:none;fill-rule:nonzero;stroke:#382d5e;stroke-width:0.00624697;stroke-linecap:butt;stroke-linejoin:miter;stroke-miterlimit:4;stroke-dasharray:none"
         inkscape:connector-curvature="0"
         id="path110"
         stroke-miterlimit="4"
         d="m 4.177334,-0.25665927 c 0,0.0135059 0.00995,0.0127313 0.00995,0.0127313 h 0.00793 c 0.009,0 0.0083,-0.0128063 0.0083,-0.0128063 l -9.99e-5,-0.43897434 c 0,0 6.996e-4,-0.0128313 -0.00831,-0.0128313 h -0.00797 c 0,0 -0.0098,-7.6213e-4 -0.0098,0.0126938 z" />
    </g>
    <g
       id="g116"
       clip-path="url(#b)">
      <path
         style="fill:#c84449;fill-rule:nonzero"
         inkscape:connector-curvature="0"
         id="path114"
         d="m 4.0191109,-0.2543229 c 0,0.0134185 0.00982,0.0126938 0.00982,0.0126938 h 0.00793 c 0.00898,0 0.00828,-0.0128188 0.00828,-0.0128188 l -2.498e-4,-0.4435846 c 0,0 7.246e-4,-0.0127688 -0.00815,-0.0127688 h -0.00793 c 0,0 -0.00993,-7.7463e-4 -0.00993,0.0126938 z" />
    </g>
    <g
       id="g120"
       clip-path="url(#b)">
      <path
         style="fill:none;fill-rule:nonzero;stroke:#382d5e;stroke-width:0.00624697;stroke-linecap:butt;stroke-linejoin:miter;stroke-miterlimit:4;stroke-dasharray:none"
         inkscape:connector-curvature="0"
         id="path118"
         stroke-miterlimit="4"
         d="m 4.0191109,-0.2543229 c 0,0.0134185 0.00982,0.0126938 0.00982,0.0126938 h 0.00793 c 0.00898,0 0.00828,-0.0128188 0.00828,-0.0128188 l -2.498e-4,-0.4435846 c 0,0 7.246e-4,-0.0127688 -0.00815,-0.0127688 h -0.00793 c 0,0 -0.00993,-7.7463e-4 -0.00993,0.0126938 z" />
    </g>
    <g
       id="g124"
       clip-path="url(#b)">
      <path
         style="fill:#c84449;fill-rule:nonzero"
         inkscape:connector-curvature="0"
         id="path122"
         d="m 3.8686964,-0.25137433 c 0,0.0133935 0.00981,0.0126688 0.00981,0.0126688 h 0.00793 c 0.00913,0 0.0083,-0.0128063 0.0083,-0.0128063 l -1.125e-4,-0.4491444 c 0,0 6.997e-4,-0.0127688 -0.00818,-0.0127688 h -0.00793 c 0,0 -0.00996,-7.7462e-4 -0.00996,0.0126813 z" />
    </g>
    <g
       id="g128"
       clip-path="url(#b)">
      <path
         style="fill:none;fill-rule:nonzero;stroke:#382d5e;stroke-width:0.00624697;stroke-linecap:butt;stroke-linejoin:miter;stroke-miterlimit:4;stroke-dasharray:none"
         inkscape:connector-curvature="0"
         id="path126"
         stroke-miterlimit="4"
         d="m 3.8686964,-0.25137433 c 0,0.0133935 0.00981,0.0126688 0.00981,0.0126688 h 0.00793 c 0.00913,0 0.0083,-0.0128063 0.0083,-0.0128063 l -1.125e-4,-0.4491444 c 0,0 6.997e-4,-0.0127688 -0.00818,-0.0127688 h -0.00793 c 0,0 -0.00996,-7.7462e-4 -0.00996,0.0126813 z" />
    </g>
    <g
       id="g132"
       clip-path="url(#b)">
      <path
         style="fill:#c84449;fill-rule:nonzero"
         inkscape:connector-curvature="0"
         id="path130"
         d="m 3.7256284,-0.24960019 c 0,0.013406 0.00982,0.0126688 0.00982,0.0126688 h 0.00793 c 0.00898,0 0.00828,-0.0128063 0.00828,-0.0128063 L 3.751521,-0.70221797 c 0,0 7.247e-4,-0.0128188 -0.00826,-0.0128188 h -0.00782 c 0,0 -0.010033,-7.6213e-4 -0.010033,0.0127313 z" />
    </g>
    <g
       id="g136"
       clip-path="url(#b)">
      <path
         style="fill:none;fill-rule:nonzero;stroke:#382d5e;stroke-width:0.00624697;stroke-linecap:butt;stroke-linejoin:miter;stroke-miterlimit:4;stroke-dasharray:none"
         inkscape:connector-curvature="0"
         id="path134"
         stroke-miterlimit="4"
         d="m 3.7256284,-0.24960019 c 0,0.013406 0.00982,0.0126688 0.00982,0.0126688 h 0.00793 c 0.00898,0 0.00828,-0.0128063 0.00828,-0.0128063 L 3.751521,-0.70221797 c 0,0 7.247e-4,-0.0128188 -0.00826,-0.0128188 h -0.00782 c 0,0 -0.010033,-7.6213e-4 -0.010033,0.0127313 z" />
    </g>
    <g
       id="g140"
       clip-path="url(#b)">
      <path
         style="fill:#c84449;fill-rule:nonzero"
         inkscape:connector-curvature="0"
         id="path138"
         d="m 3.5918808,-0.2473263 c 0,0.0134435 0.00995,0.0126813 0.00995,0.0126813 h 0.00795 c 0.00885,0 0.00816,-0.0128063 0.00816,-0.0128063 v -0.45645335 c 0,0 6.872e-4,-0.0128063 -0.00827,-0.0128063 h -0.00808 c 0,0 -0.00981,-7.7463e-4 -0.00981,0.0127188 z" />
    </g>
    <g
       id="g144"
       clip-path="url(#b)">
      <path
         style="fill:none;fill-rule:nonzero;stroke:#382d5e;stroke-width:0.00624697;stroke-linecap:butt;stroke-linejoin:miter;stroke-miterlimit:4;stroke-dasharray:none"
         inkscape:connector-curvature="0"
         id="path142"
         stroke-miterlimit="4"
         d="m 3.5918808,-0.2473263 c 0,0.0134435 0.00995,0.0126813 0.00995,0.0126813 h 0.00795 c 0.00885,0 0.00816,-0.0128063 0.00816,-0.0128063 v -0.45645335 c 0,0 6.872e-4,-0.0128063 -0.00827,-0.0128063 h -0.00808 c 0,0 -0.00981,-7.7463e-4 -0.00981,0.0127188 z" />
    </g>
    <g
       id="g148"
       clip-path="url(#b)">
      <path
         style="fill:#c84449;fill-rule:nonzero"
         inkscape:connector-curvature="0"
         id="path146"
         d="m 3.4655297,-0.2454647 c 0,0.0134435 0.00991,0.0126813 0.00991,0.0126813 h 0.00797 c 0.00885,0 0.00816,-0.0128188 0.00816,-0.0128188 l -1.124e-4,-0.45893964 c 0,0 6.997e-4,-0.0128063 -0.0083,-0.0128063 h -0.00782 c 0,0 -0.00996,-7.7463e-4 -0.00996,0.0126688 z" />
    </g>
    <g
       id="g152"
       clip-path="url(#b)">
      <path
         style="fill:none;fill-rule:nonzero;stroke:#382d5e;stroke-width:0.00624697;stroke-linecap:butt;stroke-linejoin:miter;stroke-miterlimit:4;stroke-dasharray:none"
         inkscape:connector-curvature="0"
         id="path150"
         stroke-miterlimit="4"
         d="m 3.4655297,-0.2454647 c 0,0.0134435 0.00991,0.0126813 0.00991,0.0126813 h 0.00797 c 0.00885,0 0.00816,-0.0128188 0.00816,-0.0128188 l -1.124e-4,-0.45893964 c 0,0 6.997e-4,-0.0128063 -0.0083,-0.0128063 h -0.00782 c 0,0 -0.00996,-7.7463e-4 -0.00996,0.0126688 z" />
    </g>
    <g
       id="g156"
       clip-path="url(#b)">
      <path
         style="fill:#c84449;fill-rule:nonzero"
         inkscape:connector-curvature="0"
         id="path154"
         d="m 3.3493361,-0.24369056 c 0,0.0134435 0.00981,0.0126813 0.00981,0.0126813 h 0.00797 c 0.009,0 0.00827,-0.0127563 0.00827,-0.0127563 l -1.125e-4,-0.46077625 c 0,0 6.997e-4,-0.0127938 -0.00831,-0.0127938 h -0.00793 c 0,0 -0.00981,-7.8712e-4 -0.00981,0.0126689 z" />
    </g>
    <g
       id="g160"
       clip-path="url(#b)">
      <path
         style="fill:none;fill-rule:nonzero;stroke:#382d5e;stroke-width:0.00624697;stroke-linecap:butt;stroke-linejoin:miter;stroke-miterlimit:4;stroke-dasharray:none"
         inkscape:connector-curvature="0"
         id="path158"
         stroke-miterlimit="4"
         d="m 3.3493361,-0.24369056 c 0,0.0134435 0.00981,0.0126813 0.00981,0.0126813 h 0.00797 c 0.009,0 0.00827,-0.0127563 0.00827,-0.0127563 l -1.125e-4,-0.46077625 c 0,0 6.997e-4,-0.0127938 -0.00831,-0.0127938 h -0.00793 c 0,0 -0.00981,-7.8712e-4 -0.00981,0.0126689 z" />
    </g>
    <g
       id="g164"
       clip-path="url(#b)">
      <path
         style="fill:#c84449;fill-rule:nonzero"
         inkscape:connector-curvature="0"
         id="path162"
         d="m 3.2336173,-0.24187894 c 0,0.013431 0.0099,0.0126688 0.0099,0.0126688 h 0.00793 c 0.00898,0 0.00828,-0.0128063 0.00828,-0.0128063 l -2.124e-4,-0.45893964 c 0,0 6.872e-4,-0.0128188 -0.00818,-0.0128188 h -0.00792 c 0,0 -0.00995,-7.6213e-4 -0.00995,0.0127313 z" />
    </g>
    <g
       id="g168"
       clip-path="url(#b)">
      <path
         style="fill:none;fill-rule:nonzero;stroke:#382d5e;stroke-width:0.00624697;stroke-linecap:butt;stroke-linejoin:miter;stroke-miterlimit:4;stroke-dasharray:none"
         inkscape:connector-curvature="0"
         id="path166"
         stroke-miterlimit="4"
         d="m 3.2336173,-0.24187894 c 0,0.013431 0.0099,0.0126688 0.0099,0.0126688 h 0.00793 c 0.00898,0 0.00828,-0.0128063 0.00828,-0.0128063 l -2.124e-4,-0.45893964 c 0,0 6.872e-4,-0.0128188 -0.00818,-0.0128188 h -0.00792 c 0,0 -0.00995,-7.6213e-4 -0.00995,0.0127313 z" />
    </g>
    <g
       id="g172"
       clip-path="url(#b)">
      <path
         style="fill:#c84449;fill-rule:nonzero"
         inkscape:connector-curvature="0"
         id="path170"
         d="m 3.1305424,-0.24065454 c 0,0.0134435 0.0098,0.0126813 0.0098,0.0126813 h 0.00792 c 0.00898,0 0.0083,-0.0128063 0.0083,-0.0128063 L 3.1563298,-0.7059411 c 0,0 6.997e-4,-0.0127938 -0.00818,-0.0127938 h -0.00792 c 0,0 -0.00993,-7.7462e-4 -0.00993,0.0126689 z" />
    </g>
    <g
       id="g176"
       clip-path="url(#b)">
      <path
         style="fill:none;fill-rule:nonzero;stroke:#382d5e;stroke-width:0.00624697;stroke-linecap:butt;stroke-linejoin:miter;stroke-miterlimit:4;stroke-dasharray:none"
         inkscape:connector-curvature="0"
         id="path174"
         stroke-miterlimit="4"
         d="m 3.1305424,-0.24065454 c 0,0.0134435 0.0098,0.0126813 0.0098,0.0126813 h 0.00792 c 0.00898,0 0.0083,-0.0128063 0.0083,-0.0128063 L 3.1563298,-0.7059411 c 0,0 6.997e-4,-0.0127938 -0.00818,-0.0127938 h -0.00792 c 0,0 -0.00993,-7.7462e-4 -0.00993,0.0126689 z" />
    </g>
    <g
       id="g180"
       clip-path="url(#b)">
      <path
         style="fill:#c84449;fill-rule:nonzero"
         inkscape:connector-curvature="0"
         id="path178"
         d="m 3.0264804,-0.23870548 c 0,0.0134435 0.00995,0.0126688 0.00995,0.0126688 h 0.00793 c 0.00888,0 0.0082,-0.0127938 0.0082,-0.0127938 L 3.0524053,-0.7059411 c 0,0 7.246e-4,-0.0127813 -0.00827,-0.0127813 h -0.00782 c 0,0 -0.00995,-7.7462e-4 -0.00995,0.0126688 z" />
    </g>
    <g
       id="g184"
       clip-path="url(#b)">
      <path
         style="fill:none;fill-rule:nonzero;stroke:#382d5e;stroke-width:0.00624697;stroke-linecap:butt;stroke-linejoin:miter;stroke-miterlimit:4;stroke-dasharray:none"
         inkscape:connector-curvature="0"
         id="path182"
         stroke-miterlimit="4"
         d="m 3.0264804,-0.23870548 c 0,0.0134435 0.00995,0.0126688 0.00995,0.0126688 h 0.00793 c 0.00888,0 0.0082,-0.0127938 0.0082,-0.0127938 L 3.0524053,-0.7059411 c 0,0 7.246e-4,-0.0127813 -0.00827,-0.0127813 h -0.00782 c 0,0 -0.00995,-7.7462e-4 -0.00995,0.0126688 z" />
    </g>
    <g
       id="g188"
       clip-path="url(#b)">
      <path
         style="fill:#c84449;fill-rule:nonzero"
         inkscape:connector-curvature="0"
         id="path186"
         d="m 2.9286779,-0.23870548 c 0,0.0134435 0.00992,0.0126688 0.00992,0.0126688 h 0.00797 c 0.00896,0 0.00826,-0.0127938 0.00826,-0.0127938 L 2.9547152,-0.7059411 c 0,0 6.997e-4,-0.0127813 -0.0083,-0.0127813 h -0.00793 c 0,0 -0.00981,-7.7462e-4 -0.00981,0.0126688 z" />
    </g>
    <g
       id="g192"
       clip-path="url(#b)">
      <path
         style="fill:none;fill-rule:nonzero;stroke:#382d5e;stroke-width:0.00624697;stroke-linecap:butt;stroke-linejoin:miter;stroke-miterlimit:4;stroke-dasharray:none"
         inkscape:connector-curvature="0"
         id="path190"
         stroke-miterlimit="4"
         d="m 2.9286779,-0.23870548 c 0,0.0134435 0.00992,0.0126688 0.00992,0.0126688 h 0.00797 c 0.00896,0 0.00826,-0.0127938 0.00826,-0.0127938 L 2.9547152,-0.7059411 c 0,0 6.997e-4,-0.0127813 -0.0083,-0.0127813 h -0.00793 c 0,0 -0.00981,-7.7462e-4 -0.00981,0.0126688 z" />
    </g>
    <g
       id="g196"
       clip-path="url(#b)">
      <path
         style="fill:#c84449;fill-rule:nonzero"
         inkscape:connector-curvature="0"
         id="path194"
         d="m 3.0913364,-0.44732918 c -0.011324,2.2633e-4 -0.021886,-0.005685 -0.027614,-0.015456 -0.00573,-0.009771 -0.00573,-0.0218744 0,-0.0316451 0.00573,-0.009771 0.01629,-0.0156823 0.027614,-0.015456 0.00831,-2.329e-5 0.016287,0.003266 0.022165,0.00914 0.00588,0.005874 0.00917,0.0138478 0.00916,0.0221578 1.33e-5,0.008306 -0.00328,0.0162738 -0.00916,0.0221409 -0.00588,0.005867 -0.013854,0.009149 -0.022159,0.009119" />
    </g>
    <g
       id="g200"
       clip-path="url(#b)">
      <path
         style="fill:none;fill-rule:nonzero;stroke:#382d5e;stroke-width:0.00624697;stroke-linecap:butt;stroke-linejoin:miter;stroke-miterlimit:4;stroke-dasharray:none"
         inkscape:connector-curvature="0"
         id="path198"
         stroke-miterlimit="4"
         d="m 3.0913364,-0.44732918 c -0.011324,2.2633e-4 -0.021886,-0.005685 -0.027614,-0.015456 -0.00573,-0.009771 -0.00573,-0.0218744 0,-0.0316451 0.00573,-0.009771 0.01629,-0.0156823 0.027614,-0.015456 0.00831,-2.329e-5 0.016287,0.003266 0.022165,0.00914 0.00588,0.005874 0.00917,0.0138478 0.00916,0.0221578 1.33e-5,0.008306 -0.00328,0.0162738 -0.00916,0.0221409 -0.00588,0.005867 -0.013854,0.009149 -0.022159,0.009119 z" />
    </g>
    <g
       id="g204"
       clip-path="url(#b)">
      <path
         style="fill:#c84449;fill-rule:nonzero"
         inkscape:connector-curvature="0"
         id="path202"
         d="m 3.3037707,-0.44732918 c -0.011324,2.2633e-4 -0.021885,-0.005685 -0.027614,-0.015456 -0.00573,-0.009771 -0.00573,-0.0218744 0,-0.0316451 0.00573,-0.009771 0.01629,-0.0156823 0.027614,-0.015456 0.00829,-5e-8 0.016242,0.003301 0.022095,0.009173 0.00585,0.005872 0.00913,0.0138331 0.0091,0.0221245 1.99e-5,0.008286 -0.00326,0.016239 -0.00911,0.0221039 -0.00585,0.005865 -0.0138,0.009159 -0.022086,0.009156" />
    </g>
    <g
       id="g208"
       clip-path="url(#b)">
      <path
         style="fill:none;fill-rule:nonzero;stroke:#382d5e;stroke-width:0.00624697;stroke-linecap:butt;stroke-linejoin:miter;stroke-miterlimit:4;stroke-dasharray:none"
         inkscape:connector-curvature="0"
         id="path206"
         stroke-miterlimit="4"
         d="m 3.3037707,-0.44732918 c -0.011324,2.2633e-4 -0.021885,-0.005685 -0.027614,-0.015456 -0.00573,-0.009771 -0.00573,-0.0218744 0,-0.0316451 0.00573,-0.009771 0.01629,-0.0156823 0.027614,-0.015456 0.00829,-5e-8 0.016242,0.003301 0.022095,0.009173 0.00585,0.005872 0.00913,0.0138331 0.0091,0.0221245 1.99e-5,0.008286 -0.00326,0.016239 -0.00911,0.0221039 -0.00585,0.005865 -0.0138,0.009159 -0.022086,0.009156 z" />
    </g>
    <g
       id="g212"
       clip-path="url(#b)">
      <path
         style="fill:#c84449;fill-rule:nonzero"
         inkscape:connector-curvature="0"
         id="path210"
         d="m 3.543092,-0.44732918 c -0.00829,3.34e-6 -0.016233,-0.003291 -0.022086,-0.009156 -0.00585,-0.005865 -0.00913,-0.013818 -0.00911,-0.0221039 -2.66e-5,-0.008291 0.00325,-0.0162522 0.0091,-0.0221245 0.00585,-0.005872 0.013804,-0.009173 0.022095,-0.009173 0.011324,-2.2633e-4 0.021886,0.005685 0.027614,0.015456 0.00573,0.009771 0.00573,0.0218744 0,0.0316451 -0.00573,0.009771 -0.01629,0.0156824 -0.027614,0.015456" />
    </g>
    <g
       id="g216"
       clip-path="url(#b)">
      <path
         style="fill:none;fill-rule:nonzero;stroke:#382d5e;stroke-width:0.00624697;stroke-linecap:butt;stroke-linejoin:miter;stroke-miterlimit:4;stroke-dasharray:none"
         inkscape:connector-curvature="0"
         id="path214"
         stroke-miterlimit="4"
         d="m 3.543092,-0.44732918 c -0.00829,3.34e-6 -0.016233,-0.003291 -0.022086,-0.009156 -0.00585,-0.005865 -0.00913,-0.013818 -0.00911,-0.0221039 -2.66e-5,-0.008291 0.00325,-0.0162522 0.0091,-0.0221245 0.00585,-0.005872 0.013804,-0.009173 0.022095,-0.009173 0.011324,-2.2633e-4 0.021886,0.005685 0.027614,0.015456 0.00573,0.009771 0.00573,0.0218744 0,0.0316451 -0.00573,0.009771 -0.01629,0.0156824 -0.027614,0.015456 z" />
    </g>
    <g
       id="g220"
       clip-path="url(#b)">
      <path
         style="fill:#c84449;fill-rule:nonzero"
         inkscape:connector-curvature="0"
         id="path218"
         d="m 3.8105247,-0.44732918 c -0.00829,6.67e-6 -0.016238,-0.003286 -0.022094,-0.009151 -0.00586,-0.005865 -0.00914,-0.0138203 -0.00912,-0.0221084 -2.32e-5,-0.008293 0.00325,-0.0162533 0.00911,-0.0221253 0.00586,-0.005872 0.013807,-0.009172 0.0221,-0.009172 0.011324,-2.2633e-4 0.021885,0.005685 0.027614,0.015456 0.00573,0.009771 0.00573,0.0218744 0,0.0316451 -0.00573,0.009771 -0.01629,0.0156824 -0.027614,0.015456" />
    </g>
    <g
       id="g224"
       clip-path="url(#b)">
      <path
         style="fill:none;fill-rule:nonzero;stroke:#382d5e;stroke-width:0.00624697;stroke-linecap:butt;stroke-linejoin:miter;stroke-miterlimit:4;stroke-dasharray:none"
         inkscape:connector-curvature="0"
         id="path222"
         stroke-miterlimit="4"
         d="m 3.8105247,-0.44732918 c -0.00829,6.67e-6 -0.016238,-0.003286 -0.022094,-0.009151 -0.00586,-0.005865 -0.00914,-0.0138203 -0.00912,-0.0221084 -2.32e-5,-0.008293 0.00325,-0.0162533 0.00911,-0.0221253 0.00586,-0.005872 0.013807,-0.009172 0.0221,-0.009172 0.011324,-2.2633e-4 0.021885,0.005685 0.027614,0.015456 0.00573,0.009771 0.00573,0.0218744 0,0.0316451 -0.00573,0.009771 -0.01629,0.0156824 -0.027614,0.015456 z" />
    </g>
    <g
       id="g228"
       clip-path="url(#b)">
      <path
         style="fill:#c84449;fill-rule:nonzero"
         inkscape:connector-curvature="0"
         id="path226"
         d="m 4.8262564,-0.44732918 c -0.011324,2.2633e-4 -0.021885,-0.005685 -0.027614,-0.015456 -0.00573,-0.009771 -0.00573,-0.0218744 0,-0.0316451 0.00573,-0.009771 0.01629,-0.0156823 0.027614,-0.015456 0.0083,-3.32e-6 0.016269,0.003292 0.022143,0.009162 0.00587,0.005869 0.00918,0.0138318 0.00918,0.0221357 -2.07e-5,0.0172801 -0.014042,0.0312736 -0.031322,0.0312598" />
    </g>
    <g
       id="g232"
       clip-path="url(#b)">
      <path
         style="fill:none;fill-rule:nonzero;stroke:#382d5e;stroke-width:0.00624697;stroke-linecap:butt;stroke-linejoin:miter;stroke-miterlimit:4;stroke-dasharray:none"
         inkscape:connector-curvature="0"
         id="path230"
         stroke-miterlimit="4"
         d="m 4.8262564,-0.44732918 c -0.011324,2.2633e-4 -0.021885,-0.005685 -0.027614,-0.015456 -0.00573,-0.009771 -0.00573,-0.0218744 0,-0.0316451 0.00573,-0.009771 0.01629,-0.0156823 0.027614,-0.015456 0.0083,-3.32e-6 0.016269,0.003292 0.022143,0.009162 0.00587,0.005869 0.00918,0.0138318 0.00918,0.0221357 -2.07e-5,0.0172801 -0.014042,0.0312736 -0.031322,0.0312598 z" />
    </g>
    <g
       id="g236"
       clip-path="url(#b)">
      <path
         style="fill:#c84449;fill-rule:nonzero"
         inkscape:connector-curvature="0"
         id="path234"
         d="m 4.2743494,-0.34920183 c -0.01266,-1.012e-5 -0.024066,-0.007646 -0.028901,-0.0193463 -0.00483,-0.0117004 -0.00214,-0.0251608 0.00682,-0.0341036 0.00896,-0.008943 0.022426,-0.0116066 0.034117,-0.006749 0.011691,0.004857 0.019304,0.0162795 0.019289,0.0289392 -3.3e-6,0.0083 -0.00331,0.016259 -0.00918,0.0221225 -0.00588,0.005863 -0.01384,0.009151 -0.022141,0.009137" />
    </g>
    <g
       id="g240"
       clip-path="url(#b)">
      <path
         style="fill:none;fill-rule:nonzero;stroke:#382d5e;stroke-width:0.00624697;stroke-linecap:butt;stroke-linejoin:miter;stroke-miterlimit:4;stroke-dasharray:none"
         inkscape:connector-curvature="0"
         id="path238"
         stroke-miterlimit="4"
         d="m 4.2743494,-0.34920183 c -0.01266,-1.012e-5 -0.024066,-0.007646 -0.028901,-0.0193463 -0.00483,-0.0117004 -0.00214,-0.0251608 0.00682,-0.0341036 0.00896,-0.008943 0.022426,-0.0116066 0.034117,-0.006749 0.011691,0.004857 0.019304,0.0162795 0.019289,0.0289392 -3.3e-6,0.0083 -0.00331,0.016259 -0.00918,0.0221225 -0.00588,0.005863 -0.01384,0.009151 -0.022141,0.009137 z" />
    </g>
    <g
       id="g244"
       clip-path="url(#b)">
      <path
         style="fill:#c84449;fill-rule:nonzero"
         inkscape:connector-curvature="0"
         id="path242"
         d="m 4.2743494,-0.54390728 c -0.011179,0 -0.021509,-0.005964 -0.027099,-0.0156455 -0.00559,-0.009681 -0.00559,-0.0216096 0,-0.0312911 0.00559,-0.009681 0.01592,-0.0156455 0.027099,-0.0156455 0.011179,0 0.021509,0.005964 0.027099,0.0156455 0.00559,0.009681 0.00559,0.0216096 0,0.0312911 -0.00559,0.009681 -0.01592,0.0156455 -0.027099,0.0156455" />
    </g>
    <g
       id="g248"
       clip-path="url(#b)">
      <path
         style="fill:none;fill-rule:nonzero;stroke:#382d5e;stroke-width:0.00624697;stroke-linecap:butt;stroke-linejoin:miter;stroke-miterlimit:4;stroke-dasharray:none"
         inkscape:connector-curvature="0"
         id="path246"
         stroke-miterlimit="4"
         d="m 4.2743494,-0.54390728 c -0.011179,0 -0.021509,-0.005964 -0.027099,-0.0156455 -0.00559,-0.009681 -0.00559,-0.0216096 0,-0.0312911 0.00559,-0.009681 0.01592,-0.0156455 0.027099,-0.0156455 0.011179,0 0.021509,0.005964 0.027099,0.0156455 0.00559,0.009681 0.00559,0.0216096 0,0.0312911 -0.00559,0.009681 -0.01592,0.0156455 -0.027099,0.0156455 z" />
    </g>
    <g
       id="g252"
       clip-path="url(#b)">
      <path
         style="fill:#c84449;fill-rule:nonzero"
         inkscape:connector-curvature="0"
         id="path250"
         d="m 2.6465774,-0.70644086 c 0,-0.0444284 0.037232,-0.0804609 0.08311,-0.0804609 0.045865,0 0.083097,0.0360325 0.083097,0.0804609 v 0.46285025 c 0,0.0443909 -0.037232,0.080411 -0.083097,0.080411 -0.045878,0 -0.08311,-0.03602 -0.08311,-0.080411 z" />
    </g>
    <g
       id="g256"
       clip-path="url(#b)">
      <path
         style="fill:none;fill-rule:nonzero;stroke:#382d5e;stroke-width:0.00624697;stroke-linecap:butt;stroke-linejoin:miter;stroke-miterlimit:4;stroke-dasharray:none"
         inkscape:connector-curvature="0"
         id="path254"
         stroke-miterlimit="4"
         d="m 2.6465774,-0.70644086 c 0,-0.0444284 0.037232,-0.0804609 0.08311,-0.0804609 0.045865,0 0.083097,0.0360325 0.083097,0.0804609 v 0.46285025 c 0,0.0443909 -0.037232,0.080411 -0.083097,0.080411 -0.045878,0 -0.08311,-0.03602 -0.08311,-0.080411 z" />
    </g>
    <g
       id="g260"
       clip-path="url(#b)">
      <path
         style="fill:#c84449;fill-rule:nonzero"
         inkscape:connector-curvature="0"
         id="path258"
         d="m 2.7296745,-0.67759237 c -0.00771,1.666e-5 -0.015116,-0.003042 -0.020567,-0.008499 -0.00545,-0.005457 -0.0085,-0.0128613 -0.00848,-0.0205749 -1.33e-5,-0.007706 0.00304,-0.0150996 0.00849,-0.0205462 0.00545,-0.005447 0.012848,-0.008497 0.020553,-0.008477 0.016024,6.9e-6 0.029011,0.0129991 0.029011,0.0290234 1.33e-5,0.007704 -0.00304,0.0150971 -0.00848,0.0205505 -0.00544,0.005453 -0.012828,0.00852 -0.020532,0.008523" />
    </g>
    <g
       id="g264"
       clip-path="url(#b)">
      <path
         style="fill:none;fill-rule:nonzero;stroke:#382d5e;stroke-width:0.00624697;stroke-linecap:butt;stroke-linejoin:miter;stroke-miterlimit:4;stroke-dasharray:none"
         inkscape:connector-curvature="0"
         id="path262"
         stroke-miterlimit="4"
         d="m 2.7296745,-0.67759237 c -0.00771,1.666e-5 -0.015116,-0.003042 -0.020567,-0.008499 -0.00545,-0.005457 -0.0085,-0.0128613 -0.00848,-0.0205749 -1.33e-5,-0.007706 0.00304,-0.0150996 0.00849,-0.0205462 0.00545,-0.005447 0.012848,-0.008497 0.020553,-0.008477 0.016024,6.9e-6 0.029011,0.0129991 0.029011,0.0290234 1.33e-5,0.007704 -0.00304,0.0150971 -0.00848,0.0205505 -0.00544,0.005453 -0.012828,0.00852 -0.020532,0.008523 z" />
    </g>
    <g
       id="g268"
       clip-path="url(#b)">
      <path
         style="fill:#c84449;fill-rule:nonzero"
         inkscape:connector-curvature="0"
         id="path266"
         d="m 2.7296745,-0.58563702 c -0.00771,1.332e-5 -0.015113,-0.003046 -0.020564,-0.008502 -0.00545,-0.005456 -0.0085,-0.0128587 -0.00848,-0.0205712 -2.181e-4,-0.0105149 0.00527,-0.0203257 0.014338,-0.0256471 0.00907,-0.005321 0.020311,-0.005321 0.029383,0 0.00907,0.005321 0.014556,0.0151323 0.014338,0.0256471 1.38e-5,0.0160381 -0.012973,0.0290527 -0.029011,0.0290734" />
    </g>
    <g
       id="g272"
       clip-path="url(#b)">
      <path
         style="fill:none;fill-rule:nonzero;stroke:#382d5e;stroke-width:0.00624697;stroke-linecap:butt;stroke-linejoin:miter;stroke-miterlimit:4;stroke-dasharray:none"
         inkscape:connector-curvature="0"
         id="path270"
         stroke-miterlimit="4"
         d="m 2.7296745,-0.58563702 c -0.00771,1.332e-5 -0.015113,-0.003046 -0.020564,-0.008502 -0.00545,-0.005456 -0.0085,-0.0128587 -0.00848,-0.0205712 -2.181e-4,-0.0105149 0.00527,-0.0203257 0.014338,-0.0256471 0.00907,-0.005321 0.020311,-0.005321 0.029383,0 0.00907,0.005321 0.014556,0.0151323 0.014338,0.0256471 1.38e-5,0.0160381 -0.012973,0.0290527 -0.029011,0.0290734 z" />
    </g>
    <g
       id="g276"
       clip-path="url(#b)">
      <path
         style="fill:#c84449;fill-rule:nonzero"
         inkscape:connector-curvature="0"
         id="path274"
         d="m 2.7296745,-0.49563073 c -0.00771,3.33e-6 -0.015104,-0.003059 -0.020553,-0.008513 -0.00545,-0.005454 -0.00851,-0.0128507 -0.0085,-0.0205601 -3.817e-4,-0.0106201 0.00507,-0.0206009 0.014205,-0.0260242 0.00914,-0.005423 0.02051,-0.005423 0.029649,0 0.00914,0.005423 0.014587,0.0154041 0.014205,0.0260242 10e-8,0.0160324 -0.012979,0.0290389 -0.029011,0.0290734" />
    </g>
    <g
       id="g280"
       clip-path="url(#b)">
      <path
         style="fill:none;fill-rule:nonzero;stroke:#382d5e;stroke-width:0.00624697;stroke-linecap:butt;stroke-linejoin:miter;stroke-miterlimit:4;stroke-dasharray:none"
         inkscape:connector-curvature="0"
         id="path278"
         stroke-miterlimit="4"
         d="m 2.7296745,-0.49563073 c -0.00771,3.33e-6 -0.015104,-0.003059 -0.020553,-0.008513 -0.00545,-0.005454 -0.00851,-0.0128507 -0.0085,-0.0205601 -3.817e-4,-0.0106201 0.00507,-0.0206009 0.014205,-0.0260242 0.00914,-0.005423 0.02051,-0.005423 0.029649,0 0.00914,0.005423 0.014587,0.0154041 0.014205,0.0260242 10e-8,0.0160324 -0.012979,0.0290389 -0.029011,0.0290734 z" />
    </g>
    <g
       id="g284"
       clip-path="url(#b)">
      <path
         style="fill:#c84449;fill-rule:nonzero"
         inkscape:connector-curvature="0"
         id="path282"
         d="m 2.7296745,-0.40370037 c -0.00771,1.666e-5 -0.015116,-0.003042 -0.020567,-0.008499 -0.00545,-0.005457 -0.0085,-0.0128613 -0.00848,-0.0205749 0,-0.0160326 0.012997,-0.0290296 0.02903,-0.0290296 0.016033,0 0.02903,0.012997 0.02903,0.0290296 10e-6,0.007703 -0.00304,0.0150942 -0.00848,0.0205469 -0.00544,0.005453 -0.012826,0.00852 -0.020529,0.008527" />
    </g>
    <g
       id="g288"
       clip-path="url(#b)">
      <path
         style="fill:none;fill-rule:nonzero;stroke:#382d5e;stroke-width:0.00624697;stroke-linecap:butt;stroke-linejoin:miter;stroke-miterlimit:4;stroke-dasharray:none"
         inkscape:connector-curvature="0"
         id="path286"
         stroke-miterlimit="4"
         d="m 2.7296745,-0.40370037 c -0.00771,1.666e-5 -0.015116,-0.003042 -0.020567,-0.008499 -0.00545,-0.005457 -0.0085,-0.0128613 -0.00848,-0.0205749 0,-0.0160326 0.012997,-0.0290296 0.02903,-0.0290296 0.016033,0 0.02903,0.012997 0.02903,0.0290296 10e-6,0.007703 -0.00304,0.0150942 -0.00848,0.0205469 -0.00544,0.005453 -0.012826,0.00852 -0.020529,0.008527 z" />
    </g>
    <g
       id="g292"
       clip-path="url(#b)">
      <path
         style="fill:#c84449;fill-rule:nonzero"
         inkscape:connector-curvature="0"
         id="path290"
         d="m 2.7296745,-0.31032071 c -0.00771,2.329e-5 -0.015105,-0.003026 -0.020557,-0.008474 -0.00545,-0.005447 -0.00851,-0.012843 -0.00849,-0.0205499 -1.66e-5,-0.007711 0.00304,-0.0151123 0.00849,-0.0205675 0.00545,-0.005455 0.012849,-0.008516 0.02056,-0.008506 0.015711,4.6086e-4 0.028209,0.0133303 0.028209,0.0290484 0,0.0157181 -0.012497,0.0285875 -0.028209,0.0290484" />
    </g>
    <g
       id="g296"
       clip-path="url(#b)">
      <path
         style="fill:none;fill-rule:nonzero;stroke:#382d5e;stroke-width:0.00624697;stroke-linecap:butt;stroke-linejoin:miter;stroke-miterlimit:4;stroke-dasharray:none"
         inkscape:connector-curvature="0"
         id="path294"
         stroke-miterlimit="4"
         d="m 2.7296745,-0.31032071 c -0.00771,2.329e-5 -0.015105,-0.003026 -0.020557,-0.008474 -0.00545,-0.005447 -0.00851,-0.012843 -0.00849,-0.0205499 -1.66e-5,-0.007711 0.00304,-0.0151123 0.00849,-0.0205675 0.00545,-0.005455 0.012849,-0.008516 0.02056,-0.008506 0.015711,4.6086e-4 0.028209,0.0133303 0.028209,0.0290484 0,0.0157181 -0.012497,0.0285875 -0.028209,0.0290484 z" />
    </g>
    <g
       id="g300"
       clip-path="url(#b)">
      <path
         style="fill:#c84449;fill-rule:nonzero"
         inkscape:connector-curvature="0"
         id="path298"
         d="m 2.7296745,-0.21785311 c -0.00771,1.332e-5 -0.015113,-0.003046 -0.020564,-0.008502 -0.00545,-0.005456 -0.0085,-0.0128587 -0.00848,-0.0205712 -3.817e-4,-0.0106201 0.00507,-0.0206009 0.014205,-0.0260242 0.00914,-0.005423 0.02051,-0.005423 0.029649,0 0.00914,0.005423 0.014587,0.0154041 0.014205,0.0260242 1.38e-5,0.0160381 -0.012973,0.0290527 -0.029011,0.0290734" />
    </g>
    <g
       id="g304"
       clip-path="url(#b)">
      <path
         style="fill:none;fill-rule:nonzero;stroke:#382d5e;stroke-width:0.00624697;stroke-linecap:butt;stroke-linejoin:miter;stroke-miterlimit:4;stroke-dasharray:none"
         inkscape:connector-curvature="0"
         id="path302"
         stroke-miterlimit="4"
         d="m 2.7296745,-0.21785311 c -0.00771,1.332e-5 -0.015113,-0.003046 -0.020564,-0.008502 -0.00545,-0.005456 -0.0085,-0.0128587 -0.00848,-0.0205712 -3.817e-4,-0.0106201 0.00507,-0.0206009 0.014205,-0.0260242 0.00914,-0.005423 0.02051,-0.005423 0.029649,0 0.00914,0.005423 0.014587,0.0154041 0.014205,0.0260242 1.38e-5,0.0160381 -0.012973,0.0290527 -0.029011,0.0290734 z" />
    </g>
    <g
       id="g308"
       clip-path="url(#b)">
      <path
         style="fill:#c84449;fill-rule:nonzero"
         inkscape:connector-curvature="0"
         id="path306"
         d="m 2.1479945,-0.70644086 c 0,-0.0444284 0.037232,-0.0804609 0.083185,-0.0804609 0.045865,0 0.083097,0.0360325 0.083097,0.0804609 v 0.46285025 c 0,0.0443909 -0.037232,0.080411 -0.083097,0.080411 -0.045953,0 -0.083185,-0.03602 -0.083185,-0.080411 z" />
    </g>
    <g
       id="g312"
       clip-path="url(#b)">
      <path
         style="fill:none;fill-rule:nonzero;stroke:#382d5e;stroke-width:0.00624697;stroke-linecap:butt;stroke-linejoin:miter;stroke-miterlimit:4;stroke-dasharray:none"
         inkscape:connector-curvature="0"
         id="path310"
         stroke-miterlimit="4"
         d="m 2.1479945,-0.70644086 c 0,-0.0444284 0.037232,-0.0804609 0.083185,-0.0804609 0.045865,0 0.083097,0.0360325 0.083097,0.0804609 v 0.46285025 c 0,0.0443909 -0.037232,0.080411 -0.083097,0.080411 -0.045953,0 -0.083185,-0.03602 -0.083185,-0.080411 z" />
    </g>
    <g
       id="g316"
       clip-path="url(#b)">
      <path
         style="fill:#c84449;fill-rule:nonzero"
         inkscape:connector-curvature="0"
         id="path314"
         d="m 2.2311791,-0.67759237 c -0.010581,3.1037e-4 -0.020494,-0.005157 -0.025876,-0.0142726 -0.00538,-0.009115 -0.00538,-0.0204362 0,-0.0295515 0.00538,-0.009115 0.015295,-0.014583 0.025876,-0.0142726 0.016043,0 0.029048,0.0130054 0.029048,0.0290484 0,0.016043 -0.013005,0.0290484 -0.029048,0.0290484" />
    </g>
    <g
       id="g320"
       clip-path="url(#b)">
      <path
         style="fill:none;fill-rule:nonzero;stroke:#382d5e;stroke-width:0.00624697;stroke-linecap:butt;stroke-linejoin:miter;stroke-miterlimit:4;stroke-dasharray:none"
         inkscape:connector-curvature="0"
         id="path318"
         stroke-miterlimit="4"
         d="m 2.2311791,-0.67759237 c -0.010581,3.1037e-4 -0.020494,-0.005157 -0.025876,-0.0142726 -0.00538,-0.009115 -0.00538,-0.0204362 0,-0.0295515 0.00538,-0.009115 0.015295,-0.014583 0.025876,-0.0142726 0.016043,0 0.029048,0.0130054 0.029048,0.0290484 0,0.016043 -0.013005,0.0290484 -0.029048,0.0290483 z" />
    </g>
    <g
       id="g324"
       clip-path="url(#b)">
      <path
         style="fill:#c84449;fill-rule:nonzero"
         inkscape:connector-curvature="0"
         id="path322"
         d="m 2.2311791,-0.58563702 c -0.00772,9.95e-6 -0.015124,-0.003048 -0.020587,-0.008501 -0.00546,-0.005453 -0.00853,-0.0128536 -0.00854,-0.020572 3.45e-5,-0.01606 0.013063,-0.0290609 0.029123,-0.0290609 0.015818,3.2797e-4 0.028471,0.0132452 0.028471,0.0290671 0,0.0158219 -0.012652,0.0287392 -0.028471,0.0290671" />
    </g>
    <g
       id="g328"
       clip-path="url(#b)">
      <path
         style="fill:none;fill-rule:nonzero;stroke:#382d5e;stroke-width:0.00624697;stroke-linecap:butt;stroke-linejoin:miter;stroke-miterlimit:4;stroke-dasharray:none"
         inkscape:connector-curvature="0"
         id="path326"
         stroke-miterlimit="4"
         d="m 2.2311791,-0.58563702 c -0.00772,9.95e-6 -0.015124,-0.003048 -0.020587,-0.008501 -0.00546,-0.005453 -0.00853,-0.0128536 -0.00854,-0.020572 3.45e-5,-0.01606 0.013063,-0.0290609 0.029123,-0.0290609 0.015818,3.2797e-4 0.028471,0.0132452 0.028471,0.0290671 0,0.0158219 -0.012652,0.0287392 -0.028471,0.0290671 z" />
    </g>
    <g
       id="g332"
       clip-path="url(#b)">
      <path
         style="fill:#c84449;fill-rule:nonzero"
         inkscape:connector-curvature="0"
         id="path330"
         d="m 2.2311791,-0.49563073 c -0.016068,6.91e-6 -0.029103,-0.0130056 -0.029123,-0.0290734 3.281e-4,-0.0158254 0.013251,-0.0284831 0.02908,-0.0284831 0.015829,0 0.028752,0.0126577 0.02908,0.0284831 -2.06e-5,0.0160336 -0.013002,0.0290321 -0.029036,0.0290734" />
    </g>
    <g
       id="g336"
       clip-path="url(#b)">
      <path
         style="fill:none;fill-rule:nonzero;stroke:#382d5e;stroke-width:0.00624697;stroke-linecap:butt;stroke-linejoin:miter;stroke-miterlimit:4;stroke-dasharray:none"
         inkscape:connector-curvature="0"
         id="path334"
         stroke-miterlimit="4"
         d="m 2.2311791,-0.49563073 c -0.016068,6.91e-6 -0.029103,-0.0130056 -0.029123,-0.0290734 3.281e-4,-0.0158254 0.013251,-0.0284831 0.02908,-0.0284831 0.015829,0 0.028752,0.0126577 0.02908,0.0284831 -2.06e-5,0.0160336 -0.013002,0.0290321 -0.029036,0.0290734 z" />
    </g>
    <g
       id="g340"
       clip-path="url(#b)">
      <path
         style="fill:#c84449;fill-rule:nonzero"
         inkscape:connector-curvature="0"
         id="path338"
         d="m 2.2311791,-0.40370037 c -0.010524,2.1825e-4 -0.020343,-0.005271 -0.025669,-0.0143506 -0.00533,-0.009079 -0.00533,-0.0203288 0,-0.0294081 0.00533,-0.009079 0.015145,-0.0145688 0.025669,-0.0143506 0.016046,0 0.029055,0.0130082 0.029055,0.0290546 0,0.0160464 -0.013008,0.0290546 -0.029055,0.0290546" />
    </g>
    <g
       id="g344"
       clip-path="url(#b)">
      <path
         style="fill:none;fill-rule:nonzero;stroke:#382d5e;stroke-width:0.00624697;stroke-linecap:butt;stroke-linejoin:miter;stroke-miterlimit:4;stroke-dasharray:none"
         inkscape:connector-curvature="0"
         id="path342"
         stroke-miterlimit="4"
         d="m 2.2311791,-0.40370037 c -0.010524,2.1825e-4 -0.020343,-0.005271 -0.025669,-0.0143506 -0.00533,-0.009079 -0.00533,-0.0203288 0,-0.0294081 0.00533,-0.009079 0.015145,-0.0145688 0.025669,-0.0143506 0.016046,0 0.029055,0.0130082 0.029055,0.0290546 0,0.0160464 -0.013008,0.0290546 -0.029055,0.0290547 z" />
    </g>
    <g
       id="g348"
       clip-path="url(#b)">
      <path
         style="fill:#c84449;fill-rule:nonzero"
         inkscape:connector-curvature="0"
         id="path346"
         d="m 2.2311791,-0.31032071 c -0.016043,0 -0.029048,-0.0130054 -0.029048,-0.0290484 0,-0.016043 0.013005,-0.0290484 0.029048,-0.0290484 0.016043,0 0.029048,0.0130054 0.029048,0.0290484 0,0.016043 -0.013005,0.0290484 -0.029048,0.0290484" />
    </g>
    <g
       id="g352"
       clip-path="url(#b)">
      <path
         style="fill:none;fill-rule:nonzero;stroke:#382d5e;stroke-width:0.00624697;stroke-linecap:butt;stroke-linejoin:miter;stroke-miterlimit:4;stroke-dasharray:none"
         inkscape:connector-curvature="0"
         id="path350"
         stroke-miterlimit="4"
         d="m 2.2311791,-0.31032071 c -0.016043,0 -0.029048,-0.0130054 -0.029048,-0.0290484 0,-0.016043 0.013005,-0.0290484 0.029048,-0.0290484 0.016043,0 0.029048,0.0130054 0.029048,0.0290484 0,0.016043 -0.013005,0.0290484 -0.029048,0.0290484 z" />
    </g>
    <g
       id="g356"
       clip-path="url(#b)">
      <path
         style="fill:#c84449;fill-rule:nonzero"
         inkscape:connector-curvature="0"
         id="path354"
         d="m 2.2311791,-0.21785311 c -0.00772,9.95e-6 -0.015124,-0.003048 -0.020587,-0.008501 -0.00546,-0.005453 -0.00853,-0.0128536 -0.00854,-0.020572 3.281e-4,-0.0158254 0.013251,-0.0284831 0.02908,-0.0284831 0.015829,0 0.028752,0.0126577 0.02908,0.0284831 0,0.0160422 -0.012994,0.0290527 -0.029036,0.0290734" />
    </g>
    <g
       id="g360"
       clip-path="url(#b)">
      <path
         style="fill:none;fill-rule:nonzero;stroke:#382d5e;stroke-width:0.00624697;stroke-linecap:butt;stroke-linejoin:miter;stroke-miterlimit:4;stroke-dasharray:none"
         inkscape:connector-curvature="0"
         id="path358"
         stroke-miterlimit="4"
         d="m 2.2311791,-0.21785311 c -0.00772,9.95e-6 -0.015124,-0.003048 -0.020587,-0.008501 -0.00546,-0.005453 -0.00853,-0.0128536 -0.00854,-0.020572 3.281e-4,-0.0158254 0.013251,-0.0284831 0.02908,-0.0284831 0.015829,0 0.028752,0.0126577 0.02908,0.0284831 0,0.0160422 -0.012994,0.0290527 -0.029036,0.0290734 z" />
    </g>
    <g
       id="g364"
       clip-path="url(#b)">
      <path
         style="fill:#c84449;fill-rule:nonzero"
         inkscape:connector-curvature="0"
         id="path362"
         d="m 1.6830327,-0.71452443 c 0.00548,-0.0441286 0.046502,-0.0754634 0.091581,-0.070041 0.045016,0.005385 0.0771,0.0454904 0.071615,0.089594 l -0.05756,0.45941442 c -0.00551,0.0440911 -0.046577,0.0754634 -0.09168,0.070091 -0.045003,-0.005422 -0.077025,-0.0455404 -0.071515,-0.089619 z" />
    </g>
    <g
       id="g368"
       clip-path="url(#b)">
      <path
         style="fill:none;fill-rule:nonzero;stroke:#382d5e;stroke-width:0.00624697;stroke-linecap:butt;stroke-linejoin:miter;stroke-miterlimit:4;stroke-dasharray:none"
         inkscape:connector-curvature="0"
         id="path366"
         stroke-miterlimit="4"
         d="m 1.6830327,-0.71452443 c 0.00548,-0.0441286 0.046502,-0.0754634 0.091581,-0.070041 0.045016,0.005385 0.0771,0.0454904 0.071615,0.089594 l -0.05756,0.45941442 c -0.00551,0.0440911 -0.046577,0.0754634 -0.09168,0.070091 -0.045003,-0.005422 -0.077025,-0.0455404 -0.071515,-0.089619 z" />
    </g>
    <g
       id="g372"
       clip-path="url(#b)">
      <path
         style="fill:#c84449;fill-rule:nonzero"
         inkscape:connector-curvature="0"
         id="path370"
         d="m 1.7605201,-0.67604312 c -0.015939,-0.001939 -0.027289,-0.0164323 -0.02535,-0.0323718 0.00194,-0.0159395 0.016432,-0.0272892 0.032372,-0.0253502 0.015939,0.001939 0.027289,0.0164323 0.02535,0.0323718 -0.00194,0.0159395 -0.016432,0.0272892 -0.032372,0.0253502" />
    </g>
    <g
       id="g376"
       clip-path="url(#b)">
      <path
         style="fill:none;fill-rule:nonzero;stroke:#382d5e;stroke-width:0.00624697;stroke-linecap:butt;stroke-linejoin:miter;stroke-miterlimit:4;stroke-dasharray:none"
         inkscape:connector-curvature="0"
         id="path374"
         stroke-miterlimit="4"
         d="m 1.7605201,-0.67604312 c -0.015939,-0.001939 -0.027289,-0.0164323 -0.02535,-0.0323718 0.00194,-0.0159395 0.016432,-0.0272892 0.032372,-0.0253502 0.015939,0.001939 0.027289,0.0164323 0.02535,0.0323718 -0.00194,0.0159395 -0.016432,0.0272892 -0.032372,0.0253502 z" />
    </g>
    <g
       id="g380"
       clip-path="url(#b)">
      <path
         style="fill:#c84449;fill-rule:nonzero"
         inkscape:connector-curvature="0"
         id="path378"
         d="m 1.7492756,-0.58476244 c -0.00765,-9.4563e-4 -0.014608,-0.004892 -0.019346,-0.0109705 -0.00474,-0.006078 -0.00687,-0.0137906 -0.00592,-0.0214388 9.121e-4,-0.007645 0.00483,-0.0146114 0.010893,-0.0193592 0.00606,-0.004748 0.013763,-0.006886 0.021404,-0.005941 0.015924,0.001939 0.027272,0.0164061 0.025363,0.0323343 -0.00197,0.015935 -0.016453,0.0272784 -0.032397,0.0253752" />
    </g>
    <g
       id="g384"
       clip-path="url(#b)">
      <path
         style="fill:none;fill-rule:nonzero;stroke:#382d5e;stroke-width:0.00624697;stroke-linecap:butt;stroke-linejoin:miter;stroke-miterlimit:4;stroke-dasharray:none"
         inkscape:connector-curvature="0"
         id="path382"
         stroke-miterlimit="4"
         d="m 1.7492756,-0.58476244 c -0.00765,-9.4563e-4 -0.014608,-0.004892 -0.019346,-0.0109705 -0.00474,-0.006078 -0.00687,-0.0137906 -0.00592,-0.0214388 9.121e-4,-0.007645 0.00483,-0.0146114 0.010893,-0.0193592 0.00606,-0.004748 0.013763,-0.006886 0.021404,-0.005941 0.015924,0.001939 0.027272,0.0164061 0.025363,0.0323343 -0.00197,0.015935 -0.016453,0.0272784 -0.032397,0.0253752 z" />
    </g>
    <g
       id="g388"
       clip-path="url(#b)">
      <path
         style="fill:#c84449;fill-rule:nonzero"
         inkscape:connector-curvature="0"
         id="path386"
         d="m 1.7383184,-0.4954808 c -0.00766,-9.2972e-4 -0.014625,-0.004872 -0.019367,-0.0109545 -0.00474,-0.006082 -0.00686,-0.0138036 -0.0059,-0.0214548 9.249e-4,-0.00764 0.00485,-0.0145995 0.010905,-0.0193468 0.00606,-0.004747 0.013752,-0.006893 0.021392,-0.005966 0.015939,0.001942 0.027286,0.0164385 0.025344,0.032378 -0.00194,0.0159395 -0.016439,0.0272864 -0.032378,0.0253439" />
    </g>
    <g
       id="g392"
       clip-path="url(#b)">
      <path
         style="fill:none;fill-rule:nonzero;stroke:#382d5e;stroke-width:0.00624697;stroke-linecap:butt;stroke-linejoin:miter;stroke-miterlimit:4;stroke-dasharray:none"
         inkscape:connector-curvature="0"
         id="path390"
         stroke-miterlimit="4"
         d="m 1.7383184,-0.4954808 c -0.00766,-9.2972e-4 -0.014625,-0.004872 -0.019367,-0.0109545 -0.00474,-0.006082 -0.00686,-0.0138036 -0.0059,-0.0214548 9.249e-4,-0.00764 0.00485,-0.0145995 0.010905,-0.0193468 0.00606,-0.004747 0.013752,-0.006893 0.021392,-0.005966 0.015939,0.001942 0.027286,0.0164385 0.025344,0.032378 -0.00194,0.0159395 -0.016439,0.0272864 -0.032378,0.0253439 z" />
    </g>
    <g
       id="g396"
       clip-path="url(#b)">
      <path
         style="fill:#c84449;fill-rule:nonzero"
         inkscape:connector-curvature="0"
         id="path394"
         d="m 1.7271863,-0.4042501 c -0.015943,-0.001945 -0.027295,-0.0164398 -0.025363,-0.0323843 0.00198,-0.0159244 0.016467,-0.0272462 0.032397,-0.0253127 0.00765,9.395e-4 0.014606,0.004881 0.019345,0.0109552 0.00474,0.006074 0.00687,0.0137837 0.00592,0.0214291 -9.058e-4,0.007649 -0.00482,0.0146203 -0.010885,0.0193714 -0.00606,0.004751 -0.013768,0.006889 -0.021411,0.005941" />
    </g>
    <g
       id="g400"
       clip-path="url(#b)">
      <path
         style="fill:none;fill-rule:nonzero;stroke:#382d5e;stroke-width:0.00624697;stroke-linecap:butt;stroke-linejoin:miter;stroke-miterlimit:4;stroke-dasharray:none"
         inkscape:connector-curvature="0"
         id="path398"
         stroke-miterlimit="4"
         d="m 1.7271863,-0.4042501 c -0.015943,-0.001945 -0.027295,-0.0164398 -0.025363,-0.0323843 0.00198,-0.0159244 0.016467,-0.0272462 0.032397,-0.0253127 0.00765,9.395e-4 0.014606,0.004881 0.019345,0.0109552 0.00474,0.006074 0.00687,0.0137837 0.00592,0.0214291 -9.058e-4,0.007649 -0.00482,0.0146203 -0.010885,0.0193714 -0.00606,0.004751 -0.013768,0.006889 -0.021411,0.005941 z" />
    </g>
    <g
       id="g404"
       clip-path="url(#b)">
      <path
         style="fill:#c84449;fill-rule:nonzero"
         inkscape:connector-curvature="0"
         id="path402"
         d="m 1.7157918,-0.31153262 c -0.00766,-9.126e-4 -0.014643,-0.004836 -0.019406,-0.0109051 -0.00476,-0.006069 -0.00692,-0.0137836 -0.00598,-0.0214417 0.00234,-0.0155946 0.016662,-0.0264951 0.032315,-0.0245859 0.015653,0.001909 0.026939,0.0159338 0.025457,0.0316325 -0.00197,0.0159212 -0.016459,0.0272409 -0.032384,0.0253002" />
    </g>
    <g
       id="g408"
       clip-path="url(#b)">
      <path
         style="fill:none;fill-rule:nonzero;stroke:#382d5e;stroke-width:0.00624697;stroke-linecap:butt;stroke-linejoin:miter;stroke-miterlimit:4;stroke-dasharray:none"
         inkscape:connector-curvature="0"
         id="path406"
         stroke-miterlimit="4"
         d="m 1.7157918,-0.31153262 c -0.00766,-9.126e-4 -0.014643,-0.004836 -0.019406,-0.0109051 -0.00476,-0.006069 -0.00692,-0.0137836 -0.00598,-0.0214417 0.00234,-0.0155946 0.016662,-0.0264951 0.032315,-0.0245859 0.015653,0.001909 0.026939,0.0159338 0.025457,0.0316325 -0.00197,0.0159212 -0.016459,0.0272409 -0.032384,0.0253002 z" />
    </g>
    <g
       id="g412"
       clip-path="url(#b)">
      <path
         style="fill:#c84449;fill-rule:nonzero"
         inkscape:connector-curvature="0"
         id="path410"
         d="m 1.7044848,-0.21978967 c -0.00764,-9.3666e-4 -0.014596,-0.004872 -0.019334,-0.0109386 -0.00474,-0.006067 -0.00687,-0.0137682 -0.00593,-0.0214082 0.00195,-0.0159391 0.016442,-0.0272874 0.032384,-0.0253627 0.015925,0.001997 0.027252,0.0164717 0.025363,0.0324093 -0.002,0.0159468 -0.016533,0.0272646 -0.032484,0.0253002" />
    </g>
    <g
       id="g416"
       clip-path="url(#b)">
      <path
         style="fill:none;fill-rule:nonzero;stroke:#382d5e;stroke-width:0.00624697;stroke-linecap:butt;stroke-linejoin:miter;stroke-miterlimit:4;stroke-dasharray:none"
         inkscape:connector-curvature="0"
         id="path414"
         stroke-miterlimit="4"
         d="m 1.7044848,-0.21978967 c -0.00764,-9.3666e-4 -0.014596,-0.004872 -0.019334,-0.0109386 -0.00474,-0.006067 -0.00687,-0.0137682 -0.00593,-0.0214082 0.00195,-0.0159391 0.016442,-0.0272874 0.032384,-0.0253627 0.015925,0.001997 0.027252,0.0164717 0.025363,0.0324093 -0.002,0.0159468 -0.016533,0.0272646 -0.032483,0.0253002 z" />
    </g>
    <g
       id="g420"
       clip-path="url(#b)">
      <path
         style="fill:#c84449;fill-rule:nonzero"
         inkscape:connector-curvature="0"
         id="path418"
         d="M 1.4053176,-0.79496038 H 1.0719045 c -0.00748,0 -0.00663,0.006559 -0.00663,0.006559 v 0.71217918 c 0,0.0061345 0.00542,0.0054099 0.00542,0.0054099 h 0.1994656 c 0.010395,0 0.00945,-0.009333 0.00945,-0.009333 v -0.06351916 c 0,-0.0119067 0.00973,-0.0102325 0.00973,-0.0102325 h 0.1160562 c 0.03141,0 0.032034,-0.0403554 0.032034,-0.0403554 v -0.5700357 c 0,0 0.00189,-0.0306726 -0.032109,-0.0306726" />
    </g>
    <g
       id="g424"
       clip-path="url(#b)">
      <path
         style="fill:none;fill-rule:nonzero;stroke:#382d5e;stroke-width:0.00624697;stroke-linecap:butt;stroke-linejoin:miter;stroke-miterlimit:4;stroke-dasharray:none"
         inkscape:connector-curvature="0"
         id="path422"
         stroke-miterlimit="4"
         d="M 1.4053176,-0.79496038 H 1.0719045 c -0.00748,0 -0.00663,0.006559 -0.00663,0.006559 v 0.71217918 c 0,0.0061345 0.00542,0.0054099 0.00542,0.0054099 h 0.1994656 c 0.010395,0 0.00945,-0.009333 0.00945,-0.009333 v -0.06351916 c 0,-0.0119067 0.00973,-0.0102325 0.00973,-0.0102325 h 0.1160562 c 0.03141,0 0.032034,-0.0403554 0.032034,-0.0403554 v -0.5700357 c 0,0 0.00189,-0.0306726 -0.032109,-0.0306726 z" />
    </g>
    <g
       id="g428"
       clip-path="url(#b)">
      <path
         style="fill:#c84449;fill-rule:nonzero"
         inkscape:connector-curvature="0"
         id="path426"
         d="m 1.1317629,-0.66750976 c -0.0051,0 -0.0071,-0.003261 -0.0071,-0.008059 v -0.0759631 c 0,-0.004898 0.00264,-0.007271 0.0071,-0.007271 h 0.1893206 c 0.00474,0 0.00692,0.002186 0.00692,0.007059 v 0.076213 c 0,0.006097 -0.00175,0.008021 -0.0071,0.008021 z" />
    </g>
    <g
       id="g432"
       clip-path="url(#b)">
      <path
         style="fill:none;fill-rule:nonzero;stroke:#382d5e;stroke-width:0.00624697;stroke-linecap:butt;stroke-linejoin:miter;stroke-miterlimit:4;stroke-dasharray:none"
         inkscape:connector-curvature="0"
         id="path430"
         stroke-miterlimit="4"
         d="m 1.1317629,-0.66750976 c -0.0051,0 -0.0071,-0.003261 -0.0071,-0.008059 v -0.0759631 c 0,-0.004898 0.00264,-0.007271 0.0071,-0.007271 h 0.1893206 c 0.00474,0 0.00692,0.002186 0.00692,0.007059 v 0.076213 c 0,0.006097 -0.00175,0.008021 -0.0071,0.008021 z" />
    </g>
    <g
       id="g436"
       clip-path="url(#b)">
      <path
         style="fill:#c84449;fill-rule:nonzero"
         inkscape:connector-curvature="0"
         id="path434"
         d="m 1.1919712,-0.69302237 c -0.01,0 -0.018041,-0.009021 -0.018041,-0.0201402 0,-0.0111696 0.00805,-0.0201777 0.018041,-0.0201777 h 0.057535 c 0.00988,0 0.017841,0.009008 0.017841,0.0201777 0,0.0111196 -0.00796,0.0201402 -0.017841,0.0201402 z" />
    </g>
    <g
       id="g440"
       clip-path="url(#b)">
      <path
         style="fill:none;fill-rule:nonzero;stroke:#382d5e;stroke-width:0.00624697;stroke-linecap:butt;stroke-linejoin:miter;stroke-miterlimit:4;stroke-dasharray:none"
         inkscape:connector-curvature="0"
         id="path438"
         stroke-miterlimit="4"
         d="m 1.1919712,-0.69302237 c -0.01,0 -0.018041,-0.009021 -0.018041,-0.0201402 0,-0.0111696 0.00805,-0.0201777 0.018041,-0.0201777 h 0.057535 c 0.00988,0 0.017841,0.009008 0.017841,0.0201777 0,0.0111196 -0.00796,0.0201402 -0.017841,0.0201402 z" />
    </g>
    <g
       id="g444"
       clip-path="url(#b)">
      <path
         style="fill:none;fill-rule:nonzero;stroke:#382d5e;stroke-width:0.00624697;stroke-linecap:butt;stroke-linejoin:miter;stroke-miterlimit:4;stroke-dasharray:none"
         inkscape:connector-curvature="0"
         id="path442"
         stroke-miterlimit="4"
         d="m 1.1587873,-0.67143286 v -0.0834845" />
    </g>
    <g
       id="g448"
       clip-path="url(#b)">
      <path
         style="fill:#c84449;fill-rule:nonzero"
         inkscape:connector-curvature="0"
         id="path446"
         d="m 1.1595994,-0.57378028 c -0.00507,0 -0.0071,-0.003261 -0.0071,-0.008021 v -0.0759381 c 0,-0.00496 0.00255,-0.007334 0.0071,-0.007334 h 0.1892331 c 0.00482,0 0.00701,0.002236 0.00701,0.007059 v 0.0762505 c 0,0.00611 -0.00175,0.007984 -0.0071,0.007984 z" />
    </g>
    <g
       id="g452"
       clip-path="url(#b)">
      <path
         style="fill:none;fill-rule:nonzero;stroke:#382d5e;stroke-width:0.00624697;stroke-linecap:butt;stroke-linejoin:miter;stroke-miterlimit:4;stroke-dasharray:none"
         inkscape:connector-curvature="0"
         id="path450"
         stroke-miterlimit="4"
         d="m 1.1595994,-0.57378028 c -0.00507,0 -0.0071,-0.003261 -0.0071,-0.008021 v -0.0759381 c 0,-0.00496 0.00255,-0.007334 0.0071,-0.007334 h 0.1892331 c 0.00482,0 0.00701,0.002236 0.00701,0.007059 v 0.0762505 c 0,0.00611 -0.00175,0.007984 -0.0071,0.007984 z" />
    </g>
    <g
       id="g456"
       clip-path="url(#b)">
      <path
         style="fill:#c84449;fill-rule:nonzero"
         inkscape:connector-curvature="0"
         id="path454"
         d="m 1.2197077,-0.59925541 c -0.00988,0 -0.017929,-0.009008 -0.017929,-0.0201777 0,-0.0111196 0.00805,-0.0201777 0.017929,-0.0201777 h 0.057622 c 0.00988,0 0.017929,0.009058 0.017929,0.0201777 0,0.0111696 -0.00805,0.0201777 -0.017929,0.0201777 z" />
    </g>
    <g
       id="g460"
       clip-path="url(#b)">
      <path
         style="fill:none;fill-rule:nonzero;stroke:#382d5e;stroke-width:0.00624697;stroke-linecap:butt;stroke-linejoin:miter;stroke-miterlimit:4;stroke-dasharray:none"
         inkscape:connector-curvature="0"
         id="path458"
         stroke-miterlimit="4"
         d="m 1.2197077,-0.59925541 c -0.00988,0 -0.017929,-0.009008 -0.017929,-0.0201777 0,-0.0111196 0.00805,-0.0201777 0.017929,-0.0201777 h 0.057622 c 0.00988,0 0.017929,0.009058 0.017929,0.0201777 0,0.0111696 -0.00805,0.0201777 -0.017929,0.0201777 z" />
    </g>
    <g
       id="g464"
       clip-path="url(#b)">
      <path
         style="fill:none;fill-rule:nonzero;stroke:#382d5e;stroke-width:0.00624697;stroke-linecap:butt;stroke-linejoin:miter;stroke-miterlimit:4;stroke-dasharray:none"
         inkscape:connector-curvature="0"
         id="path462"
         stroke-miterlimit="4"
         d="m 1.1866238,-0.57766589 v -0.0834845" />
    </g>
    <g
       id="g468"
       clip-path="url(#b)">
      <path
         style="fill:#c84449;fill-rule:nonzero"
         inkscape:connector-curvature="0"
         id="path466"
         d="m 1.1516533,-0.48001331 c -0.00507,0 -0.00706,-0.003261 -0.00706,-0.008021 v -0.0759381 c 0,-0.00496 0.0026,-0.007334 0.00706,-0.007334 h 0.1893455 c 0.00474,0 0.0069,0.002236 0.0069,0.007059 v 0.0762755 c 0,0.006085 -0.00172,0.007959 -0.00706,0.007959 z" />
    </g>
    <g
       id="g472"
       clip-path="url(#b)">
      <path
         style="fill:none;fill-rule:nonzero;stroke:#382d5e;stroke-width:0.00624697;stroke-linecap:butt;stroke-linejoin:miter;stroke-miterlimit:4;stroke-dasharray:none"
         inkscape:connector-curvature="0"
         id="path470"
         stroke-miterlimit="4"
         d="m 1.1516533,-0.48001331 c -0.00507,0 -0.00706,-0.003261 -0.00706,-0.008021 v -0.0759381 c 0,-0.00496 0.0026,-0.007334 0.00706,-0.007334 h 0.1893455 c 0.00474,0 0.0069,0.002236 0.0069,0.007059 v 0.0762755 c 0,0.006085 -0.00172,0.007959 -0.00706,0.007959 z" />
    </g>
    <g
       id="g476"
       clip-path="url(#b)">
      <path
         style="fill:#c84449;fill-rule:nonzero"
         inkscape:connector-curvature="0"
         id="path474"
         d="m 1.2117616,-0.50548844 c -0.00988,0 -0.017841,-0.009058 -0.017841,-0.0201652 0,-0.0111821 0.00796,-0.0201902 0.017841,-0.0201902 h 0.057647 c 0.00988,0 0.017929,0.009008 0.017929,0.0201902 0,0.0111071 -0.00805,0.0201652 -0.017929,0.0201652 z" />
    </g>
    <g
       id="g480"
       clip-path="url(#b)">
      <path
         style="fill:none;fill-rule:nonzero;stroke:#382d5e;stroke-width:0.00624697;stroke-linecap:butt;stroke-linejoin:miter;stroke-miterlimit:4;stroke-dasharray:none"
         inkscape:connector-curvature="0"
         id="path478"
         stroke-miterlimit="4"
         d="m 1.2117616,-0.50548844 c -0.00988,0 -0.017841,-0.009058 -0.017841,-0.0201652 0,-0.0111821 0.00796,-0.0201902 0.017841,-0.0201902 h 0.057647 c 0.00988,0 0.017929,0.009008 0.017929,0.0201902 0,0.0111071 -0.00805,0.0201652 -0.017929,0.0201652 z" />
    </g>
    <g
       id="g484"
       clip-path="url(#b)">
      <path
         style="fill:none;fill-rule:nonzero;stroke:#382d5e;stroke-width:0.00624697;stroke-linecap:butt;stroke-linejoin:miter;stroke-miterlimit:4;stroke-dasharray:none"
         inkscape:connector-curvature="0"
         id="path482"
         stroke-miterlimit="4"
         d="m 1.1787776,-0.48389892 v -0.0834845" />
    </g>
    <g
       id="g488"
       clip-path="url(#b)">
      <path
         style="fill:#c84449;fill-rule:nonzero"
         inkscape:connector-curvature="0"
         id="path486"
         d="m 1.1417956,-0.38624634 c -0.00507,0 -0.0071,-0.003261 -0.0071,-0.008059 v -0.0759006 c 0,-0.00496 0.00264,-0.007334 0.0071,-0.007334 h 0.189308 c 0.00475,0 0.00702,0.002186 0.00702,0.007059 v 0.076213 c 0,0.006097 -0.00176,0.008021 -0.00718,0.008021 z" />
    </g>
    <g
       id="g492"
       clip-path="url(#b)">
      <path
         style="fill:none;fill-rule:nonzero;stroke:#382d5e;stroke-width:0.00624697;stroke-linecap:butt;stroke-linejoin:miter;stroke-miterlimit:4;stroke-dasharray:none"
         inkscape:connector-curvature="0"
         id="path490"
         stroke-miterlimit="4"
         d="m 1.1417956,-0.38624634 c -0.00507,0 -0.0071,-0.003261 -0.0071,-0.008059 v -0.0759006 c 0,-0.00496 0.00264,-0.007334 0.0071,-0.007334 h 0.189308 c 0.00475,0 0.00702,0.002186 0.00702,0.007059 v 0.076213 c 0,0.006097 -0.00176,0.008021 -0.00718,0.008021 z" />
    </g>
    <g
       id="g496"
       clip-path="url(#b)">
      <path
         style="fill:#c84449;fill-rule:nonzero"
         inkscape:connector-curvature="0"
         id="path494"
         d="m 1.2019913,-0.41172147 c -0.00988,0 -0.017929,-0.009071 -0.017929,-0.0201902 0,-0.0111446 0.00805,-0.0201652 0.017929,-0.0201652 h 0.057547 c 0.00987,0 0.017916,0.009021 0.017916,0.0201652 0,0.0111196 -0.00805,0.0201902 -0.017916,0.0201902 z" />
    </g>
    <g
       id="g500"
       clip-path="url(#b)">
      <path
         style="fill:none;fill-rule:nonzero;stroke:#382d5e;stroke-width:0.00624697;stroke-linecap:butt;stroke-linejoin:miter;stroke-miterlimit:4;stroke-dasharray:none"
         inkscape:connector-curvature="0"
         id="path498"
         stroke-miterlimit="4"
         d="m 1.2019913,-0.41172147 c -0.00988,0 -0.017929,-0.009071 -0.017929,-0.0201902 0,-0.0111446 0.00805,-0.0201652 0.017929,-0.0201652 h 0.057547 c 0.00987,0 0.017916,0.009021 0.017916,0.0201652 0,0.0111196 -0.00805,0.0201902 -0.017916,0.0201902 z" />
    </g>
    <g
       id="g504"
       clip-path="url(#b)">
      <path
         style="fill:none;fill-rule:nonzero;stroke:#382d5e;stroke-width:0.00624697;stroke-linecap:butt;stroke-linejoin:miter;stroke-miterlimit:4;stroke-dasharray:none"
         inkscape:connector-curvature="0"
         id="path502"
         stroke-miterlimit="4"
         d="M 1.1688074,-0.39013195 V -0.4736539" />
    </g>
    <g
       id="g508"
       clip-path="url(#b)">
      <path
         style="fill:#c84449;fill-rule:nonzero"
         inkscape:connector-curvature="0"
         id="path506"
         d="m 1.1598368,-0.29247937 c -0.00506,0 -0.0071,-0.003261 -0.0071,-0.008059 v -0.0759506 c 0,-0.004948 0.00264,-0.007321 0.0071,-0.007321 h 0.1892581 c 0.0048,0 0.00698,0.002249 0.00698,0.007097 v 0.076213 c 0,0.006097 -0.00175,0.008021 -0.00717,0.008021 z" />
    </g>
    <g
       id="g512"
       clip-path="url(#b)">
      <path
         style="fill:none;fill-rule:nonzero;stroke:#382d5e;stroke-width:0.00624697;stroke-linecap:butt;stroke-linejoin:miter;stroke-miterlimit:4;stroke-dasharray:none"
         inkscape:connector-curvature="0"
         id="path510"
         stroke-miterlimit="4"
         d="m 1.1598368,-0.29247937 c -0.00506,0 -0.0071,-0.003261 -0.0071,-0.008059 v -0.0759506 c 0,-0.004948 0.00264,-0.007321 0.0071,-0.007321 h 0.1892581 c 0.0048,0 0.00698,0.002249 0.00698,0.007097 v 0.076213 c 0,0.006097 -0.00175,0.008021 -0.00717,0.008021 z" />
    </g>
    <g
       id="g516"
       clip-path="url(#b)">
      <path
         style="fill:#c84449;fill-rule:nonzero"
         inkscape:connector-curvature="0"
         id="path514"
         d="m 1.2200326,-0.3179545 c -0.00997,0 -0.017929,-0.009046 -0.017929,-0.0202152 0,-0.0111071 0.00796,-0.0201777 0.017929,-0.0201777 h 0.057572 c 0.00988,0 0.017841,0.009071 0.017841,0.0201777 0,0.0111696 -0.00796,0.0202152 -0.017841,0.0202152 z" />
    </g>
    <g
       id="g520"
       clip-path="url(#b)">
      <path
         style="fill:none;fill-rule:nonzero;stroke:#382d5e;stroke-width:0.00624697;stroke-linecap:butt;stroke-linejoin:miter;stroke-miterlimit:4;stroke-dasharray:none"
         inkscape:connector-curvature="0"
         id="path518"
         stroke-miterlimit="4"
         d="m 1.2200326,-0.3179545 c -0.00997,0 -0.017929,-0.009046 -0.017929,-0.0202152 0,-0.0111071 0.00796,-0.0201777 0.017929,-0.0201777 h 0.057572 c 0.00988,0 0.017841,0.009071 0.017841,0.0201777 0,0.0111696 -0.00796,0.0202152 -0.017841,0.0202152 z" />
    </g>
    <g
       id="g524"
       clip-path="url(#b)">
      <path
         style="fill:none;fill-rule:nonzero;stroke:#382d5e;stroke-width:0.00624697;stroke-linecap:butt;stroke-linejoin:miter;stroke-miterlimit:4;stroke-dasharray:none"
         inkscape:connector-curvature="0"
         id="path522"
         stroke-miterlimit="4"
         d="m 1.1868862,-0.29640247 v -0.0834845" />
    </g>
    <g
       id="g528"
       clip-path="url(#b)">
      <path
         style="fill:#c84449;fill-rule:nonzero"
         inkscape:connector-curvature="0"
         id="path526"
         d="m 1.1686325,-0.19873739 c -0.0051,0 -0.00717,-0.003211 -0.00717,-0.008034 v -0.0759381 c 0,-0.00496 0.0026,-0.007334 0.00717,-0.007334 h 0.1892331 c 0.00482,0 0.00701,0.002249 0.00701,0.007097 v 0.076238 c 0,0.006072 -0.00175,0.007971 -0.00717,0.007971 z" />
    </g>
    <g
       id="g532"
       clip-path="url(#b)">
      <path
         style="fill:none;fill-rule:nonzero;stroke:#382d5e;stroke-width:0.00624697;stroke-linecap:butt;stroke-linejoin:miter;stroke-miterlimit:4;stroke-dasharray:none"
         inkscape:connector-curvature="0"
         id="path530"
         stroke-miterlimit="4"
         d="m 1.1686325,-0.19873739 c -0.0051,0 -0.00717,-0.003211 -0.00717,-0.008034 v -0.0759381 c 0,-0.00496 0.0026,-0.007334 0.00717,-0.007334 h 0.1892331 c 0.00482,0 0.00701,0.002249 0.00701,0.007097 v 0.076238 c 0,0.006072 -0.00175,0.007971 -0.00717,0.007971 z" />
    </g>
    <g
       id="g536"
       clip-path="url(#b)">
      <path
         style="fill:#c84449;fill-rule:nonzero"
         inkscape:connector-curvature="0"
         id="path534"
         d="m 1.2287159,-0.22422502 c -0.00986,0 -0.017841,-0.009008 -0.017841,-0.0201652 0,-0.0111196 0.00798,-0.0201777 0.017841,-0.0201777 h 0.057572 c 0.00996,0 0.018004,0.009058 0.018004,0.0201777 0,0.0111571 -0.00805,0.0201652 -0.018004,0.0201652 z" />
    </g>
    <g
       id="g540"
       clip-path="url(#b)">
      <path
         style="fill:none;fill-rule:nonzero;stroke:#382d5e;stroke-width:0.00624697;stroke-linecap:butt;stroke-linejoin:miter;stroke-miterlimit:4;stroke-dasharray:none"
         inkscape:connector-curvature="0"
         id="path538"
         stroke-miterlimit="4"
         d="m 1.2287159,-0.22422502 c -0.00986,0 -0.017841,-0.009008 -0.017841,-0.0201652 0,-0.0111196 0.00798,-0.0201777 0.017841,-0.0201777 h 0.057572 c 0.00996,0 0.018004,0.009058 0.018004,0.0201777 0,0.0111571 -0.00805,0.0201652 -0.018004,0.0201652 z" />
    </g>
    <g
       id="g544"
       clip-path="url(#b)">
      <path
         style="fill:none;fill-rule:nonzero;stroke:#382d5e;stroke-width:0.00624697;stroke-linecap:butt;stroke-linejoin:miter;stroke-miterlimit:4;stroke-dasharray:none"
         inkscape:connector-curvature="0"
         id="path542"
         stroke-miterlimit="4"
         d="m 1.1956569,-0.20264799 v -0.0834845" />
    </g>
    <g
       id="g548"
       clip-path="url(#b)">
      <path
         style="fill:none;fill-rule:nonzero;stroke:#382d5e;stroke-width:0.00624697;stroke-linecap:butt;stroke-linejoin:miter;stroke-miterlimit:4;stroke-dasharray:none"
         inkscape:connector-curvature="0"
         id="path546"
         stroke-miterlimit="4"
         d="m 1.1016526,-0.79059999 v 0.71537762" />
    </g>
    <g
       id="g552"
       clip-path="url(#b)">
      <path
         style="fill:none;fill-rule:nonzero;stroke:#382d5e;stroke-width:0.00624697;stroke-linecap:round;stroke-linejoin:miter;stroke-miterlimit:4;stroke-dasharray:none"
         inkscape:connector-curvature="0"
         id="path550"
         stroke-miterlimit="4"
         d="M 7.3611255,-0.62293141 1.2545783,-0.71713567" />
    </g>
    <g
       id="g556"
       clip-path="url(#b)">
      <path
         style="fill:none;fill-rule:nonzero;stroke:#382d5e;stroke-width:0.00624697;stroke-linecap:round;stroke-linejoin:miter;stroke-miterlimit:4;stroke-dasharray:none"
         inkscape:connector-curvature="0"
         id="path554"
         stroke-miterlimit="4"
         d="m 1.2831769,-0.6231563 6.2778641,0.059671" />
    </g>
    <g
       id="g560"
       clip-path="url(#b)">
      <path
         style="fill:none;fill-rule:nonzero;stroke:#382d5e;stroke-width:0.00624697;stroke-linecap:round;stroke-linejoin:miter;stroke-miterlimit:4;stroke-dasharray:none"
         inkscape:connector-curvature="0"
         id="path558"
         stroke-miterlimit="4"
         d="M 7.7640299,-0.50126549 1.2750808,-0.52916444" />
    </g>
    <g
       id="g564"
       clip-path="url(#b)">
      <path
         style="fill:none;fill-rule:nonzero;stroke:#382d5e;stroke-width:0.00624697;stroke-linecap:round;stroke-linejoin:miter;stroke-miterlimit:4;stroke-dasharray:none"
         inkscape:connector-curvature="0"
         id="path562"
         stroke-miterlimit="4"
         d="M 1.2652231,-0.4283384 7.9746776,-0.4501653" />
    </g>
    <g
       id="g568"
       clip-path="url(#b)">
      <path
         style="fill:none;fill-rule:nonzero;stroke:#382d5e;stroke-width:0.00624697;stroke-linecap:round;stroke-linejoin:miter;stroke-miterlimit:4;stroke-dasharray:none"
         inkscape:connector-curvature="0"
         id="path566"
         stroke-miterlimit="4"
         d="M 7.5686498,-0.3929306 1.2822524,-0.3348338" />
    </g>
    <g
       id="g572"
       clip-path="url(#b)">
      <path
         style="fill:none;fill-rule:nonzero;stroke:#382d5e;stroke-width:0.00624697;stroke-linecap:round;stroke-linejoin:miter;stroke-miterlimit:4;stroke-dasharray:none"
         inkscape:connector-curvature="0"
         id="path570"
         stroke-miterlimit="4"
         d="m 1.2917103,-0.24130422 6.27594,-0.0930298" />
    </g>
  </g>
  <defs
     id="defs584">
    <clipPath
       id="SvgjsClipPath1003">
      <path
         d="M 0,-1.8898328 H 4.9213726 V -0.25 H 0 Z"
         id="path578"
         inkscape:connector-curvature="0" />
    </clipPath>
    <clipPath
       id="b">
      <path
         d="M -0.01249393,-1.9023227 H 8.6333078 v 2.86285988 h -8.64580173 z"
         id="path581"
         inkscape:connector-curvature="0" />
    </clipPath>
  </defs>
</svg>
