<?xml version="1.0" encoding="UTF-8" standalone="no"?>
<svg
   xmlns:dc="http://purl.org/dc/elements/1.1/"
   xmlns:cc="http://creativecommons.org/ns#"
   xmlns:rdf="http://www.w3.org/1999/02/22-rdf-syntax-ns#"
   xmlns:svg="http://www.w3.org/2000/svg"
   xmlns="http://www.w3.org/2000/svg"
   xmlns:sodipodi="http://sodipodi.sourceforge.net/DTD/sodipodi-0.dtd"
   xmlns:inkscape="http://www.inkscape.org/namespaces/inkscape"
   version="1.1"
   viewBox="0 0 100 99.999995"
   id="svg28"
   sodipodi:docname="midnight-groove.svg"
   width="100"
   height="100"
   inkscape:version="0.92.5 (2060ec1f9f, 2020-04-08)">
  <metadata
     id="metadata32">
    <rdf:RDF>
      <cc:Work
         rdf:about="">
        <dc:format>image/svg+xml</dc:format>
        <dc:type
           rdf:resource="http://purl.org/dc/dcmitype/StillImage" />
        <dc:title></dc:title>
      </cc:Work>
    </rdf:RDF>
  </metadata>
  <sodipodi:namedview
     pagecolor="#ffffff"
     bordercolor="#666666"
     borderopacity="1"
     objecttolerance="10"
     gridtolerance="10"
     guidetolerance="10"
     inkscape:pageopacity="0"
     inkscape:pageshadow="2"
     inkscape:window-width="3440"
     inkscape:window-height="1381"
     id="namedview30"
     showgrid="false"
     inkscape:zoom="9.9469234"
     inkscape:cx="34.366302"
     inkscape:cy="47.55828"
     inkscape:window-x="0"
     inkscape:window-y="256"
     inkscape:window-maximized="1"
     inkscape:current-layer="g18" />
  <g
     transform="translate(45.062012,52.290021)"
     id="g18">
    <g
       id="g846"
       transform="matrix(9.9556308,0,0,9.9556308,-44.13425,20.505422)">
      <g
         style="fill:#000000"
         id="g6">
        <path
           style="fill:#000000;fill-rule:nonzero"
           inkscape:connector-curvature="0"
           id="path4"
           d="M 0.13916016,0.01757813 H 0.4387207 L 0.8503418,0.58740234 1.2414551,0.01757813 H 1.532959 V 1.105957 H 1.1103516 V 0.55004883 L 0.70458984,1.119873 0.30029297,0.55004883 V 1.105957 H 0.13916016 Z m 1.69555664,0 H 2.2587891 L 2.2580566,1.105957 H 1.8347168 Z m 0.7258301,0 h 0.4475097 q 0.1889649,0 0.3273926,0.03552246 0.1384278,0.03552246 0.2292481,0.10437011 0.09082,0.0688477 0.1347656,0.16918946 0.043945,0.10034179 0.043945,0.22998047 0,0.11572265 -0.043945,0.21569824 -0.043945,0.0999756 -0.1347656,0.1743164 Q 3.473877,1.0209961 3.3354492,1.0634766 3.1970215,1.105957 3.0080566,1.105957 H 2.5605469 Z m 0.4233398,0.92871093 q 0.073242,0 0.131836,-0.0227051 0.058594,-0.0227051 0.099243,-0.0703125 0.040649,-0.0476074 0.062256,-0.12121582 0.021606,-0.0736084 0.021606,-0.17614746 0,-0.10180664 -0.021973,-0.17358398 -0.021973,-0.0717773 -0.062988,-0.11755371 -0.041016,-0.0457764 -0.099243,-0.0666504 -0.058228,-0.020874 -0.1300049,-0.020874 z M 3.9814453,0.01757813 H 4.246582 L 4.9372559,0.59765625 4.9379883,0.01757813 H 5.0991211 V 1.105957 H 4.8339844 L 4.1425781,0.52807617 V 1.105957 H 3.9814453 Z m 1.4194336,0 H 5.8249512 L 5.8242187,1.105957 H 5.4008789 Z M 6.0629883,0.5625 q 0,-0.0776367 0.020142,-0.14978027 0.020142,-0.0721436 0.05896,-0.13439942 0.038818,-0.0622559 0.095215,-0.11352539 0.056396,-0.0512695 0.12854,-0.08789062 Q 6.4379883,0.0402832 6.5251465,0.0201416 6.6123047,0 6.7126465,0 q 0.064453,0 0.1234131,0.00805664 0.05896,0.00805664 0.1109619,0.02233887 0.052002,0.01428222 0.096313,0.03295898 0.044312,0.01867676 0.0802,0.03918457 l -0.062988,0.12304688 q -0.041016,-0.0197754 -0.093384,-0.0333252 -0.052368,-0.0135498 -0.1087647,-0.0135498 -0.075439,0 -0.1398925,0.0270996 -0.064453,0.0270996 -0.1113282,0.0769043 -0.046875,0.0498047 -0.073608,0.1204834 -0.026733,0.0706787 -0.026733,0.15856934 0,0.0871582 0.026367,0.15783691 0.026367,0.0706787 0.072876,0.12084961 0.046509,0.0501709 0.1105957,0.0776367 0.064087,0.0274658 0.1387939,0.0274658 V 0.5771484 h 0.427002 L 7.2062988,0.71557617 V 1.0114746 l 7.324e-4,0.00146 q -0.035889,0.02124 -0.088623,0.041016 -0.052734,0.019775 -0.1175537,0.035522 -0.064819,0.015747 -0.1380615,0.025269 -0.073242,0.00952 -0.1501465,0.00952 -0.1501465,0 -0.2706299,-0.044312 Q 6.3215332,1.0356445 6.2373047,0.95910645 6.1530762,0.88256836 6.1080322,0.78039551 6.0629883,0.67822266 6.0629883,0.5625 Z m 1.40625,-0.54492187 H 7.8925781 V 0.47387695 H 8.2053223 V 0.01757813 H 8.6293945 L 8.6286621,1.105957 H 8.2053223 V 0.64160156 H 7.8925781 V 1.105957 H 7.4692383 Z M 9.1223145,0.18457031 H 8.8117676 V 0.0168457 H 9.8562012 V 0.18457031 H 9.5456543 V 1.105957 H 9.1223145 Z" />
      </g>
      <g
         style="fill:#000000"
         id="g10">
        <path
           style="fill:#000000;fill-rule:nonzero"
           inkscape:connector-curvature="0"
           id="path8"
           d="m 0.561,2.6533271 q -0.1065,0 -0.198,-0.04575 -0.0915,-0.04575 -0.159,-0.12375 -0.0675,-0.078 -0.10425,-0.174 -0.03675,-0.096 -0.03675,-0.198 0,-0.108 0.03675,-0.20475 0.03675,-0.09675 0.10275,-0.17175 0.066,-0.075 0.156,-0.1185 0.09,-0.0435 0.1965,-0.0435 0.1575,0 0.2565,0.0645 0.099,0.0645 0.15,0.168 l -0.081,0.054 q -0.051,-0.099 -0.1365,-0.1455 -0.0855,-0.0465 -0.1905,-0.0465 -0.0885,0 -0.15975,0.0375 -0.07125,0.0375 -0.12225,0.1005 -0.051,0.063 -0.07725,0.1425 -0.02625,0.0795 -0.02625,0.165 0,0.09 0.03,0.17025 0.03,0.08025 0.0855,0.1425 0.0555,0.06225 0.12825,0.0975 0.07275,0.03525 0.15675,0.03525 0.0975,0 0.1845,-0.04875 0.087,-0.04875 0.1665,-0.15075 v 0.111 q -0.1515,0.183 -0.3585,0.183 z m 0.342,-0.45 H 0.666 v -0.081 h 0.3255 v 0.5235 H 0.903 Z m 0.3404136,0.4425 v -1.065 h 0.45 q 0.069,0 0.126,0.0285 0.057,0.0285 0.09975,0.07725 0.04275,0.04875 0.066,0.108 0.02325,0.05925 0.02325,0.12075 0,0.0765 -0.02925,0.144 -0.02925,0.0675 -0.0825,0.114 -0.05325,0.0465 -0.12525,0.0615 l 0.261,0.411 h -0.1185 l -0.2505,-0.393 h -0.315 v 0.393 z m 0.105,-0.486 h 0.348 q 0.063,0 0.1095,-0.0345 0.0465,-0.0345 0.072,-0.09075 0.0255,-0.05625 0.0255,-0.11925 0,-0.0645 -0.02925,-0.11925 -0.02925,-0.05475 -0.078,-0.0885 -0.04875,-0.03375 -0.10875,-0.03375 h -0.339 z m 1.3394311,0.4935 q -0.1125,0 -0.204,-0.045 -0.0915,-0.045 -0.1575,-0.12225 -0.066,-0.07725 -0.102,-0.174 -0.036,-0.09675 -0.036,-0.19875 0,-0.1065 0.0375,-0.20325 0.0375,-0.09675 0.10575,-0.1725 0.06825,-0.07575 0.15975,-0.12 0.0915,-0.04425 0.198,-0.04425 0.1125,0 0.204,0.0465 0.0915,0.0465 0.15675,0.1245 0.06525,0.078 0.10125,0.174 0.036,0.096 0.036,0.1965 0,0.1065 -0.0375,0.20325 -0.0375,0.09675 -0.105,0.1725 -0.0675,0.07575 -0.159,0.11925 -0.0915,0.0435 -0.198,0.0435 z m -0.3945,-0.54 q 0,0.087 0.0285,0.16725 0.0285,0.08025 0.081,0.1425 0.0525,0.06225 0.12525,0.099 0.07275,0.03675 0.15975,0.03675 0.0915,0 0.16425,-0.03825 0.07275,-0.03825 0.1245,-0.102 0.05175,-0.06375 0.07875,-0.14325 0.027,-0.0795 0.027,-0.162 0,-0.087 -0.0285,-0.1665 -0.0285,-0.0795 -0.08175,-0.1425 -0.05325,-0.063 -0.12525,-0.099 -0.072,-0.036 -0.159,-0.036 -0.09,0 -0.16275,0.0375 -0.07275,0.0375 -0.1245,0.10125 -0.05175,0.06375 -0.0795,0.14325 -0.02775,0.0795 -0.02775,0.162 z m 1.5569649,0.54 q -0.1125,0 -0.204,-0.045 -0.0915,-0.045 -0.1575,-0.12225 -0.066,-0.07725 -0.102,-0.174 -0.036,-0.09675 -0.036,-0.19875 0,-0.1065 0.0375,-0.20325 0.0375,-0.09675 0.10575,-0.1725 0.06825,-0.07575 0.15975,-0.12 0.0915,-0.04425 0.198,-0.04425 0.1125,0 0.204,0.0465 0.0915,0.0465 0.15675,0.1245 0.06525,0.078 0.10125,0.174 0.036,0.096 0.036,0.1965 0,0.1065 -0.0375,0.20325 -0.0375,0.09675 -0.105,0.1725 -0.0675,0.07575 -0.159,0.11925 -0.0915,0.0435 -0.198,0.0435 z m -0.3945,-0.54 q 0,0.087 0.0285,0.16725 0.0285,0.08025 0.081,0.1425 0.0525,0.06225 0.12525,0.099 0.07275,0.03675 0.15975,0.03675 0.0915,0 0.16425,-0.03825 0.07275,-0.03825 0.1245,-0.102 0.05175,-0.06375 0.07875,-0.14325 0.027,-0.0795 0.027,-0.162 0,-0.087 -0.0285,-0.1665 -0.0285,-0.0795 -0.08175,-0.1425 -0.05325,-0.063 -0.12525,-0.099 -0.072,-0.036 -0.159,-0.036 -0.09,0 -0.16275,0.0375 -0.07275,0.0375 -0.1245,0.10125 -0.05175,0.06375 -0.0795,0.14325 -0.02775,0.0795 -0.02775,0.162 z m 1.082907,-0.5325 0.381,0.9345 0.3795,-0.9345 h 0.1095 l -0.441,1.065 h -0.096 l -0.4425,-1.065 z m 1.7744326,0.972 v 0.093 h -0.7155 v -1.065 h 0.702 v 0.093 h -0.597 v 0.384 h 0.5205 v 0.0885 h -0.5205 v 0.4065 z" />
      </g>
      <g
         style="fill:#000000"
         id="g16"
         clip-path="url(#SvgjsClipPath1003)">
        <g
           style="fill:#000000"
           id="g14"
           clip-path="url(#SvgjsClipPath1000)">
          <path
             style="fill:#000000;fill-rule:nonzero"
             inkscape:connector-curvature="0"
             id="path12"
             d="m 0,-3.5386109 c -0.01300573,-0.804154 0.24286167,-1.5896285 0.727017,-2.2318329 0.520739,-0.7072048 1.2829685,-1.1986472 2.1420539,-1.3810752 0.5189717,-0.113703 1.0570109,-0.1078412 1.5733822,0.017142 0.00975,0.00225 0.019391,0.00504 0.028819,0.00804 0.072316,0.02282 0.1103489,0.067173 0.1071348,0.1253478 -0.00321,0.058174 -0.045211,0.098885 -0.1218123,0.1102417 -0.4062608,0.062104 -0.7914716,0.2215552 -1.1227731,0.4647509 -0.64838,0.4648581 -1.0557067,1.0883828 -1.1564134,1.8827876 -0.1053135,0.8301879 0.154917,1.5386705 0.8050112,2.0815228 0.3792427,0.3169535 0.8547198,0.4960034 1.3488275,0.5079262 0.888255,0.033426 1.6185931,-0.3066199 2.2091204,-0.9622851 0.020034,-0.022177 0.038997,-0.045532 0.059888,-0.066959 0.034729,-0.043228 0.094505,-0.057121 0.1447392,-0.03364 0.056284,0.025394 0.09094,0.08301 0.086993,0.144632 -0.00364,0.029721 -0.010615,0.058938 -0.020784,0.087101 -0.232016,0.7287279 -0.6882507,1.3655742 -1.3036158,1.81967894 C 5.0311892,-0.60248422 4.469198,-0.36889015 3.8760312,-0.28706865 2.9351746,-0.13518071 1.974362,-0.39416708 1.2373002,-0.99833683 0.58457072,-1.5195761 0.15620237,-2.270965 0.04017556,-3.0981796 0.01307045,-3.2688454 0.00846365,-3.4421896 0,-3.5386109 Z" />
        </g>
      </g>
    </g>
  </g>
  <defs
     id="defs26">
    <clipPath
       id="SvgjsClipPath1003">
      <path
         d="M 0,-7.23337 H 6.8327384 V -0.25 H 0 Z"
         id="path20"
         inkscape:connector-curvature="0" />
    </clipPath>
    <clipPath
       id="SvgjsClipPath1000">
      <path
         d="M 0,-7.23337 H 6.8327384 V -0.25 H 0 Z"
         id="path23"
         inkscape:connector-curvature="0" />
    </clipPath>
  </defs>
</svg>
