<?xml version="1.0" encoding="UTF-8" standalone="no"?>
<svg
   xmlns:dc="http://purl.org/dc/elements/1.1/"
   xmlns:cc="http://creativecommons.org/ns#"
   xmlns:rdf="http://www.w3.org/1999/02/22-rdf-syntax-ns#"
   xmlns:svg="http://www.w3.org/2000/svg"
   xmlns="http://www.w3.org/2000/svg"
   xmlns:sodipodi="http://sodipodi.sourceforge.net/DTD/sodipodi-0.dtd"
   xmlns:inkscape="http://www.inkscape.org/namespaces/inkscape"
   version="1.1"
   viewBox="0 0 99.999997 100"
   id="svg28"
   sodipodi:docname="outcast.svg"
   width="100"
   height="100"
   inkscape:version="0.92.5 (2060ec1f9f, 2020-04-08)">
  <metadata
     id="metadata32">
    <rdf:RDF>
      <cc:Work
         rdf:about="">
        <dc:format>image/svg+xml</dc:format>
        <dc:type
           rdf:resource="http://purl.org/dc/dcmitype/StillImage" />
        <dc:title></dc:title>
      </cc:Work>
    </rdf:RDF>
  </metadata>
  <sodipodi:namedview
     pagecolor="#ffffff"
     bordercolor="#666666"
     borderopacity="1"
     objecttolerance="10"
     gridtolerance="10"
     guidetolerance="10"
     inkscape:pageopacity="0"
     inkscape:pageshadow="2"
     inkscape:window-width="3440"
     inkscape:window-height="1381"
     id="namedview30"
     showgrid="false"
     inkscape:zoom="6.6740943"
     inkscape:cx="-23.825151"
     inkscape:cy="46.108859"
     inkscape:window-x="0"
     inkscape:window-y="256"
     inkscape:window-maximized="1"
     inkscape:current-layer="svg28" />
  <g
     id="g854"
     transform="matrix(13.290849,0,0,13.290849,-55.051348,-1211.2526)"
     style="fill:#000000">
    <g
       transform="translate(4.3410405,96.501957)"
       id="g6"
       style="fill:#000000">
      <path
         d="M 0.5715,1.083 Q 0.45,1.083 0.351,1.03725 0.252,0.9915 0.18075,0.91425 0.1095,0.837 0.07125,0.74025 0.033,0.6435 0.033,0.54 0.033,0.4335 0.0735,0.3375 0.114,0.2415 0.18675,0.16575 0.2595,0.09 0.35925,0.0465 0.459,0.003 0.5775,0.003 0.699,0.003 0.798,0.04875 0.897,0.0945 0.9675,0.1725 1.038,0.2505 1.07625,0.34725 1.1145,0.444 1.1145,0.546 1.1145,0.651 1.07475,0.747 1.035,0.843 0.96225,0.91875 0.8895,0.9945 0.7905,1.03875 0.6915,1.083 0.5715,1.083 Z M 0.33,0.543 q 0,0.054 0.015,0.10425 0.015,0.05025 0.045,0.09 0.03,0.03975 0.07575,0.063 0.04575,0.02325 0.10875,0.02325 0.063,0 0.1095,-0.024 Q 0.7305,0.7755 0.75975,0.73425 0.789,0.693 0.80325,0.64275 0.8175,0.5925 0.8175,0.54 0.8175,0.486 0.8025,0.4365 0.7875,0.387 0.7575,0.34725 0.7275,0.3075 0.681,0.285 0.6345,0.2625 0.573,0.2625 0.51,0.2625 0.46425,0.2865 0.4185,0.3105 0.3885,0.35025 0.3585,0.39 0.34425,0.44025 0.33,0.4905 0.33,0.543 Z m 1.3889304,0.54 q -0.1275,0 -0.219,-0.042 -0.0915,-0.042 -0.14925,-0.1155 -0.05775,-0.0735 -0.08475,-0.16875 -0.027,-0.09525 -0.027,-0.20025 V 0.009 h 0.2925 v 0.5475 q 0,0.0525 0.0105,0.1005 0.0105,0.048 0.033,0.0855 0.0225,0.0375 0.05775,0.05925 0.03525,0.02175 0.08625,0.02175 0.0525,0 0.0885,-0.02175 0.036,-0.02175 0.05775,-0.06 0.02175,-0.03825 0.03225,-0.08625 0.0105,-0.048 0.0105,-0.099 V 0.009 h 0.2925 v 0.5475 q 0,0.111 -0.02925,0.207 -0.02925,0.096 -0.08775,0.168 -0.0585,0.072 -0.14925,0.11175 Q 1.8434304,1.083 1.7189304,1.083 Z M 3.2129019,0.264 h -0.306 v 0.81 h -0.2925 v -0.81 h -0.3075 V 0.009 h 0.906 z m 0.046372,0.2685 q 0,-0.0975 0.03675,-0.19125 0.03675,-0.09375 0.10725,-0.17025 0.0705,-0.0765 0.17175,-0.12225 0.10125,-0.04575 0.22875,-0.04575 0.153,0 0.267,0.06375 0.114,0.06375 0.1695,0.16875 l -0.2235,0.159 q -0.0195,-0.0525 -0.05625,-0.081 -0.03675,-0.0285 -0.0795,-0.03975 -0.04275,-0.01125 -0.08325,-0.01125 -0.063,0 -0.10875,0.02475 -0.04575,0.02475 -0.075,0.06525 -0.02925,0.0405 -0.0435,0.09 -0.01425,0.0495 -0.01425,0.099 0,0.0555 0.0165,0.1065 0.0165,0.051 0.048,0.09075 0.0315,0.03975 0.07725,0.06225 0.04575,0.0225 0.10275,0.0225 0.0405,0 0.0825,-0.01275 0.042,-0.01275 0.0765,-0.04125 0.0345,-0.0285 0.0525,-0.0765 l 0.2385,0.1425 q -0.0315,0.078 -0.105,0.1335 -0.0735,0.0555 -0.1665,0.08475 -0.093,0.02925 -0.1845,0.02925 -0.1185,0 -0.21675,-0.04725 -0.09825,-0.04725 -0.1695,-0.126 -0.07125,-0.07875 -0.11025,-0.177 -0.039,-0.09825 -0.039,-0.20025 z M 4.5986719,0.009 h 0.327 l 0.339,1.065 h -0.297 l -0.0645,-0.2085 h -0.2835 l -0.063,0.2085 h -0.2985 z m 0.258,0.6615 -0.0945,-0.375 -0.099,0.375 z M 6.0010752,0.357 q 0,0 -0.0255,-0.015 -0.0255,-0.015 -0.0675,-0.03375 -0.042,-0.01875 -0.0915,-0.03375 -0.0495,-0.015 -0.0975,-0.015 -0.0375,0 -0.0615,0.012 -0.024,0.012 -0.024,0.0405 0,0.027 0.024,0.0435 0.024,0.0165 0.06825,0.03 0.04425,0.0135 0.10575,0.033 0.099,0.03 0.171,0.069 0.072,0.039 0.111,0.09975 0.039,0.06075 0.039,0.16125 0,0.096 -0.0345,0.16125 -0.0345,0.06525 -0.093,0.10425 -0.0585,0.039 -0.1305,0.05625 -0.072,0.01725 -0.147,0.01725 -0.0765,0 -0.15975,-0.01575 -0.08325,-0.01575 -0.16125,-0.0435 -0.078,-0.02775 -0.1425,-0.06525 l 0.126,-0.2565 q 0,0 0.03,0.018 0.03,0.018 0.0795,0.0405 0.0495,0.0225 0.11025,0.0405 0.06075,0.018 0.12225,0.018 0.048,0 0.06675,-0.01275 0.01875,-0.01275 0.01875,-0.03375 0,-0.0315 -0.033,-0.04875 -0.033,-0.01725 -0.08625,-0.033 -0.05325,-0.01575 -0.11775,-0.03675 -0.093,-0.0315 -0.153,-0.07125 -0.06,-0.03975 -0.0885,-0.0945 -0.0285,-0.05475 -0.0285,-0.13275 0,-0.1185 0.0555,-0.198 0.0555,-0.0795 0.14625,-0.12075 Q 5.6230752,0 5.7280752,0 q 0.078,0 0.15075,0.01875 0.07275,0.01875 0.1365,0.04575 0.06375,0.027 0.11175,0.051 z m 1.124915,-0.093 h -0.306 v 0.81 h -0.2925 v -0.81 h -0.3075 V 0.009 h 0.906 z"
         id="path4"
         inkscape:connector-curvature="0"
         style="fill:#000000;fill-rule:nonzero" />
    </g>
    <g
       transform="translate(4.3410405,96.501957)"
       id="g10"
       style="fill:#000000">
      <path
         d="m 0.06675,2.0843625 v -0.5325 h 0.225 q 0.0345,0 0.063,0.01425 0.0285,0.01425 0.049875,0.038625 0.021375,0.024375 0.033,0.054 0.011625,0.029625 0.011625,0.060375 0,0.03825 -0.014625,0.072 -0.014625,0.03375 -0.04125,0.057 -0.026625,0.02325 -0.062625,0.03075 l 0.1305,0.2055 H 0.402 l -0.12525,-0.1965 h -0.1575 v 0.1965 z m 0.0525,-0.243 h 0.174 q 0.0315,0 0.05475,-0.01725 0.02325,-0.01725 0.036,-0.045375 0.01275,-0.028125 0.01275,-0.059625 0,-0.03225 -0.014625,-0.059625 Q 0.3675,1.6321125 0.343125,1.6152375 0.31875,1.5983625 0.28875,1.5983625 h -0.1695 z m 0.60742676,-0.2895 h 0.04425 l 0.22125,0.5325 h -0.0555 l -0.069,-0.1665 h -0.23925 l -0.06825,0.1665 h -0.05625 z m 0.129,0.32475 -0.10725,-0.26325 -0.10875,0.26325 z M 1.07615,2.0843625 v -0.5325 H 1.2569 q 0.08475,0 0.141375,0.035625 0.056625,0.035625 0.085125,0.096 0.0285,0.060375 0.0285,0.133875 0,0.081 -0.031125,0.141 -0.031125,0.06 -0.0885,0.093 -0.057375,0.033 -0.135375,0.033 z m 0.38325,-0.267 q 0,-0.06375 -0.023625,-0.11325 Q 1.41215,1.6546125 1.36715,1.6264875 1.32215,1.5983625 1.2569,1.5983625 H 1.12865 v 0.4395 H 1.2569 q 0.066,0 0.111,-0.02925 0.045,-0.02925 0.06825,-0.079125 0.02325,-0.049875 0.02325,-0.112125 z m 0.1604744,0.267 v -0.5325 h 0.0525 v 0.5325 z m 0.4079894,0.00375 q -0.05625,0 -0.102,-0.0225 -0.04575,-0.0225 -0.07875,-0.061125 -0.033,-0.038625 -0.051,-0.087 -0.018,-0.048375 -0.018,-0.099375 0,-0.05325 0.01875,-0.101625 0.01875,-0.048375 0.052875,-0.08625 0.034125,-0.037875 0.079875,-0.06 0.04575,-0.022125 0.099,-0.022125 0.05625,0 0.102,0.02325 0.04575,0.02325 0.078375,0.06225 0.032625,0.039 0.050625,0.087 0.018,0.048 0.018,0.09825 0,0.05325 -0.01875,0.101625 -0.01875,0.048375 -0.0525,0.08625 -0.03375,0.037875 -0.0795,0.059625 -0.04575,0.02175 -0.099,0.02175 z m -0.19725,-0.27 q 0,0.0435 0.01425,0.083625 0.01425,0.040125 0.0405,0.07125 0.02625,0.031125 0.062625,0.0495 0.036375,0.018375 0.079875,0.018375 0.04575,0 0.082125,-0.019125 0.036375,-0.019125 0.06225,-0.051 0.025875,-0.031875 0.039375,-0.071625 0.0135,-0.03975 0.0135,-0.081 0,-0.0435 -0.01425,-0.08325 -0.01425,-0.03975 -0.040875,-0.07125 -0.026625,-0.0315 -0.062625,-0.0495 -0.036,-0.018 -0.0795,-0.018 -0.045,0 -0.081375,0.01875 -0.036375,0.01875 -0.06225,0.050625 -0.025875,0.031875 -0.03975,0.071625 -0.013875,0.03975 -0.013875,0.081 z"
         id="path8"
         inkscape:connector-curvature="0"
         style="fill:#000000;fill-rule:nonzero" />
    </g>
    <g
       transform="translate(4.3410405,96.501957)"
       clip-path="url(#SvgjsClipPath1003)"
       id="g16"
       style="fill:#000000">
      <g
         clip-path="url(#SvgjsClipPath1000)"
         id="g14"
         style="fill:#000000">
        <path
           d="m 2.5247014,-0.25 c 1.394354,0 2.5247013,-1.1303473 2.5247013,-2.5247014 0,-1.394354 -1.1303473,-2.5247013 -2.5247013,-2.5247013 C 1.1303473,-5.2994027 0,-4.1690554 0,-2.7747014 0,-1.3803473 1.1303473,-0.25 2.5247014,-0.25 Z M 1.5653148,-3.7593349 c 0,-0.02706 0.014436,-0.052064 0.037871,-0.065594 0.023434,-0.01353 0.052307,-0.01353 0.075741,0 0.023434,0.01353 0.037871,0.038534 0.037871,0.065594 v 1.9692671 c 0,0.02706 -0.014436,0.052064 -0.037871,0.065594 -0.023434,0.01353 -0.052307,0.01353 -0.075741,0 -0.023434,-0.01353 -0.037871,-0.038534 -0.037871,-0.065594 z m -0.3534581,0.4544462 c 0,-0.041831 0.03391,-0.075741 0.075741,-0.075741 0.041831,0 0.075741,0.03391 0.075741,0.075741 v 1.0603746 c 0,0.041831 -0.03391,0.075741 -0.075741,0.075741 -0.041831,0 -0.075741,-0.033911 -0.075741,-0.075741 z m 0.7826574,-0.025247 c -0.020088,0 -0.039353,0.00798 -0.053557,0.022184 -0.014204,0.014204 -0.022184,0.033469 -0.022184,0.053557 v 0.9593865 c 0,0.041831 0.03391,0.075741 0.075741,0.075741 0.041831,0 0.075741,-0.03391 0.075741,-0.075741 v -0.9593865 c 0,-0.041831 -0.03391,-0.075741 -0.075741,-0.075741 z m 0.2777171,0.2272232 c 0,-0.041831 0.033911,-0.075741 0.075741,-0.075741 0.041831,0 0.075741,0.03391 0.075741,0.075741 v 0.6564223 c 0,0.041831 -0.03391,0.075741 -0.075741,0.075741 -0.041831,0 -0.075741,-0.03391 -0.075741,-0.075741 z m 0.4291993,-0.2272232 c -0.020088,0 -0.039353,0.00798 -0.053557,0.022184 -0.014204,0.014204 -0.022184,0.033469 -0.022184,0.053557 v 0.9593865 c 0,0.041831 0.03391,0.075741 0.075741,0.075741 0.041831,0 0.075741,-0.03391 0.075741,-0.075741 v -0.9593865 c 0,-0.041831 -0.03391,-0.075741 -0.075741,-0.075741 z m 0.2777171,0.2777172 c 0,-0.041831 0.03391,-0.075741 0.075741,-0.075741 0.041831,0 0.075741,0.033911 0.075741,0.075741 v 0.5554343 c 0,0.041831 -0.03391,0.075741 -0.075741,0.075741 -0.041831,0 -0.075741,-0.03391 -0.075741,-0.075741 z m 0.4291993,-0.2777172 c -0.041831,0 -0.075741,0.03391 -0.075741,0.075741 v 0.9593865 c 0,0.041831 0.03391,0.075741 0.075741,0.075741 0.041831,0 0.075741,-0.03391 0.075741,-0.075741 v -0.9593865 c 0,-0.020088 -0.00798,-0.039353 -0.022184,-0.053557 -0.014204,-0.014204 -0.033469,-0.022184 -0.053557,-0.022184 z m 0.2777171,0.3282112 c 0,-0.041831 0.03391,-0.075741 0.075741,-0.075741 0.041831,0 0.075741,0.03391 0.075741,0.075741 v 0.4544463 c 0,0.041831 -0.03391,0.075741 -0.075741,0.075741 -0.041831,0 -0.075741,-0.03391 -0.075741,-0.075741 z m 0.4291992,0.025247 c -0.041831,0 -0.075741,0.03391 -0.075741,0.075741 v 0.2524701 c 0,0.041831 0.03391,0.075741 0.075741,0.075741 0.041831,0 0.075741,-0.03391 0.075741,-0.075741 v -0.2524701 c 0,-0.041831 -0.03391,-0.075741 -0.075741,-0.075741 z m -3.25686473,0.025247 c 0,-0.041831 0.0339104,-0.075741 0.075741,-0.075741 0.0418306,0 0.075741,0.03391 0.075741,0.075741 v 0.3534582 c 0,0.041831 -0.0339104,0.075741 -0.075741,0.075741 -0.0418306,0 -0.075741,-0.033911 -0.075741,-0.075741 z"
           id="path12"
           inkscape:connector-curvature="0"
           style="fill:#000000;fill-rule:evenodd" />
      </g>
    </g>
  </g>
  <defs
     id="defs26">
    <clipPath
       id="SvgjsClipPath1003">
      <path
         d="M 0,-5.2994027 H 5.0494027 V -0.25 H 0 Z"
         id="path20"
         inkscape:connector-curvature="0" />
    </clipPath>
    <clipPath
       id="SvgjsClipPath1000">
      <path
         d="M 0,-5.2994027 H 5.0494027 V -0.25 H 0 Z"
         id="path23"
         inkscape:connector-curvature="0" />
    </clipPath>
  </defs>
</svg>
