<?xml version="1.0" encoding="UTF-8" standalone="no"?>
<svg
   version="1.1"
   viewBox="0 0 100 99.999999"
   id="svg92"
   sodipodi:docname="revolution-radio.svg"
   width="100"
   height="100"
   inkscape:version="1.2.2 (732a01da63, 2022-12-09)"
   xmlns:inkscape="http://www.inkscape.org/namespaces/inkscape"
   xmlns:sodipodi="http://sodipodi.sourceforge.net/DTD/sodipodi-0.dtd"
   xmlns="http://www.w3.org/2000/svg"
   xmlns:svg="http://www.w3.org/2000/svg"
   xmlns:rdf="http://www.w3.org/1999/02/22-rdf-syntax-ns#"
   xmlns:cc="http://creativecommons.org/ns#"
   xmlns:dc="http://purl.org/dc/elements/1.1/">
  <metadata
     id="metadata96">
    <rdf:RDF>
      <cc:Work
         rdf:about="">
        <dc:format>image/svg+xml</dc:format>
        <dc:type
           rdf:resource="http://purl.org/dc/dcmitype/StillImage" />
        <dc:title />
      </cc:Work>
    </rdf:RDF>
  </metadata>
  <sodipodi:namedview
     pagecolor="#ffffff"
     bordercolor="#666666"
     borderopacity="1"
     objecttolerance="10"
     gridtolerance="10"
     guidetolerance="10"
     inkscape:pageopacity="0"
     inkscape:pageshadow="2"
     inkscape:window-width="1600"
     inkscape:window-height="829"
     id="namedview94"
     showgrid="false"
     inkscape:zoom="9.2407677"
     inkscape:cx="59.35654"
     inkscape:cy="51.078007"
     inkscape:window-x="-8"
     inkscape:window-y="-8"
     inkscape:window-maximized="1"
     inkscape:current-layer="g46"
     inkscape:showpageshadow="2"
     inkscape:pagecheckerboard="0"
     inkscape:deskcolor="#d1d1d1" />
  <g
     id="g982"
     transform="matrix(15.902722,0,0,15.902722,-8.9285831,-9.775823)">
    <g
       transform="translate(2.0774886,2.465482)"
       id="g6"
       style="fill:#6e40c9;fill-opacity:1">
      <path
         d="m 0.08063918,-0.55239745 -0.27736183,-0.10134306 -0.015697,0.0139501 0.17271528,0.19434359 -0.14650518,0.13020075 -0.46832411,-0.52697014 0.23096989,-0.20526549 q 0.0635354,-0.056465 0.12723299,-0.073607 0.0636976,-0.017143 0.12033276,0.00142 0.0566352,0.018566 0.0991497,0.066405 0.04782885,0.0538182 0.05450735,0.12079509 0.0066785,0.0669768 -0.03485097,0.13465478 l 0.30152821,0.0999337 z m -0.38207361,-0.18755468 0.0725051,-0.0644361 q 0.029899,-0.0265716 0.032227,-0.0540594 0.002328,-0.0274878 -0.0215864,-0.0543969 -0.0225858,-0.0254142 -0.0508627,-0.026372 -0.0282769,-9.5784e-4 -0.0574284,0.0249495 l -0.0725051,0.0644361 z m 0.58084954,-0.59370697 0.0514827,0.1028326 0.20119409,-0.1007271 0.0667037,0.1332352 -0.20119409,0.1007271 0.0568548,0.11356285 0.22801996,-0.11415735 0.0702851,0.14038878 L 0.349479,-0.75589523 0.03386755,-1.3863034 0.43714991,-1.5882052 0.50743501,-1.4478164 Z M 1.2311088,-1.5583415 q -0.021787,-0.024461 -0.053515,-0.033874 -0.031728,-0.00941 -0.071067,-0.00217 -0.072778,0.013394 -0.1058883,0.068293 -0.0331104,0.054899 -0.0184499,0.1345617 0.0164704,0.089497 0.0698161,0.1279773 0.053346,0.03848 0.1389089,0.022734 0.1012989,-0.018642 0.1277398,-0.1180701 l -0.1937464,0.035656 -0.02552,-0.1386713 0.3599553,-0.066244 0.034389,0.186862 q -0.012485,0.059238 -0.047381,0.115483 -0.034896,0.056245 -0.096072,0.099532 -0.061176,0.043287 -0.1467387,0.059034 -0.1042494,0.019185 -0.1926385,-0.010812 -0.0883892,-0.029998 -0.14690523,-0.1020973 -0.058516,-0.0721 -0.0775203,-0.1753656 -0.0188233,-0.1022824 0.0101908,-0.1904906 0.0290141,-0.088208 0.1004411,-0.1476172 0.071427,-0.059409 0.17567643,-0.078594 0.1308034,-0.024072 0.2279501,0.023124 0.097147,0.047197 0.1378902,0.1525625 z m 0.9392723,0.023101 q -0.012829,-0.03014 -0.039885,-0.049198 -0.027057,-0.019058 -0.066647,-0.024768 -0.073242,-0.010564 -0.1221591,0.030877 -0.048917,0.041441 -0.060481,0.1216115 -0.012991,0.090068 0.025262,0.1435769 0.038253,0.053509 0.1243618,0.065929 0.101945,0.014704 0.1587709,-0.071062 l -0.1949822,-0.028124 0.020129,-0.1395558 0.3622513,0.05225 -0.027124,0.188054 q -0.030759,0.052143 -0.081798,0.094288 -0.051039,0.042145 -0.1228398,0.063615 -0.0718,0.02147 -0.1579093,0.00905 -0.1049143,-0.015132 -0.179084,-0.071801 -0.07417,-0.056669 -0.1065791,-0.1436868 -0.032409,-0.087018 -0.01742,-0.1909425 0.014847,-0.1029348 0.070526,-0.1772473 0.055679,-0.074313 0.1423449,-0.107783 0.086666,-0.033471 0.1915802,-0.018338 0.1316377,0.018987 0.2086101,0.094751 0.076972,0.075765 0.081911,0.1886255 z m 0.717407,0.63957686 -0.2231093,-0.11279276 -0.085797,0.0854858 -0.1838421,-0.0929412 0.547432,-0.5132175 0.2016908,0.1019647 -0.089611,0.74466818 -0.1847346,-0.0933924 z m 0.023946,-0.15597296 0.035042,-0.2377648 -0.1697998,0.1696379 z m 0.7291679,0.17605938 -0.078374,0.0841576 0.1646561,0.15334071 -0.1015456,0.10903892 -0.1646561,-0.15334071 -0.086552,0.0929392 0.1866102,0.17378613 -0.1069977,0.11489336 -0.330044,-0.30736293 0.4804676,-0.51592246 0.330044,0.30736298 -0.1069978,0.11489336 z"
         id="path4"
         inkscape:connector-curvature="0"
         style="fill:#6e40c9;fill-rule:nonzero;fill-opacity:1" />
    </g>
    <g
       transform="translate(2.0774886,2.465482)"
       id="g10"
       style="fill:#6e40c9;fill-opacity:1">
      <path
         d="m -1.4389541,1.1905274 0.2782037,-0.1334301 0.010266,-0.11682243 -0.2644354,-0.0232389 0.00557,-0.0633921 0.63301487,0.0556301 -0.0167129,0.19017613 q -0.009311,0.1059553 -0.06484,0.1562874 -0.0555285,0.050332 -0.1379382,0.04309 -0.0688257,-0.00605 -0.11381337,-0.0497 -0.044988,-0.043652 -0.052713,-0.1219009 l -0.2832887,0.1393713 z m 0.3400894,-0.24571618 -0.011221,0.12768968 q -0.00653,0.074259 0.026395,0.1150251 0.032921,0.040766 0.0935965,0.046098 0.0624864,0.00549 0.0996299,-0.027748 0.0371434,-0.03324 0.0439878,-0.1111212 l 0.0111419,-0.12678408 z m 0.25239256,0.59047818 -0.23540426,0.029719 0.030174,0.2390119 -0.052312,0.0066 -0.030174,-0.239012 -0.239012,0.030174 0.03359,0.2660699 -0.052312,0.0066 -0.041561,-0.3292051 0.63135228,-0.079705 0.0415606,0.3292051 -0.0523121,0.0066 z M -0.5576996,2.41498 -1.2372531,2.40814 l -0.025096,-0.06826 0.51329235,-0.4453881 0.0238412,0.064847 -0.45973845,0.3908299 0.60404056,0.00167 z m -0.35326901,0.5647235 q -0.00909,-0.082378 0.0262199,-0.159538 0.0353097,-0.07716 0.11083532,-0.1325101 0.0755256,-0.05535 0.15973701,-0.065784 0.0842114,-0.010433 0.16002776,0.023043 0.0758164,0.033477 0.12794233,0.1046026 0.0526634,0.071859 0.0617532,0.1542376 0.00909,0.082378 -0.0264885,0.1591714 -0.0355784,0.076793 -0.11110401,0.1321435 -0.0755256,0.05535 -0.15946832,0.06615 -0.0839427,0.0108 -0.15975907,-0.022677 -0.0758164,-0.033477 -0.12847971,-0.1053358 -0.052126,-0.071126 -0.0612158,-0.1535044 z m 0.20757524,0.2040345 q 0.0597149,0.026116 0.12855559,0.01624 0.0688407,-0.00988 0.13410066,-0.057703 0.06526,-0.047827 0.0950426,-0.1102288 0.0297826,-0.062402 0.0228622,-0.1272096 -0.00692,-0.064808 -0.0488361,-0.1220019 -0.0419157,-0.057194 -0.10163065,-0.08331 -0.0597149,-0.026116 -0.12818897,-0.016509 -0.068474,0.00961 -0.13373402,0.057434 -0.06526,0.047827 -0.0954092,0.1104974 -0.0301492,0.062671 -0.0232289,0.1274783 0.00692,0.064808 0.0488361,0.1220019 0.0419157,0.057194 0.10163069,0.083311 z m 0.34190465,0.3980915 0.17410743,0.1474908 -0.0334939,0.039538 -0.22266329,-0.1886238 0.41074138,-0.4848649 0.04855586,0.041133 z m 0.69736298,-0.199415 -0.1886369,0.3527267 q -0.0445869,0.083372 -0.0263412,0.144676 0.0182457,0.061304 0.0871878,0.098174 0.068942,0.03687 0.12904379,0.017981 Q 0.39722955,3.9770832 0.44224513,3.89291 L 0.63088204,3.5401836 0.68699765,3.570194 0.49878946,3.922119 Q 0.44176967,4.0287387 0.35652898,4.0522246 0.27128828,4.0757104 0.18070166,4.0272651 0.09011503,3.9788197 0.06232285,3.8948842 0.03453067,3.8109488 0.09155047,3.7043291 L 0.27975865,3.3524041 Z M 1.2041041,3.7200184 1.1905073,3.7709624 1.0201084,3.7254834 0.86984024,4.2885025 0.80835608,4.2720926 0.95862423,3.7090735 0.78734695,3.6633601 0.80094376,3.6124161 Z m 0.1876444,0.017085 -0.070701,0.6315092 -0.063241,-0.00708 0.070701,-0.6315092 z m 0.3460049,0.614283 Q 1.6625758,4.3164986 1.6148567,4.2463324 1.5671376,4.1761662 1.558903,4.0828926 1.5506684,3.989619 1.585356,3.9121775 q 0.034688,-0.077441 0.10259,-0.1249607 0.067902,-0.047519 0.1557425,-0.055274 0.088746,-0.00783 0.1639232,0.027053 0.075178,0.034887 0.1224439,0.1050937 0.047266,0.070206 0.055501,0.1634798 0.00823,0.093274 -0.026,0.1706751 -0.034235,0.077402 -0.1021372,0.1249207 -0.067902,0.047519 -0.156648,0.055354 -0.08784,0.00775 -0.163018,-0.027133 z m 0.2820424,-0.0719 q 0.053267,-0.037557 0.080471,-0.1015612 0.027204,-0.064004 0.020089,-0.1445997 -0.00712,-0.080596 -0.045072,-0.1383906 -0.037957,-0.057795 -0.09698,-0.085439 -0.059023,-0.027644 -0.1296578,-0.021408 -0.070634,0.00624 -0.1239015,0.043793 -0.053267,0.037557 -0.080511,0.1011084 -0.027244,0.063551 -0.020129,0.1441469 0.00712,0.080596 0.045112,0.1388433 0.037997,0.058248 0.09702,0.085891 0.059023,0.027644 0.1296577,0.021408 0.070634,-0.00624 0.1239016,-0.043792 z M 2.9727115,4.0852872 2.9134565,4.1084914 2.3909459,3.7390357 2.5858612,4.2367775 2.5266062,4.2599817 2.2948957,3.6682785 2.3541506,3.6450743 2.8763298,4.0136835 2.681746,3.5167882 2.741001,3.493584 Z M 3.7893437,3.5007769 3.4948982,3.408567 3.4077011,3.486986 3.5852077,3.6843626 3.5378914,3.7269155 3.1129697,3.2544285 3.2549186,3.1267696 q 0.079086,-0.071124 0.154023,-0.070049 0.074937,0.00108 0.130256,0.062586 0.0462,0.051372 0.049319,0.1139788 0.00312,0.062607 -0.04461,0.1250934 l 0.3022166,0.091334 z m -0.4162929,-0.05232 0.095308,-0.085714 q 0.055428,-0.049848 0.059163,-0.1021135 0.00374,-0.052266 -0.036993,-0.097554 -0.041945,-0.04664 -0.091779,-0.047672 -0.049834,-0.00103 -0.1079656,0.051247 L 3.196152,3.2517564 Z M 4.1242066,2.8366885 3.961643,3.0757422 4.055249,3.2064586 4.01742,3.2620876 3.6290763,2.7176615 3.6694613,2.6582735 4.318009,2.8200635 4.28018,2.8756925 Z M 4.0698703,2.8228251 3.7151657,2.7333295 3.9287774,3.0303057 Z M 4.0047976,2.0108737 Q 4.06559,1.95209 4.1465487,1.9378231 q 0.080959,-0.014267 0.1745822,0.018193 0.092765,0.032162 0.1470874,0.093333 0.054323,0.06117 0.065251,0.14482 0.010928,0.08365 -0.023616,0.1832859 L 4.4482088,2.5552535 3.8478162,2.347092 3.9094605,2.1692933 q 0.034545,-0.099636 0.095337,-0.1584196 z M 4.4605872,2.1462888 Q 4.4176607,2.0577989 4.2999871,2.0170005 4.1814547,1.9759042 4.0921059,2.018533 4.0027572,2.0611618 3.9592785,2.1865657 L 3.9184801,2.3042392 4.4192367,2.477856 4.4600352,2.3601825 q 0.043479,-0.1254039 5.52e-4,-0.2138937 z M 4.0410131,1.6461746 4.6693746,1.7408549 4.659893,1.803781 4.0315316,1.7091007 Z M 4.6680179,1.3237957 Q 4.6302949,1.3975913 4.5583636,1.4426058 4.4864323,1.4876203 4.392913,1.4922995 4.2993936,1.4969788 4.2233282,1.4593694 4.1472628,1.42176 4.1023619,1.3520986 4.057461,1.2824372 4.0530542,1.1943656 q -0.00445,-0.08898 0.033271,-0.1627751 0.037723,-0.0737955 0.109677,-0.11835606 0.071954,-0.0445605 0.1654733,-0.0492398 0.093519,-0.004679 0.1695621,0.0324761 0.076043,0.0371554 0.1209436,0.10681686 0.044901,0.069661 0.049353,0.158641 0.00441,0.088072 -0.033316,0.1618671 z M 4.6069023,1.0392216 Q 4.5713993,0.9845638 4.5084773,0.954944 4.4455553,0.9253241 4.3647469,0.9293674 q -0.080808,0.004043 -0.1400055,0.0397735 -0.059197,0.0357302 -0.089067,0.0936588 -0.02987,0.057929 -0.026326,0.1287492 0.00354,0.070821 0.039046,0.1254783 0.035503,0.054658 0.097972,0.0843 0.062468,0.029643 0.1432764,0.025599 0.080808,-0.00404 0.1404595,-0.039796 0.059652,-0.035753 0.089521,-0.093682 0.02987,-0.057929 0.026326,-0.1287492 -0.00354,-0.07082 -0.039047,-0.1254774 z"
         id="path8"
         inkscape:connector-curvature="0"
         style="fill:#6e40c9;fill-rule:nonzero;fill-opacity:1" />
    </g>
    <g
       transform="translate(2.0774886,2.465482)"
       clip-path="url(#SvgjsClipPath1003)"
       id="g80">
      <g
         clip-path="url(#SvgjsClipPath1000)"
         id="g14">
        <path
           d="m 1.6110428,0.38917422 c -8.873e-4,1.4581e-4 -0.00175,4.1359e-4 -0.00256,7.9574e-4 1.532e-4,0.003952 8.677e-4,0.007861 0.00212,0.0116119 0.0015,0.005099 0.00354,0.0105509 0.00545,0.0162684 0.019245,-0.004421 0.038313,-0.008665 0.057882,-0.0122602 -0.018629,-0.0121481 -0.040703,-0.0179096 -0.062893,-0.0164158 z"
           id="path12"
           inkscape:connector-curvature="0"
           style="fill:#ffffff;fill-rule:nonzero" />
      </g>
      <g
         clip-path="url(#SvgjsClipPath1000)"
         id="g18">
        <path
           d="M 1.0591256,0.62541963 C 0.98454038,0.69190302 0.92019543,0.76904943 0.86817828,0.85435604 0.8165442,0.93934896 0.77668811,1.0309585 0.74970192,1.1266748 0.72311495,1.2215949 0.70753013,1.3192572 0.70325447,1.4177377 0.71980903,1.3218952 0.74492118,1.2277296 0.7782895,1.136371 0.81103829,1.0462288 0.85468556,0.96042874 0.90825984,0.8808806 1.0152302,0.72357195 1.1621885,0.59761064 1.3340085,0.51596161 c 0.019648,-0.009667 0.03962,-0.0187538 0.059916,-0.0272613 0.00266,-0.0222642 0.00364,-0.0446959 0.00295,-0.0671071 -0.030444,0.0117887 -0.060329,0.0246089 -0.089712,0.0384901 -0.089666,0.0438308 -0.1730807,0.0994339 -0.2480341,0.16533642 z"
           id="path16"
           inkscape:connector-curvature="0"
           style="fill:#ffffff;fill-rule:nonzero" />
      </g>
      <g
         clip-path="url(#SvgjsClipPath1000)"
         id="g22"
         style="fill:#ffffff">
        <path
           d="m 1.7202945,2.3552924 -0.00156,-0.099939 C 0.89322925,2.0974148 1.2460943,1.2631584 1.524219,1.0941675 1.522719,1.0825885 1.522389,1.0708875 1.5232465,1.0592435 1.5289065,0.9831475 1.5895575,0.93840942 1.648295,0.89499756 1.667363,0.88070376 1.687198,0.86602686 1.704291,0.85058366 1.72805,0.83007866 1.749764,0.80731816 1.769129,0.78262186 1.6571334,0.82356708 1.552517,0.8823995 1.4593518,0.95682925 1.4019669,1.0035285 1.3507827,1.057367 1.3070418,1.1170376 c -0.021724,0.030354 -0.041244,0.062226 -0.058413,0.095371 -0.017584,0.033353 -0.031422,0.06855 -0.04126,0.1049489 0.0061,-0.037643 0.016421,-0.07448 0.030768,-0.1098117 0.013717,-0.035729 0.030274,-0.070302 0.049513,-0.1033869 0.038704,-0.06652 0.085879,-0.12773306 0.1403444,-0.18210579 0.011966,-0.0122602 0.024344,-0.0239605 0.036987,-0.0353661 C 1.2967857,0.99906224 1.1546435,1.1604789 1.1253781,1.3512494 1.0797415,1.1991792 1.0909063,1.0357079 1.156795,0.89125465 1.129157,0.92606175 1.105437,0.96380685 1.086063,1.0038072 1.064565,1.0479852 1.048133,1.0944522 1.037081,1.1423243 1.025591,1.1907843 1.020107,1.2404733 1.020754,1.2902724 1.014964,1.2401654 1.015354,1.189535 1.021934,1.1395245 1.028334,1.0890485 1.040313,1.0394393 1.057654,0.9916059 1.075315,0.9432664 1.09858,0.8971628 1.126972,0.85423815 c 0.00251,-0.003684 0.00507,-0.007103 0.00746,-0.0105509 -0.021738,0.017999 -0.041748,0.0379891 -0.059769,0.0597097 -0.049956,0.0712831 -0.0873264,0.15059985 -0.11048949,0.23450655 -0.0265582,0.096662 -0.0373362,0.1969776 -0.0319179,0.297075 0.004898,0.101626 0.0245243,0.2020025 0.0582656,0.2979887 0.0168887,0.048212 0.0382196,0.094752 0.0637179,0.1390182 0.024981,0.044952 0.057466,0.085301 0.096048,0.1193015 C 1.1088059,1.959942 1.073027,1.9217007 1.0445077,1.8782335 1.0150206,1.835167 0.98970764,1.7893867 0.96891266,1.7415141 0.92696858,1.6458215 0.89906552,1.5445723 0.88606762,1.4409025 0.87366002,2.1387636 1.2538454,2.3669337 1.7202945,2.3552924 Z"
           id="path20"
           inkscape:connector-curvature="0"
           style="fill:#ffffff;fill-rule:nonzero" />
      </g>
      <g
         clip-path="url(#SvgjsClipPath1000)"
         id="g26">
        <path
           d="m 2.2784007,2.1869793 c -7.958e-4,-2.652e-4 -0.00162,-6.189e-4 -0.00236,-9.136e-4 2.063e-4,0 3.537e-4,2.358e-4 5.305e-4,3.242e-4 1.768e-4,8.84e-5 0.00127,3.831e-4 0.00183,5.894e-4 z"
           id="path24"
           inkscape:connector-curvature="0"
           style="fill:#ffffff;fill-rule:nonzero" />
      </g>
      <g
         clip-path="url(#SvgjsClipPath1000)"
         id="g30">
        <path
           d="M 3.078735,1.0070786 C 3.0038179,0.81135678 2.8950967,0.73110526 2.8022607,0.71628098 c 0.00284,0.0157265 0.00472,0.0316118 0.00563,0.0475674 l 0.00277,0.001179 0.00799,0.004362 c 0.00489,0.003153 0.010197,0.006189 0.014883,0.009372 0.00984,0.00616 0.019333,0.0129381 0.028411,0.0199524 0.018053,0.0139538 0.035146,0.029107 0.051163,0.045357 0.031356,0.0322349 0.058761,0.0680892 0.081637,0.10680555 0.04375,0.0764983 0.072274,0.16074737 0.08399,0.24809267 C 3.0574503,1.115628 3.0201425,1.0372285 2.9688939,0.9681464 2.9437059,0.934895 2.9145489,0.9048468 2.8820699,0.8786702 2.8662799,0.8656418 2.8494329,0.8539503 2.8317029,0.8437167 c -0.00727,-0.004423 -0.014763,-0.008457 -0.022458,-0.0120834 -7.368e-4,0.0242258 -0.00227,0.0486284 -0.00457,0.0727657 -0.00139,0.015679 -0.00354,0.0317411 -0.00589,0.0490115 -0.013907,0.0742589 -0.013727,0.1504707 5.305e-4,0.224663 0.013275,-0.00913 0.028048,-0.015864 0.043648,-0.019893 0.0197,-0.00486 0.040178,-0.0057 0.060211,-0.00248 v -0.00168 c 0.02095,0.00228 0.041305,0.00837 0.060063,0.017978 0.018672,0.00982 0.035022,0.023528 0.04795,0.040199 0.022824,0.031233 0.037051,0.067909 0.04126,0.1063635 0.00498,0.035629 0.00589,0.071708 0.00271,0.1075423 -0.0029,0.035141 -0.00837,0.070022 -0.016386,0.1043594 0.00285,-0.034719 0.00311,-0.069602 7.663e-4,-0.1043594 -0.00134,-0.023582 -0.00445,-0.047029 -0.00931,-0.070143 0.00243,0.076234 -0.014985,0.1517927 -0.050544,0.2192697 -0.015484,0.027923 -0.020212,0.060547 -0.013292,0.091716 0.00229,0.00566 0.00761,0.00951 0.013704,0.0099 0.00302,5.485e-4 0.00612,4.176e-4 0.00908,-3.831e-4 0.028411,-0.00725 0.057883,-0.06416 0.067962,-0.1130241 0.014138,-0.065421 0.048099,-0.1248937 0.097257,-0.1703171 0.010513,-0.010639 0.020459,-0.021824 0.029796,-0.033509 0.038313,-0.051163 -0.00542,-0.1403738 -0.051546,-0.2349781 -0.019009,-0.038107 -0.038166,-0.077511 -0.053904,-0.1175627 z"
           id="path28"
           inkscape:connector-curvature="0"
           style="fill:#ffffff;fill-rule:nonzero" />
      </g>
      <g
         clip-path="url(#SvgjsClipPath1000)"
         id="g34"
         style="fill:#ffffff">
        <path
           d="m 2.7872301,1.3229566 c -0.00526,-0.00807 -0.0098,-0.016578 -0.013586,-0.025434 -0.00295,-0.00681 -0.0056,-0.013675 -0.00819,-0.02063 -0.00569,-0.015001 -0.010963,-0.029472 -0.015237,-0.043795 -0.026455,-0.09401 -0.030752,-0.1928725 -0.012555,-0.28882301 0.00259,-0.0164157 0.00454,-0.0318589 0.00589,-0.0458285 0.0073,-0.0606918 0.00597,-0.12211087 -0.00395,-0.18243002 -0.00197,-0.01019 -0.00453,-0.0202569 -0.00766,-0.0301496 -0.0031,-0.010024 -0.00677,-0.0198638 -0.010993,-0.0294717 -0.00189,-0.004038 -0.0038,-0.008223 -0.00589,-0.0123487 -0.05327,-0.1124123 -0.1689676,-0.1817096 -0.2932142,-0.17562205 -0.0023,0 -0.00472,0 -0.00707,0 -0.00737,0 -0.014441,7.0732e-4 -0.021338,0.001002 0,3.8313e-4 -5.305e-4,6.7785e-4 -5.01e-4,9.4309e-4 -0.019236,0.0279713 -0.030837,0.0604795 -0.033657,0.0943095 2.657e-4,0.008796 0.00317,0.0173094 0.00834,0.0244321 0.00638,0.009319 0.014072,0.0176677 0.022841,0.0247857 0.00139,0.001238 0.00295,0.002505 0.00421,0.003654 0.00383,0.003301 0.0079,0.00672 0.012231,0.0100499 0.00525,0.004038 0.010698,0.00834 0.016268,0.0126139 8.341e-4,6.2371e-4 0.0017,0.001204 0.00259,0.001739 0.050721,0.03905 0.1147629,0.0876489 0.1087802,0.17532733 -0.00436,0.0317643 -0.019097,0.0611981 -0.041909,0.0837292 -0.012786,0.0133004 -0.028767,0.0231021 -0.046418,0.0284697 -7.073e-4,1.7683e-4 -10e-4,3.5366e-4 -0.00156,5.0101e-4 -0.012499,0.003173 -0.025613,0.00299 -0.038018,-5.3049e-4 -0.00264,-6.9028e-4 -0.00522,-0.001587 -0.00772,-0.002682 -0.016529,-0.007367 -0.030866,-0.0188918 -0.041614,-0.0334504 -0.00696,-0.008842 -0.013704,-0.018744 -0.020335,-0.0281455 -0.022428,-0.033421 -0.03625,-0.0494536 -0.055996,-0.0499251 -0.00588,5.824e-5 -0.011707,0.001053 -0.01727,0.002947 -4.716e-4,2.6524e-4 -0.00103,6.4837e-4 -0.00103,6.4837e-4 -0.00128,0.007183 -0.00142,0.0145234 -4.126e-4,0.0217501 h 0.00251 c 1.484e-4,0.003374 2.03e-5,0.006755 -3.831e-4,0.0101088 0,0.003713 0,0.007338 -4.421e-4,0.0108456 0.00809,0.056086 0.00119,0.11331474 -0.020011,0.16586697 -0.00497,0.012525 -0.010942,0.024628 -0.01786,0.036191 8.88e-5,0.00146 8.88e-5,0.00293 0,0.00439 -5.305e-4,0.012555 -0.00118,0.024786 -0.0018,0.037282 -0.00223,0.029186 -0.00617,0.058216 -0.011789,0.086942 -0.00212,0.00982 -0.0045,0.019648 -0.00713,0.029472 8.5e-6,0.035494 -0.00844,0.07048 -0.024638,0.1020606 -0.020229,0.038598 -0.047882,0.072821 -0.081371,0.1007049 -0.031575,0.026765 -0.066656,0.049095 -0.104271,0.06637 -0.018223,0.00889 -0.036972,0.016654 -0.056144,0.023253 -0.018946,0.00671 -0.038287,0.012252 -0.057912,0.016593 0.035645,-0.017342 0.069723,-0.037734 0.1018543,-0.060947 0.014593,-0.01043 0.028631,-0.021615 0.042056,-0.033509 -0.012525,0.00492 -0.024933,0.00925 -0.037105,0.013557 -0.032751,0.010421 -0.064828,0.022853 -0.096048,0.037223 -0.013263,0.00628 -0.025631,0.0143 -0.036781,0.023843 -0.00791,0.00627 -0.013577,0.014936 -0.01615,0.024697 -0.00135,0.00829 6.542e-4,0.016771 0.00557,0.023577 0.00616,0.00887 0.01485,0.015675 0.024933,0.01954 0.02662,0.00912 0.055463,0.00945 0.082285,9.431e-4 0.031317,-0.00877 0.061291,-0.021766 0.089093,-0.038637 0.014382,-0.00846 0.028823,-0.017683 0.042852,-0.027497 l 0.010197,-0.00737 0.00536,-0.00389 0.00115,-0.001 8.547e-4,-6.778e-4 h 1.474e-4 l 7.957e-4,-6.189e-4 c 0,0 -1.474e-4,0 -1.474e-4,0 0.00236,-0.00215 0.00455,-0.00449 0.00654,-0.00698 l 0.00858,-0.0092 c 0.022634,-0.02623 0.045799,-0.054758 0.070526,-0.082521 0.012201,-0.013616 0.024874,-0.027497 0.038578,-0.040995 0.014058,-0.014416 0.02931,-0.027617 0.045593,-0.039463 0.010156,-0.00758 0.021418,-0.01354 0.033392,-0.017683 0.00909,-0.00316 0.018742,-0.00435 0.028322,-0.00348 0.00313,3.516e-4 0.00623,9.128e-4 0.00928,0.00168 0.00171,5.599e-4 0.00315,0.00115 0.00489,0.00156 l 0.00221,0.00118 c 0.00137,4.106e-4 0.00267,9.95e-4 0.00389,0.00174 l 0.00295,0.00189 c 0.00298,0.00158 0.00579,0.00348 0.00837,0.00566 0.00871,0.00717 0.01529,0.016604 0.019009,0.027261 1.935e-4,6.27e-4 3.413e-4,0.00127 4.421e-4,0.00192 0.0035,0.00394 0.00647,0.00832 0.00884,0.013027 0.00758,0.016138 0.010476,0.034078 0.00837,0.051782 -0.00429,0.028046 -0.013575,0.055096 -0.027409,0.079868 -0.012373,0.023239 -0.026233,0.045655 -0.041496,0.067107 -0.015237,0.021308 -0.030916,0.04185 -0.047715,0.061331 0.012761,-0.022458 0.023872,-0.045504 0.034335,-0.069111 0.010244,-0.023104 0.018976,-0.046849 0.026141,-0.071086 3.833e-4,-4.261e-4 5.751e-4,-9.907e-4 5.305e-4,-0.00156 -0.00722,0.011789 -0.014412,0.023194 -0.022133,0.034334 -0.020778,0.030769 -0.042734,0.06027 -0.062922,0.088857 -0.00477,0.00713 -0.00978,0.014235 -0.013321,0.020247 -9.941e-4,0.0014 -0.00182,0.00292 -0.00248,0.00451 -3.41e-4,8.88e-4 -6.361e-4,0.00179 -8.842e-4,0.00271 0,0.00118 -2.358e-4,0.00227 -3.831e-4,0.00351 -0.00106,0.00896 0.00115,0.018002 0.00622,0.025464 0.00394,0.00547 0.010728,0.00811 0.017329,0.00675 0.012047,-0.00198 0.023424,-0.00688 0.033126,-0.014294 0.027024,-0.018672 0.051384,-0.04093 0.072412,-0.066164 0.020228,-0.026318 0.03685,-0.05522 0.049424,-0.08594 0.00362,-0.00846 0.00734,-0.017123 0.01061,-0.02564 0.00999,-0.024108 0.019864,-0.049424 0.029766,-0.074328 7.958e-4,-0.00162 0.00153,-0.00295 0.00209,-0.00439 0.00652,-0.015541 0.013203,-0.031044 0.020041,-0.046506 0.00233,-0.00539 0.00501,-0.010728 0.00769,-0.016121 0.00663,-0.012437 0.013645,-0.024167 0.020395,-0.035012 0.019174,-0.029251 0.036812,-0.059481 0.052843,-0.090567 0.010006,-0.021098 0.018381,-0.042932 0.025051,-0.065309 0.00295,-0.01005 0.00589,-0.020394 0.00834,-0.03071 0.00218,-0.0094 0.00424,-0.019068 0.00589,-0.028705 0.00425,-0.024496 0.00697,-0.04923 0.00816,-0.074062 4.126e-4,-0.0102562 7.368e-4,-0.0206302 9.136e-4,-0.0311811 4.126e-4,-0.0248447 -6.779e-4,-0.0496599 -0.002,-0.0745929 -8.547e-4,-0.008842 -0.00159,-0.0173589 -0.00236,-0.0257583 -0.00261,-0.0294717 -0.00609,-0.0589435 -0.010433,-0.0884152 -0.00239,-0.0159737 -0.00466,-0.0318884 -0.00728,-0.0477737 -0.00327,-0.0175062 -0.0061,-0.0353661 -0.0094,-0.0528723 0.00607,0.0140286 0.011789,0.0282044 0.017447,0.0425572 0.00433,0.0111993 0.00861,0.0225753 0.012555,0.0342756 0.00445,0.013557 0.00899,0.0271435 0.013086,0.0407889 0.00902,0.0303362 0.016534,0.0611735 0.022546,0.0925118 0.00702,0.0367025 0.011375,0.0738653 0.013026,0.1111968 0.00121,0.038045 -0.00138,0.076115 -0.00775,0.113643 -4.421e-4,0.00277 -0.00115,0.00542 -0.00139,0.00813 -0.00357,0.017923 -0.00814,0.035633 -0.013675,0.053049 -0.00463,0.014736 -0.010138,0.029 -0.015944,0.043088 -9.136e-4,0.002 -0.00162,0.00392 -0.0023,0.00589 -0.01563,0.033982 -0.033592,0.066843 -0.053756,0.098347 -0.00893,0.014139 -0.016811,0.028914 -0.023577,0.044208 -0.00707,0.01618 -0.013734,0.032419 -0.020336,0.049041 -0.010138,0.025287 -0.019274,0.050868 -0.029707,0.077128 -7.073e-4,0.00781 -0.00168,0.015384 -0.00256,0.023047 5.609e-4,0.037485 -0.00323,0.074909 -0.011288,0.111521 -0.00819,0.039055 -0.023402,0.076301 -0.044885,0.1099296 -0.020967,0.032966 -0.048655,0.061136 -0.081254,0.082668 -0.031541,0.021266 -0.06716,0.035738 -0.1045952,0.042498 0.035183,-0.011439 0.067594,-0.030089 0.095164,-0.054758 0.00703,-0.00617 0.013695,-0.012758 0.019952,-0.019717 -0.029946,0.021341 -0.063302,0.037436 -0.098642,0.047597 -0.049896,0.01674 -0.051163,0.020866 -0.049277,0.03625 3.394e-4,0.00348 0.00231,0.0066 0.00531,0.0084 0.021444,0.00879 0.045375,0.00938 0.067225,0.00165 0.012947,-0.00334 0.025511,-0.00802 0.037488,-0.01397 0.028281,-0.017161 0.054806,-0.037062 0.079191,-0.059415 0.031499,-0.031503 0.06892,-0.056464 0.1101064,-0.073444 0.016669,-0.00505 0.034726,-0.00232 0.049159,0.00743 0.016467,0.011376 0.026884,0.029609 0.028322,0.049571 0.0057,0.013871 0.00856,0.028741 0.00843,0.043736 -8.725e-4,0.021401 -0.00663,0.042319 -0.016828,0.061154 -0.01825,0.032593 -0.042324,0.061562 -0.071027,0.085468 -0.026813,0.023134 -0.055389,0.044142 -0.085468,0.062834 -0.013027,0.00834 -0.026525,0.016386 -0.039846,0.024049 -0.015708,0.00884 -0.03177,0.017418 -0.04795,0.025405 -9.726e-4,6.778e-4 -0.00221,0.00109 -0.00321,0.00177 6.778e-4,-5.895e-4 0.00171,-0.00139 0.00248,-0.00197 0.012702,-0.00866 0.025139,-0.017683 0.036987,-0.027026 0.014736,-0.011258 0.028735,-0.02287 0.042557,-0.034718 0.021498,-0.01842 0.041824,-0.038165 0.060859,-0.05912 -0.018188,0.015352 -0.037486,0.02934 -0.057735,0.04185 -0.00433,0.00248 -0.00993,0.00533 -0.01727,0.00884 -0.022544,0.010762 -0.044396,0.022917 -0.065427,0.036398 -0.012439,0.00788 -0.023921,0.017176 -0.034217,0.027703 -0.00546,0.00551 -0.00964,0.012164 -0.012231,0.019481 -0.00138,0.00399 -0.00116,0.00837 6.189e-4,0.012201 3.986e-4,0.00108 8.713e-4,0.00214 0.00141,0.00315 0.0013,0.00227 0.010374,0.00645 0.033244,0.00295 0.00652,-8.613e-4 0.012989,-0.00211 0.019363,-0.00374 0.017851,-0.00478 0.035366,-0.010737 0.05243,-0.01783 0.019687,-0.0081 0.038696,-0.017182 0.054699,-0.025375 0.027173,-0.013704 0.045917,-0.024874 0.04633,-0.025021 0.079409,-0.052993 0.1395886,-0.1302072 0.1715844,-0.2201539 0.011582,-0.037518 0.0028,-0.1082202 -0.00507,-0.1706118 -0.013292,-0.1055678 -0.025788,-0.2052412 0.044208,-0.2230126 0.00271,-7.33e-4 0.00547,-0.00126 0.00825,-0.00159 0.065221,-0.00772 0.077481,0.046094 0.083582,0.07197 0.00126,0.00797 0.00359,0.01573 0.00693,0.023076 0.0032,0.00801 0.011903,0.012331 0.020218,0.01005 0.0099,-0.00324 0.017922,-0.010582 0.022015,-0.020159 0.013185,-0.038071 0.010661,-0.079825 -0.00701,-0.1160302 -0.00829,-0.018405 -0.019215,-0.035509 -0.032419,-0.05078 -0.00902,-0.012024 -0.017889,-0.023872 -0.025699,-0.036957 z M 2.3519032,1.1098465 c -0.0045,0.03462 -0.013646,0.068475 -0.027202,0.100646 -0.013185,0.032068 -0.032168,0.061431 -0.055996,0.086617 0.00899,-0.033333 0.017064,-0.065103 0.023253,-0.097257 0.00648,-0.031606 0.011311,-0.063527 0.014471,-0.095636 4.126e-4,-0.00625 9.725e-4,-0.012761 0.00159,-0.019068 10e-4,-0.013174 0.00206,-0.0262 0.00295,-0.039286 8.842e-4,-0.013086 0.00162,-0.025611 0.00239,-0.03849 1.489e-4,-5.568e-4 1.987e-4,-0.00114 1.474e-4,-0.00171 0.00118,-0.0193629 0.00233,-0.0387848 0.00327,-0.0586782 9.431e-4,-0.0131739 0.00177,-0.0263477 0.00295,-0.0400521 0.013994,0.0249674 0.023669,0.0521197 0.028617,0.0803105 0.00141,0.006277 0.00253,0.0124665 0.00339,0.0186261 4.716e-4,0.00357 7.368e-4,0.00684 0.00112,0.010669 3.241e-4,0.00295 7.073e-4,0.0061 0.00109,0.00925 7.957e-4,0.013351 0.00144,0.026525 9.726e-4,0.040052 -1.664e-4,0.014732 -0.00117,0.029442 -0.00301,0.04406 z m 0.3079796,0.6483781 c 0.00155,0.036082 -0.0037,0.072134 -0.015473,0.1062751 -0.011147,0.034882 -0.035541,0.063995 -0.067932,0.081077 0.018892,-0.02664 0.030863,-0.05756 0.034835,-0.089977 0.00402,-0.031861 0.005,-0.064031 0.00295,-0.096078 l -0.00675,-0.098966 c -0.00269,-0.034555 -0.00187,-0.069292 0.00245,-0.1036816 0.015255,0.031232 0.027226,0.063964 0.03572,0.097669 0.00867,0.033956 0.013437,0.068791 0.014205,0.1038289 z"
           id="path32"
           inkscape:connector-curvature="0"
           style="fill:#ffffff;fill-rule:nonzero" />
      </g>
      <g
         clip-path="url(#SvgjsClipPath1000)"
         id="g38"
         style="fill:#ffffff">
        <path
           d="m 2.1564172,1.05721 c -2.438e-4,3.516e-4 -5.542e-4,6.52e-4 -9.137e-4,8.841e-4 -0.00401,0.00386 -0.00769,0.00766 -0.011789,0.011612 -0.00195,0.00189 -0.0043,0.00365 -0.00642,0.00545 -0.01443,0.01306 -0.029541,0.025347 -0.045269,0.03681 -0.01562,0.011789 -0.031829,0.022428 -0.048569,0.032566 -0.017741,0.0107 -0.036194,0.020173 -0.05523,0.028352 -0.00945,0.00422 -0.019212,0.00768 -0.029206,0.010345 -0.00986,0.00337 -0.02044,0.00399 -0.030621,0.0018 0.010074,9.054e-4 0.020204,-9.595e-4 0.029295,-0.00539 0.00931,-0.00396 0.018351,-0.00854 0.027055,-0.013704 0.017494,-0.010198 0.034237,-0.021633 0.050102,-0.034217 0.00884,-0.0069 0.017123,-0.013999 0.025611,-0.021367 0.012702,-0.011199 0.024815,-0.023135 0.03681,-0.035366 0.00828,-0.00884 0.016534,-0.017683 0.024521,-0.026937 0.00251,-0.00295 0.00513,-0.00657 0.00769,-0.00984 0.00925,-0.011789 0.01839,-0.023577 0.026525,-0.035779 0.011231,-0.0167712 0.021087,-0.0344233 0.029472,-0.0527838 7.663e-4,-0.002092 0.00171,-0.004185 0.00245,-0.006336 0.00847,-0.019527 0.01403,-0.0401903 0.016504,-0.0613307 -3.536e-4,-0.006277 -9.726e-4,-0.0122308 -0.00162,-0.0179188 -0.00344,-0.0215538 -0.00269,-0.0435682 0.00221,-0.0648378 0.00328,-0.0119034 0.010356,-0.0224087 0.020159,-0.0299138 0.00571,-0.004264 0.012017,-0.007669 0.018715,-0.0101088 0.00371,-0.001238 0.00675,-0.002034 0.00937,-0.002652 2.203e-4,-1.6451e-4 4.706e-4,-2.8463e-4 7.368e-4,-3.5366e-4 0.010305,-0.002574 0.020919,-0.003695 0.031535,-0.00333 0.051546,0.002446 0.081607,0.0462117 0.1024143,0.0769507 0.00848,0.015457 0.020243,0.0288747 0.034452,0.0393153 0.00196,8.3422e-4 0.00414,0.00103 0.00622,5.5996e-4 3.806e-4,6.215e-5 7.688e-4,6.215e-5 0.00115,0 0.015653,-0.007089 0.02831,-0.0194636 0.035749,-0.0349535 0.00424,-0.006676 0.00699,-0.0141835 0.00808,-0.0220154 0.00133,-0.0182641 -0.00301,-0.0364935 -0.012437,-0.0521944 -3.832e-4,0.00501 -9.137e-4,0.0100793 -0.00183,0.0153548 -3.308e-4,0.001553 -7.44e-4,0.003088 -0.00124,0.004598 -0.00373,0.0173721 -0.013405,0.0329 -0.02735,0.0439129 -0.004,0.003077 -0.00841,0.005568 -0.013115,0.007397 0.00527,-0.008196 0.00898,-0.0172998 0.010934,-0.0268487 0.00193,-0.009926 0.00185,-0.0201377 -2.357e-4,-0.0300317 -0.0018,-0.008944 -0.00491,-0.0175734 -0.00922,-0.0256109 C 2.4149619,0.7409148 2.4101419,0.7328815 2.4046999,0.7252783 2.4004299,0.7193843 2.3958599,0.7134896 2.3912019,0.707831 2.3834219,0.698989 2.3754349,0.6898827 2.3672119,0.6807759 2.3617319,0.6742629 2.3560419,0.667602 2.3511199,0.6607646 2.3455199,0.6559706 2.3401469,0.6510586 2.3349989,0.6460287 2.3206379,0.6316699 2.3096539,0.6142933 2.3028449,0.5951605 c -4.42e-4,-0.001709 -8.841e-4,-0.003448 -0.00136,-0.005334 -0.00221,-0.008116 -0.00332,-0.0164921 -0.0033,-0.0249036 0,-0.003448 2.947e-4,-0.006543 3.831e-4,-0.009814 0.00158,-0.0256748 0.00811,-0.0508027 0.019216,-0.0740035 0.00572,-0.012496 0.012201,-0.0242847 0.018626,-0.0357787 0.00112,-0.001886 0.00218,-0.003949 0.00321,-0.005894 2.749e-4,-4.76e-4 5.21e-4,-9.6808e-4 7.368e-4,-0.001474 0.00259,-0.004185 0.00483,-0.008223 0.00693,-0.0121718 0.00271,-0.005099 0.00525,-0.0101383 0.00772,-0.0149422 C 2.3759998,0.3794127 2.3711748,0.3374076 2.3436008,0.3115544 2.309847,0.27184726 2.2215497,0.25764188 2.150847,0.24597108 2.1293326,0.2426113 2.109174,0.23925152 2.0912552,0.2354202 2.0267365,0.21977873 1.9634175,0.19954895 1.9017814,0.17488526 1.6929152,0.09731566 1.4326209,8.5468023e-4 0.99808968,0.11119685 0.93808523,0.1264632 0.87557569,0.14553141 0.81241777,0.16792993 0.64070973,0.23510329 0.48677923,0.34092042 0.36256125,0.47717681 0.2796504,0.56840797 0.212563,0.67284915 0.16406913,0.78618792 0.10689338,0.92197287 0.0745992,1.0669323 0.06872808,1.2141469 0.06453134,1.3045545 0.07306337,1.3951031 0.09407377,1.4831354 0.14890844,1.7039634 0.26153433,1.9062159 0.42038479,2.0691219 0.150129,1.6323508 0.16480593,1.2690233 0.23315087,1.0300076 0.32787302,0.69836216 0.55863668,0.48047765 0.73319775,0.41820388 c 0.0151485,-0.005275 0.0290002,-0.009637 0.0423804,-0.0130265 0.0960484,-0.0243436 0.15481501,0.001503 0.25074545,0.0490999 0.025265,0.0163769 0.054599,0.0253791 0.084702,0.0259941 0.013734,-0.003478 0.025464,-0.0218975 0.034659,-0.0544638 0.023285,-0.0690016 0.080538,-0.12109586 0.1514258,-0.13778034 0.042192,-0.0150107 0.089201,-0.006062 0.1229266,0.0234005 0.021567,0.024671 0.034465,0.0557242 0.036722,0.0884152 0.00228,0.0212626 0.00262,0.0426877 0.00103,0.0640126 -0.00267,0.0370535 -0.00739,0.0739302 -0.014147,0.11046005 l -0.00183,0.0116119 c -0.00168,0.00946 -0.00416,0.019304 -0.00657,0.0296486 -0.015473,0.0653388 -0.016534,0.0974335 0.018184,0.11567655 0.018461,0.00992 0.039988,0.0124987 0.06027,0.007221 0.02786,-0.007971 0.051831,-0.0258803 0.067372,-0.0503377 -0.018039,0.0124246 -0.038479,0.0209377 -0.060004,0.024992 -0.012155,0.002282 -0.024646,0.002082 -0.036722,-5.8943e-4 -0.012019,-0.00242 -0.022389,-0.009951 -0.028411,-0.0206302 0.00736,0.008554 0.018191,0.0133295 0.029472,0.012997 0.010792,-1.0179e-4 0.021451,-0.002398 0.031328,-0.006749 0.019698,-0.008392 0.037107,-0.0213653 0.05078,-0.0378417 0.013509,-0.0154891 0.023378,-0.033807 0.028882,-0.0536091 0.00264,-0.009217 0.00426,-0.0186944 0.00483,-0.0282634 -0.00672,-0.0389046 -0.017866,-0.0769141 -0.033215,-0.11328933 -0.00419,-0.0113171 -0.0081,-0.0217207 -0.011789,-0.0324189 -0.00141,-0.004273 -0.00295,-0.008576 -0.00439,-0.0127023 -0.00517,-0.0151379 -0.0059,-0.0314403 -0.00209,-0.0469779 0.00112,-0.004956 0.00294,-0.009728 0.00539,-0.0141759 0.00873,-0.0152363 0.023453,-0.02611 0.040583,-0.0299728 0.033346,-0.005609 0.067607,3.7162e-4 0.09708,0.0169463 0.015978,0.007859 0.031141,0.0172765 0.045269,0.028116 0.00754,0.005894 0.015031,0.0120245 0.022045,0.0185377 0.070599,0.0662698 0.1115297,0.15818174 0.1135546,0.25498942 0.00133,0.0248173 -8.939e-4,0.0496971 -0.0066,0.0738856 -0.0134,0.0489641 -0.039227,0.0936338 -0.074976,0.12967562 -0.014737,0.0162084 -0.030372,0.0315775 -0.046831,0.0460348 -0.019157,0.017241 -0.040111,0.0328905 -0.060358,0.0477442 -0.012024,0.008842 -0.023577,0.0174178 -0.034128,0.0258762 l 8.841e-4,8.8415e-4 c -0.020366,0.0130631 -0.034555,0.0338358 -0.039315,0.0575583 -0.00154,0.01061 -0.00109,0.021414 0.00133,0.031859 0.00284,0.012418 0.00753,0.02434 0.013911,0.035366 0.00221,0.00357 0.00457,0.00696 0.00704,0.010492 -0.00386,-0.00265 -0.00749,-0.00548 -0.01114,-0.00843 -0.00806,-0.00691 -0.015371,-0.014659 -0.021809,-0.023106 -0.00115,-0.00168 -0.00239,-0.00357 -0.00357,-0.00539 -0.00425,-0.0066 -0.00787,-0.013588 -0.010816,-0.020866 -0.00136,0.0049 -0.00224,0.00993 -0.00262,0.015001 -2.358e-4,0.00483 -2.358e-4,0.00961 0,0.014205 4.425e-4,0.013272 0.00452,0.026168 0.011789,0.037282 0.00191,0.00293 0.00419,0.0056 0.00678,0.00796 0.00761,0.0064 0.017943,0.00853 0.027468,0.00566 0.017849,-0.00584 0.033348,-0.017272 0.044208,-0.032596 0.00914,-0.010816 0.017919,-0.021013 0.026967,-0.031269 0.014736,-0.017182 0.029472,-0.033274 0.043766,-0.04854 0.1043004,-0.11166868 0.1912126,-0.17683068 0.2587618,-0.19410111 0.071351,-0.0181546 0.1016185,0.0218091 0.1112852,0.0396395 0.026318,0.0471548 0.010168,0.10562669 -0.047803,0.17423711 -0.00952,0.011376 -0.020247,0.023017 -0.031859,0.03457 -0.00123,0.00143 -0.00254,0.00278 -0.00395,0.00404 -0.00884,0.00828 -0.020277,0.017683 -0.033951,0.028823 -1.768e-4,3.242e-4 -3.831e-4,6.189e-4 -6.779e-4,6.189e-4 -0.085822,0.070496 -0.1007933,0.096991 -0.098288,0.1064224 0.00197,0.00261 0.00461,0.00464 0.00763,0.00589 0.01316,0.00563 0.027937,0.00621 0.041496,0.00162 0.047829,-0.016263 0.091567,-0.042697 0.128202,-0.077481 0.011553,-0.00973 0.02231,-0.019304 0.031977,-0.028705 0.012234,-0.01168 0.023749,-0.024091 0.034482,-0.037164 0.00451,-0.00554 0.00884,-0.011199 0.012879,-0.016593 z M 1.0157138,0.19489656 c -0.0498265,0.0135107 -0.0989312,0.0295543 -0.14712291,0.0480684 -0.007692,0.003095 -0.0152369,0.006219 -0.0228701,0.009343 -0.0401573,0.0157972 -0.0794491,0.0337117 -0.11771009,0.053668 -0.0456028,0.0232339 -0.0895773,0.0495339 -0.13162076,0.078719 -0.0442297,0.0301654 -0.0861378,0.0636013 -0.12537275,0.10002706 -0.035793,0.0333136 -0.0694108,0.0688903 -0.10064596,0.10651084 -0.0654003,0.0810234 -0.12057404,0.16979227 -0.16427544,0.26430249 0.0151316,-0.0563904 0.0357932,-0.11114915 0.0616843,-0.1634797 0.0212787,-0.0430225 0.0460389,-0.0842335 0.074033,-0.12322131 0.0199531,-0.0281153 0.0416061,-0.0549847 0.0648378,-0.0804578 0.0127023,-0.0139401 0.0258762,-0.0277918 0.0391974,-0.0410541 0.038485,-0.0372405 0.0799307,-0.071294 0.12392864,-0.10182484 0.0440598,-0.0300917 0.0903014,-0.0568574 0.13834031,-0.0800747 0.0197461,-0.009343 0.0397279,-0.0179483 0.0599455,-0.0261709 0.0289118,-0.0117887 0.058413,-0.0226638 0.0882089,-0.0316821 0.048665,-0.0149754 0.0983052,-0.0265755 0.14856696,-0.0347177 0.00192,-2.6525e-4 0.00392,-7.0732e-4 0.00575,-0.00112 0.052011,-0.008459 0.1047043,-0.0119914 0.157379,-0.0105509 -0.051327,0.008454 -0.1021533,0.0197094 -0.1522509,0.0337157 z m 1.1464503,0.0740625 c 0.023557,0.00407 0.046622,0.010599 0.068817,0.0194808 0.022927,0.00882 0.04426,0.0213233 0.063158,0.0370165 0.00965,0.008226 0.017925,0.017936 0.02452,0.0287644 0.00685,0.0107411 0.010336,0.0232803 0.01002,0.0360145 -0.011911,-0.0190315 -0.028812,-0.0344335 -0.048864,-0.0445318 -0.019526,-0.0107719 -0.039693,-0.0203386 -0.060388,-0.0286465 -0.020836,-0.008842 -0.042115,-0.0167989 -0.063629,-0.0250215 -0.021514,-0.008223 -0.043029,-0.0170052 -0.064838,-0.0271729 0.023813,-0.00152 0.047722,-1.4408e-4 0.071204,0.004097 z M 1.9992149,0.58495494 C 1.96968,0.53010015 1.9331001,0.47934212 1.8904053,0.43397125 c -0.00139,-0.001356 -0.00256,-0.00277 -0.00398,-0.004008 -0.011995,-0.0129381 -0.024845,-0.0252573 -0.037871,-0.0373407 -0.00312,-0.0028 -0.0061,-0.005364 -0.00911,-0.007957 -0.018597,-0.0167989 -0.037812,-0.0328315 -0.057853,-0.0481568 -0.013763,-0.0106688 -0.02791,-0.0211607 -0.04241,-0.0309748 -0.054237,-0.0370906 -0.111201,-0.0700258 -0.1704056,-0.098524 0.066251,0.0120198 0.1300556,0.0349245 0.1888254,0.067785 0.010551,0.005718 0.020778,0.0117887 0.031328,0.0181251 0.020383,0.0124587 0.040061,0.0260365 0.058943,0.040671 0.00619,0.004774 0.01226,0.00949 0.018184,0.0144117 0.0074,0.00616 0.01453,0.0124076 0.021573,0.0188914 0.0051,0.004686 0.010286,0.009401 0.015384,0.0143233 0.00248,0.002446 0.00495,0.00501 0.00752,0.007692 7.133e-4,6.7884e-4 0.00147,0.001309 0.00227,0.001886 0.00218,0.002299 0.00463,0.004568 0.00693,0.007132 0.00589,0.006189 0.011789,0.0125549 0.017388,0.0190093 0.039962,0.0452561 0.072023,0.0969144 0.09484,0.15281093 0.026264,0.0630295 0.0386,0.13098974 0.036162,0.19922891 C 2.0526321,0.70507759 2.0294661,0.64328795 1.9991301,0.5849551 Z M 2.0678841,0.3995188 c -0.00345,-0.002947 -0.00663,-0.00613 -0.01002,-0.009166 -0.00277,-0.002417 -0.00569,-0.00445 -0.00837,-0.006779 C 2.0373521,0.3733176 2.0250911,0.3635035 2.0125951,0.3538073 2.0053151,0.3484433 1.9982421,0.3430796 1.9908451,0.3377157 1.9634951,0.3179991 1.9351431,0.2992551 1.9060551,0.2819552 1.8783221,0.2650679 1.8494991,0.2495363 1.8203811,0.2345647 1.7937091,0.2211256 1.7670961,0.2080401 1.7396581,0.1959567 1.6932401,0.1753265 1.6461741,0.1563172 1.5981938,0.1384573 1.5865818,0.1339183 1.5748228,0.1296153 1.5632398,0.1255192 c 0.064434,0.003501 0.1280996,0.0156951 0.1892675,0.0362502 0.061932,0.0198468 0.1213747,0.0467546 0.1771546,0.0801926 0.049037,0.0290997 0.094353,0.0640543 0.134951,0.10409416 0.00648,0.005894 0.012231,0.0120539 0.01786,0.0180072 0.00398,0.004332 0.00752,0.008458 0.011435,0.0127023 0.00309,0.003831 0.0064,0.007515 0.00964,0.0111698 0.020304,0.0241111 0.038422,0.0499813 0.054139,0.0773043 0.00911,0.0157745 0.017254,0.0320822 0.024403,0.0488347 0.00156,0.003537 0.00295,0.007309 0.0046,0.0110519 4.126e-4,0.00109 7.663e-4,0.001916 0.00112,0.002947 -2.864e-4,-2.1334e-4 -4.771e-4,-5.3106e-4 -5.305e-4,-8.8415e-4 -0.00248,-0.002947 -0.00486,-0.00557 -0.00696,-0.008488 -0.03405,-0.0428362 -0.071673,-0.0827071 -0.1124648,-0.11918241 z"
           id="path36"
           inkscape:connector-curvature="0"
           style="fill:#ffffff;fill-rule:nonzero" />
      </g>
      <g
         clip-path="url(#SvgjsClipPath1000)"
         id="g42">
        <path
           d="M 0.70036624,2.1760748 C 0.66597635,2.1430465 0.6338298,2.1077591 0.60414104,2.0704481 0.54476243,1.9962355 0.495973,1.9141396 0.45916959,1.8265106 0.42206704,1.7392509 0.39753769,1.6471666 0.38631546,1.5530129 0.36378354,1.3635038 0.39180697,1.1714071 0.46753956,0.99623296 0.54424811,0.81948734 0.66486222,0.66528307 0.81792898,0.54826263 0.64757346,0.64906047 0.51086777,0.7980308 0.42504132,0.97639848 0.33673025,1.1575027 0.30220022,1.3601314 0.32554475,1.560263 c 0.0119586,0.1000669 0.0387784,0.19779 0.0795737,0.2899429 0.0408562,0.091652 0.0952381,0.1766524 0.16132826,0.2521601 C 0.69825866,2.2503481 0.86713195,2.3605227 1.0556774,2.4215449 0.96881564,2.3790008 0.88623999,2.3282139 0.80908746,2.2698833 0.77086168,2.2409915 0.73454541,2.2096565 0.70036624,2.1760748 Z"
           id="path40"
           inkscape:connector-curvature="0"
           style="fill:#ffffff;fill-rule:nonzero" />
      </g>
      <g
         clip-path="url(#SvgjsClipPath1000)"
         id="g46"
         style="fill:#6e40c9;fill-opacity:1">
        <path
           d="M 3.1873383,1.0973505 C 3.1694785,1.060334 3.1505871,1.0221386 3.1359691,0.98465057 3.0448131,0.74710841 2.9033487,0.65937106 2.7854029,0.6522389 2.7811661,0.63988537 2.7760749,0.62784164 2.770166,0.61619497 2.70615,0.4837898 2.5701261,0.4015401 2.4231363,0.40635624 2.4379096,0.35882641 2.4252225,0.30702377 2.3901575,0.2716999 2.3419122,0.21431844 2.2453923,0.19884578 2.160278,0.18490565 2.1396477,0.18145745 2.120049,0.17836292 2.1034565,0.1749442 2.0420053,0.15977886 1.9816715,0.14039956 1.9228832,0.11694383 1.7172589,0.0405531 1.4357449,-0.06395366 0.98273491,0.05110398 0.92105057,0.06678294 0.85674325,0.08647006 0.79116865,0.10960537 0.67431323,0.15310565 0.11765115,0.39492121 0.01983448,1.0776339 c -8.2521e-4,0.00466 -0.0020041,0.00884 -0.0027114,0.013587 C 0.0066174,1.1492909 9.296423e-4,1.2081303 1.178869e-4,1.2671376 -4.690949e-4,1.3260746 0.00360084,1.3849651 0.01228971,1.4432607 c 0.03567758,0.2333109 0.13740384,0.451531 0.29315532,0.6288678 0.076788,0.087985 0.16526967,0.1650332 0.26297627,0.2289954 0.0972929,0.06347 0.20243856,0.1139968 0.31278349,0.1503058 0.10963252,0.03603 0.22296361,0.059637 0.33786391,0.070378 0.016711,0.00171 0.033362,0.00295 0.050279,0.00395 -0.052404,0.00292 -0.1049241,0.00312 -0.1573496,6.189e-4 C 0.94546405,2.5192575 0.78200351,2.4791262 0.63110767,2.4083121 0.55553843,2.3720096 0.48417417,2.3275367 0.41829229,2.2756893 0.35103715,2.2236591 0.29123237,2.1626545 0.24054828,2.0943792 c 0.0202708,0.038064 0.0442598,0.074028 0.0716163,0.1073655 0.0268161,0.034008 0.0560703,0.06602 0.087531,0.095783 0.0633745,0.059666 0.13397936,0.1111523 0.21016292,0.153253 0.4019649,0.2242799 0.6711008,0.2302921 1.1131768,0.068728 l -0.002,-0.1229266 C 1.2606828,2.4643673 0.85789265,2.3014476 0.88592027,1.4410498 c 0.0129979,0.1036699 0.040901,0.204919 0.082845,0.3006117 0.020795,0.047872 0.0461079,0.093653 0.075595,0.1367193 0.028519,0.043467 0.064298,0.081709 0.105774,0.1130536 C 1.1115514,1.9574333 1.0790671,1.9170846 1.054086,1.8721328 1.0285877,1.8278665 1.0072567,1.7813272 0.99036808,1.7331147 0.95661004,1.6370721 0.93698322,1.5366348 0.93210247,1.4349492 0.92668414,1.3348517 0.93746211,1.234536 0.96402036,1.1378741 0.98723188,1.053968 1.0246526,0.97466088 1.0746572,0.903397 c 0.018025,-0.0218258 0.038055,-0.0419151 0.059828,-0.0600044 -0.00239,0.003448 -0.00495,0.006867 -0.00746,0.0105509 -0.028392,0.0429246 -0.051656,0.0890282 -0.069317,0.13736774 -0.017341,0.0478333 -0.029321,0.0974431 -0.03572,0.14791866 -0.00658,0.05001 -0.00697,0.1006406 -0.00118,0.1507479 -6.464e-4,-0.049799 0.00484,-0.099488 0.016327,-0.1479481 0.011063,-0.047821 0.027494,-0.094239 0.048982,-0.1383698 C 1.1054912,0.9636596 1.1292112,0.9259145 1.1568492,0.89110735 1.0909653,1.0355606 1.0798005,1.1990318 1.125437,1.3511021 1.1547025,1.1603316 1.2968446,0.99891489 1.4650398,0.88653917 1.4523964,0.89794473 1.4400183,0.90964501 1.4280528,0.92190525 1.3735878,0.97627798 1.3264121,1.0374915 1.2877084,1.1040111 1.26847,1.137096 1.2519129,1.1716688 1.2381959,1.2073979 c -0.014348,0.035332 -0.024669,0.072168 -0.030768,0.1098117 0.00984,-0.036398 0.023676,-0.071596 0.04126,-0.1049488 0.017169,-0.033144 0.03669,-0.065016 0.058413,-0.095371 0.043741,-0.059671 0.094925,-0.1135091 0.1523099,-0.16020831 0.093165,-0.0744298 0.1977817,-0.13326217 0.3097774,-0.1742074 -0.019365,0.0246963 -0.041079,0.0474568 -0.064838,0.0679618 -0.017064,0.0154432 -0.036899,0.0301201 -0.055996,0.0444139 -0.058737,0.0433529 -0.11939,0.0881499 -0.1250486,0.16424601 -8.525e-4,0.011644 -5.267e-4,0.023345 9.726e-4,0.034924 -0.2781248,0.1691382 -0.6309898,1.0033946 0.1945134,1.1613336 -6.971e-4,-0.00683 -0.00197,-0.013597 -0.0038,-0.020218 C 1.62068,2.1978249 1.2090189,1.7178188 1.5318817,1.2348066 c 0.013035,-0.019843 0.028183,-0.038213 0.04518,-0.054788 0.020736,0.012281 0.045562,0.015641 0.068816,0.00931 0.030268,-0.00901 0.056848,-0.027487 0.075831,-0.052725 0.014117,-0.016622 0.027703,-0.032419 0.040701,-0.046713 0.024355,-0.00395 0.04901,-0.00574 0.073679,-0.00536 0.020287,3.873e-4 0.040531,0.002 0.060623,0.00483 0.00613,9.726e-4 0.012437,0.00203 0.01895,0.00295 -0.048127,0.042881 -0.082167,0.083317 -0.078041,0.1244591 0.00287,0.024022 0.018114,0.044787 0.04017,0.054729 0.055996,0.030002 0.1368078,0.00212 0.2375716,-0.082698 0.010227,-0.00855 0.019834,-0.016769 0.028617,-0.024992 -7.368e-4,0.00421 -0.00156,0.00822 -0.00233,0.012349 -0.010331,0.063399 -0.042416,0.1212226 -0.090743,0.1635386 -0.027015,0.017158 -0.056409,0.030247 -0.087236,0.038844 -0.035753,0.011537 -0.070796,0.025167 -0.1049488,0.040818 -0.019258,0.00925 -0.037197,0.021023 -0.053344,0.035012 -0.00934,0.00819 -0.01748,0.017642 -0.024196,0.028087 -0.0074,0.011614 -0.01262,0.024476 -0.015414,0.03796 -5.011e-4,0.00342 -0.00109,0.0069 -0.00139,0.010286 l -3.537e-4,0.00513 v 0.00118 l -2.652e-4,0.00312 v 0.00177 l 2.063e-4,0.00513 c 0,0.00218 2.652e-4,0.00395 3.242e-4,0.00589 5.339e-4,0.00345 0.00124,0.00688 0.00212,0.010256 0.00292,0.013374 0.00831,0.026088 0.015885,0.037488 0.014378,0.021266 0.034662,0.037862 0.058354,0.047744 0.021324,0.00874 0.04418,0.013131 0.067225,0.012909 0.021172,-8.52e-5 0.042247,-0.00287 0.062716,-0.00828 0.038127,-0.010307 0.074624,-0.025902 0.1084265,-0.04633 0.016651,-0.00958 0.032419,-0.019982 0.048039,-0.030621 l 0.011612,-0.00834 0.00551,-0.00424 0.00392,-0.00295 0.00392,-0.00324 c 0.00557,-0.00501 0.00864,-0.0084 0.012319,-0.012319 l 0.00981,-0.010757 c 0.024314,-0.028558 0.04633,-0.055996 0.069553,-0.082521 0.011789,-0.013233 0.023253,-0.026112 0.035366,-0.038077 0.0098,-0.010074 0.020226,-0.019524 0.031211,-0.028293 -0.0052,0.013047 -0.011364,0.025686 -0.018449,0.037812 -0.00846,0.014736 -0.017919,0.029206 -0.027586,0.043913 -0.019451,0.029295 -0.040494,0.057706 -0.061625,0.088415 -0.00536,0.00784 -0.010639,0.015532 -0.016209,0.02511 -0.00401,0.00655 -0.00722,0.013551 -0.00955,0.020866 -2.652e-4,0.00144 -0.00156,0.00654 -0.00189,0.00949 -6.888e-4,0.0033 -0.00112,0.00665 -0.0013,0.01002 -0.00276,0.027559 0.00525,0.055116 0.022369,0.076892 0.00947,0.011811 0.021851,0.020952 0.035926,0.026525 0.013671,0.00527 0.028412,0.00716 0.04297,0.00551 0.023656,-0.00333 0.046084,-0.012598 0.065191,-0.026937 0.01526,-0.011098 0.029854,-0.023084 0.043707,-0.035897 -0.0097,0.018754 -0.021424,0.036394 -0.034953,0.052607 -0.028414,0.029217 -0.064477,0.049847 -0.1040646,0.059533 -0.044208,0.014913 -0.09932,0.033391 -0.090449,0.103151 0.00269,0.021089 0.014358,0.039987 0.032006,0.051841 0.035773,0.019638 0.07812,0.023452 0.116826,0.010521 0.017355,-0.00433 0.034163,-0.010623 0.050102,-0.018744 0.032544,-0.01914 0.062997,-0.041631 0.090861,-0.067107 0.025323,-0.024645 0.054314,-0.045215 0.085939,-0.060977 3.242e-4,0 3.242e-4,0 5.01e-4,0 7.467e-4,0.00162 10e-4,0.00342 7.368e-4,0.00519 -0.00127,0.035631 -0.063305,0.1140556 -0.1411106,0.1614756 -0.00274,0.00174 -0.00734,0.0038 -0.013056,0.00663 -0.2040328,0.099497 -0.1452956,0.1951029 -0.1011175,0.2151437 7.368e-4,2.947e-4 0.00156,6.483e-4 0.00236,9.136e-4 0.00133,5.894e-4 0.00271,9.136e-4 0.00407,0.00139 0.055525,0.015767 0.1731465,-0.019334 0.2891472,-0.1076603 0.072937,-0.059056 0.1280346,-0.1372129 0.1591473,-0.2257534 0.015532,-0.050102 0.00619,-0.1244002 -0.00295,-0.1963997 -0.00516,-0.04126 -0.019068,-0.1509247 -8.842e-4,-0.1555812 0.00271,-4.819e-4 0.00548,-4.819e-4 0.00819,0 0.00366,0.00755 0.0062,0.015591 0.00754,0.023872 0.00267,0.014014 0.00731,0.027578 0.013793,0.040288 0.016818,0.032231 0.053607,0.048648 0.088828,0.03964 0.026912,-0.00742 0.049265,-0.026182 0.061242,-0.051399 C 2.921918,1.5254666 2.933795,1.4722116 2.902144,1.3885704 2.891906,1.3644044 2.87813,1.3418974 2.861267,1.3217874 2.84881,1.3071834 2.838299,1.2910264 2.829997,1.2737194 2.825727,1.2634044 2.821867,1.2533254 2.818031,1.2433344 c 0.010611,-0.01209 0.024637,-0.020681 0.040229,-0.024638 0.019638,-0.00515 0.040488,-0.00289 0.05856,0.00637 0.071292,0.042763 0.065692,0.2215685 0.00958,0.3188547 -0.019628,0.033627 -0.037517,0.1022374 -0.015708,0.1493332 0.010947,0.024168 0.033366,0.041165 0.059592,0.04518 0.011323,0.00183 0.022903,0.0013 0.03401,-0.00156 0.067372,-0.017123 0.1031511,-0.1124936 0.1127588,-0.160621 0.01228,-0.054054 0.040969,-0.1029903 0.082138,-0.1401086 0.012054,-0.013027 0.023577,-0.025434 0.033686,-0.038608 0.06136,-0.081814 0.00964,-0.1878823 -0.045563,-0.3001696 z M 0.56650563,2.1023365 C 0.50041548,2.0268288 0.44603355,1.9418285 0.40517737,1.8501764 0.36438204,1.7580236 0.33756232,1.6603004 0.3256037,1.5602335 0.30225916,1.360102 0.33678919,1.1574733 0.42510026,0.97636901 0.51092672,0.79800133 0.6476324,0.649031 0.81798792,0.54823316 0.66492117,0.6652536 0.54430705,0.81945787 0.4675985,0.99620349 0.39184586,1.1713722 0.36380206,1.3634691 0.38631546,1.5529834 c 0.0112222,0.094154 0.0357516,0.186238 0.0728541,0.2734977 0.0368034,0.087629 0.0855928,0.169725 0.14497145,0.2439375 0.0296888,0.037311 0.0618353,0.072598 0.0962252,0.1056267 0.0341819,0.033551 0.0704981,0.064857 0.10872122,0.09372 C 0.88623999,2.328096 0.96881564,2.3788829 1.0556774,2.421427 0.86715649,2.3604037 0.69830489,2.2502402 0.56650563,2.1022776 Z M 1.3939245,0.4887592 C 1.3737065,0.4973062 1.3537345,0.5063931 1.3340085,0.5160206 1.1621957,0.59765327 1.0152381,0.72359362 0.90825984,0.8808806 0.85468556,0.96042874 0.81103829,1.0462288 0.7782895,1.136371 0.7449212,1.22773 0.719809,1.3218952 0.7032545,1.4177377 0.7075305,1.3192577 0.723115,1.2215949 0.749702,1.1266748 0.7766882,1.0309588 0.8165443,0.93934896 0.86817836,0.85435604 0.92019556,0.76904944 0.98454046,0.69190302 1.0591257,0.62541963 1.1340427,0.55952583 1.2174171,0.50392304 1.3070419,0.46008321 c 0.029472,-0.0138812 0.059268,-0.0267898 0.089712,-0.0384901 7.322e-4,0.0224083 -2.135e-4,0.04484 -0.00283,0.0671071 z M 1.615994,0.41802705 c -0.00192,-0.005718 -0.00395,-0.0111698 -0.00545,-0.0162684 -0.00125,-0.00375 -0.00197,-0.00766 -0.00212,-0.0116119 8.139e-4,-3.8215e-4 0.00168,-6.4993e-4 0.00256,-7.9574e-4 0.02219,-0.001494 0.044264,0.004268 0.062893,0.0164158 -0.01954,0.003566 -0.038637,0.007663 -0.057883,0.0120834 z M 2.1426539,1.0752467 c -0.010733,0.013073 -0.022248,0.025483 -0.034482,0.037164 -0.00967,0.0094 -0.020424,0.01898 -0.031977,0.028706 -0.036636,0.034784 -0.080373,0.061218 -0.128202,0.077481 -0.01356,0.00459 -0.028336,0.00401 -0.041496,-0.00162 -0.00302,-0.00125 -0.00566,-0.00329 -0.00763,-0.00589 -0.00251,-0.00943 0.012467,-0.035926 0.098288,-0.1064224 2.947e-4,0 5.01e-4,-2.948e-4 6.779e-4,-6.189e-4 0.013675,-0.011022 0.025257,-0.02063 0.033951,-0.028823 0.0014,-0.00126 0.00272,-0.00261 0.00395,-0.00404 0.011612,-0.011553 0.02234,-0.023194 0.031859,-0.03457 0.057971,-0.0686102 0.074121,-0.12714102 0.047803,-0.17423685 -0.00967,-0.017683 -0.039934,-0.0577941 -0.1112852,-0.0396395 -0.067549,0.0171526 -0.1544614,0.0825209 -0.2587619,0.19410085 -0.014353,0.015266 -0.028882,0.031358 -0.043765,0.04854 -0.00905,0.010256 -0.017683,0.020453 -0.026967,0.03127 -0.01086,0.015324 -0.026358,0.026751 -0.044208,0.032596 -0.00952,0.00287 -0.019853,7.421e-4 -0.027468,-0.00566 -0.00259,-0.00235 -0.00487,-0.00503 -0.00678,-0.00796 -0.00727,-0.011114 -0.011346,-0.02401 -0.011789,-0.037282 -2.063e-4,-0.0046 -2.063e-4,-0.00937 0,-0.014205 3.797e-4,-0.00507 0.00126,-0.010099 0.00262,-0.015001 0.00294,0.00728 0.00657,0.014264 0.010816,0.020866 0.00118,0.00183 0.00242,0.00371 0.00357,0.00539 0.00644,0.00845 0.013748,0.016191 0.021809,0.023106 0.00365,0.00295 0.00728,0.00589 0.01114,0.00843 -0.00248,-0.00354 -0.00483,-0.00693 -0.00704,-0.010492 -0.00638,-0.011026 -0.01107,-0.022948 -0.013911,-0.035366 -0.00242,-0.010445 -0.00287,-0.021249 -0.00133,-0.031859 0.00476,-0.023722 0.018949,-0.0444952 0.039315,-0.0575583 l -8.842e-4,-8.8415e-4 c 0.010669,-0.008458 0.022104,-0.0170052 0.034128,-0.0258762 0.020247,-0.0147359 0.04126,-0.0305032 0.060358,-0.0477442 0.016458,-0.0144574 0.032093,-0.0298265 0.046831,-0.0460348 0.035749,-0.0360418 0.061577,-0.0807115 0.074976,-0.12967562 0.00571,-0.0241885 0.00793,-0.0490684 0.0066,-0.0738856 C 1.8713495,0.55074431 1.8304135,0.45883236 1.759815,0.39256258 1.752805,0.38604958 1.745315,0.37980128 1.73777,0.37402488 1.723643,0.36318538 1.70848,0.35376768 1.692501,0.34590888 1.663028,0.32933428 1.628767,0.32335368 1.595421,0.32896268 c -0.01713,0.003863 -0.031853,0.0147365 -0.040583,0.0299727 -0.00246,0.004448 -0.00427,0.00922 -0.00539,0.0141759 -0.0038,0.0155377 -0.00308,0.03184 0.00209,0.0469779 0.00153,0.004126 0.00295,0.008429 0.00439,0.0127023 0.0038,0.0105803 0.00772,0.0209839 0.011789,0.0324189 0.015349,0.0363752 0.026493,0.0743847 0.033215,0.11328934 -5.776e-4,0.009569 -0.0022,0.0190463 -0.00483,0.0282634 -0.0055,0.019802 -0.015373,0.03812 -0.028882,0.0536091 -0.013596,0.0164174 -0.0309,0.0293677 -0.050485,0.0377828 -0.00987,0.004357 -0.020514,0.006663 -0.031299,0.006779 -0.011281,3.3248e-4 -0.02211,-0.004443 -0.029472,-0.012997 0.00602,0.0106794 0.016392,0.0182099 0.028411,0.0206302 0.012076,0.002671 0.024567,0.002872 0.036722,5.8943e-4 0.021526,-0.004054 0.041965,-0.0125674 0.060005,-0.024992 C 1.56556,0.71262205 1.54159,0.73053165 1.51373,0.73850235 1.493448,0.74378035 1.471921,0.74120135 1.45346,0.73128135 1.418742,0.71303835 1.419803,0.68094365 1.435276,0.6156048 1.437696,0.6052602 1.440166,0.5954167 1.441846,0.5859562 l 0.00183,-0.0116119 c 0.00675,-0.0365401 0.01146,-0.0734267 0.014117,-0.11048952 0.00148,-0.0212351 0.00105,-0.0425607 -0.0013,-0.0637179 -0.00226,-0.032691 -0.015155,-0.0637442 -0.036722,-0.0884152 -0.033726,-0.0294625 -0.080735,-0.0384112 -0.1229266,-0.0234006 -0.070887,0.0166845 -0.128141,0.0687787 -0.1514257,0.13778035 -0.0092,0.0325663 -0.020925,0.0509861 -0.034659,0.0544638 C 1.0806576,0.47995109 1.0513237,0.47094885 1.0260584,0.454572 0.93012786,0.40697515 0.87136123,0.38112844 0.77531285,0.40547209 0.76193269,0.40886134 0.74808097,0.41322316 0.7329325,0.4184986 0.55837144,0.48077236 0.32760777,0.69865688 0.23288563,1.0303023 0.16454068,1.269318 0.14986376,1.6326455 0.42011954,2.0694166 0.26126908,1.9065107 0.14864319,1.7042581 0.09380852,1.4834302 0.07279813,1.3953978 0.06426609,1.3048492 0.06846283,1.2144417 0.07433396,1.067227 0.10662814,0.92226759 0.16380389,0.78648264 0.21229775,0.67314387 0.27938515,0.56870268 0.362296,0.47747153 0.48651399,0.34121514 0.64044448,0.23539801 0.81215252,0.16822465 0.87542833,0.14582613 0.93793787,0.12675792 0.99782443,0.11149156 1.4323556,0.0011494 1.69265,0.09761038 1.9015162,0.17517998 c 0.061636,0.0246637 0.1249551,0.0448935 0.1894737,0.0605349 0.017919,0.003831 0.038077,0.007191 0.059592,0.0105509 0.070732,0.0117887 0.1591473,0.0258762 0.1927451,0.0655746 0.027573,0.0258532 0.032398,0.0678582 0.011405,0.0992903 -0.00248,0.004804 -0.00501,0.009844 -0.00772,0.0149422 -0.00209,0.003949 -0.00433,0.007987 -0.00693,0.0121718 -2.159e-4,5.0549e-4 -4.619e-4,9.9757e-4 -7.368e-4,0.001474 -0.00103,0.001798 -0.00209,0.003861 -0.00321,0.005894 -0.00642,0.011494 -0.012909,0.0232827 -0.018626,0.0357787 -0.01111,0.0232008 -0.017634,0.0483287 -0.019216,0.0740035 0,0.003271 -4.126e-4,0.006366 -3.832e-4,0.009814 -1.9e-5,0.008412 0.00109,0.0167875 0.0033,0.0249036 4.715e-4,0.001886 9.136e-4,0.003625 0.00136,0.005334 0.00681,0.0191328 0.017792,0.0365094 0.032154,0.0508682 0.00517,0.005069 0.010541,0.009981 0.016121,0.0147359 0.00492,0.006837 0.01061,0.013498 0.016091,0.0200113 0.00822,0.009107 0.016209,0.0180956 0.02399,0.027055 0.00469,0.005894 0.00922,0.0115234 0.013498,0.0174473 0.00545,0.007603 0.010266,0.0156361 0.014412,0.0240195 0.00432,0.008038 0.00742,0.0166672 0.00922,0.0256109 0.00209,0.009894 0.00217,0.0201061 2.358e-4,0.0300317 -0.00195,0.009549 -0.00566,0.0186526 -0.010934,0.0268487 0.0047,-0.00183 0.00912,-0.004321 0.013115,-0.007397 0.013945,-0.0110129 0.023616,-0.0265408 0.02735,-0.0439129 4.937e-4,-0.00151 9.069e-4,-0.003044 0.00124,-0.004598 9.136e-4,-0.005275 0.00144,-0.0103446 0.00183,-0.0153548 0.00943,0.0157009 0.013769,0.0339304 0.012437,0.0521944 -0.00108,0.007832 -0.00384,0.0153395 -0.00808,0.0220154 -0.00744,0.0154899 -0.020096,0.0278649 -0.035749,0.0349535 -3.806e-4,6.215e-5 -7.688e-4,6.215e-5 -0.00115,0 -0.00208,4.7015e-4 -0.00426,2.7426e-4 -0.00622,-5.5996e-4 -0.01421,-0.0104406 -0.025968,-0.0238582 -0.034453,-0.0393153 -0.020807,-0.030739 -0.050868,-0.0745045 -0.1024142,-0.0769507 -0.010615,-3.6444e-4 -0.02123,7.565e-4 -0.031535,0.00333 -2.662e-4,6.903e-5 -5.164e-4,1.8914e-4 -7.368e-4,3.5366e-4 -0.00262,6.1891e-4 -0.00566,0.001415 -0.00937,0.002652 -0.0067,0.002439 -0.013002,0.005845 -0.018715,0.0101088 -0.0098,0.007505 -0.016882,0.0180104 -0.020159,0.0299138 -0.0049,0.0212696 -0.00565,0.043284 -0.00221,0.0648378 6.484e-4,0.005688 0.00127,0.0116413 0.00162,0.0179188 -0.00247,0.0211403 -0.00803,0.0418037 -0.016504,0.0613307 -7.368e-4,0.002151 -0.00168,0.004244 -0.00245,0.006336 -0.00838,0.0183605 -0.018241,0.0360127 -0.029472,0.0527838 -0.0081,0.01226 -0.017241,0.024137 -0.026524,0.035779 -0.00256,0.00327 -0.00519,0.00675 -0.00769,0.00984 -0.00799,0.0092 -0.016239,0.018184 -0.02452,0.026937 -0.011995,0.01226 -0.024108,0.024196 -0.03681,0.035366 -0.00849,0.00737 -0.016681,0.014471 -0.025611,0.021367 -0.015865,0.012584 -0.032608,0.024018 -0.050102,0.034217 -0.0087,0.00516 -0.017743,0.00974 -0.027055,0.013704 -0.00909,0.00443 -0.019221,0.0063 -0.029295,0.00539 0.010227,0.00211 0.020834,0.00138 0.03068,-0.00209 0.00999,-0.00267 0.01976,-0.00613 0.029207,-0.010345 0.019035,-0.00818 0.037489,-0.017652 0.05523,-0.028352 0.01674,-0.010138 0.032949,-0.020925 0.048569,-0.032566 0.015728,-0.011463 0.030839,-0.023751 0.045269,-0.03681 0.00212,-0.0018 0.00448,-0.00357 0.00642,-0.00545 0.00419,-0.00395 0.00787,-0.00775 0.011789,-0.011612 3.595e-4,-2.321e-4 6.699e-4,-5.325e-4 9.137e-4,-8.841e-4 l -8.842e-4,0.0013 c -0.00395,0.00539 -0.00816,0.010993 -0.012673,0.016593 z m 0.7023998,0.3351525 c 0.017675,0.036205 0.020199,0.07796 0.00701,0.1160302 -0.00409,0.00958 -0.012117,0.016923 -0.022015,0.020159 -0.00831,0.00228 -0.017016,-0.00204 -0.020218,-0.01005 -0.00333,-0.00735 -0.00566,-0.015108 -0.00693,-0.023076 -0.0061,-0.025876 -0.018361,-0.079574 -0.083582,-0.07197 -0.00279,3.266e-4 -0.00554,8.585e-4 -0.00825,0.00159 -0.069995,0.017683 -0.057499,0.1174448 -0.044208,0.2230126 0.00787,0.062392 0.016652,0.1330943 0.00507,0.1706118 -0.031996,0.089947 -0.092175,0.1671605 -0.1715844,0.2201539 -4.126e-4,1.473e-4 -0.019157,0.011317 -0.04633,0.025022 -0.016003,0.00819 -0.035012,0.01727 -0.054699,0.025375 -0.017064,0.00709 -0.034579,0.01305 -0.05243,0.01783 -0.00637,0.00163 -0.01284,0.00288 -0.019363,0.00374 -0.02287,0.0036 -0.031947,-5.894e-4 -0.033244,-0.00295 -5.433e-4,-0.00102 -0.00102,-0.00207 -0.00141,-0.00315 -0.00178,-0.00383 -0.002,-0.00821 -6.189e-4,-0.012201 0.00259,-0.00732 0.00677,-0.01397 0.012231,-0.019481 0.010295,-0.010527 0.021778,-0.019824 0.034217,-0.027703 0.021032,-0.01348 0.042883,-0.025636 0.065427,-0.036398 0.00734,-0.00348 0.012938,-0.00634 0.01727,-0.00884 0.020249,-0.012509 0.039547,-0.026497 0.057735,-0.04185 -0.019035,0.020955 -0.039361,0.0407 -0.060859,0.05912 -0.013822,0.011789 -0.027821,0.023577 -0.042557,0.034718 -0.011789,0.00925 -0.024285,0.018361 -0.036987,0.027025 -7.663e-4,5.895e-4 -0.0018,0.00139 -0.00248,0.00197 10e-4,-6.778e-4 0.00224,-0.00109 0.00321,-0.00177 0.01618,-0.00799 0.032242,-0.016475 0.04795,-0.025405 0.013439,-0.00766 0.026819,-0.015708 0.039846,-0.024049 0.030079,-0.018692 0.058655,-0.0397 0.085468,-0.062834 0.028703,-0.023906 0.052777,-0.052875 0.071027,-0.085468 0.0102,-0.018834 0.015956,-0.039753 0.016828,-0.061154 1.343e-4,-0.014995 -0.00273,-0.029865 -0.00843,-0.043736 -0.00144,-0.019963 -0.011855,-0.038195 -0.028322,-0.049571 -0.014433,-0.00975 -0.03249,-0.012477 -0.049159,-0.00743 -0.041187,0.01698 -0.078607,0.04194 -0.1101064,0.073444 -0.024385,0.022354 -0.050909,0.042254 -0.07919,0.059415 -0.011977,0.00595 -0.024541,0.010628 -0.037488,0.01397 -0.02185,0.00773 -0.045781,0.00714 -0.067225,-0.00165 -0.003,-0.0018 -0.00497,-0.00492 -0.0053,-0.0084 -0.00189,-0.015384 -6.189e-4,-0.01951 0.049277,-0.03625 0.03534,-0.010161 0.068696,-0.026256 0.098642,-0.047597 -0.00626,0.00696 -0.01292,0.013542 -0.019952,0.019717 -0.02757,0.02467 -0.059981,0.04332 -0.095164,0.054759 0.037435,-0.00676 0.073054,-0.021233 0.1045951,-0.042498 0.032584,-0.02149 0.060271,-0.049608 0.081254,-0.082521 0.021484,-0.033629 0.036692,-0.070874 0.044885,-0.1099296 0.00806,-0.036612 0.011849,-0.074036 0.011288,-0.111521 8.842e-4,-0.00766 0.00186,-0.015237 0.00256,-0.023047 0.010433,-0.026259 0.019569,-0.051841 0.029707,-0.077128 0.0066,-0.016504 0.013262,-0.032861 0.020336,-0.049041 0.00677,-0.015293 0.014647,-0.030069 0.023577,-0.044208 0.020165,-0.031504 0.038126,-0.064365 0.053756,-0.098347 6.778e-4,-0.00186 0.00139,-0.00377 0.0023,-0.00589 0.00589,-0.014088 0.011317,-0.028411 0.015944,-0.043088 0.00554,-0.017416 0.010104,-0.035126 0.013675,-0.053049 2.358e-4,-0.00271 9.431e-4,-0.00536 0.00139,-0.00813 0.00637,-0.037528 0.00896,-0.075598 0.00775,-0.113643 -0.00165,-0.0373315 -0.00601,-0.0744943 -0.013026,-0.11119682 -0.00601,-0.0314365 -0.013528,-0.0622738 -0.022546,-0.0925118 -0.0041,-0.0136454 -0.00864,-0.0272319 -0.013085,-0.0407889 -0.00395,-0.0117887 -0.00822,-0.0230764 -0.012555,-0.0342756 -0.00563,-0.0143527 -0.011376,-0.0285286 -0.017447,-0.0425572 0.0033,0.017683 0.00613,0.0353661 0.0094,0.0528723 0.00262,0.0158853 0.00489,0.0318 0.00728,0.0477737 0.0043,0.0294717 0.00778,0.0589435 0.010433,0.0884152 7.662e-4,0.008399 0.0015,0.0170641 0.00236,0.0257583 0.00133,0.0249331 0.00242,0.0497483 0.002,0.074593 -1.769e-4,0.0104035 -5.01e-4,0.0209249 -9.136e-4,0.0311811 -0.00119,0.024832 -0.00392,0.049567 -0.00816,0.074063 -0.00162,0.00964 -0.00368,0.019304 -0.00589,0.028705 -0.00245,0.010315 -0.00533,0.02063 -0.00834,0.03071 -0.00667,0.022378 -0.015045,0.044211 -0.025051,0.065309 -0.015934,0.031089 -0.033473,0.061329 -0.052548,0.090596 -0.00675,0.010846 -0.013763,0.022575 -0.020395,0.035012 -0.00268,0.00539 -0.00536,0.010728 -0.00769,0.016121 -0.00688,0.015463 -0.013557,0.030965 -0.020041,0.046506 -5.599e-4,0.00133 -0.0013,0.00277 -0.00209,0.00439 -0.0099,0.024904 -0.019775,0.050102 -0.029766,0.074328 -0.00327,0.00852 -0.00698,0.017182 -0.01061,0.02564 -0.012575,0.03072 -0.029196,0.059622 -0.049424,0.08594 -0.021028,0.025234 -0.045389,0.047492 -0.072412,0.066164 -0.0097,0.00741 -0.021079,0.012319 -0.033126,0.014294 -0.0066,0.00136 -0.013389,-0.00128 -0.017329,-0.00675 -0.00507,-0.00746 -0.00728,-0.016504 -0.00622,-0.025464 0,-0.00124 3.242e-4,-0.00233 3.831e-4,-0.00351 2.481e-4,-9.184e-4 5.432e-4,-0.00182 8.842e-4,-0.00271 6.509e-4,-0.00159 0.00148,-0.00311 0.00248,-0.00451 0.00354,-0.00589 0.00855,-0.013115 0.013321,-0.020247 0.020188,-0.028588 0.042145,-0.058089 0.062922,-0.088857 0.00772,-0.01114 0.014913,-0.022575 0.022133,-0.034335 4.46e-5,5.713e-4 -1.472e-4,0.00114 -5.305e-4,0.00156 -0.00717,0.024236 -0.015897,0.047982 -0.026141,0.071086 -0.010462,0.023577 -0.021573,0.046654 -0.034335,0.069111 0.016799,-0.019481 0.032419,-0.040023 0.047715,-0.061331 0.015263,-0.021452 0.029124,-0.043868 0.041496,-0.067107 0.013833,-0.024772 0.023116,-0.051822 0.027409,-0.079868 0.00211,-0.017704 -7.933e-4,-0.035643 -0.00837,-0.051782 -0.00237,-0.00471 -0.00534,-0.00909 -0.00884,-0.013027 -1.008e-4,-6.484e-4 -2.486e-4,-0.00129 -4.421e-4,-0.00192 -0.00372,-0.010657 -0.010295,-0.020088 -0.019009,-0.027261 -0.00258,-0.00218 -0.00539,-0.00408 -0.00837,-0.00566 l -0.00295,-0.00189 c -0.00122,-7.438e-4 -0.00252,-0.00133 -0.00389,-0.00174 l -0.00221,-0.00118 c -0.00174,-4.126e-4 -0.00318,-10e-4 -0.00489,-0.00156 -0.00305,-7.671e-4 -0.00616,-0.00133 -0.00928,-0.00168 -0.00958,-8.708e-4 -0.019237,3.149e-4 -0.028322,0.00348 -0.011973,0.00414 -0.023236,0.010107 -0.033392,0.017683 -0.016283,0.011845 -0.031535,0.025047 -0.045593,0.039463 -0.013704,0.013498 -0.026377,0.027379 -0.038578,0.040995 -0.024727,0.027733 -0.047892,0.056262 -0.070526,0.082521 l -0.00858,0.0092 c -0.00199,0.0025 -0.00418,0.00483 -0.00654,0.00698 -0.00236,0.00215 0,-2.063e-4 1.474e-4,0 l -7.957e-4,6.189e-4 h -1.474e-4 l -8.547e-4,6.778e-4 -0.00115,10e-4 -0.00536,0.00389 -0.010197,0.00737 c -0.014028,0.00978 -0.02847,0.019039 -0.042852,0.027497 -0.027802,0.016872 -0.057776,0.029871 -0.089093,0.038637 -0.026822,0.0085 -0.055665,0.00817 -0.082285,-9.431e-4 -0.010083,-0.00386 -0.018771,-0.010673 -0.024933,-0.01954 -0.00492,-0.00681 -0.00692,-0.01529 -0.00557,-0.023577 0.00257,-0.00976 0.00824,-0.018426 0.01615,-0.024697 0.011149,-0.00954 0.023518,-0.01756 0.036781,-0.023843 0.031375,-0.014378 0.06361,-0.0268 0.09652,-0.037193 0.012172,-0.0043 0.02458,-0.00864 0.037105,-0.013557 -0.013425,0.011895 -0.027463,0.02308 -0.042056,0.033509 -0.032131,0.023214 -0.06621,0.043606 -0.1018543,0.060947 0.019625,-0.00434 0.038966,-0.00988 0.057912,-0.016593 0.019171,-0.0066 0.037921,-0.014365 0.056144,-0.023253 0.037615,-0.017276 0.072696,-0.039605 0.104271,-0.06637 0.033489,-0.027884 0.061142,-0.062107 0.081371,-0.1007049 0.016201,-0.031581 0.024647,-0.066567 0.024638,-0.1020606 0.00261,-0.00982 0.00499,-0.019648 0.00713,-0.029472 0.00562,-0.028726 0.00956,-0.057756 0.011789,-0.086942 6.189e-4,-0.012496 0.00127,-0.024727 0.0018,-0.037282 8.88e-5,-0.00146 8.88e-5,-0.00293 0,-0.00439 0.00692,-0.011563 0.01289,-0.023667 0.01786,-0.036191 0.021199,-0.0525521 0.028103,-0.10978099 0.020011,-0.16586703 3.831e-4,-0.003507 3.536e-4,-0.007132 4.421e-4,-0.0108456 4.033e-4,-0.003354 5.314e-4,-0.006734 3.831e-4,-0.0101088 h -0.00251 c -10e-4,-0.007227 -8.654e-4,-0.0145667 4.126e-4,-0.0217501 0.00128,-0.007183 5.6e-4,-3.8313e-4 0.00103,-6.4838e-4 0.00556,-0.001894 0.011394,-0.002889 0.01727,-0.002947 0.019687,4.7154e-4 0.033509,0.0165042 0.055996,0.0499251 0.00663,0.009401 0.01338,0.0191861 0.020336,0.0281455 0.010748,0.0145586 0.025085,0.0260834 0.041614,0.0334504 0.0025,0.001095 0.00508,0.001992 0.00772,0.002682 0.012405,0.003521 0.02552,0.003704 0.038019,5.3049e-4 5.6e-4,0 8.547e-4,-3.2419e-4 0.00156,-5.0102e-4 0.017651,-0.005368 0.033632,-0.0151693 0.046418,-0.0284697 0.022812,-0.0225311 0.037544,-0.0519649 0.041909,-0.0837292 0.00589,-0.0876784 -0.058059,-0.13627729 -0.1087801,-0.17532734 -8.938e-4,-5.3473e-4 -0.00176,-0.001115 -0.00259,-0.001739 -0.00557,-0.004273 -0.011023,-0.008576 -0.016268,-0.0126139 -0.00433,-0.00333 -0.0084,-0.006749 -0.012231,-0.0100499 -0.00139,-0.001149 -0.00295,-0.002417 -0.00421,-0.003655 -0.00877,-0.007118 -0.016461,-0.0154663 -0.022841,-0.0247857 -0.00517,-0.007123 -0.00807,-0.0156357 -0.00834,-0.0244321 0.00282,-0.0338301 0.014421,-0.0663383 0.033657,-0.0943095 0,-2.6525e-4 3.536e-4,-5.5996e-4 5.01e-4,-9.431e-4 0.0069,-2.9471e-4 0.01397,-8.8415e-4 0.021338,-0.001002 0.00236,0 0.00477,0 0.00707,0 0.1242466,-0.006088 0.2399437,0.0632098 0.2932143,0.17562206 0.00197,0.004126 0.00389,0.008311 0.00589,0.0123486 0.00422,0.009608 0.00789,0.0194477 0.010993,0.0294717 0.00314,0.009893 0.0057,0.0199595 0.00766,0.0301496 0.00992,0.0603191 0.011246,0.12173824 0.00395,0.18243003 -0.00141,0.0139696 -0.00336,0.0294717 -0.00589,0.0458285 -0.018197,0.0959505 -0.0139,0.19481369 0.012555,0.28882319 0.00427,0.014323 0.00955,0.028794 0.015237,0.043795 0.00259,0.0069 0.00516,0.013763 0.00819,0.02063 0.00378,0.00886 0.00833,0.017366 0.013587,0.025434 0.00781,0.013027 0.016681,0.024874 0.025287,0.036456 0.013091,0.015338 0.023892,0.032492 0.032065,0.050927 z m 0.3389249,-0.05075 c -0.00934,0.011685 -0.019283,0.02287 -0.029796,0.033509 -0.049158,0.045424 -0.083119,0.1048961 -0.097257,0.1703172 -0.010079,0.048864 -0.039551,0.105774 -0.067962,0.1130241 -0.00296,8.006e-4 -0.00606,9.315e-4 -0.00908,3.831e-4 -0.00609,-3.937e-4 -0.011418,-0.00424 -0.013704,-0.0099 -0.00692,-0.031169 -0.00219,-0.063794 0.013292,-0.091716 0.035559,-0.067477 0.052976,-0.1430353 0.050544,-0.2192697 0.00486,0.023113 0.00798,0.046561 0.00931,0.070143 0.00232,0.034838 0.00204,0.0698 -8.547e-4,0.1045952 0.00812,-0.034417 0.0137,-0.069387 0.016681,-0.1046247 0.00325,-0.035865 0.00241,-0.071985 -0.00251,-0.1076602 -0.00421,-0.038454 -0.018437,-0.07513 -0.04126,-0.1063635 -0.012928,-0.016672 -0.029279,-0.030379 -0.047951,-0.040199 -0.018758,-0.0096 -0.039114,-0.015696 -0.060063,-0.017978 v 0.00168 c -0.020108,-0.00322 -0.040659,-0.00234 -0.060417,0.00259 -0.01562,0.00402 -0.030414,0.010757 -0.043707,0.019893 -0.014258,-0.074192 -0.014438,-0.1504041 -5.305e-4,-0.22466297 0.00245,-0.0172704 0.0046,-0.0333325 0.00589,-0.0490115 0.0023,-0.0241374 0.00383,-0.0485399 0.00457,-0.0727657 0.00769,0.003627 0.015191,0.00766 0.022457,0.0120834 0.01773,0.0102336 0.034577,0.0219251 0.050367,0.0349535 0.032479,0.0261766 0.061636,0.0562248 0.086824,0.0894762 0.05127,0.0690774 0.088598,0.14747717 0.1099001,0.23082257 -0.011772,-0.087357 -0.040355,-0.1716073 -0.084171,-0.24809301 -0.022876,-0.0387163 -0.050281,-0.0745706 -0.081637,-0.10680555 -0.016017,-0.01625 -0.03311,-0.0314032 -0.051163,-0.045357 -0.00908,-0.007014 -0.018567,-0.0137928 -0.028411,-0.0199524 -0.00469,-0.003183 -0.00999,-0.006219 -0.014883,-0.009372 l -0.00799,-0.004362 -0.00277,-0.001179 c -9.069e-4,-0.0159555 -0.00279,-0.0318409 -0.00563,-0.0475674 0.092836,0.0147359 0.2015571,0.0950758 0.2764743,0.29079766 0.015826,0.040052 0.034983,0.079574 0.053874,0.1174448 0.046212,0.094604 0.089977,0.1836973 0.051635,0.2349781 z"
           id="path44"
           inkscape:connector-curvature="0"
           style="fill:#6e40c9;fill-rule:nonzero;fill-opacity:1" />
      </g>
      <g
         clip-path="url(#SvgjsClipPath1000)"
         id="g50"
         style="fill:#ffffff">
        <path
           d="M 0.88603815,1.4409909 C 0.85801054,2.3013886 1.2608007,2.464161 1.7211492,2.3965234 l -7.368e-4,-0.04126 C 1.2538454,2.3669337 0.87366002,2.1387636 0.88603815,1.4409909 Z"
           id="path48"
           inkscape:connector-curvature="0"
           style="fill:#ffffff;fill-rule:nonzero" />
      </g>
      <g
         clip-path="url(#SvgjsClipPath1000)"
         id="g54"
         style="fill:#6e40c9;fill-opacity:1">
        <path
           d="m 2.6101345,1.5570211 c -0.00432,0.034389 -0.00514,0.069127 -0.00245,0.1036815 l 0.00675,0.098966 c 0.00205,0.032047 0.00107,0.064217 -0.00295,0.096078 -0.00397,0.032417 -0.015944,0.063337 -0.034836,0.089977 0.032392,-0.017082 0.056785,-0.046195 0.067932,-0.081077 0.011776,-0.034141 0.017025,-0.070193 0.015473,-0.1062751 C 2.6593126,1.7233875 2.6545835,1.6886025 2.6459655,1.65469 2.6374355,1.62098 2.6254235,1.588248 2.6101275,1.557021 Z"
           id="path52"
           inkscape:connector-curvature="0"
           style="fill:#6e40c9;fill-rule:nonzero;fill-opacity:1" />
      </g>
      <g
         clip-path="url(#SvgjsClipPath1000)"
         id="g58"
         style="fill:#6e40c9;fill-opacity:1">
        <path
           d="m 2.3530231,1.0167158 c -3.831e-4,-0.00383 -6.484e-4,-0.0071 -0.00112,-0.010669 -8.547e-4,-0.00616 -0.00197,-0.0123486 -0.00339,-0.0186261 -0.00495,-0.0281908 -0.014623,-0.055343 -0.028617,-0.0803105 -0.00121,0.0137044 -0.00203,0.0268782 -0.00295,0.0400521 -9.431e-4,0.0198934 -0.00209,0.0393153 -0.00327,0.0586782 5.14e-5,5.741e-4 1.5e-6,0.00115 -1.473e-4,0.00171 -7.663e-4,0.012879 -0.00171,0.025552 -0.00239,0.03849 -6.779e-4,0.012938 -0.00203,0.026112 -0.00295,0.039286 -6.189e-4,0.00631 -0.00118,0.01282 -0.00159,0.019068 -0.00316,0.032108 -0.00799,0.06403 -0.014471,0.095636 -0.00619,0.032036 -0.014264,0.063806 -0.023253,0.097257 0.023829,-0.025187 0.042811,-0.05455 0.055996,-0.086617 0.013556,-0.032171 0.022706,-0.066026 0.027202,-0.100646 0.00189,-0.014556 0.00295,-0.029207 0.00318,-0.043883 4.716e-4,-0.013439 -1.768e-4,-0.026701 -9.725e-4,-0.040052 -5.6e-4,-0.00327 -9.431e-4,-0.0064 -0.00127,-0.00937 z"
           id="path56"
           inkscape:connector-curvature="0"
           style="fill:#6e40c9;fill-rule:nonzero;fill-opacity:1" />
      </g>
      <g
         clip-path="url(#SvgjsClipPath1000)"
         id="g62"
         style="fill:#6e40c9;fill-opacity:1">
        <path
           d="m 1.9370885,0.41678923 c -0.00551,-0.006454 -0.011464,-0.0128202 -0.017388,-0.0190093 -0.0023,-0.002564 -0.00474,-0.004833 -0.00693,-0.007132 -7.979e-4,-5.772e-4 -0.00156,-0.001207 -0.00227,-0.001886 -0.00256,-0.002682 -0.00504,-0.005246 -0.00752,-0.007692 -0.0051,-0.004922 -0.010286,-0.009637 -0.015384,-0.0143233 -0.00704,-0.006484 -0.014176,-0.0127318 -0.021573,-0.0188914 -0.00589,-0.004922 -0.011995,-0.009637 -0.018184,-0.0144117 -0.018882,-0.0146345 -0.03856,-0.0282123 -0.058943,-0.040671 -0.010551,-0.006425 -0.020778,-0.0124076 -0.031329,-0.0181251 -0.05877,-0.0328605 -0.1225742,-0.0557651 -0.1888254,-0.067785 0.059205,0.0284982 0.1161689,0.0614334 0.1704056,0.098524 0.0145,0.009814 0.028647,0.020306 0.04241,0.0309748 0.020041,0.0153253 0.039256,0.0313579 0.057853,0.0481568 0.00295,0.002594 0.00589,0.005158 0.00911,0.007957 0.013027,0.0120834 0.025876,0.0244026 0.037871,0.0373407 0.00141,0.001238 0.00259,0.002652 0.00398,0.004008 0.042695,0.0453709 0.079275,0.0961289 0.1088097,0.15098368 0.030315,0.0582876 0.053471,0.12002705 0.068964,0.18387414 0.00244,-0.0682392 -0.0099,-0.13619947 -0.036162,-0.19922891 -0.02285,-0.0558487 -0.05493,-0.10745636 -0.094899,-0.15266358 z"
           id="path60"
           inkscape:connector-curvature="0"
           style="fill:#6e40c9;fill-rule:nonzero;fill-opacity:1" />
      </g>
      <g
         clip-path="url(#SvgjsClipPath1000)"
         id="g66"
         style="fill:#6e40c9;fill-opacity:1">
        <path
           d="m 1.0106446,0.17173178 c -0.00183,4.1261e-4 -0.00383,8.5468e-4 -0.00575,0.00112 -0.0502618,0.008142 -0.0999019,0.0197423 -0.14856695,0.0347177 -0.0297959,0.009018 -0.0592971,0.0198639 -0.0882089,0.0316821 -0.0202176,0.008223 -0.0401994,0.0168284 -0.0599455,0.0261709 -0.0480389,0.0232173 -0.0942805,0.049983 -0.13834031,0.0800747 -0.0439979,0.0305308 -0.0854437,0.0645843 -0.12392863,0.10182484 -0.0133212,0.0132623 -0.0265246,0.027114 -0.0391974,0.0410541 -0.0232317,0.0254732 -0.0448847,0.0523426 -0.0648378,0.0804578 -0.0279941,0.0389878 -0.0527543,0.0801988 -0.074033,0.12322131 -0.0258911,0.0523305 -0.0465528,0.10708934 -0.0616843,0.1634797 0.0437014,-0.0945102 0.0988751,-0.1832791 0.16427543,-0.26430249 0.0312351,-0.0376205 0.0648529,-0.0731973 0.10064597,-0.10651084 0.0392349,-0.0364258 0.0811431,-0.0698617 0.12537274,-0.10002706 0.0420435,-0.0291851 0.086018,-0.0554851 0.13162076,-0.078719 0.038261,-0.0199564 0.0775528,-0.0378708 0.1177101,-0.053668 0.007633,-0.003124 0.0151779,-0.006248 0.0228701,-0.009343 0.0481724,-0.0185122 0.0972574,-0.0345558 0.14706399,-0.0480684 0.050127,-0.0140094 0.1009825,-0.0252648 0.1523394,-0.0337157 -0.052685,-0.001442 -0.1053878,0.00209 -0.1574086,0.0105509 z"
           id="path64"
           inkscape:connector-curvature="0"
           style="fill:#6e40c9;fill-rule:nonzero;fill-opacity:1" />
      </g>
      <g
         clip-path="url(#SvgjsClipPath1000)"
         id="g70"
         style="fill:#6e40c9;fill-opacity:1">
        <path
           d="m 2.1871562,0.52721981 c 5.35e-5,3.5309e-4 2.441e-4,6.7081e-4 5.305e-4,8.8416e-4 -3.537e-4,-0.001061 -7.074e-4,-0.001886 -0.00112,-0.002947 -0.00177,-0.003743 -0.00295,-0.007515 -0.0046,-0.0110519 -0.00715,-0.0167525 -0.015297,-0.0330601 -0.024403,-0.0488347 -0.015718,-0.0273231 -0.033836,-0.0531932 -0.05414,-0.0773044 -0.00324,-0.003654 -0.00654,-0.007338 -0.00964,-0.0111698 -0.00392,-0.004244 -0.00746,-0.00837 -0.011435,-0.0127023 -0.00563,-0.005894 -0.011376,-0.0120539 -0.01786,-0.0180072 C 2.0238907,0.30604677 1.9785747,0.27109217 1.9295377,0.24199251 1.8737967,0.20855261 1.8143938,0.18163501 1.752501,0.16177051 1.691317,0.14119011 1.6276314,0.12897641 1.5631746,0.12546131 c 0.011582,0.004097 0.023342,0.008399 0.034953,0.0129381 0.048068,0.0178599 0.095135,0.0369281 0.1414644,0.0574994 0.027438,0.0121718 0.054051,0.0251689 0.080723,0.038608 0.029118,0.0147359 0.057942,0.0305032 0.085674,0.0473906 0.029089,0.0172999 0.05744,0.0360439 0.08479,0.0557605 0.0074,0.005364 0.014471,0.0107277 0.02175,0.0160916 0.012496,0.009696 0.024756,0.0195103 0.036899,0.0297665 0.00268,0.002328 0.0056,0.004362 0.00837,0.006779 0.00339,0.002947 0.00657,0.00616 0.01002,0.009166 0.040775,0.0365059 0.078378,0.0764065 0.1124052,0.1192721 0.00206,0.002977 0.00445,0.005541 0.00693,0.008488 z"
           id="path68"
           inkscape:connector-curvature="0"
           style="fill:#6e40c9;fill-rule:nonzero;fill-opacity:1" />
      </g>
      <g
         clip-path="url(#SvgjsClipPath1000)"
         id="g74"
         style="fill:#6e40c9;fill-opacity:1">
        <path
           d="m 2.2193393,0.31705689 c 0.020695,0.008308 0.040862,0.0178746 0.060388,0.0286465 0.020052,0.0100983 0.036953,0.0255003 0.048864,0.0445318 3.159e-4,-0.0127342 -0.00317,-0.0252733 -0.01002,-0.0360145 -0.0066,-0.0108284 -0.014873,-0.0205381 -0.02452,-0.0287644 -0.018898,-0.0156932 -0.040231,-0.0281965 -0.063158,-0.0370165 -0.022195,-0.008882 -0.04526,-0.0154111 -0.068817,-0.0194808 -0.02353,-0.004253 -0.047489,-0.005628 -0.071351,-0.004097 0.021956,0.0101677 0.043471,0.0185082 0.064838,0.0271729 0.021367,0.008665 0.04294,0.0163273 0.063777,0.0250215 z"
           id="path72"
           inkscape:connector-curvature="0"
           style="fill:#6e40c9;fill-rule:nonzero;fill-opacity:1" />
      </g>
      <g
         clip-path="url(#SvgjsClipPath1000)"
         id="g78">
        <path
           d="m 2.2784007,2.1869793 c 0.00133,4.716e-4 0.00265,10e-4 0.00407,0.00139 -0.00136,-4.715e-4 -0.00274,-7.957e-4 -0.00407,-0.00139 z"
           id="path76"
           inkscape:connector-curvature="0"
           style="fill:#ffc632;fill-rule:nonzero" />
      </g>
    </g>
  </g>
  <defs
     id="defs90">
    <clipPath
       id="SvgjsClipPath1003">
      <path
         d="M 0,0 H 3.2606935 V 2.6312068 H 0 Z"
         id="path84"
         inkscape:connector-curvature="0" />
    </clipPath>
    <clipPath
       id="SvgjsClipPath1000">
      <path
         d="M 0,0 H 3.2606935 V 2.6312068 H 0 Z"
         id="path87"
         inkscape:connector-curvature="0" />
    </clipPath>
  </defs>
</svg>
