<?xml version="1.0" encoding="UTF-8" standalone="no"?>
<svg
   version="1.1"
   viewBox="0 0 100 100"
   id="svg56"
   sodipodi:docname="thunder-radio.svg"
   width="100"
   height="100"
   inkscape:version="1.2.2 (732a01da63, 2022-12-09)"
   xmlns:inkscape="http://www.inkscape.org/namespaces/inkscape"
   xmlns:sodipodi="http://sodipodi.sourceforge.net/DTD/sodipodi-0.dtd"
   xmlns="http://www.w3.org/2000/svg"
   xmlns:svg="http://www.w3.org/2000/svg"
   xmlns:rdf="http://www.w3.org/1999/02/22-rdf-syntax-ns#"
   xmlns:cc="http://creativecommons.org/ns#"
   xmlns:dc="http://purl.org/dc/elements/1.1/">
  <metadata
     id="metadata60">
    <rdf:RDF>
      <cc:Work
         rdf:about="">
        <dc:format>image/svg+xml</dc:format>
        <dc:type
           rdf:resource="http://purl.org/dc/dcmitype/StillImage" />
        <dc:title />
      </cc:Work>
    </rdf:RDF>
  </metadata>
  <sodipodi:namedview
     pagecolor="#ffffff"
     bordercolor="#666666"
     borderopacity="1"
     objecttolerance="10"
     gridtolerance="10"
     guidetolerance="10"
     inkscape:pageopacity="0"
     inkscape:pageshadow="2"
     inkscape:window-width="1600"
     inkscape:window-height="829"
     id="namedview58"
     showgrid="false"
     inkscape:zoom="7.8921203"
     inkscape:cx="26.545465"
     inkscape:cy="42.447402"
     inkscape:window-x="-8"
     inkscape:window-y="-8"
     inkscape:window-maximized="1"
     inkscape:current-layer="svg56"
     inkscape:showpageshadow="2"
     inkscape:pagecheckerboard="0"
     inkscape:deskcolor="#d1d1d1" />
  <g
     id="g910"
     style="fill:#6e40c9;fill-opacity:1"
     transform="matrix(21.400216,0,0,21.400216,-1019.5204,-1020.0274)">
    <g
       transform="translate(49.998167,51.473346)"
       id="g6"
       style="fill:#6e40c9;fill-opacity:1">
      <path
         d="m -1.5685597,-1.6196356 q -0.00208,0.010802 -0.010273,0.016355 -0.0082,0.00555 -0.018998,0.00348 l -0.5263589,-0.1012039 -0.034364,0.1787264 q -0.00189,0.00982 -0.010084,0.015372 -0.0082,0.00555 -0.018016,0.00366 l -0.088381,-0.016993 q -0.010802,-0.00208 -0.016355,-0.010273 -0.00555,-0.0082 -0.00366,-0.018016 l 0.098938,-0.5145749 q 0.00208,-0.010802 0.010273,-0.016355 0.0082,-0.00555 0.018998,-0.00348 l 0.088381,0.016993 q 0.00982,0.00189 0.015372,0.010084 0.00555,0.0082 0.00348,0.018998 l -0.034175,0.1777443 0.526359,0.1012039 q 0.010802,0.00208 0.016355,0.010273 0.00555,0.0082 0.00348,0.018998 z m 0.1326592,-0.4816587 q -0.00654,0.00884 -0.016331,0.01031 -0.00979,0.00147 -0.018635,-0.00507 l -0.5226107,-0.3864946 q -0.00884,-0.00654 -0.01031,-0.016331 -0.00147,-0.00979 0.00507,-0.018635 l 0.064812,-0.087638 q 0.00654,-0.00884 0.016331,-0.01031 0.00979,-0.00147 0.018634,0.00507 l 0.2010041,0.1486518 0.1611385,-0.2178885 -0.2010041,-0.1486518 q -0.00884,-0.00654 -0.01031,-0.016331 -0.00147,-0.00979 0.00507,-0.018635 l 0.064812,-0.087638 q 0.00654,-0.00884 0.016331,-0.01031 0.00979,-0.00147 0.018634,0.00507 l 0.5226107,0.3864946 q 0.00884,0.00654 0.01031,0.016331 0.00147,0.00979 -0.00507,0.018635 l -0.064812,0.087638 q -0.00654,0.00884 -0.016331,0.01031 -0.00979,0.00147 -0.018635,-0.00507 l -0.2074362,-0.1534086 -0.1611385,0.2178885 0.2074362,0.1534086 q 0.00884,0.00654 0.01031,0.016331 0.00147,0.00979 -0.00507,0.018635 z m 0.74343363,-0.6896558 q -0.0790456,0.038676 -0.15129483,0.041184 -0.0722493,0.00251 -0.13161504,-0.036912 -0.0593658,-0.03942 -0.10111776,-0.1247535 l -0.179314,-0.366484 q -0.00483,-0.00988 -0.00162,-0.019245 0.00321,-0.00936 0.013092,-0.014199 l 0.097909,-0.047905 q 0.00988,-0.00483 0.019245,-0.00162 0.00936,0.00321 0.014199,0.013092 l 0.17887443,0.3655857 q 0.0325226,0.06647 0.079783,0.083425 0.0472604,0.016955 0.10384983,-0.010734 0.0556912,-0.027249 0.071308,-0.074968 0.0156167,-0.047719 -0.0169059,-0.1141892 l -0.17887448,-0.3655858 q -0.004834,-0.00988 -0.001174,-0.019465 0.00366,-0.00958 0.0126428,-0.013979 l 0.098807,-0.048344 q 0.008982,-0.00439 0.0183466,-0.00118 0.009364,0.00321 0.0141986,0.013092 l 0.17931397,0.366484 q 0.041752,0.085333 0.0364442,0.1563972 -0.005308,0.071064 -0.0507287,0.1261293 -0.0454208,0.055065 -0.12536463,0.09418 z m 0.46102542,-0.1742145 q -0.0109985,-1.803e-4 -0.0178829,-0.00729 -0.006884,-0.00711 -0.006704,-0.018112 l 0.0106515,-0.6499128 q 1.8026e-4,-0.010998 0.007294,-0.017883 0.007114,-0.00688 0.0181123,-0.0067 l 0.0909878,0.00149 q 0.014998,2.458e-4 0.0218823,0.00736 0.006884,0.00711 0.0088185,0.011146 l 0.26013082,0.4213193 0.006719,-0.409945 q 1.8026e-4,-0.010998 0.007294,-0.017883 0.007114,-0.00688 0.0171124,-0.00672 l 0.1019863,0.00167 q 0.0109985,1.803e-4 0.0178829,0.00729 0.006884,0.00711 0.006704,0.018112 l -0.0106515,0.6499127 q -1.6387e-4,0.01 -0.007286,0.017383 -0.007122,0.00738 -0.0181205,0.0072 l -0.0919876,-0.00151 q -0.014998,-2.458e-4 -0.0213742,-0.00785 -0.006376,-0.00761 -0.009327,-0.010654 l -0.25934398,-0.4083046 -0.0065056,0.3969467 q -1.8026e-4,0.010999 -0.007294,0.017883 -0.007114,0.00688 -0.0181123,0.0067 z m 0.74458949,0.067695 q -0.009733,-0.00512 -0.0126657,-0.01458 -0.002933,-0.00946 0.002192,-0.019188 l 0.3028383,-0.5751425 q 0.005125,-0.00973 0.0145801,-0.012666 0.009455,-0.00293 0.0191884,0.00219 l 0.22209346,0.1169422 q 0.088483,0.04659 0.1330914,0.1056784 0.044608,0.059088 0.047832,0.1291601 0.00322,0.070072 -0.036471,0.1497542 -0.019615,0.039399 -0.03499,0.068598 -0.015375,0.0292 -0.036294,0.066782 -0.045984,0.080892 -0.1044883,0.1190261 -0.0585045,0.038134 -0.1306478,0.033487 -0.0721433,-0.00465 -0.15974192,-0.050772 z m 0.17866961,-0.051712 0.10352566,0.054511 q 0.0442417,0.023295 0.079545,0.024932 0.0353033,0.00164 0.0641601,-0.019899 0.0288568,-0.021536 0.0539688,-0.067081 0.0143961,-0.025194 0.0255543,-0.045313 0.011158,-0.020118 0.021432,-0.040702 0.010273,-0.020584 0.022434,-0.045825 0.033173,-0.067294 0.017416,-0.1157116 -0.015757,-0.048417 -0.0830043,-0.083826 l -0.0991015,-0.052181 z m 0.44730585,0.4492952 q -0.0066,-0.0088 -0.00521,-0.018597 0.00139,-0.0098 0.010191,-0.016405 l 0.5197943,-0.390274 q 0.0088,-0.0066 0.018597,-0.00521 0.0098,0.00139 0.016405,0.010191 l 0.2719909,0.3622567 q 0.0066,0.0088 0.00521,0.018597 -0.00139,0.0098 -0.010191,0.016405 l -0.063975,0.048034 q -0.008,0.006 -0.017798,0.00461 -0.0098,-0.00139 -0.016405,-0.010191 l -0.1945365,-0.2590975 -0.1255504,0.094266 0.1813273,0.2415045 q 0.0066,0.0088 0.00521,0.018597 -0.00139,0.0098 -0.010191,0.016405 l -0.059177,0.044431 q -0.008,0.006 -0.017798,0.00461 -0.0098,-0.00139 -0.016405,-0.010191 l -0.1813273,-0.2415045 -0.1295487,0.097268 0.1993399,0.265495 q 0.0066,0.0088 0.00521,0.018597 -0.00139,0.0098 -0.010191,0.016405 l -0.063175,0.047433 q -0.0088,0.0066 -0.018597,0.00521 -0.0098,-0.00139 -0.016405,-0.010191 z m 0.361954,0.5572908 q -0.0023,-0.010757 0.00309,-0.019065 0.00538,-0.00831 0.016141,-0.010606 l 0.635656,-0.1357774 q 0.010757,-0.0023 0.019065,0.00309 0.00831,0.00538 0.010606,0.016141 l 0.055355,0.259154 q 0.026111,0.1222424 -0.015081,0.2046652 -0.041192,0.082423 -0.146809,0.1049826 -0.07139,0.015249 -0.1266197,-0.00874 -0.05523,-0.023992 -0.091025,-0.076677 l -0.2150317,0.1901115 q -0.00524,0.00419 -0.010131,0.00523 -0.00782,0.00167 -0.015434,-0.00284 -0.00761,-0.00451 -0.00949,-0.013311 L 1.5881821,-1.534789 q -0.00376,-0.017603 0.00365,-0.028389 0.00741,-0.010786 0.014398,-0.016369 l 0.1984638,-0.167144 -0.025275,-0.1183307 -0.2259041,0.048253 q -0.010757,0.0023 -0.019065,-0.00309 -0.00831,-0.00538 -0.010606,-0.016141 z m 0.4025419,0.05104 0.026738,0.1251762 q 0.011489,0.053787 0.041473,0.07448 0.029984,0.020693 0.073991,0.011293 0.044007,-0.0094 0.064003,-0.040258 0.019995,-0.030857 0.0083,-0.085622 l -0.026738,-0.1251763 z"
         id="path4"
         inkscape:connector-curvature="0"
         style="fill:#6e40c9;fill-rule:nonzero;fill-opacity:1" />
    </g>
    <g
       transform="translate(49.998167,51.473346)"
       id="g10"
       style="fill:#6e40c9;fill-opacity:1">
      <path
         d="m -1.4199031,0.71 q -0.011,0 -0.017,-0.0065 -0.006,-0.0065 -0.006,-0.0165 V 0.034 q 0,-0.011 0.006,-0.0175 0.006,-0.0065 0.017,-0.0065 h 0.244 q 0.113,0 0.17900002,0.053 0.066,0.053 0.066,0.157 0,0.077 -0.0385,0.1255 -0.0385,0.0485 -0.10450002,0.0675 l 0.15400002,0.266 q 0.003,0.006 0.003,0.011 0,0.008 -0.0065,0.014 -0.0065,0.006 -0.0145,0.006 h -0.048 q -0.017,0 -0.025,-0.009 -0.008,-0.009 -0.014,-0.018 l -0.145,-0.254 h -0.175 v 0.258 q 0,0.01 -0.0065,0.0165 -0.0065,0.0065 -0.0175,0.0065 z m 0.075,-0.366 h 0.165 q 0.075,0 0.112,-0.0315 0.037,-0.0315 0.037,-0.0935 0,-0.061 -0.0365,-0.093 -0.0365,-0.032 -0.1125,-0.032 h -0.165 z m 0.53396829,0.366 q -0.008,0 -0.014,-0.006 -0.006,-0.006 -0.006,-0.014 0,-0.005 0.001,-0.011 l 0.248,-0.647 q 0.004,-0.01 0.011,-0.016 0.007,-0.006 0.021,-0.006 h 0.068 q 0.014,0 0.021,0.006 0.007,0.006 0.011,0.016 l 0.247,0.647 q 0.002,0.006 0.002,0.011 0,0.008 -0.006,0.014 -0.006,0.006 -0.014,0.006 h -0.051 q -0.012,0 -0.0175,-0.006 -0.0055,-0.006 -0.0075,-0.011 l -0.055,-0.142 h -0.328 l -0.055,0.142 q -0.001,0.005 -0.007,0.011 -0.006,0.006 -0.018,0.006 z m 0.16,-0.245 h 0.27 l -0.135,-0.355 z M -0.0469519,0.71 q -0.011,0 -0.017,-0.0065 -0.006,-0.0065 -0.006,-0.0165 V 0.034 q 0,-0.011 0.006,-0.0175 0.006,-0.0065 0.017,-0.0065 h 0.227 q 0.103,0 0.166,0.031 0.063,0.031 0.092,0.0915 0.029,0.0605 0.03,0.1485 0.001,0.045 0.001,0.079 0,0.034 -0.001,0.078 -0.002,0.092 -0.0305,0.1525 -0.0285,0.0605 -0.09,0.09 -0.0615,0.0295 -0.1625,0.0295 z m 0.075,-0.085 h 0.152 q 0.069,0 0.11,-0.019 0.041,-0.019 0.0595,-0.061 0.0185,-0.042 0.0195,-0.111 0.002,-0.03 0.002,-0.0525 0,-0.0225 0,-0.045 0,-0.0225 -0.002,-0.0515 -0.002,-0.097 -0.046,-0.1435 -0.044,-0.0465 -0.148,-0.0465 h -0.147 z M 0.66601294,0.71 q -0.011,0 -0.017,-0.0065 -0.006,-0.0065 -0.006,-0.0165 V 0.033 q 0,-0.01 0.006,-0.0165 0.006,-0.0065 0.017,-0.0065 h 0.053 q 0.011,0 0.017,0.0065 0.006,0.0065 0.006,0.0165 v 0.654 q 0,0.01 -0.006,0.0165 -0.006,0.0065 -0.017,0.0065 z M 1.1919622,0.72 q -0.086,0 -0.147,-0.0295 -0.061,-0.0295 -0.094,-0.091 -0.033,-0.0615 -0.037,-0.1545 -0.001,-0.044 -0.001,-0.0845 0,-0.0405 0.001,-0.0845 0.004,-0.092 0.0385,-0.1535 0.0345,-0.0615 0.096,-0.092 Q 1.1099622,0 1.1919622,0 q 0.081,0 0.1425,0.0305 0.0615,0.0305 0.0965,0.092 0.035,0.0615 0.038,0.1535 0.002,0.044 0.002,0.0845 0,0.0405 -0.002,0.0845 -0.003,0.093 -0.0365,0.1545 -0.0335,0.0615 -0.0945,0.091 -0.061,0.0295 -0.146,0.0295 z m 0,-0.085 q 0.076,0 0.1245,-0.046 0.0485,-0.046 0.0525,-0.149 0.002,-0.045 0.002,-0.0805 0,-0.0355 -0.002,-0.0795 -0.002,-0.069 -0.0255,-0.112 -0.0235,-0.043 -0.0625,-0.063 -0.039,-0.02 -0.089,-0.02 -0.05,0 -0.089,0.02 -0.039,0.02 -0.0625,0.063 -0.0235,0.043 -0.0265,0.112 -10e-4,0.044 -10e-4,0.0795 0,0.0355 10e-4,0.0805 0.004,0.103 0.053,0.149 0.049,0.046 0.125,0.046 z"
         id="path8"
         inkscape:connector-curvature="0"
         style="fill:#6e40c9;fill-rule:nonzero;fill-opacity:1" />
    </g>
    <g
       transform="translate(49.998167,51.473346)"
       clip-path="url(#SvgjsClipPath1003)"
       id="g44"
       style="fill:#6e40c9;fill-opacity:1">
      <g
         clip-path="url(#SvgjsClipPath1000)"
         id="g14"
         style="fill:#6e40c9;fill-opacity:1">
        <path
           d="m -0.00813037,-2.5614129 c -0.63637827,0.00775 -1.22100903,0.295678 -0.99506423,0.934382 0.22247562,0.62907163 0.73283801,1.44057748 1.02413587,1.4395309 0.29120096,-0.006105 0.78154268,-0.8298597 0.98857153,-1.464203 0.210188,-0.6440532 -0.38019894,-0.9175204 -1.01764317,-0.9097099 z m 0.9913818,0.5859681 c 2.9086e-4,0.00228 -3.3604e-4,0.00458 -0.001743,0.0064 -0.001407,0.00182 -0.003478,0.003 -0.005758,0.00329 -0.002259,3.309e-4 -0.004557,-2.581e-4 -0.006378,-0.00164 -0.001821,-0.00138 -0.003015,-0.00343 -0.003312,-0.00569 -4.7493e-4,-0.00466 0.002744,-0.0089 0.007365,-0.00969 0.002279,-4.054e-4 0.004624,1.528e-4 0.006475,0.00154 0.001852,0.00139 0.003044,0.00348 0.003293,0.00578 z m -0.0257769,-0.074249 c 0.00461,-0.00142 0.009507,0.00113 0.0109891,0.00572 6.3223e-4,0.00223 3.5209e-4,0.00462 -7.7866e-4,0.00664 -0.001131,0.00202 -0.003019,0.00351 -0.005249,0.00414 -0.004504,0.00127 -0.009192,-0.00132 -0.0105045,-0.00581 -7.0511e-4,-0.00214 -5.2176e-4,-0.00448 5.0904e-4,-0.00649 0.001031,-0.00201 0.002823,-0.00352 0.004976,-0.00419 z m -0.27133534,-0.297558 c 0.001095,-0.00203 0.002951,-0.00353 0.005158,-0.00419 0.002207,-6.546e-4 0.004584,-4.036e-4 0.006606,6.974e-4 0.00203,0.00105 0.003543,0.00289 0.00419,0.00508 6.4723e-4,0.00219 3.7299e-4,0.00456 -7.5951e-4,0.00654 -0.002337,0.00415 -0.007538,0.0057 -0.0117643,0.00351 -0.002013,-0.00108 -0.003514,-0.00291 -0.004173,-0.0051 -6.5825e-4,-0.00219 -4.1904e-4,-0.00454 6.6477e-4,-0.00655 z m -0.061942,-0.030196 c 9.2607e-4,-0.00209 0.002655,-0.00373 0.004799,-0.00453 0.002143,-8.056e-4 0.004521,-7.154e-4 0.006597,2.505e-4 0.004178,0.00207 0.005967,0.00707 0.004043,0.011317 -0.001924,0.00425 -0.006868,0.0062 -0.0111751,0.00442 -0.004298,-0.00202 -0.006192,-0.00711 -0.004264,-0.011454 z m -0.0638413,-0.025893 c 7.7648e-4,-0.00215 0.002392,-0.00388 0.004475,-0.00482 0.002083,-9.319e-4 0.004455,-9.774e-4 0.006573,-1.261e-4 0.004471,0.00172 0.006708,0.00673 0.005,0.011202 -8.0345e-4,0.00213 -0.00242,0.00384 -0.004493,0.00477 -0.002073,9.31e-4 -0.004431,9.982e-4 -0.006554,1.867e-4 -0.004419,-0.00178 -0.006631,-0.00674 -0.005,-0.011222 z m -0.0653724,-0.021707 c 6.2732e-4,-0.00221 0.002133,-0.00407 0.004165,-0.00513 0.002033,-0.00107 0.004415,-0.00126 0.006591,-5.246e-4 0.004552,0.00149 0.007064,0.00636 0.00564,0.010931 -6.7221e-4,0.00217 -0.002184,0.00397 -0.004197,0.00502 -0.002014,0.00105 -0.004362,0.00124 -0.00652,5.431e-4 -0.004476,-0.00152 -0.006973,-0.00629 -0.005679,-0.010834 z m -0.12369015,-0.039421 c 0.004672,9.312e-4 0.007705,0.00547 0.006774,0.010146 -9.3124e-4,0.00467 -0.005474,0.0077 -0.010146,0.00677 -0.002233,-3.986e-4 -0.00421,-0.00168 -0.005487,-0.00355 -0.001276,-0.00187 -0.001744,-0.00418 -0.001297,-0.00641 9.199e-4,-0.0047 0.005439,-0.0078 0.0101557,-0.00696 z m -0.0682215,-0.011977 c 0.002274,3.28e-4 0.00432,0.00156 0.005674,0.00342 0.001354,0.00186 0.0019,0.00418 0.001516,0.00645 -7.837e-4,0.00466 -0.005127,0.00785 -0.009807,0.00721 -0.002251,-3.112e-4 -0.004283,-0.00151 -0.005642,-0.00333 -0.001359,-0.00182 -0.00193,-0.00411 -0.001587,-0.00636 7.1877e-4,-0.00473 0.005099,-0.00802 0.009846,-0.00738 z m -0.0686478,-0.00911 c 0.002288,2.374e-4 0.004383,0.00139 0.005813,0.00319 0.00143,0.0018 0.002073,0.0041 0.001784,0.00639 -5.8658e-4,0.00469 -0.004809,0.00806 -0.009516,0.0076 -0.002264,-2.194e-4 -0.004345,-0.00134 -0.005777,-0.0031 -0.001432,-0.00177 -0.002095,-0.00403 -0.00184,-0.00629 5.3878e-4,-0.00475 0.004773,-0.0082 0.009536,-0.00777 z m -0.0689192,-0.00643 c 0.004774,4.011e-4 0.008326,0.00459 0.007946,0.00936 -3.8094e-4,0.00472 -0.004507,0.00824 -0.009225,0.00787 -0.002266,-1.338e-4 -0.004383,-0.00117 -0.005877,-0.00288 -0.001494,-0.00171 -0.002239,-0.00395 -0.002069,-0.00621 3.419e-4,-0.00477 0.004445,-0.0084 0.009225,-0.00814 z m -0.0690936,-0.00388 c 0.0047764,2.813e-4 0.0084526,0.00433 0.0082757,0.00911 -8.491e-5,0.00227 -0.001079,0.00441 -0.00276,0.00594 -0.00168,0.00153 -0.0039055,0.00232 -0.006175,0.0022 -0.0047632,-1.82e-4 -0.0084771,-0.00419 -0.0082951,-0.00895 1.8197e-4,-0.00476 0.0041908,-0.00848 0.0089544,-0.0083 z m -0.06917113,-0.00136 c 0.0047819,9.54e-5 0.0085992,0.00402 0.0085664,0.0088 -1.006e-5,0.00227 -9.2963e-4,0.00445 -0.0025536,0.00604 -0.0016239,0.00159 -0.0038171,0.00247 -0.0060904,0.00243 -0.0047654,-1.158e-4 -0.0085679,-0.00401 -0.0085664,-0.00878 4.72e-6,-0.00227 9.2324e-4,-0.00445 0.0025489,-0.00604 0.0016257,-0.00159 0.0038221,-0.00246 0.006095,-0.00241 z m -0.06917113,0.00107 c 0.0022868,-8.36e-5 0.0045116,7.533e-4 0.0061764,0.00232 0.0016648,0.00157 0.0026304,0.00374 0.0026808,0.00603 1.3703e-4,0.00475 -0.0036015,0.00871 -0.008351,0.00885 -0.0047495,1.383e-4 -0.0087124,-0.0036 -0.0088521,-0.00835 -1.3974e-4,-0.00475 0.0035965,-0.00871 0.0083459,-0.00885 z m -0.06909361,0.00308 c 0.002279,-1.646e-4 0.004528,5.92e-4 0.006244,0.0021 0.001716,0.00151 0.002755,0.00364 0.002884,0.00592 2.7766e-4,0.00476 -0.003312,0.00885 -0.008063,0.00921 -0.004758,2.943e-4 -0.008854,-0.00332 -0.009148,-0.00808 -2.9436e-4,-0.00476 0.003324,-0.00885 0.008082,-0.00915 z m -0.0689773,0.00547 c 0.002282,-2.539e-4 0.004569,4.272e-4 0.00634,0.00189 0.001771,0.00146 0.002875,0.00358 0.00306,0.00586 4.5217e-4,0.00476 -0.003001,0.009 -0.007752,0.00952 -0.002277,2.32e-4 -0.004553,-4.571e-4 -0.006319,-0.00191 -0.001766,-0.00146 -0.002876,-0.00356 -0.003081,-0.00584 -4.6222e-4,-0.00475 0.003002,-0.00899 0.007752,-0.00948 z m -0.0687447,0.008 c 0.002256,-3.478e-4 0.004557,2.297e-4 0.006381,0.0016 0.001824,0.00137 0.003018,0.00342 0.00331,0.00569 6.2497e-4,0.00473 -0.002647,0.0091 -0.007365,0.00983 -0.002253,3.313e-4 -0.004546,-2.525e-4 -0.006366,-0.00162 -0.00182,-0.00137 -0.003017,-0.00341 -0.003325,-0.00567 -6.4555e-4,-0.00473 0.002641,-0.0091 0.007365,-0.00979 z m -0.0684153,0.010718 c 0.002239,-4.401e-4 0.004561,4.2e-5 0.00644,0.00134 0.001879,0.0013 0.003156,0.00329 0.003541,0.00554 8.0679e-4,0.00469 -0.002269,0.00918 -0.006938,0.010117 -0.002237,4.236e-4 -0.004551,-6.53e-5 -0.006426,-0.00136 -0.001875,-0.00129 -0.003155,-0.00328 -0.003555,-0.00552 -8.1598e-4,-0.00469 0.002268,-0.00917 0.006938,-0.010078 z m -0.13512499,0.030487 c 0.002172,-6.51e-4 0.004514,-4.018e-4 0.006501,6.917e-4 0.001986,0.00109 0.00345,0.00294 0.004062,0.00512 0.001227,0.0046 -0.001425,0.00935 -0.005989,0.010718 -0.002187,6.249e-4 -0.004534,3.499e-4 -0.006517,-7.638e-4 -0.001984,-0.00111 -0.00344,-0.00297 -0.004045,-0.00517 -0.001231,-0.00458 0.001434,-0.00929 0.005989,-0.010601 z m -0.0663415,0.020253 c 0.002158,-7.593e-4 0.004531,-6.155e-4 0.006581,3.988e-4 0.00205,0.00101 0.003605,0.00281 0.004311,0.00499 0.001471,0.00452 -9.2836e-4,0.00938 -0.005407,0.01097 -0.002156,7.327e-4 -0.004515,5.787e-4 -0.006558,-4.281e-4 -0.002043,-0.00101 -0.003602,-0.00278 -0.004334,-0.00494 -0.00154,-0.00453 8.8081e-4,-0.00945 0.005407,-0.010989 z m -0.0651205,0.023916 c 0.002115,-8.816e-4 0.004497,-8.727e-4 0.006605,2.47e-5 0.002109,8.974e-4 0.003766,0.00261 0.004597,0.00474 0.001788,0.0044 -3.3403e-4,0.00942 -0.004739,0.011212 -0.004405,0.00179 -0.009424,-3.34e-4 -0.011212,-0.00474 -8.7292e-4,-0.00212 -8.6226e-4,-0.0045 2.96e-5,-0.00661 8.9186e-4,-0.00211 0.002591,-0.00378 0.004719,-0.00463 z m -0.0635506,0.028006 c 0.004237,-0.00183 0.009162,3.6e-6 0.0111761,0.00416 0.002014,0.00415 4.0249e-4,0.00915 -0.003656,0.011349 -0.004337,0.00206 -0.009522,2.437e-4 -0.0116287,-0.00407 -0.001,-0.00206 -0.001128,-0.00443 -3.5478e-4,-0.00658 7.7346e-4,-0.00215 0.002383,-0.0039 0.004464,-0.00485 z m -0.32436201,0.3460107 c 0.00135,-0.00464 0.006195,-0.0073 0.010834,-0.00597 0.004504,0.00131 0.00713,0.00598 0.005904,0.010512 -0.001226,0.00453 -0.005851,0.00724 -0.0104005,0.0061 -0.004673,-0.00121 -0.007501,-0.00596 -0.006338,-0.01064 z m -0.003586,0.061399 c 0.004689,6.524e-4 0.008051,0.00486 0.007656,0.00957 -5.6195e-4,0.00473 -0.004853,0.00811 -0.009584,0.00755 -0.004731,-5.62e-4 -0.008111,-0.00485 -0.007549,-0.00958 1.9012e-4,-0.00228 0.001315,-0.00439 0.00311,-0.00582 0.001794,-0.00143 0.004098,-0.00205 0.006367,-0.00172 z m -0.012869,0.077524 c -7.33e-5,-0.00229 7.8327e-4,-0.00451 0.002375,-0.00616 0.001592,-0.00165 0.003783,-0.00259 0.006075,-0.0026 0.004744,-3.3e-6 0.008641,0.00375 0.008818,0.00849 3.335e-5,0.00473 -0.003723,0.00861 -0.00845,0.00874 -0.002332,7.92e-5 -0.004595,-7.962e-4 -0.006267,-0.00242 -0.001672,-0.00163 -0.002607,-0.00387 -0.00259,-0.0062 z m 0.005233,0.069636 c -3.2974e-4,-0.00227 2.7227e-4,-0.00459 0.00167,-0.00641 0.001397,-0.00182 0.003472,-0.00301 0.005753,-0.00328 0.004715,-6.262e-4 0.009045,0.00269 0.009671,0.0074 6.2618e-4,0.00472 -0.002689,0.00904 -0.007404,0.00967 -0.002309,3.577e-4 -0.004665,-2.459e-4 -0.006517,-0.00167 -0.001853,-0.00142 -0.003041,-0.00355 -0.003289,-0.00587 z m 0.0229084,0.074985 c -0.003021,7.627e-4 -0.006218,-1.669e-4 -0.008359,-0.00243 -0.002141,-0.00226 -0.002891,-0.00551 -0.001961,-0.00848 9.299e-4,-0.00297 0.003394,-0.00521 0.006444,-0.00585 0.004634,-0.00102 0.00924,0.00183 0.0103883,0.00643 9.3967e-4,0.00461 -0.001968,0.00912 -0.006551,0.010175 z m 0.0190516,0.066167 c -0.002184,7.207e-4 -0.004566,5.41e-4 -0.006618,-4.993e-4 -0.002052,-0.00104 -0.003604,-0.00286 -0.004313,-0.00504 -7.3447e-4,-0.00216 -5.6168e-4,-0.00453 4.7897e-4,-0.00657 0.001041,-0.00203 0.00286,-0.00356 0.005045,-0.00423 0.004543,-0.00141 0.009385,0.00104 0.0109309,0.00554 0.001357,0.00447 -0.001117,0.0092 -0.005562,0.01064 z m 0.008896,-0.4084565 c -0.002105,0.00423 -0.007137,0.0061 -0.011493,0.00426 -0.002119,-8.861e-4 -0.003776,-0.00261 -0.00458,-0.00476 -8.0392e-4,-0.00215 -6.8235e-4,-0.00454 3.3589e-4,-0.0066 0.001959,-0.00435 0.00707,-0.00628 0.0114155,-0.00432 0.004346,0.00196 0.006281,0.00707 0.004322,0.011416 z m 0.0141288,0.4734026 c -0.004464,0.00161 -0.009389,-6.967e-4 -0.0110086,-0.00516 -0.00162,-0.00446 6.7663e-4,-0.00939 0.005133,-0.011019 0.004457,-0.00163 0.009392,6.565e-4 0.0110305,0.00511 0.001488,0.00444 -8.0778e-4,0.00927 -0.005194,0.010911 z m 0.006435,-0.5300342 c -0.002724,-0.00161 -0.004345,-0.00459 -0.004224,-0.00775 1.2114e-4,-0.00316 0.001965,-0.00601 0.004805,-0.00741 0.002839,-0.0014 0.006217,-0.00113 0.0088,6.987e-4 0.002724,0.00161 0.004345,0.00459 0.004224,0.00775 -1.2113e-4,0.00316 -0.001965,0.00601 -0.004805,0.00741 -0.002839,0.0014 -0.006217,0.00113 -0.0088,-6.987e-4 z m 0.0180632,0.5942438 c -0.004432,0.0017 -0.0094,-5.165e-4 -0.0111054,-0.00494 -0.001705,-0.00443 4.964e-4,-0.0094 0.004921,-0.011116 0.004425,-0.00171 0.009402,4.763e-4 0.0111265,0.0049 0.0017,0.00445 -5.0726e-4,0.00943 -0.004942,0.011164 z m 0.0257575,0.063958 c -0.002109,8.809e-4 -0.004482,8.807e-4 -0.006591,-6e-7 -0.002109,-8.812e-4 -0.003776,-0.00257 -0.004631,-0.00469 -0.001335,-0.00323 -5.9252e-4,-0.00694 0.001882,-0.00941 0.002474,-0.00247 0.006191,-0.0032 0.009414,-0.00185 0.003223,0.00135 0.005315,0.0045 0.005299,0.008 -1.611e-5,0.00349 -0.002137,0.00663 -0.005372,0.00795 z m 0.00909,-0.7145035 c -0.003299,0.00339 -0.008654,0.00367 -0.0122876,6.396e-4 -0.001771,-0.00145 -0.00285,-0.00358 -0.002975,-0.00587 -1.2527e-4,-0.00229 7.1503e-4,-0.00452 0.002316,-0.00616 0.00327,-0.00354 0.008777,-0.0038 0.0123651,-5.814e-4 0.001669,0.0015 0.002669,0.0036 0.002779,0.00584 1.0922e-4,0.00224 -6.8197e-4,0.00443 -0.002197,0.00608 z m 0.0177725,0.7779378 c -0.002094,9.112e-4 -0.004464,9.488e-4 -0.006586,1.046e-4 -0.002121,-8.443e-4 -0.003818,-0.0025 -0.004713,-0.0046 -0.00187,-0.0044 1.7707e-4,-0.00948 0.004574,-0.011357 0.002094,-9.039e-4 0.004462,-9.356e-4 0.006579,-8.79e-5 0.002117,8.476e-4 0.003809,0.0025 0.004701,0.0046 0.001809,0.00437 -2.1608e-4,0.00939 -0.004555,0.01128 z m 0.0279475,0.062989 c -0.00208,9.517e-4 -0.004454,0.00103 -0.006592,2.18e-4 -0.002138,-8.122e-4 -0.003861,-0.00245 -0.004785,-0.00454 -0.001438,-0.00318 -8.1617e-4,-0.00692 0.001576,-0.00946 0.002392,-0.00254 0.006082,-0.00339 0.009346,-0.00215 0.003264,0.00124 0.005459,0.00433 0.005558,0.00782 9.963e-5,0.00349 -0.001915,0.0067 -0.005103,0.00812 z m 0.002326,-0.8887008 c -0.003568,0.00312 -0.008975,0.0028 -0.0121519,-7.171e-4 -0.001541,-0.0017 -0.002336,-0.00395 -0.002204,-0.00624 1.3117e-4,-0.00229 0.001177,-0.00444 0.002902,-0.00595 0.00169,-0.00155 0.003937,-0.00235 0.006228,-0.00222 0.002291,1.351e-4 0.004428,0.00119 0.005924,0.00293 0.003104,0.00358 0.002795,0.00899 -6.9772e-4,0.012191 z m 0.0265521,0.9511466 c -0.002067,9.896e-4 -0.004444,0.00111 -0.0066,3.342e-4 -0.002156,-7.757e-4 -0.003911,-0.00238 -0.004874,-0.00446 -0.001995,-0.00434 -1.1671e-4,-0.00947 0.004206,-0.011493 0.002063,-9.698e-4 0.004427,-0.00108 0.00657,-2.99e-4 0.002142,7.785e-4 0.003886,0.00238 0.004846,0.00445 0.002001,0.00429 1.8967e-4,0.0094 -0.00407,0.011474 z m 0.0164739,-1.0076425 c 0.001843,-0.00139 0.004177,-0.00196 0.006452,-0.00157 0.002275,3.889e-4 0.004288,0.0017 0.005564,0.00362 0.002634,0.00389 0.001785,0.00915 -0.001938,0.012016 -0.001809,0.00136 -0.004088,0.00193 -0.006323,0.00159 -0.002235,-3.428e-4 -0.004238,-0.00157 -0.005557,-0.00341 -0.002799,-0.00392 -0.001965,-0.00935 0.00188,-0.012249 z m 0.0134505,1.0697008 c -0.003117,0.00155 -0.006864,0.00108 -0.009491,-0.00121 -0.002627,-0.00229 -0.003615,-0.00593 -0.002503,-0.00923 0.001112,-0.0033 0.004104,-0.00561 0.007579,-0.00584 0.003476,-2.333e-4 0.006749,0.00165 0.008292,0.00477 0.002122,0.00423 4.2318e-4,0.00938 -0.003799,0.011512 z m 0.0308353,0.061593 c -0.004252,0.00209 -0.009391,3.466e-4 -0.0114984,-0.00389 -0.002108,-0.00424 -3.9206e-4,-0.00939 0.003839,-0.011517 0.004231,-0.00213 0.009387,-4.376e-4 0.0115356,0.00378 0.001056,0.00204 0.001249,0.00442 5.3475e-4,0.00661 -7.1405e-4,0.00219 -0.002275,0.00399 -0.004333,0.00502 z m 0.0111441,-1.1572646 c -0.001174,-0.00195 -0.001499,-0.0043 -8.9826e-4,-0.00649 6.0039e-4,-0.0022 0.002073,-0.00405 0.004077,-0.00513 0.00419,-0.00234 0.009481,-8.794e-4 0.0118806,0.00328 0.001141,0.00196 0.001447,0.00429 8.4921e-4,0.00648 -5.977e-4,0.00219 -0.002049,0.00404 -0.004028,0.00515 -0.00418,0.00221 -0.00936,7.741e-4 -0.0118031,-0.00328 z m 0.0207184,1.218412 c -0.003083,0.00164 -0.006851,0.00126 -0.009543,-9.672e-4 -0.002692,-0.00222 -0.003777,-0.00585 -0.002748,-0.00919 0.001029,-0.00334 0.003968,-0.00572 0.007445,-0.00605 0.003477,-3.224e-4 0.006805,0.00148 0.00843,0.00457 0.002198,0.0042 5.9782e-4,0.00939 -0.003586,0.011629 z m 0.0326765,0.060643 c -0.004175,0.00227 -0.009403,7.344e-4 -0.0116771,-0.00344 -0.002275,-0.00417 -7.3437e-4,-0.0094 0.00344,-0.011677 0.004175,-0.00227 0.009403,-7.344e-4 0.0116771,0.00344 0.002275,0.00417 7.3437e-4,0.0094 -0.00344,0.011677 z m 0.0336262,0.0600814 c -0.00268,0.001629 -0.006034,0.001671 -0.008754,1.0999e-4 -0.00272,-0.001561 -0.004375,-0.004479 -0.00432,-0.007614 5.511e-5,-0.003136 0.001812,-0.005993 0.004585,-0.007458 0.004113,-0.002172 0.009208,-6.8309e-4 0.0115034,0.003363 0.002295,0.004046 9.6025e-4,0.009183 -0.003014,0.011599 z m 0.0345565,0.0596162 c -0.003001,0.001791 -0.006786,0.001593 -0.009585,-4.9999e-4 -0.002799,-0.002093 -0.004057,-0.005668 -0.003187,-0.009053 8.699e-4,-0.003385 0.003696,-0.00591 0.007157,-0.006395 0.003461,-4.845e-4 0.006872,0.001168 0.008638,0.004183 0.001172,0.001964 0.001512,0.004315 9.4475e-4,0.006531 -5.6761e-4,0.002216 -0.001996,0.004114 -0.003968,0.005272 z m 0.0355062,0.0590348 c -0.004071,0.002485 -0.009384,0.001222 -0.0119,-0.00283 -0.001202,-0.00195 -0.001573,-0.004299 -0.00103,-0.006524 5.4259e-4,-0.002225 0.001954,-0.00414 0.003918,-0.005318 0.004061,-0.002454 0.009341,-0.001183 0.0118419,0.002849 0.001213,0.001944 0.001596,0.004293 0.001065,0.006522 -5.3173e-4,0.002229 -0.001934,0.004152 -0.003894,0.005339 z m 0.036514,0.0584146 c -0.004022,0.002562 -0.009357,0.001393 -0.0119388,-0.002616 -0.001242,-0.001921 -0.001662,-0.004259 -0.001166,-0.006491 4.9536e-4,-0.002233 0.001865,-0.004174 0.003802,-0.005389 0.004032,-0.002525 0.009344,-0.001352 0.0119387,0.002636 0.001248,0.001922 0.001672,0.004265 0.001176,0.006502 -4.956e-4,0.002237 -0.001869,0.004182 -0.003812,0.005398 z m 0.0375799,0.0577557 c -0.00398,0.002631 -0.009337,0.001558 -0.0119969,-0.002403 -0.001274,-0.001898 -0.001734,-0.004226 -0.001279,-0.006466 4.5521e-4,-0.00224 0.001788,-0.004204 0.003702,-0.005453 0.002558,-0.00171 0.005835,-0.001926 0.008595,-5.6512e-4 0.00276,0.001361 0.004585,0.00409 0.004787,0.007161 2.0189e-4,0.003071 -0.00125,0.006016 -0.003808,0.007726 z m 0.0387622,0.0569804 c -0.003925,0.002715 -0.009307,0.001744 -0.0120357,-0.002171 -0.001296,-0.001869 -0.001794,-0.004178 -0.001383,-0.006415 4.1104e-4,-0.002237 0.001697,-0.004218 0.003573,-0.005504 0.00393,-0.002693 0.009294,-0.001725 0.0120357,0.002171 0.001292,0.001882 0.001782,0.004202 0.00136,0.006446 -4.2189e-4,0.002244 -0.00172,0.004228 -0.003608,0.005512 z m 0.007152,-0.4967762 -0.2228826,-0.3130629 0.11669357,-0.00667 -0.13719877,-0.2747464 0.24986108,0.3314168 -0.11775954,0.005 z m 0.0327153,0.552962 c -0.003878,0.002792 -0.009283,0.001926 -0.0120938,-0.001938 -0.001357,-0.00184 -0.001915,-0.004149 -0.001551,-0.006406 3.6459e-4,-0.002257 0.001622,-0.004272 0.003489,-0.005591 0.003883,-0.00277 0.009271,-0.001906 0.0120938,0.001938 0.001347,0.001855 0.001895,0.004173 0.001519,0.006435 -3.7518e-4,0.002262 -0.001642,0.004279 -0.003516,0.0056 z m 0.0107565,-1.8098067 c -0.001077,-0.00467 0.001826,-0.00933 0.006493,-0.010427 0.002215,-5.428e-4 0.004556,-1.648e-4 0.006488,0.00105 0.001932,0.00121 0.00329,0.00316 0.003765,0.00539 0.001021,0.00465 -0.00185,0.00927 -0.006473,0.010408 -0.002216,5.4e-4 -0.004557,1.695e-4 -0.006498,-0.00103 -0.001941,-0.0012 -0.003321,-0.00312 -0.003832,-0.00535 z m 0.0304865,1.86498467 c -0.003792,0.002911 -0.009224,0.00221 -0.0121519,-0.00157 -0.0014,-0.001801 -0.00202,-0.004088 -0.001722,-0.00635 2.9866e-4,-0.002262 0.001491,-0.00431 0.003311,-0.005686 0.003792,-0.002887 0.009201,-0.002187 0.0121326,0.00157 0.001398,0.001812 0.002013,0.004109 0.001707,0.006377 -3.0585e-4,0.002268 -0.001507,0.00432 -0.003335,0.005697 z m 0.0427741,0.0539957 c -0.001772,0.001452 -0.004049,0.00214 -0.006329,0.001911 -0.00228,-2.2907e-4 -0.004375,-0.001356 -0.005823,-0.003132 -0.001457,-0.001761 -0.002146,-0.004033 -0.001913,-0.006307 2.332e-4,-0.002274 0.001369,-0.004359 0.003154,-0.005787 0.003701,-0.002992 0.00912,-0.002447 0.0121519,0.001221 0.001454,0.001769 0.002141,0.004046 0.001908,0.006325 -2.3294e-4,0.002278 -0.001367,0.004369 -0.003149,0.005808 z m 0.0445765,0.0525615 c -0.003586,0.003111 -0.009013,0.00273 -0.0121297,-8.5075e-4 -0.003116,-0.003581 -0.002745,-0.009009 8.3064e-4,-0.0121311 0.003575,-0.003122 0.009004,-0.00276 0.0121325,8.1052e-4 0.003125,0.003607 0.002753,0.009061 -8.3339e-4,0.0122101 z m 0.0465146,0.0507979 c -0.001631,0.001606 -0.003844,0.002481 -0.006132,0.002422 -0.002288,-5.848e-5 -0.004454,-0.001045 -0.006,-0.002732 -0.003268,-0.0035 -0.003095,-0.008982 3.8762e-4,-0.0122682 0.001642,-0.001574 0.003846,-0.002424 0.00612,-0.002358 0.002274,6.558e-5 0.004426,0.001041 0.005974,0.002707 0.003246,0.003501 0.003091,0.008957 -3.4886e-4,0.0122682 z m 0.0493637,0.0480651 c -0.001559,0.001688 -0.003726,0.002684 -0.006022,0.002768 -0.002296,8.368e-5 -0.00453,-7.5205e-4 -0.006207,-0.002322 -0.00169,-0.001542 -0.002688,-0.0037 -0.002768,-0.005986 -8.023e-5,-0.002286 7.6371e-4,-0.004509 0.002341,-0.006166 0.003269,-0.003451 0.008699,-0.003649 0.0122101,-4.4576e-4 0.003462,0.00327 0.003618,0.008728 3.4886e-4,0.0121907 z m 0.0524453,0.0445765 c -0.002962,0.003787 -0.008426,0.004471 -0.0122295,0.001531 -0.001821,-0.001418 -0.002988,-0.003515 -0.003232,-0.00581 -2.4484e-4,-0.002295 4.5314e-4,-0.004591 0.001934,-0.006361 0.003,-0.003628 0.008342,-0.004212 0.012055,-0.001318 0.001796,0.001401 0.002954,0.003466 0.003213,0.005729 2.5879e-4,0.002263 -4.031e-4,0.004536 -0.001837,0.006306 z m 0.05684475,0.0387622 c -0.0011668,0.001995 -0.0030842,0.00344 -0.0053238,0.004012 -0.0022397,5.7175e-4 -0.0046151,2.2265e-4 -0.0065955,-9.6932e-4 -0.002021,-0.001131 -0.0034803,-0.003051 -0.0040281,-0.005301 -5.4781e-4,-0.00225 -1.3469e-4,-0.004627 0.0011403,-0.00656 0.0025819,-0.003915 0.0077474,-0.005175 0.01184185,-0.002888 0.0019516,0.001184 0.0033511,0.003097 0.0038894,0.005316 5.3825e-4,0.002218 1.7086e-4,0.00456 -0.001021,0.006507 z m 0.06310485,0.0269203 c -7.6794e-4,0.003064 -0.00315318,0.005461 -0.00621363,0.006245 -0.0030604,7.8322e-4 -0.006304,-1.7346e-4 -0.0084495,-0.002492 -0.0021455,-0.002319 -0.0028481,-0.005627 -0.0018301,-0.008617 0.0014869,-0.004368 0.0061547,-0.006786 0.01058063,-0.005481 0.00442594,0.001305 0.00703441,0.005869 0.0059126,0.010345 z m 0.0620195,0.005388 c -0.0022541,6.8872e-4 -0.0046905,4.4217e-4 -0.006761,-6.8419e-4 -0.0020705,-0.001126 -0.0036011,-0.003038 -0.0042475,-0.005305 -0.0013133,-0.004477 0.0011796,-0.009184 0.0056205,-0.0106138 0.0044408,-0.001429 0.0092119,9.4003e-4 0.01075655,0.005342 8.3281e-4,0.002244 7.0917e-4,0.004731 -3.4206e-4,0.006881 -0.0010512,0.00215 -0.0029381,0.003775 -0.0052203,0.004496 z m 0.06341495,-0.0316881 c -0.004014,0.002569 -0.00935,0.001398 -0.0119194,-0.002616 -0.002569,-0.004014 -0.001398,-0.00935 0.002616,-0.0119194 0.004038,-0.002387 0.009235,-0.001245 0.0119,0.002616 0.001337,0.001943 0.001787,0.004361 0.001241,0.006655 -5.4674e-4,0.002294 -0.00204,0.004249 -0.004109,0.00538 z m 0.0562052,-0.0416887 c -0.003741,0.003011 -0.009206,0.002458 -0.0122682,-0.00124 -0.001443,-0.001744 -0.00213,-0.003992 -0.001908,-0.006245 2.2199e-4,-0.002253 0.001335,-0.004323 0.00309,-0.005752 0.003633,-0.002992 0.008988,-0.002545 0.0120744,0.001008 0.00152,0.001783 0.002246,0.004111 0.002008,0.006442 -2.379e-4,0.002331 -0.001418,0.004464 -0.003268,0.005904 z M -0.0893953,-0.60000724 v -0.0586278 l 0.28579363,-0.29311969 z m 0.31670648,0.22094449 c -0.003404,0.003334 -0.008866,0.003278 -0.0122004,-1.2597e-4 -0.003334,-0.003404 -0.003278,-0.008866 1.2598e-4,-0.0122004 0.003439,-0.003276 0.008866,-0.003199 0.0122101,1.7443e-4 0.001638,0.001618 0.002549,0.003832 0.002523,0.006134 -2.558e-5,0.002302 -9.8513e-4,0.004495 -0.002659,0.006076 z m 0.0480651,-0.050042 c -0.001506,0.001725 -0.003648,0.002766 -0.005935,0.002882 -0.002287,1.1691e-4 -0.004524,-6.9948e-4 -0.006198,-0.002262 -0.003476,-0.003234 -0.003768,-0.00864 -6.5896e-4,-0.0122295 0.00152,-0.001694 0.003651,-0.002713 0.005924,-0.002833 0.002273,-1.1999e-4 0.004499,6.6919e-4 0.006189,0.002193 0.001725,0.00154 0.002766,0.003704 0.002894,0.006013 1.2727e-4,0.002309 -6.6982e-4,0.004574 -0.002215,0.006294 z m 0.0452742,-0.0524259 c -0.002223,0.00269 -0.005848,0.003776 -0.009183,0.00275 -0.003336,-0.001026 -0.005724,-0.00396 -0.006052,-0.007434 -3.2745e-4,-0.003474 0.001471,-0.006804 0.004556,-0.008434 0.003085,-0.001631 0.006849,-0.001242 0.009535,9.8596e-4 0.001785,0.001454 0.002912,0.003564 0.003127,0.005856 2.1501e-4,0.002292 -4.9954e-4,0.004575 -0.001983,0.006335 z m 0.0432199,-0.0540345 c -0.002129,0.002767 -0.005716,0.003978 -0.009086,0.003067 -0.00337,-9.1113e-4 -0.005859,-0.003764 -0.006304,-0.007227 -4.4467e-4,-0.003463 0.001242,-0.006852 0.004273,-0.008585 0.003031,-0.001733 0.006808,-0.001468 0.009566,6.7149e-4 0.001838,0.001387 0.003039,0.003456 0.003331,0.00574 2.9185e-4,0.002284 -3.4997e-4,0.004589 -0.00178,0.006393 z m 0.0158343,-0.90383745 c -0.0126365,-0.00219 -0.0952193,-0.00928 -0.0992893,-0.014168 -0.002785,-0.00485 -0.003933,-0.010459 -0.003275,-0.016009 l -0.0227534,5.232e-4 c 0.001861,0.034563 0.004018,0.070134 0.006473,0.1067124 0.001492,0.022133 -0.0168228,0.040332 -0.0362426,0.059616 -0.0205246,0.020389 -0.0417663,0.041476 -0.0407003,0.066148 0.0025,0.05479 0.0139544,0.236023 0.0142451,0.24082952 l -0.29306154,0.28581301 c 0,-0.005233 -0.02114478,-0.46437113 -0.02364494,-0.51889013 -0.001124,-0.024866 -0.024362,-0.045003 -0.0468247,-0.064481 -0.0210091,-0.018218 -0.040836,-0.035409 -0.0413593,-0.057387 -8.7861e-4,-0.036643 -0.001964,-0.072266 -0.003256,-0.1068674 l -0.0256218,6.008e-4 c 3.2921e-4,0.00294 -4.9024e-4,0.00589 -0.002287,0.00824 -0.003663,0.00388 -0.0855094,0.012559 -0.0979521,0.01471 -0.0108534,0.00194 -0.0148653,-0.027463 -0.0157181,-0.035041 v -0.00178 c 1.5505e-4,-0.0076 0.001492,-0.037057 0.0124814,-0.0357 0.0125977,0.00155 0.0950837,0.00642 0.0990956,0.010059 0.00198,0.00223 0.003058,0.00512 0.003023,0.0081 l 0.025835,-6.008e-4 c -0.003082,-0.075392 -0.006977,-0.1453582 -0.011241,-0.2089864 l 0.001299,0.028296 -0.0271335,6.396e-4 c 0.001166,0.00544 5.2627e-4,0.011105 -0.001822,0.016145 -0.003624,0.00508 -0.0853737,0.016047 -0.097797,0.018819 -0.0108146,0.0024 -0.0152723,-0.036669 -0.016222,-0.046747 l -1.1628e-4,-0.00238 c 0,-0.010098 9.3029e-4,-0.049306 0.0119387,-0.047406 0.0126365,0.00217 0.0952193,0.00926 0.0992893,0.014148 0.002784,0.00485 0.003938,0.010471 0.003295,0.016028 l 0.0271335,-6.396e-4 c -0.004593,-0.068415 -0.009691,-0.1293881 -0.0144389,-0.1817559 l 2.5195e-4,0.00568 -0.0271335,6.396e-4 c 7.7462e-4,0.00416 3.917e-5,0.00845 -0.002074,0.012113 -0.0323153,0.00725 -0.0649837,0.012827 -0.0978745,0.016706 -0.010834,0.00213 -0.0150591,-0.031979 -0.01597,-0.0407 l -9.691e-5,-0.00209 c 9.691e-5,-0.00882 0.001221,-0.043045 0.0122101,-0.041417 0.0332495,0.00231 0.0663576,0.00633 0.0991925,0.012055 0.002442,0.00349 0.003568,0.00773 0.003178,0.011978 l 0.0258156,-6.009e-4 c -0.0113767,-0.1183991 -0.0211835,-0.1864073 -0.0213192,-0.1878221 l -0.002364,-0.016067 0.0162607,5.427e-4 c 8.3338e-4,0 0.0836488,0.00244 0.12925252,-0.026416 0.0473674,-0.029963 0.06395762,-0.028645 0.07946249,-0.02411 l 0.0020544,5.814e-4 c 0.0099004,0.0037 0.01919518,0.00886 0.0275793,0.015292 0.007820095,-0.00683 0.01664502,-0.01241 0.02616448,-0.016551 l 0.0019381,-6.783e-4 c 0.0149622,-0.00525 0.03141675,-0.00736 0.08128431,0.020234 0.0484527,0.026785 0.13076425,0.020389 0.13157826,0.020331 l 0.0155049,-0.00128 -8.5276e-4,0.015505 c 0,0.00141 -0.003663,0.069966 -0.004225,0.188985 l 0.0258544,-6.008e-4 c -7.8687e-4,-0.00416 -5.069e-5,-0.00846 0.002074,-0.012113 0.0323113,-0.00727 0.0649807,-0.012848 0.0978745,-0.016707 0.010834,-0.00215 0.0150591,0.031959 0.01597,0.0407 v 0.00207 c -1.1629e-4,0.00882 -0.001221,0.043065 -0.0122295,0.041437 -0.0332483,-0.00232 -0.0663559,-0.00635 -0.0991924,-0.012055 -0.002421,-0.0035 -0.003539,-0.00774 -0.003159,-0.011977 l -0.0271335,6.202e-4 -2.9072e-4,-0.0062 c 0,0.052542 5.2329e-4,0.1136507 0.002171,0.1821823 l 0.0214549,-5.039e-4 c -3.4085e-4,-0.00294 4.7221e-4,-0.00589 0.002268,-0.00824 0.003663,-0.00388 0.0855288,-0.012559 0.0979714,-0.01471 0.010834,-0.00194 0.0148459,0.027482 0.0156987,0.035041 v 0.00178 c -1.5505e-4,0.0076 -0.001473,0.037076 -0.0124814,0.035719 -0.0125977,-0.00157 -0.0950837,-0.00642 -0.0990955,-0.010059 -0.001981,-0.00224 -0.003052,-0.00513 -0.003004,-0.00812 l -0.0220751,5.233e-4 c 0.00157,0.055915 0.003876,0.1162866 0.007093,0.1806512 l 0.0229666,-5.427e-4 c -0.001176,-0.00544 -5.3598e-4,-0.011107 0.001822,-0.016144 0.003605,-0.00508 0.0853737,-0.016048 0.0977776,-0.018819 0.0108147,-0.0024 0.0152723,0.036688 0.0162414,0.046747 v 0.00238 c 1.5504e-4,0.010136 -7.171e-4,0.049383 -0.011745,0.047445 z m 0.0255637,0.84850442 c -0.002805,0.003873 -0.008219,0.004741 -0.0120938,0.001938 -0.001854,-0.001329 -0.003101,-0.003343 -0.003465,-0.005595 -3.6381e-4,-0.002252 1.8563e-4,-0.004556 0.001527,-0.006402 0.002829,-0.003835 0.008208,-0.004697 0.0120938,-0.001938 0.001871,0.001316 0.003132,0.003332 0.003497,0.00559 3.6486e-4,0.002258 -1.973e-4,0.004569 -0.001559,0.006407 z m 0.0232573,-1.85203812 c 7.1861e-4,-0.00302 0.003005,-0.00541 0.005984,-0.00627 0.002979,-8.602e-4 0.006191,-5.07e-5 0.008407,0.00212 0.002216,0.00217 0.003093,0.00536 0.002296,0.00836 -0.00121,0.00455 -0.005853,0.00728 -0.0104192,0.00613 -0.004566,-0.00115 -0.007359,-0.00576 -0.006268,-0.010338 z m 0.016629,1.79556161 c -0.002729,0.003915 -0.008111,0.004886 -0.0120357,0.002171 -0.001881,-0.001287 -0.003171,-0.003271 -0.003582,-0.005513 -4.1124e-4,-0.002242 8.996e-5,-0.004555 0.001392,-0.006426 0.002741,-0.003893 0.008099,-0.004868 0.0120357,-0.00219 0.001878,0.001296 0.003159,0.003288 0.00356,0.005534 4.0041e-4,0.002246 -1.137e-4,0.004559 -0.001428,0.006424 z m 0.0383552,-0.0574843 c -0.001904,0.002943 -0.005397,0.004444 -0.008842,0.003802 -0.003446,-6.4257e-4 -0.006162,-0.003302 -0.006877,-0.006733 -7.1529e-4,-0.003431 7.1218e-4,-0.006955 0.003614,-0.00892 0.002902,-0.001966 0.006703,-0.001985 0.009625,-4.792e-5 0.001922,0.001237 0.003266,0.003193 0.003733,0.00543 4.6638e-4,0.002237 1.532e-5,0.004568 -0.001252,0.00647 z m 0.0372505,-0.0581433 c -0.002563,0.004027 -0.007895,0.00523 -0.0119387,0.002694 -0.001932,-0.001209 -0.003302,-0.003139 -0.003808,-0.005361 -5.056e-4,-0.002222 -1.0468e-4,-0.004555 0.001114,-0.006481 0.002562,-0.004015 0.00788,-0.005217 0.0119194,-0.002694 0.001939,0.001203 0.003317,0.003131 0.003827,0.005355 5.0965e-4,0.002224 1.0871e-4,0.00456 -0.001114,0.006487 z m 0.0360876,-0.0588604 c -0.00249,0.004067 -0.007794,0.005365 -0.0118806,0.002907 -0.001956,-0.001175 -0.003364,-0.00308 -0.003913,-0.005294 -5.4908e-4,-0.002215 -1.9415e-4,-0.004557 9.8645e-4,-0.006509 0.002489,-0.004056 0.007779,-0.005352 0.0118612,-0.002907 0.001982,0.00116 0.003412,0.003072 0.003967,0.005301 5.5451e-4,0.002229 1.864e-4,0.004587 -0.001021,0.006541 z m 0.0350216,-0.0595 c -0.002416,0.004109 -0.007693,0.005502 -0.0118225,0.00312 -0.004086,-0.002406 -0.005456,-0.007664 -0.003063,-0.0117578 0.002393,-0.004094 0.007647,-0.005481 0.011748,-0.003101 0.004101,0.00238 0.005505,0.007629 0.003138,0.0117388 z m 0.0340138,-0.0600814 c -0.002356,0.004148 -0.007611,0.005626 -0.0117837,0.003314 -0.004139,-0.002341 -0.005602,-0.007591 -0.00327,-0.0117352 0.002331,-0.004144 0.007577,-0.00562 0.0117273,-0.003298 0.00415,0.002321 0.005638,0.007564 0.003326,0.0117192 z m 0.0329479,-0.0606241 c -0.002277,0.004137 -0.007443,0.005696 -0.0116287,0.003508 -0.004196,-0.002242 -0.00578,-0.007462 -0.003537,-0.0116577 0.002242,-0.0042 0.007462,-0.00578 0.0116577,-0.00354 0.002032,0.00108 0.003551,0.00292 0.004224,0.00512 6.7258e-4,0.0022 4.429e-4,0.00458 -6.3841e-4,0.00661 z m 0.0320563,-0.061128 c -0.002146,0.00424 -0.007318,0.00594 -0.0115646,0.00381 -0.004247,-0.00213 -0.005969,-0.0073 -0.003851,-0.011552 0.002118,-0.00425 0.007278,-0.00599 0.011539,-0.00389 0.002088,0.00101 0.003684,0.00281 0.004428,0.005 7.4378e-4,0.00219 5.7295e-4,0.0046 -4.7399e-4,0.00666 z m 0.031126,-0.061613 c -0.002146,0.00424 -0.007318,0.00594 -0.0115646,0.00381 -0.004247,-0.00213 -0.005969,-0.0073 -0.003851,-0.011552 0.002118,-0.00425 0.007278,-0.00599 0.011539,-0.00389 0.002084,0.00101 0.003677,0.00281 0.00442,0.00501 7.4325e-4,0.00219 5.7531e-4,0.00459 -4.6616e-4,0.00666 z m -0.12739194,-0.382893 0.11667419,0.00667 -0.22288259,0.3131016 0.1112281,-0.2580399 -0.1177983,-0.00506 0.24988047,-0.3314168 z m 0.15776212,0.3208735 c -0.00205,0.00429 -0.007184,0.00611 -0.0114787,0.00407 -0.004295,-0.00204 -0.006131,-0.00717 -0.004105,-0.011467 0.002026,-0.0043 0.007149,-0.00615 0.0114556,-0.00414 0.004278,0.00209 0.006076,0.00723 0.004031,0.011532 z m 0.007423,-1.115886 c -0.002695,0.00385 -0.007979,0.00481 -0.0118612,0.00217 -0.001907,-0.00121 -0.003245,-0.00313 -0.003708,-0.00534 -4.6365e-4,-0.00221 -1.384e-5,-0.00451 0.001247,-0.00638 0.002666,-0.00401 0.008039,-0.00516 0.0121132,-0.0026 0.001892,0.00133 0.003177,0.00336 0.003573,0.00564 3.9617e-4,0.00228 -1.2919e-4,0.00462 -0.001461,0.00651 z m 0.0218425,1.0533625 c -9.4882e-4,0.00209 -0.002694,0.00371 -0.004845,0.0045 -0.002152,7.937e-4 -0.004532,6.935e-4 -0.006609,-2.782e-4 -0.004305,-0.00201 -0.006196,-0.0071 -0.004244,-0.011435 9.4562e-4,-0.00208 0.002679,-0.00369 0.004817,-0.00449 0.002138,-7.964e-4 0.004505,-7.089e-4 0.006579,2.431e-4 0.004292,0.00203 0.006164,0.00713 0.004206,0.011454 z m 0.0282964,-0.062969 c -9.051e-4,0.0021 -0.002617,0.00376 -0.004753,0.00459 -0.002135,8.308e-4 -0.004515,7.695e-4 -0.006605,-1.702e-4 -0.004347,-0.00194 -0.006326,-0.00701 -0.004438,-0.011377 9.137e-4,-0.00209 0.00262,-0.00373 0.004743,-0.00456 0.002123,-8.289e-4 0.004489,-7.796e-4 0.006575,1.37e-4 0.004324,0.00196 0.006275,0.00702 0.00438,0.011377 z m 0.004167,-0.9481038 c -0.003072,0.00359 -0.008469,0.00402 -0.0120744,9.69e-4 -0.003535,-0.00317 -0.003954,-0.00855 -9.4967e-4,-0.01223 0.001443,-0.00177 0.003547,-0.00288 0.005826,-0.00307 0.002279,-1.866e-4 0.004536,5.651e-4 0.006248,0.00208 0.001742,0.00151 0.002811,0.00365 0.002971,0.00595 1.6003e-4,0.0023 -6.0225e-4,0.00457 -0.002118,0.0063 z m 0.0232573,0.8847276 c -8.7689e-4,0.00211 -0.002563,0.00379 -0.004681,0.00465 -0.002119,8.628e-4 -0.004495,8.423e-4 -0.006598,-5.71e-5 -0.004374,-0.00188 -0.006435,-0.00691 -0.004632,-0.011319 8.8124e-4,-0.0021 0.002564,-0.00377 0.004677,-0.00463 0.002113,-8.618e-4 0.004482,-8.472e-4 0.006584,4.06e-5 0.004322,0.00193 0.006305,0.00696 0.004458,0.011319 z m 0.0263001,-0.063841 c -8.4049e-4,0.00212 -0.002494,0.00382 -0.004594,0.00472 -0.0021,8.989e-4 -0.004472,9.22e-4 -0.006589,6.41e-5 -0.004421,-0.00178 -0.006577,-0.00679 -0.004826,-0.011222 8.3642e-4,-0.00212 0.002487,-0.00382 0.004583,-0.00472 0.002097,-8.991e-4 0.004466,-9.226e-4 0.00658,-6.54e-5 0.004352,0.00184 0.006422,0.00684 0.004651,0.011222 z m 0,-0.773015 c -0.003544,0.00317 -0.008946,0.00304 -0.0123264,-3.101e-4 -0.001559,-0.00164 -0.0024,-0.00383 -0.002338,-0.00609 6.184e-5,-0.00226 0.001022,-0.0044 0.002668,-0.00595 0.00349,-0.00332 0.009008,-0.00318 0.0123264,3.101e-4 0.001601,0.00163 0.002454,0.00385 0.002355,0.00613 -9.921e-5,0.00228 -0.001141,0.00442 -0.002878,0.0059 z m 0.0251954,0.7087472 c -7.9922e-4,0.00214 -0.002421,0.00387 -0.004503,0.0048 -0.002083,9.357e-4 -0.004453,9.993e-4 -0.006583,1.767e-4 -0.004447,-0.00171 -0.006687,-0.00668 -0.00502,-0.011144 0.001775,-0.00434 0.006688,-0.00646 0.0110647,-0.00479 0.004377,0.00167 0.006615,0.00654 0.005041,0.010952 z m 0.007171,-0.6684927 c 0.00186,-0.00134 0.004185,-0.00185 0.006436,-0.00143 0.002251,4.208e-4 0.004232,0.00174 0.005484,0.00366 0.00224,0.00391 0.001098,0.00888 -0.002622,0.011415 -0.00372,0.00254 -0.008765,0.00179 -0.0115845,-0.00172 -0.002565,-0.00391 -0.001638,-0.00913 0.002113,-0.011919 z m 0.0169197,0.6037793 c -7.658e-4,0.00215 -0.002359,0.00391 -0.004426,0.00488 -0.002067,9.717e-4 -0.004437,0.00108 -0.006582,2.943e-4 -0.003275,-0.00118 -0.005518,-0.00422 -0.005681,-0.00769 -1.6337e-4,-0.00348 0.001784,-0.00671 0.004935,-0.00819 0.00315,-0.00148 0.006883,-9.178e-4 0.009456,0.00143 0.002573,0.00234 0.003481,0.00601 0.002299,0.00928 z m 0.0228697,-0.065159 c -0.00153,0.00451 -0.00642,0.00692 -0.0109285,0.0054 -0.004508,-0.00152 -0.00693,-0.00641 -0.005412,-0.010921 0.001518,-0.00451 0.006402,-0.00694 0.0109142,-0.00543 0.00216,7.439e-4 0.003935,0.00232 0.004935,0.00437 9.9975e-4,0.00205 0.001142,0.00442 3.9466e-4,0.00658 z m -0.008237,-0.4682472 c -0.001674,-0.00421 1.9288e-4,-0.00899 0.004274,-0.010959 0.004081,-0.00196 0.008986,-4.367e-4 0.0112309,0.0035 0.001055,0.00202 0.001238,0.00439 5.0654e-4,0.00655 -7.3181e-4,0.00216 -0.002315,0.00393 -0.004383,0.0049 -0.004365,0.00211 -0.009613,3.315e-4 -0.0118031,-0.00399 z m 0.0295174,0.4023321 c -0.001406,0.00448 -0.006143,0.00702 -0.0106529,0.0057 -0.00451,-0.00132 -0.007133,-0.00601 -0.005899,-0.010543 0.001433,-0.00453 0.006203,-0.0071 0.0107759,-0.00581 0.00217,6.512e-4 0.003986,0.00215 0.00504,0.00415 0.001054,0.00201 0.001256,0.00435 5.616e-4,0.00651 z m 0.0168809,-0.067485 c -9.6335e-4,0.00467 -0.005528,0.00767 -0.0101944,0.00671 -0.004667,-9.634e-4 -0.007669,-0.00553 -0.006706,-0.010194 0.001026,-0.00463 0.005559,-0.0076 0.0102138,-0.00669 0.002217,4.775e-4 0.004153,0.00182 0.005375,0.00373 0.001223,0.00191 0.001632,0.00423 0.001137,0.00644 z m 0.001337,-0.061186 c -0.003129,-2.638e-4 -0.005867,-0.00221 -0.007149,-0.00507 -0.001282,-0.00287 -9.0423e-4,-0.0062 9.8537e-4,-0.00871 0.00189,-0.00251 0.004993,-0.00379 0.008101,-0.00335 0.003129,2.639e-4 0.005867,0.00221 0.007149,0.00507 0.001282,0.00287 9.0423e-4,0.0062 -9.8536e-4,0.00871 -0.00189,0.00251 -0.004993,0.00379 -0.008101,0.00335 z m 0.004458,-0.068706 c -0.004732,-1.01e-5 -0.00858,-0.00382 -0.008644,-0.00855 7.184e-5,-0.00474 0.003882,-0.00858 0.008625,-0.00868 0.00229,-4.72e-5 0.004501,8.349e-4 0.00613,0.00245 0.001629,0.00161 0.002536,0.00381 0.002514,0.0061 2.703e-5,0.00233 -8.9516e-4,0.00457 -0.002555,0.00621 -0.00166,0.00164 -0.003914,0.00253 -0.006244,0.00247 z"
           id="path12"
           inkscape:connector-curvature="0"
           style="fill:#6e40c9;fill-rule:nonzero;fill-opacity:1" />
      </g>
      <g
         clip-path="url(#SvgjsClipPath1000)"
         id="g18"
         style="fill:#6e40c9;fill-opacity:1">
        <path
           d="m 0.15391497,-1.8732289 c 0.007595,-0.003 0.0136429,-0.00896 0.0167535,-0.016517 0.003111,-0.00755 0.003017,-0.016044 -2.6024e-4,-0.023525 -0.00681,-0.015796 -0.0249063,-0.023362 -0.0409329,-0.017114 -0.007595,0.003 -0.0136429,0.00896 -0.0167536,0.016517 -0.003111,0.00755 -0.003017,0.016044 2.6024e-4,0.023525 0.00681,0.015796 0.0249063,0.023362 0.040933,0.017114 z m -0.0176949,-0.041321 c 0.007149,-0.00279 0.0152212,5.891e-4 0.018257,0.00764 0.00146,0.00333 0.001503,0.00712 1.1773e-4,0.010485 -0.001385,0.00337 -0.004079,0.00602 -0.007463,0.00737 -0.007149,0.00279 -0.0152212,-5.891e-4 -0.018257,-0.00764 -0.00146,-0.00333 -0.001503,-0.00712 -1.1772e-4,-0.010485 0.001385,-0.00337 0.004079,-0.00602 0.007463,-0.00737 z"
           id="path16"
           inkscape:connector-curvature="0"
           style="fill:#6e40c9;fill-rule:nonzero;fill-opacity:1" />
      </g>
      <g
         clip-path="url(#SvgjsClipPath1000)"
         id="g22"
         style="fill:#6e40c9;fill-opacity:1">
        <path
           d="m -0.11472639,-1.6590291 c 0.007595,-0.003 0.0136429,-0.00896 0.01675354,-0.016517 0.0031106,-0.00755 0.0030167,-0.016044 -2.6023e-4,-0.023525 -0.0068109,-0.015817 -0.024929,-0.023393 -0.04097164,-0.017133 -0.007597,0.00301 -0.0136445,0.00897 -0.0167548,0.016528 -0.00311,0.00755 -0.003016,0.016049 2.6153e-4,0.023533 0.006811,0.015817 0.0249341,0.023387 0.0409716,0.017114 z m -0.0250404,-0.023471 c -0.00146,-0.00333 -0.001503,-0.00712 -1.1773e-4,-0.010485 0.001385,-0.00337 0.004079,-0.00602 0.007463,-0.00737 0.007149,-0.0028 0.0152288,5.813e-4 0.018257,0.00764 0.00146,0.00333 0.001503,0.00712 1.1772e-4,0.010485 -0.001385,0.00337 -0.004079,0.00602 -0.007463,0.00737 -0.007144,0.00277 -0.0152021,-5.995e-4 -0.0182376,-0.00764 z"
           id="path20"
           inkscape:connector-curvature="0"
           style="fill:#6e40c9;fill-rule:nonzero;fill-opacity:1" />
      </g>
      <g
         clip-path="url(#SvgjsClipPath1000)"
         id="g26"
         style="fill:#6e40c9;fill-opacity:1">
        <path
           d="m -0.12418437,-1.8666587 c 0.007595,-0.003 0.0136429,-0.00896 0.0167536,-0.016517 0.003111,-0.00755 0.003017,-0.016044 -2.6024e-4,-0.023525 -0.006811,-0.015817 -0.0249341,-0.023387 -0.0409716,-0.017114 -0.007592,0.00301 -0.0136357,0.00897 -0.0167457,0.01652 -0.00311,0.00755 -0.003019,0.01604 2.5235e-4,0.023522 0.006811,0.015817 0.0249341,0.023387 0.0409716,0.017114 z m -0.0176756,-0.041321 c 0.007154,-0.00279 0.0152326,5.865e-4 0.0182764,0.00764 0.001454,0.00334 0.001491,0.00712 1.0225e-4,0.010487 -0.001388,0.00336 -0.004083,0.00602 -0.007467,0.00736 -0.007149,0.00279 -0.0152211,-5.891e-4 -0.018257,-0.00764 -0.00146,-0.00333 -0.001503,-0.00712 -1.1773e-4,-0.010485 0.001385,-0.00337 0.004079,-0.00602 0.007463,-0.00737 z"
           id="path24"
           inkscape:connector-curvature="0"
           style="fill:#6e40c9;fill-rule:nonzero;fill-opacity:1" />
      </g>
      <g
         clip-path="url(#SvgjsClipPath1000)"
         id="g30"
         style="fill:#6e40c9;fill-opacity:1">
        <path
           d="m 0.14860455,-1.5105311 c -0.007596,0.00301 -0.0136452,0.00897 -0.0167587,0.016526 -0.003114,0.00755 -0.003025,0.016048 2.4604e-4,0.023535 0.006834,0.015804 0.0249484,0.023367 0.040991,0.017114 0.007593,-0.00301 0.0136372,-0.00898 0.016747,-0.016531 0.00311,-0.00755 0.003018,-0.016046 -2.5364e-4,-0.02353 -0.006826,-0.015801 -0.0249344,-0.023365 -0.0409717,-0.017114 z m 0.0176949,0.04132 c -0.007155,0.0028 -0.0152402,-5.788e-4 -0.0182764,-0.00764 -0.001453,-0.00333 -0.00149,-0.00712 -1.0095e-4,-0.010478 0.001389,-0.00336 0.004083,-0.00602 0.007466,-0.00735 0.007144,-0.0028 0.0152215,5.696e-4 0.018257,0.00762 0.001455,0.00333 0.001494,0.00712 1.0986e-4,0.010482 -0.001385,0.00336 -0.004075,0.00602 -0.007455,0.00737 z"
           id="path28"
           inkscape:connector-curvature="0"
           style="fill:#6e40c9;fill-rule:nonzero;fill-opacity:1" />
      </g>
      <g
         clip-path="url(#SvgjsClipPath1000)"
         id="g34"
         style="fill:#6e40c9;fill-opacity:1">
        <path
           d="m -0.12468828,-1.5054533 c -0.008002,0.0017 -0.0149651,0.00659 -0.0192868,0.013539 -0.004322,0.00695 -0.005629,0.015353 -0.003622,0.023285 0.004226,0.016708 0.0209309,0.027062 0.0377738,0.023412 0.007998,-0.00171 0.01495677,-0.0066 0.01927442,-0.013545 0.0043176,-0.00695 0.0056226,-0.01535 0.0036147,-0.023279 -0.004217,-0.016705 -0.02091619,-0.02706 -0.03775412,-0.023412 z m 0.0107371,0.043472 c -0.007495,0.00162 -0.0149309,-0.00298 -0.0168228,-0.010408 -8.9111e-4,-0.00353 -3.0844e-4,-0.00727 0.001614,-0.010364 0.001923,-0.00309 0.00502,-0.00527 0.00858,-0.00603 0.0075,-0.00163 0.0149415,0.00297 0.0168422,0.010408 8.8496e-4,0.00353 2.9725e-4,0.00727 -0.001628,0.010365 -0.001926,0.00309 -0.005024,0.00527 -0.008585,0.00603 z"
           id="path32"
           inkscape:connector-curvature="0"
           style="fill:#6e40c9;fill-rule:nonzero;fill-opacity:1" />
      </g>
      <g
         clip-path="url(#SvgjsClipPath1000)"
         id="g38"
         style="fill:#6e40c9;fill-opacity:1">
        <path
           d="m 0.16339233,-1.6655992 c 0.007595,-0.003 0.0136429,-0.00897 0.0167535,-0.016517 0.003111,-0.00755 0.003017,-0.016044 -2.6023e-4,-0.023525 -0.006811,-0.015817 -0.0249341,-0.023387 -0.0409716,-0.017114 -0.007595,0.003 -0.0136429,0.00896 -0.0167535,0.016517 -0.003111,0.00755 -0.003017,0.016044 2.6023e-4,0.023525 0.006811,0.015817 0.0249341,0.023387 0.0409716,0.017114 z m -0.0250404,-0.023471 c -0.00146,-0.00333 -0.001503,-0.00712 -1.1773e-4,-0.010485 0.001385,-0.00337 0.004079,-0.00602 0.007463,-0.00737 0.007149,-0.00279 0.0152211,5.891e-4 0.018257,0.00764 0.00146,0.00333 0.001503,0.00712 1.1772e-4,0.010485 -0.001385,0.00337 -0.004079,0.00602 -0.007463,0.00737 -0.007149,0.00279 -0.0152211,-5.891e-4 -0.018257,-0.00764 z"
           id="path36"
           inkscape:connector-curvature="0"
           style="fill:#6e40c9;fill-rule:nonzero;fill-opacity:1" />
      </g>
      <g
         clip-path="url(#SvgjsClipPath1000)"
         id="g42"
         style="fill:#6e40c9;fill-opacity:1">
        <path
           d="m -0.03950836,-2.0230836 0.0387234256,0.056167 0.0335292944,-0.057872 -0.03872343,-0.056166 z"
           id="path40"
           inkscape:connector-curvature="0"
           style="fill:#6e40c9;fill-rule:nonzero;fill-opacity:1" />
      </g>
    </g>
  </g>
  <defs
     id="defs54">
    <clipPath
       id="SvgjsClipPath1003">
      <path
         d="M -1.0527714,-2.5615679 H 1.0527714 V -0.1875 h -2.1055428 z"
         id="path48"
         inkscape:connector-curvature="0" />
    </clipPath>
    <clipPath
       id="SvgjsClipPath1000">
      <path
         d="M -1.0527714,-2.5615679 H 1.0527714 V -0.1875 h -2.1055428 z"
         id="path51"
         inkscape:connector-curvature="0" />
    </clipPath>
  </defs>
</svg>
