<?xml version="1.0" encoding="UTF-8" standalone="no"?>
<svg
   version="1.1"
   viewBox="0 0 99.999998 100"
   id="svg112"
   sodipodi:docname="west-coast-waves.svg"
   width="100"
   height="100"
   inkscape:version="1.2.2 (732a01da63, 2022-12-09)"
   xmlns:inkscape="http://www.inkscape.org/namespaces/inkscape"
   xmlns:sodipodi="http://sodipodi.sourceforge.net/DTD/sodipodi-0.dtd"
   xmlns="http://www.w3.org/2000/svg"
   xmlns:svg="http://www.w3.org/2000/svg"
   xmlns:rdf="http://www.w3.org/1999/02/22-rdf-syntax-ns#"
   xmlns:cc="http://creativecommons.org/ns#"
   xmlns:dc="http://purl.org/dc/elements/1.1/">
  <metadata
     id="metadata116">
    <rdf:RDF>
      <cc:Work
         rdf:about="">
        <dc:format>image/svg+xml</dc:format>
        <dc:type
           rdf:resource="http://purl.org/dc/dcmitype/StillImage" />
        <dc:title />
      </cc:Work>
    </rdf:RDF>
  </metadata>
  <sodipodi:namedview
     pagecolor="#ffffff"
     bordercolor="#666666"
     borderopacity="1"
     objecttolerance="10"
     gridtolerance="10"
     guidetolerance="10"
     inkscape:pageopacity="0"
     inkscape:pageshadow="2"
     inkscape:window-width="1600"
     inkscape:window-height="829"
     id="namedview114"
     showgrid="false"
     inkscape:zoom="5.9044345"
     inkscape:cx="39.377183"
     inkscape:cy="33.872846"
     inkscape:window-x="-8"
     inkscape:window-y="-8"
     inkscape:window-maximized="1"
     inkscape:current-layer="g100"
     inkscape:showpageshadow="2"
     inkscape:pagecheckerboard="0"
     inkscape:deskcolor="#d1d1d1" />
  <g
     id="g1022"
     transform="matrix(1.3125038,0,0,1.3125038,-15.642975,-15.625193)">
    <g
       transform="matrix(7.5445174,0,0,7.5445174,12.356191,64.590137)"
       id="g6"
       style="fill:#6e40c9;fill-opacity:1">
      <path
         d="M 1.5735,0.0165 1.314,1.074 H 0.9525 L 0.807,0.426 0.6585,1.074 H 0.297 L 0.0405,0.0165 h 0.318 l 0.123,0.723 0.1665,-0.723 h 0.3225 l 0.162,0.717 0.123,-0.717 z M 2.0069832,0.252 v 0.1725 h 0.3375 V 0.648 h -0.3375 v 0.1905 h 0.3825 V 1.074 h -0.6765 V 0.0165 h 0.6765 V 0.252 Z M 2.6459436,0.99675 Q 2.5274436,0.909 2.5184436,0.7455 h 0.3135 q 0.0045,0.0555 0.033,0.081 0.0285,0.0255 0.0735,0.0255 0.0405,0 0.06675,-0.02025 0.02625,-0.02025 0.02625,-0.05625 0,-0.0465 -0.0435,-0.072 -0.0435,-0.0255 -0.141,-0.057 -0.1035,-0.0345 -0.16725,-0.06675 -0.06375,-0.03225 -0.111,-0.0945 -0.04725,-0.06225 -0.04725,-0.16275 0,-0.102 0.051,-0.17475 0.051,-0.07275 0.141,-0.11025 0.09,-0.0375 0.204,-0.0375 0.1845,0 0.29475,0.08625 0.11025,0.08625 0.11775,0.24225 h -0.3195 q -0.0015,-0.048 -0.02925,-0.072 -0.02775,-0.024 -0.07125,-0.024 -0.033,0 -0.054,0.0195 -0.021,0.0195 -0.021,0.0555 0,0.03 0.02325,0.05175 0.02325,0.02175 0.05775,0.0375 0.0345,0.01575 0.102,0.03975 0.1005,0.0345 0.16575,0.06825 0.06525,0.03375 0.1125,0.0945 0.04725,0.06075 0.04725,0.15375 0,0.0945 -0.04725,0.1695 -0.04725,0.075 -0.1365,0.1185 -0.08925,0.0435 -0.21075,0.0435 -0.1845,0 -0.303,-0.08775 z M 4.2914363,0.0165 v 0.234 h -0.282 V 1.074 h -0.294 V 0.2505 h -0.279 v -0.234 z m 0.4551328,0.24825 q 0.06525,-0.12225 0.18525,-0.1905 0.12,-0.06825 0.276,-0.06825 0.198,0 0.333,0.10575 0.135,0.10575 0.174,0.28725 h -0.3165 q -0.0285,-0.06 -0.07875,-0.0915 -0.05025,-0.0315 -0.11625,-0.0315 -0.102,0 -0.16275,0.07275 -0.06075,0.07275 -0.06075,0.19425 0,0.123 0.06075,0.19575 0.06075,0.07275 0.16275,0.07275 0.066,0 0.11625,-0.0315 0.05025,-0.0315 0.07875,-0.0915 h 0.3165 q -0.039,0.1815 -0.174,0.28725 -0.135,0.10575 -0.333,0.10575 -0.156,0 -0.276,-0.06825 -0.12,-0.06825 -0.18525,-0.1905 -0.06525,-0.12225 -0.06525,-0.27975 0,-0.156 0.06525,-0.27825 z m 1.3567434,0.75 q -0.1245,-0.06975 -0.19725,-0.1935 -0.07275,-0.12375 -0.07275,-0.27975 0,-0.156 0.07275,-0.27975 Q 5.9788125,0.138 6.1033125,0.069 6.2278125,0 6.3763125,0 q 0.15,0 0.27375,0.069 0.12375,0.069 0.19575,0.19275 0.072,0.12375 0.072,0.27975 0,0.156 -0.072,0.27975 -0.072,0.12375 -0.1965,0.1935 -0.1245,0.06975 -0.273,0.06975 -0.1485,0 -0.273,-0.06975 z M 6.5540625,0.738 q 0.06525,-0.0735 0.06525,-0.1965 0,-0.126 -0.06525,-0.19875 Q 6.4888125,0.27 6.3763125,0.27 q -0.114,0 -0.1785,0.07275 -0.0645,0.07275 -0.0645,0.19875 0,0.1245 0.0645,0.19725 0.0645,0.07275 0.1785,0.07275 0.1125,0 0.17775,-0.0735 z m 1.179731,0.1635 h -0.375 l -0.057,0.1725 h -0.309 l 0.3855,-1.0575 h 0.339 l 0.384,1.0575 h -0.3105 z m -0.0735,-0.225 -0.114,-0.342 -0.1125,0.342 z M 8.3082092,0.99675 Q 8.1897092,0.909 8.1807092,0.7455 h 0.3135 q 0.0045,0.0555 0.033,0.081 0.0285,0.0255 0.0735,0.0255 0.0405,0 0.06675,-0.02025 0.02625,-0.02025 0.02625,-0.05625 0,-0.0465 -0.0435,-0.072 -0.0435,-0.0255 -0.141,-0.057 -0.1035,-0.0345 -0.16725,-0.06675 -0.06375,-0.03225 -0.111,-0.0945 -0.04725,-0.06225 -0.04725,-0.16275 0,-0.102 0.051,-0.17475 0.051,-0.07275 0.141,-0.11025 0.09,-0.0375 0.204,-0.0375 0.1845,0 0.29475,0.08625 0.11025,0.08625 0.11775,0.24225 h -0.3195 q -0.0015,-0.048 -0.02925,-0.072 -0.02775,-0.024 -0.07125,-0.024 -0.033,0 -0.054,0.0195 -0.021,0.0195 -0.021,0.0555 0,0.03 0.02325,0.05175 0.02325,0.02175 0.05775,0.0375 0.0345,0.01575 0.102,0.03975 0.1005,0.0345 0.16575,0.06825 0.06525,0.03375 0.1125,0.0945 0.04725,0.06075 0.04725,0.15375 0,0.0945 -0.04725,0.1695 -0.04725,0.075 -0.1365,0.1185 -0.08925,0.0435 -0.21075,0.0435 -0.1845,0 -0.303,-0.08775 z M 9.9537019,0.0165 v 0.234 h -0.282 V 1.074 h -0.294 V 0.2505 h -0.279 v -0.234 z"
         id="path4"
         inkscape:connector-curvature="0"
         style="fill:#6e40c9;fill-rule:nonzero;fill-opacity:1" />
    </g>
    <g
       transform="matrix(7.5445174,0,0,7.5445174,12.356191,64.590137)"
       id="g10"
       style="fill:#d4aa00">
      <path
         d="m 4.3675063,1.5555 -0.13725,0.5265 h -0.15525 l -0.084,-0.3465 -0.087,0.3465 h -0.15525 l -0.1335,-0.5265 h 0.13725 l 0.07575,0.38325 0.09375,-0.38325 h 0.141 l 0.09,0.38325 0.0765,-0.38325 z M 4.767212,1.989 h -0.1965 l -0.0315,0.093 h -0.13425 l 0.1905,-0.5265 h 0.1485 l 0.1905,0.5265 H 4.798712 Z M 4.734212,1.89 4.668962,1.69725 4.604462,1.89 Z M 5.4939159,1.5555 5.3071659,2.082 h -0.1605 l -0.18675,-0.5265 h 0.1365 l 0.1305,0.3975 0.13125,-0.3975 z m 0.1889853,0.10275 v 0.1065 h 0.17175 v 0.099 h -0.17175 v 0.1155 h 0.19425 V 2.082 h -0.3225 V 1.5555 h 0.3225 V 1.65825 Z M 6.0548672,2.0685 Q 6.0091172,2.04975 5.9817422,2.013 5.9543672,1.97625 5.9528672,1.9245 h 0.1365 q 0.003,0.02925 0.02025,0.044625 0.01725,0.015375 0.045,0.015375 0.0285,0 0.045,-0.013125 0.0165,-0.013125 0.0165,-0.036375 0,-0.0195 -0.013125,-0.03225 Q 6.1898672,1.89 6.1707422,1.88175 6.1516172,1.8735 6.1163672,1.863 q -0.051,-0.01575 -0.08325,-0.0315 -0.03225,-0.01575 -0.0555,-0.0465 -0.02325,-0.03075 -0.02325,-0.08025 0,-0.0735 0.05325,-0.115125 0.05325,-0.041625 0.13875,-0.041625 0.087,0 0.14025,0.041625 0.05325,0.041625 0.057,0.115875 h -0.13875 Q 6.2033672,1.68 6.1861172,1.665375 6.1688672,1.65075 6.1418672,1.65075 q -0.02325,0 -0.0375,0.012375 -0.01425,0.012375 -0.01425,0.035625 0,0.0255 0.024,0.03975 0.024,0.01425 0.075,0.03075 0.051,0.01725 0.082875,0.033 0.031875,0.01575 0.055125,0.04575 0.02325,0.03 0.02325,0.07725 0,0.045 -0.022875,0.08175 -0.022875,0.03675 -0.066375,0.0585 -0.0435,0.02175 -0.10275,0.02175 -0.05775,0 -0.1035,-0.01875 z"
         id="path8"
         inkscape:connector-curvature="0"
         style="fill:#d4aa00;fill-rule:nonzero" />
    </g>
    <g
       transform="matrix(7.5445174,0,0,7.5445174,12.356191,64.590137)"
       clip-path="url(#SvgjsClipPath1003)"
       id="g100">
      <g
         clip-path="url(#SvgjsClipPath1000)"
         id="g14"
         style="fill:#d4aa00">
        <path
           d="m 5.6812689,-5.3432402 c 0.5983319,-5.435e-4 1.1644949,0.2708237 1.5388447,0.7375824 l -0.9528863,0.093738 1.0129302,0.099659 0.082395,0.00812 c 0.00505,0.00819 0.010047,0.016412 0.014997,0.024663 l -0.7469308,0.0735 0.8304591,0.081697 c 0.1077653,0.2237633 0.1720729,0.4659503 0.1895073,0.7136991 l -0.3067026,0.030176 -1.0129755,0.099659 1.0129483,0.099659 0.3082894,0.03033 c -0.018103,0.3101173 -0.109547,0.6115107 -0.2668154,0.8794046 l -0.1763597,0.017337 -1.012912,0.099668 1.012912,0.099659 0.027202,0.00272 c -0.3738972,0.4786179 -0.9475803,0.758118 -1.5549301,0.7575669 -1.0904287,0 -1.9743942,-0.8839655 -1.9743942,-1.9744033 -2.22e-5,-0.1101932 0.00915,-0.2201961 0.027429,-0.3288632 l 1.1910489,-0.097682 -1.1488949,-0.094273 c 0.044181,-0.1618127 0.1089303,-0.3172918 0.1926628,-0.4626336 l 0.6099143,-0.059998 1.0129302,-0.099659 -1.0129302,-0.099641 -0.3991441,-0.03928 C 4.5545514,-5.0906783 5.103469,-5.3438214 5.681269,-5.3432351"
           id="path12"
           inkscape:connector-curvature="0"
           style="fill:#d4aa00;fill-rule:evenodd" />
      </g>
      <g
         clip-path="url(#SvgjsClipPath1000)"
         id="g18"
         style="fill:#6e40c9;fill-opacity:1">
        <path
           d="m 8.2260891,-1.6682219 c -1.5506594,-0.2114503 -3.7220959,-0.1831602 -5.4596694,0.002 -1.0384275,0.1106215 -2.18670581,0.182589 -0.327766,0.2418259 0.6582885,0.020982 1.3989538,0.054259 1.4164175,0.1177937 0.019186,0.069737 -0.9262102,0.047567 -0.9262464,0.1004298 0,0.090673 1.3898774,0.071696 0.9836155,0.185019 -0.068758,0.019177 -0.5305661,0.0303484 -0.5771722,0.0766643 -0.057297,0.0569882 1.1743922,0.0246178 1.1924362,0.0627188 0.00601,0.0126943 -0.5546942,0.075812 -0.7670966,0.0958961 -0.9002867,0.0851604 0.3788605,0.0910451 0.7729632,0.14308255 0.041347,0.00544 -0.1799232,0.0321618 -0.2508751,0.0719765 -0.033839,0.0189961 0.1631214,0.0558366 0.239559,0.0620478 0.6587601,0.0536061 0.1388481,0.25388539 0.7422703,0.25874549 0.2324774,0.001868 0.2866819,-0.15798019 0.421087,-0.17137265 0.2633608,-0.0261955 0.5489274,-0.0159585 0.7285151,-0.0667265 C 6.6052213,-0.54213521 5.5955553,-0.52801741 5.815547,-0.5928307 5.99275,-0.6450313 6.8936532,-0.6851452 7.0131788,-0.75029405 7.1533417,-0.82672265 5.8815754,-0.78474995 5.924618,-0.864479 c 0.043043,-0.0797291 1.4592245,-0.0751682 1.4591338,-0.1678364 -8.16e-5,-0.064641 -0.8241301,-0.021372 -0.8147001,-0.078732 0.00943,-0.05736 1.6915477,-0.040685 1.5614496,-0.1069946 -0.3094954,-0.1055982 -1.0706257,-0.037793 -1.3011627,-0.092405 -0.230537,-0.054613 0.721642,-0.094899 1.422665,-0.1186189 1.5864482,-0.05367 1.2327133,-0.067543 -0.025896,-0.23916"
           id="path16"
           inkscape:connector-curvature="0"
           style="fill:#6e40c9;fill-rule:evenodd;fill-opacity:1" />
      </g>
      <g
         clip-path="url(#SvgjsClipPath1000)"
         id="g22"
         style="fill:#6e40c9;fill-opacity:1">
        <path
           d="m 2.3153288,-1.5713737 c 0.1015542,-0.1399 0.2332935,-0.256252 0.3851351,-0.350108 0.7394775,-0.4569937 1.9560238,-0.3801571 2.4877505,0.1116733 0.3998695,-0.2404748 0.9330288,-0.1330541 1.2040424,0.2384709 h -4.076928 z"
           id="path20"
           inkscape:connector-curvature="0"
           style="fill:#6e40c9;fill-rule:evenodd;fill-opacity:1" />
      </g>
      <g
         clip-path="url(#SvgjsClipPath1000)"
         id="g26"
         style="fill:#6e40c9;fill-opacity:1">
        <path
           d="m 1.8686447,-4.6462432 c 0,0 0.02625,0.028626 0.1798325,0.1849102 0.1572276,0.159984 0.3921894,0.4083383 0.6009286,0.7578569 l 0.098716,-0.078668 -0.083419,0.1046099 c 0.035245,0.060243 0.069664,0.1234155 0.102742,0.189598 l 0.1148378,-0.065049 -0.101264,0.092487 c 0.034456,0.070544 0.067289,0.1443973 0.097927,0.2216601 l 0.1297263,-0.073445 -0.1124349,0.1026876 -0.00436,0.00397 c 0.025787,0.067098 0.049798,0.1366871 0.072031,0.2087664 l 0.00766,-0.00435 0.1324738,-0.075023 -0.112435,0.1026876 -0.016321,0.014916 c 0.023493,0.0803 0.044484,0.1636654 0.062429,0.2502584 l 0.021508,-0.012186 0.1324557,-0.075023 -0.1123806,0.1026694 -0.032543,0.02975 c 0.013556,0.070399 0.025189,0.1427652 0.034456,0.2173077 l 0.043777,-0.024799 0.1324556,-0.075023 -0.1123805,0.1026876 -0.057396,0.052427 c 0.022817,0.21561 0.026388,0.4328236 0.010672,0.6490671 l 0.4646919,0.00569 c 0,-0.2871897 -0.066509,-0.6438624 -0.1947936,-1.0121141 l -0.1050541,0.053987 0.095669,-0.080527 C 3.332974,-2.8472022 3.304687,-2.9201792 3.273991,-2.9933949 l -0.1006474,0.051684 0.090401,-0.076102 c -0.033422,-0.07833 -0.069555,-0.1563662 -0.1084,-0.2341096 l -0.096014,0.049326 0.08487,-0.071423 c -0.03604,-0.071003 -0.074313,-0.14126 -0.1148197,-0.2107702 l -0.088416,0.045427 0.077009,-0.064813 c -0.040277,-0.068108 -0.082676,-0.135058 -0.1271966,-0.2008506 l -0.098907,0.050841 0.084843,-0.071432 C 2.611595,-4.1110891 2.2733743,-4.4454924 1.8684996,-4.6462886"
           id="path24"
           inkscape:connector-curvature="0"
           style="fill:#6e40c9;fill-rule:evenodd;fill-opacity:1" />
      </g>
      <g
         clip-path="url(#SvgjsClipPath1000)"
         id="g30"
         style="fill:#6e40c9;fill-opacity:1">
        <path
           d="m 2.2329521,-4.646488 c 0,0 -0.7339464,-0.1627134 -1.1612083,0.05551 -0.42726194,0.2182236 -0.40304308,0.834349 -0.40304308,0.834349 0,0 0.11087537,-0.1873674 0.37274908,-0.3438243 v 0 c 0.1424569,-0.1409064 0.1378235,-0.2898374 0.1378235,-0.2898374 0.019576,0.077317 9.067e-4,0.1613986 -0.024926,0.2294852 0.056475,-0.026883 0.1146516,-0.050033 0.1741563,-0.069302 0.068667,-0.1082731 0.065793,-0.2009322 0.065793,-0.2009322 0.015414,0.060815 0.00712,0.1258002 -0.00968,0.18394 0.00423,-0.0012 0.00847,-0.00237 0.012694,-0.00354 0.073055,-0.1110839 0.070054,-0.2075241 0.070054,-0.2075241 0.016158,0.063834 0.00623,0.1322652 -0.012241,0.1925268 0.094182,-0.023339 0.1794063,-0.039198 0.2560071,-0.052046 0.074352,-0.1119 0.071342,-0.2094555 0.071342,-0.2094555 0.016847,0.066554 0.00535,0.1381046 -0.014671,0.2001886 0.2829009,-0.045482 0.433464,-0.062211 0.4651543,-0.3194966"
           id="path28"
           inkscape:connector-curvature="0"
           style="fill:#6e40c9;fill-rule:evenodd;fill-opacity:1" />
      </g>
      <g
         clip-path="url(#SvgjsClipPath1000)"
         id="g34"
         style="fill:#6e40c9;fill-opacity:1">
        <path
           d="m 2.2328161,-4.6463611 c 0,0 -0.7751121,0.3735742 -1.0046608,0.8723412 -0.22954865,0.4987669 0.2286238,1.0355803 0.2286238,1.0355803 0,0 -0.033032,-0.2469942 0.09158,-0.5731281 v 0 c 0.028281,-0.2275901 -0.081398,-0.3581598 -0.081398,-0.3581598 0.072357,0.055628 0.1150827,0.1444155 0.1401176,0.2239632 0.031746,-0.064157 0.067657,-0.1261685 0.1075023,-0.1856355 -0.014961,-0.1459841 -0.083166,-0.2272456 -0.083166,-0.2272456 0.056925,0.043759 0.095497,0.1080554 0.1215658,0.1722159 0.00295,-0.00405 0.00593,-0.00816 0.00895,-0.012196 -0.013012,-0.1516149 -0.084009,-0.2361859 -0.084009,-0.2361859 0.059745,0.045935 0.099287,0.1144932 0.1253559,0.1817729 0.068141,-0.087699 0.1335528,-0.1623053 0.1933156,-0.2281251 -0.012386,-0.1532924 -0.084226,-0.2388427 -0.084226,-0.2388427 0.062293,0.047894 0.102606,0.1203779 0.128602,0.1903506 0.2221497,-0.2411912 0.3456468,-0.3629383 0.1919011,-0.6166695"
           id="path32"
           inkscape:connector-curvature="0"
           style="fill:#6e40c9;fill-rule:evenodd;fill-opacity:1" />
      </g>
      <g
         clip-path="url(#SvgjsClipPath1000)"
         id="g38"
         style="fill:#6e40c9;fill-opacity:1">
        <path
           d="m 2.1667968,-4.3852218 c 0,0 -0.3489383,0.4875597 -0.3224707,0.8692764 0.026468,0.3817166 0.4860817,0.5566165 0.4860817,0.5566165 0,0 -0.1027964,-0.1399453 -0.1356745,-0.3810004 v 0 c -0.05882,-0.1485955 -0.1695592,-0.1917469 -0.1695592,-0.1917469 0.062846,0.00981 0.1186552,0.049816 0.1605553,0.090057 -0.00205,-0.049839 -8.352e-4,-0.099758 0.00363,-0.1494387 -0.057967,-0.084254 -0.1268339,-0.1111111 -0.1268339,-0.1111111 0.049444,0.00772 0.094527,0.034111 0.1319116,0.064641 4.443e-4,-0.00349 9.067e-4,-0.00696 0.00139,-0.010464 -0.058648,-0.088325 -0.1303339,-0.1162886 -0.1303339,-0.1162886 0.051883,0.00811 0.098979,0.036795 0.1374245,0.069193 0.012313,-0.076392 0.027356,-0.1438895 0.041882,-0.2040966 -0.058838,-0.089576 -0.1313675,-0.1178754 -0.1313675,-0.1178754 0.054096,0.00846 0.1029868,0.039289 0.1422846,0.073373 0.055111,-0.2217417 0.089921,-0.3374681 -0.088914,-0.4411621"
           id="path36"
           inkscape:connector-curvature="0"
           style="fill:#6e40c9;fill-rule:evenodd;fill-opacity:1" />
      </g>
      <g
         clip-path="url(#SvgjsClipPath1000)"
         id="g42"
         style="fill:#6e40c9;fill-opacity:1">
        <path
           d="m 2.1907709,-4.6779789 c 0,0 0.7586367,0.1024609 1.0903108,0.4611103 0.331674,0.3586494 0.09197,0.9390405 0.09197,0.9390405 0,0 -0.040114,-0.2180513 -0.2354153,-0.4595961 v 0 c -0.086638,-0.1847288 -0.029859,-0.3254176 -0.029859,-0.3254176 -0.045881,0.06699 -0.057541,0.1538818 -0.056816,0.2280616 -0.044522,-0.045532 -0.091979,-0.088097 -0.142067,-0.1274232 -0.027565,-0.1276318 0.00773,-0.2151679 0.00773,-0.2151679 -0.036097,0.052708 -0.051004,0.1177212 -0.055374,0.1791887 -0.00363,-0.00263 -0.00725,-0.00523 -0.010935,-0.00785 -0.030775,-0.1318391 0.00598,-0.2229386 0.00598,-0.2229386 -0.037874,0.055311 -0.052436,0.1242225 -0.055936,0.1883014 -0.081815,-0.05541 -0.1577263,-0.1005115 -0.2264205,-0.1397096 -0.031736,-0.1330903 0.00544,-0.2252507 0.00544,-0.2252507 -0.039497,0.057677 -0.053642,0.1300981 -0.056344,0.196462 -0.2543575,-0.1428491 -0.3924167,-0.21177 -0.3322731,-0.4687836"
           id="path40"
           inkscape:connector-curvature="0"
           style="fill:#6e40c9;fill-rule:evenodd;fill-opacity:1" />
      </g>
      <g
         clip-path="url(#SvgjsClipPath1000)"
         id="g46"
         style="fill:#6e40c9;fill-opacity:1">
        <path
           d="m 1.9722481,-4.5518885 c 0,0 0.5109534,-0.5514482 0.9864626,-0.615119 0.4755092,-0.063671 0.8061768,0.4568033 0.8061768,0.4568033 0,0 -0.1978039,-0.091 -0.5021581,-0.070662 v 0 C 3.065397,-4.8156936 2.9844982,-4.9408228 2.9844982,-4.9408228 c 0.027882,0.074715 0.091072,0.133181 0.1510527,0.1745281 -0.061727,0.01003 -0.1227299,0.024096 -0.1826161,0.042109 -0.118102,-0.04997 -0.168462,-0.1277951 -0.168462,-0.1277951 0.021943,0.058784 0.065729,0.1074933 0.1126344,0.1457303 -0.00415,0.00144 -0.00831,0.00287 -0.012495,0.00436 -0.1232704,-0.049789 -0.1756796,-0.1307963 -0.1756796,-0.1307963 0.023022,0.061658 0.070136,0.112299 0.1196163,0.1513611 -0.090673,0.034383 -0.1698312,0.069818 -0.2401393,0.1028689 -0.1248482,-0.049707 -0.1778467,-0.1316577 -0.1778467,-0.1316577 0.023992,0.064306 0.07418,0.1165878 0.1259634,0.1562846 -0.2584825,0.1235515 -0.391854,0.1954736 -0.5642784,0.00194"
           id="path44"
           inkscape:connector-curvature="0"
           style="fill:#6e40c9;fill-rule:evenodd;fill-opacity:1" />
      </g>
      <g
         clip-path="url(#SvgjsClipPath1000)"
         id="g50"
         style="fill:#6e40c9;fill-opacity:1">
        <path
           d="m 2.032428,-4.607027 c 0,0 0.012059,-0.5362603 0.235932,-0.7952053 0.2238726,-0.258945 0.6466915,-0.1373792 0.6466915,-0.1373792 0,0 -0.1487043,0.044956 -0.3016431,0.1998259 v 0 c -0.1218559,0.074751 -0.2242805,0.046189 -0.2242805,0.046189 0.050251,0.026721 0.1116552,0.028109 0.1632664,0.021762 -0.02823,0.034567 -0.054164,0.070948 -0.077634,0.1089078 -0.086711,0.029161 -0.1504271,0.011407 -0.1504271,0.011407 0.039516,0.021027 0.085958,0.026295 0.1291098,0.024582 -0.00154,0.00272 -0.00309,0.00544 -0.00462,0.00823 -0.089395,0.031736 -0.1557134,0.013238 -0.1557134,0.013238 0.041492,0.02207 0.090601,0.026812 0.1355023,0.024255 -0.032198,0.061295 -0.057668,0.1176668 -0.079602,0.1685618 -0.090193,0.032506 -0.157282,0.01381 -0.157282,0.01381 0.043242,0.022995 0.09479,0.027202 0.1412147,0.023874 -0.07962,0.1882742 -0.1168326,0.2897921 -0.3004915,0.2679851"
           id="path48"
           inkscape:connector-curvature="0"
           style="fill:#6e40c9;fill-rule:evenodd;fill-opacity:1" />
      </g>
      <g
         clip-path="url(#SvgjsClipPath1000)"
         id="g54"
         style="fill:#6e40c9;fill-opacity:1">
        <path
           d="m 2.3425309,-4.1036267 c 0.072094,-0.012876 0.147598,0.072131 0.1686524,0.18987 0.021054,0.1177394 -0.020401,0.2236005 -0.092487,0.2364762 -0.072085,0.012876 -0.1475981,-0.072131 -0.1686525,-0.18987 -0.021054,-0.1177394 0.020411,-0.2236096 0.092532,-0.2364762"
           id="path52"
           inkscape:connector-curvature="0"
           style="fill:#6e40c9;fill-rule:evenodd;fill-opacity:1" />
      </g>
      <g
         clip-path="url(#SvgjsClipPath1000)"
         id="g58"
         style="fill:#6e40c9;fill-opacity:1">
        <path
           d="m 4.4846163,-4.0790995 c 0,0 -0.019821,0.021616 -0.1358287,0.139637 -0.1115282,0.1134958 -0.238897,0.3093502 -0.3460004,0.5766825 l -0.064732,-0.039588 0.057958,0.056653 c -0.027329,0.069565 -0.053289,0.1438442 -0.077227,0.2226575 l -0.085605,-0.035363 0.07933,0.056217 c -0.022922,0.07739 -0.043913,0.1590229 -0.062374,0.244818 l -0.1126526,-0.046488 0.1065231,0.075467 c -0.014943,0.072339 -0.027988,0.1474772 -0.039135,0.225414 l -0.1328909,-0.054785 0.1242225,0.088017 0.00381,0.00272 c -0.011135,0.084423 -0.019622,0.1719348 -0.025461,0.2625356 l -0.01419,-0.00586 -0.1407069,-0.058031 0.1242225,0.088017 0.028109,0.019948 c -0.00379,0.072466 -0.00565,0.1467851 -0.00559,0.2229567 l -0.04044,-0.016693 -0.1407069,-0.058203 0.1242224,0.088007 0.057396,0.040667 c 0.00116,0.079321 0.0046,0.16051 0.010309,0.2435668 l -0.3510056,0.0043 c 0,-0.2227663 0.036006,-0.5160765 0.1127886,-0.82277 l 0.031636,0.015578 0.1365722,0.067261 -0.1181292,-0.096032 -0.038663,-0.031418 c 0.018969,-0.07214 0.040096,-0.1448598 0.06358,-0.2174257 l 0.130479,0.064269 -0.1181293,-0.096032 -0.00151,-0.00122 c 0.023303,-0.0699 0.048791,-0.139519 0.076474,-0.2082676 l 0.1183287,0.058258 -0.1066681,-0.086711 c 0.030992,-0.074969 0.06465,-0.1487043 0.1010645,-0.2204813 l 0.090673,0.044647 -0.080164,-0.06514 c 0.1638377,-0.3165769 0.3817349,-0.591018 0.6601746,-0.7477922"
           id="path56"
           inkscape:connector-curvature="0"
           style="fill:#6e40c9;fill-rule:evenodd;fill-opacity:1" />
      </g>
      <g
         clip-path="url(#SvgjsClipPath1000)"
         id="g62"
         style="fill:#6e40c9;fill-opacity:1">
        <path
           d="m 4.2365703,-4.1273559 c 0,0 0.5361334,-0.1870772 0.8759681,-0.061223 0.3398346,0.1258546 0.3761856,0.5901838 0.3761856,0.5901838 0,0 -0.099741,-0.1307238 -0.3100485,-0.2248699 v 0 C 5.0593131,-3.916341 5.0496292,-4.0284679 5.0496292,-4.0284679 c -0.00784,0.059717 0.013601,0.1211033 0.038989,0.1699128 -0.044746,-0.015149 -0.090434,-0.027358 -0.1367716,-0.03655 -0.061114,-0.07515 -0.067153,-0.1449051 -0.067153,-0.1449051 -0.00617,0.046987 0.00581,0.095008 0.023575,0.1371253 -0.00328,-5.169e-4 -0.00657,-0.00104 -0.00988,-0.00152 -0.064623,-0.076855 -0.070925,-0.149466 -0.070925,-0.149466 -0.00647,0.049317 0.00705,0.099741 0.02625,0.1433365 -0.07272,-0.00917 -0.1380683,-0.01351 -0.1966615,-0.016321 -0.065702,-0.077353 -0.072058,-0.1508169 -0.072058,-0.1508169 -0.00676,0.051412 0.00822,0.1040567 0.028716,0.1488765 -0.2162016,-0.00907 -0.3306585,-0.00829 -0.3772012,-0.1984567"
           id="path60"
           inkscape:connector-curvature="0"
           style="fill:#6e40c9;fill-rule:evenodd;fill-opacity:1" />
      </g>
      <g
         clip-path="url(#SvgjsClipPath1000)"
         id="g66"
         style="fill:#6e40c9;fill-opacity:1">
        <path
           d="m 4.2366972,-4.1272833 c 0,0 0.6145024,0.21155 0.8308944,0.5653937 0.216392,0.3538437 -0.079793,0.7970188 -0.079793,0.7970188 0,0 0.00289,-0.1882017 -0.1194712,-0.4218034 v 0 c -0.041374,-0.1682082 0.029324,-0.2758828 0.029324,-0.2758828 -0.049344,0.048157 -0.073527,0.1185373 -0.085233,0.18044 -0.029491,-0.045318 -0.061919,-0.088656 -0.097075,-0.1297354 -0.00172,-0.1108391 0.042263,-0.1778286 0.042263,-0.1778286 -0.038826,0.037865 -0.062066,0.089513 -0.075939,0.1399543 -0.00259,-0.00279 -0.00518,-0.00558 -0.0078,-0.00837 -0.00368,-0.1148741 0.04209,-0.1845929 0.04209,-0.1845929 -0.040749,0.039733 -0.064324,0.094672 -0.077934,0.147444 -0.058874,-0.059745 -0.1145477,-0.1099233 -0.1652069,-0.1539996 -0.00428,-0.1160619 0.042027,-0.1866149 0.042027,-0.1866149 -0.04249,0.041438 -0.066318,0.099369 -0.07962,0.1541447 -0.1879477,-0.1612807 -0.291415,-0.2416354 -0.1985746,-0.4455779"
           id="path64"
           inkscape:connector-curvature="0"
           style="fill:#6e40c9;fill-rule:evenodd;fill-opacity:1" />
      </g>
      <g
         clip-path="url(#SvgjsClipPath1000)"
         id="g70"
         style="fill:#6e40c9;fill-opacity:1">
        <path
           d="m 4.3093175,-3.9372411 c 0,0 0.3049255,0.3348295 0.3188801,0.6234972 0.013955,0.2886677 -0.3153347,0.4605753 -0.3153347,0.4605753 0,0 0.064713,-0.1140852 0.068005,-0.2978075 v 0 c 0.030956,-0.1166694 0.1101953,-0.1588416 0.1101953,-0.1588416 -0.046243,0.012921 -0.084589,0.047867 -0.112435,0.08176 -0.00285,-0.037559 -0.00816,-0.07489 -0.015895,-0.1117549 0.036024,-0.068341 0.085305,-0.0946 0.085305,-0.0946 -0.035816,0.011538 -0.067968,0.032292 -0.09323,0.06018 -6.529e-4,-0.00258 -0.0013,-0.00514 -0.00198,-0.00772 0.036188,-0.07146 0.087482,-0.09878 0.087482,-0.09878 -0.03821,0.010672 -0.070988,0.036369 -0.096948,0.06407 -0.016022,-0.056218 -0.033268,-0.1055075 -0.049508,-0.1493934 0.036206,-0.072394 0.088107,-0.1000218 0.088107,-0.1000218 -0.039833,0.011126 -0.073772,0.038572 -0.1002303,0.067615 -0.060978,-0.1613986 -0.097347,-0.2451717 0.027619,-0.3387829"
           id="path68"
           inkscape:connector-curvature="0"
           style="fill:#6e40c9;fill-rule:evenodd;fill-opacity:1" />
      </g>
      <g
         clip-path="url(#SvgjsClipPath1000)"
         id="g74"
         style="fill:#6e40c9;fill-opacity:1">
        <path
           d="m 4.2654135,-4.154703 c 0,0 -0.5600077,0.1439803 -0.7770344,0.4423953 -0.2170267,0.2984151 0.014172,0.7125385 0.014172,0.7125385 0,0 0.010781,-0.167111 0.1358921,-0.3655859 v 0 c 0.048628,-0.1462471 -0.00644,-0.2467585 -0.00644,-0.2467585 0.040359,0.046189 0.056798,0.1103223 0.062828,0.1660501 0.029372,-0.038098 0.061209,-0.07423 0.095307,-0.1081642 0.00939,-0.098172 -0.024863,-0.1607186 -0.024863,-0.1607186 0.031736,0.036351 0.048692,0.0838 0.057414,0.1295179 0.00248,-0.00229 0.00499,-0.00453 0.0075,-0.00686 0.011425,-0.1016176 -0.024228,-0.1666939 -0.024228,-0.1666939 0.033313,0.038137 0.050351,0.088515 0.058648,0.136282 0.056462,-0.048809 0.1094064,-0.089349 0.1574633,-0.1248481 0.012023,-0.1026332 -0.024037,-0.1684892 -0.024037,-0.1684892 0.034746,0.039787 0.051765,0.092859 0.059672,0.1423571 0.1781369,-0.1296629 0.275647,-0.1936057 0.2077236,-0.3810638"
           id="path72"
           inkscape:connector-curvature="0"
           style="fill:#6e40c9;fill-rule:evenodd;fill-opacity:1" />
      </g>
      <g
         clip-path="url(#SvgjsClipPath1000)"
         id="g78"
         style="fill:#6e40c9;fill-opacity:1">
        <path
           d="m 4.4405037,-4.0795347 c 0,0 -0.4321129,-0.3683696 -0.7944527,-0.3740186 -0.3623398,-0.00565 -0.5642694,0.4140418 -0.5642694,0.4140418 0,0 0.140308,-0.085786 0.3704279,-0.097456 v 0 c 0.1449323,-0.043587 0.1945397,-0.1446058 0.1945397,-0.1446058 -0.014299,0.058484 -0.056553,0.1079466 -0.097855,0.1442522 0.047198,0.00206 0.09421,0.00721 0.1407341,0.015414 0.084136,-0.047948 0.1150282,-0.1107847 0.1150282,-0.1107847 -0.011252,0.046035 -0.039787,0.086466 -0.071632,0.1192989 0.00326,6.982e-4 0.0065,0.00142 0.00975,0.00215 0.08808,-0.048256 0.1202056,-0.1136681 0.1202056,-0.1136681 -0.011788,0.04832 -0.042616,0.090456 -0.076329,0.1241318 0.071106,0.017754 0.1335981,0.037375 0.1892625,0.055909 0.089232,-0.048338 0.121738,-0.1145205 0.121738,-0.1145205 -0.012313,0.050378 -0.045337,0.094037 -0.080645,0.1283935 0.2048401,0.069819 0.3112544,0.1119363 0.4234445,-0.048519"
           id="path76"
           inkscape:connector-curvature="0"
           style="fill:#6e40c9;fill-rule:evenodd;fill-opacity:1" />
      </g>
      <g
         clip-path="url(#SvgjsClipPath1000)"
         id="g82"
         style="fill:#6e40c9;fill-opacity:1">
        <path
           d="m 4.390452,-4.115523 c 0,0 -0.056526,-0.4011933 -0.2474022,-0.5756217 -0.1908765,-0.1744283 -0.4972708,-0.045772 -0.4972708,-0.045772 0,0 0.115536,0.020565 0.2439657,0.1231707 v 0 c 0.098027,0.045337 0.1723247,0.014798 0.1723247,0.014798 -0.035363,0.024482 -0.081271,0.030929 -0.1205321,0.030774 0.02424,0.023422 0.046915,0.048411 0.067878,0.074806 0.067615,0.014199 0.1138404,-0.00475 0.1138404,-0.00475 -0.028391,0.018072 -0.061032,0.028368 -0.094654,0.029859 0.00139,0.0019 0.00279,0.00384 0.00418,0.00576 0.069819,0.015877 0.1179842,-0.00385 0.1179842,-0.00385 -0.029838,0.018855 -0.06422,0.029288 -0.099505,0.030194 0.029587,0.043124 0.053688,0.083166 0.074642,0.1193987 0.070544,0.016394 0.1192173,-0.00358 0.1192173,-0.00358 -0.030412,0.021081 -0.068703,0.028789 -0.1038301,0.030421 0.076401,0.1341965 0.1133417,0.2070344 0.2491432,0.1744192"
           id="path80"
           inkscape:connector-curvature="0"
           style="fill:#6e40c9;fill-rule:evenodd;fill-opacity:1" />
      </g>
      <g
         clip-path="url(#SvgjsClipPath1000)"
         id="g86"
         style="fill:#6e40c9;fill-opacity:1">
        <path
           d="m 4.1963113,-3.6833919 c 0.058403,0 0.1057614,0.077317 0.1057614,0.1726964 0,0.095379 -0.047359,0.1726965 -0.1057614,0.1726965 -0.058403,0 -0.1057795,-0.077317 -0.1057795,-0.1726965 0,-0.095379 0.047359,-0.1726964 0.1057795,-0.1726964"
           id="path84"
           inkscape:connector-curvature="0"
           style="fill:#6e40c9;fill-rule:evenodd;fill-opacity:1" />
      </g>
      <g
         clip-path="url(#SvgjsClipPath1000)"
         id="g90"
         style="fill:#6e40c9;fill-opacity:1">
        <path
           d="m 6.4838006,-5.2698401 c 0.1387413,-2.993e-4 0.2767612,0.019963 0.4095625,0.060125 0.1327985,-0.040162 0.2708151,-0.060423 0.4095534,-0.060125 0.4001959,0 0.7533414,0.1639192 0.9639666,0.4137787 -0.2638595,-0.1599206 -0.5990517,-0.2556988 -0.9639666,-0.2556988 -0.054839,0 -0.1089652,0.00212 -0.1623779,0.00635 0.1166924,0.063751 0.2207978,0.1482221 0.3072195,0.2492792 -0.1713458,-0.1022434 -0.3588084,-0.1746505 -0.554395,-0.2141342 -0.1955919,0.039485 -0.3830602,0.1118922 -0.5544132,0.2141342 0.08643,-0.1010488 0.1905335,-0.185519 0.3072195,-0.2492792 -0.053358,-0.00423 -0.1074812,-0.00635 -0.1623688,-0.00635 -0.3648968,0 -0.7000799,0.095751 -0.9639666,0.2556988 0.2106252,-0.2498595 0.5637797,-0.4137787 0.9639666,-0.4137787"
           id="path88"
           inkscape:connector-curvature="0"
           style="fill:#6e40c9;fill-rule:evenodd;fill-opacity:1" />
      </g>
      <g
         clip-path="url(#SvgjsClipPath1000)"
         id="g94"
         style="fill:#6e40c9;fill-opacity:1">
        <path
           d="m 4.8563771,-5.7568649 c 0.1082555,-2.319e-4 0.215948,0.015578 0.3195692,0.046914 0.1036207,-0.031339 0.2113134,-0.047148 0.3195691,-0.046914 0.3122428,0 0.5877991,0.1278495 0.7521446,0.3228516 -0.2059011,-0.1247847 -0.4674393,-0.1994814 -0.7521446,-0.1994814 -0.04281,0 -0.085046,0.00166 -0.1267069,0.00499 0.091049,0.049746 0.1722778,0.1156556 0.2397131,0.1945034 -0.1336937,-0.079779 -0.279965,-0.1362733 -0.4325753,-0.1670747 -0.1526182,0.030794 -0.2988966,0.087289 -0.4325936,0.1670747 0.067442,-0.078841 0.1486701,-0.1447492 0.2397132,-0.1945034 -0.041637,-0.00329 -0.083867,-0.00496 -0.1266888,-0.00499 -0.2847144,0 -0.5462526,0.074706 -0.7521446,0.1994814 0.1643364,-0.1949477 0.4398837,-0.3228516 0.7521446,-0.3228516"
           id="path92"
           inkscape:connector-curvature="0"
           style="fill:#6e40c9;fill-rule:evenodd;fill-opacity:1" />
      </g>
      <g
         clip-path="url(#SvgjsClipPath1000)"
         id="g98"
         style="fill:#6e40c9;fill-opacity:1">
        <path
           d="m 6.879082,-5.9549952 c 0.080697,-1.796e-4 0.1609751,0.011603 0.2382171,0.034964 0.077248,-0.023359 0.1575322,-0.035142 0.2382351,-0.034964 0.2327767,0 0.438179,0.095334 0.5607059,0.2406743 -0.1534918,-0.093022 -0.3484667,-0.1487043 -0.5607059,-0.1487043 -0.031917,0 -0.063402,0.00124 -0.094454,0.00373 0.067875,0.037078 0.1284271,0.086212 0.17869,0.1449958 -0.099664,-0.059475 -0.2087044,-0.1015928 -0.3224707,-0.124558 -0.1137664,0.022965 -0.2228067,0.065083 -0.3224708,0.124558 0.050262,-0.058781 0.1108101,-0.107915 0.1786809,-0.1449958 -0.031016,-0.00245 -0.062492,-0.0037 -0.094427,-0.00373 -0.2122572,0 -0.407214,0.055701 -0.5607059,0.1487043 0.1225088,-0.1453404 0.3279202,-0.2406743 0.5607059,-0.2406743"
           id="path96"
           inkscape:connector-curvature="0"
           style="fill:#6e40c9;fill-rule:evenodd;fill-opacity:1" />
      </g>
    </g>
  </g>
  <defs
     id="defs110">
    <clipPath
       id="SvgjsClipPath1003">
      <path
         d="M 0.66847403,-5.9549952 H 9.3106422 V -0.25 H 0.66847403 Z"
         id="path104"
         inkscape:connector-curvature="0" />
    </clipPath>
    <clipPath
       id="SvgjsClipPath1000">
      <path
         d="M 0.66847403,-5.9549952 H 9.3106422 V -0.25 H 0.66847403 Z"
         id="path107"
         inkscape:connector-curvature="0" />
    </clipPath>
  </defs>
</svg>
