<?xml version="1.0" encoding="UTF-8" standalone="no"?>
<!-- Created with Inkscape (http://www.inkscape.org/) -->

<svg
   width="200"
   height="200"
   viewBox="0 0 52.916665 52.916666"
   version="1.1"
   id="svg5"
   xml:space="preserve"
   inkscape:version="1.2.2 (732a01da63, 2022-12-09)"
   sodipodi:docname="ai-tunes.svg"
   xmlns:inkscape="http://www.inkscape.org/namespaces/inkscape"
   xmlns:sodipodi="http://sodipodi.sourceforge.net/DTD/sodipodi-0.dtd"
   xmlns="http://www.w3.org/2000/svg"
   xmlns:svg="http://www.w3.org/2000/svg"><sodipodi:namedview
     id="namedview7"
     pagecolor="#ffffff"
     bordercolor="#000000"
     borderopacity="0.25"
     inkscape:showpageshadow="2"
     inkscape:pageopacity="0.0"
     inkscape:pagecheckerboard="0"
     inkscape:deskcolor="#d1d1d1"
     inkscape:document-units="mm"
     showgrid="false"
     inkscape:zoom="2.0888418"
     inkscape:cx="83.29975"
     inkscape:cy="122.55595"
     inkscape:window-width="1227"
     inkscape:window-height="741"
     inkscape:window-x="357"
     inkscape:window-y="72"
     inkscape:window-maximized="0"
     inkscape:current-layer="layer1" /><defs
     id="defs2" /><g
     inkscape:label="Layer 1"
     inkscape:groupmode="layer"
     id="layer1"><g
       data-paper-data="{&quot;isGlobalGroup&quot;:true,&quot;bounds&quot;:{&quot;x&quot;:112.09317763792916,&quot;y&quot;:115.00000000000003,&quot;width&quot;:325.8136447241417,&quot;height&quot;:239.99999999999997}}"
       id="g29"
       style="font-family:none;mix-blend-mode:normal;fill:#6e40c9;stroke:none;stroke-width:1;stroke-linecap:butt;stroke-linejoin:miter;stroke-miterlimit:10;stroke-dasharray:none;stroke-dashoffset:0;fill-opacity:1"
       transform="matrix(0.15824471,0,0,0.15824471,-17.058959,-10.729171)"><g
         data-paper-data="{&quot;isPrimaryText&quot;:true}"
         fill-rule="nonzero"
         id="g23"
         style="fill:#6e40c9;fill-opacity:1"><path
           d="m 158.02555,341.13507 c 0.67965,0 1.22338,-0.13593 1.7671,-0.40779 2.03896,-0.95151 2.85454,-3.5342 1.90303,-5.57316 l -20.93332,-42.00258 c -0.67965,-1.49524 -2.03896,-2.31082 -3.67013,-2.31082 v 0 c -1.49524,0 -2.99047,0.81558 -3.67013,2.31082 l -20.93332,42.00258 c -0.95151,2.03896 -0.13593,4.62164 1.90303,5.57316 2.03896,0.95151 4.48571,0.13593 5.57316,-1.90303 l 17.12727,-34.66232 17.2632,34.66232 c 0.67965,1.49524 2.17489,2.31082 3.67013,2.31082 z"
           data-paper-data="{&quot;glyphName&quot;:&quot;A&quot;,&quot;glyphIndex&quot;:0,&quot;firstGlyphOfWord&quot;:true,&quot;word&quot;:1}"
           id="path9"
           style="fill:#6e40c9;fill-opacity:1" /><path
           d="m 171.61862,355 c 2.31082,0 4.07792,-1.90303 4.07792,-4.21385 v -61.98439 c 0,-2.31082 -1.7671,-4.07792 -4.07792,-4.07792 -2.31082,0 -4.07792,1.7671 -4.07792,4.07792 v 61.98439 c 0,2.31082 1.7671,4.21385 4.07792,4.21385 z"
           data-paper-data="{&quot;glyphName&quot;:&quot;I&quot;,&quot;glyphIndex&quot;:1,&quot;lastGlyphOfWord&quot;:true,&quot;word&quot;:1}"
           id="path11"
           style="fill:#6e40c9;fill-opacity:1" /><path
           d="m 230.06881,341.13507 c 2.31082,0 4.07792,-1.7671 4.07792,-4.07792 v -38.06059 h 12.50562 c 2.17489,0 4.07792,-1.7671 4.07792,-4.07792 0,-2.31082 -1.90303,-4.07792 -4.07792,-4.07792 h -33.03116 c -2.31082,0 -4.07792,1.7671 -4.07792,4.07792 0,2.31082 1.7671,4.07792 4.07792,4.07792 h 12.36969 v 38.06059 c 0,2.31082 1.7671,4.07792 4.07792,4.07792 z"
           data-paper-data="{&quot;glyphName&quot;:&quot;T&quot;,&quot;glyphIndex&quot;:2,&quot;firstGlyphOfWord&quot;:true,&quot;word&quot;:2}"
           id="path13"
           style="fill:#6e40c9;fill-opacity:1" /><path
           d="m 276.69304,341.13507 c 11.41818,0 20.66146,-9.24329 20.66146,-20.52553 v -25.6909 c 0,-2.31082 -1.90303,-4.07792 -4.07792,-4.07792 -2.31082,0 -4.21385,1.7671 -4.21385,4.07792 v 25.6909 c 0,6.79653 -5.57316,12.36969 -12.36969,12.36969 -6.79653,0 -12.36969,-5.57316 -12.36969,-12.36969 v -25.6909 c 0,-2.31082 -1.7671,-4.07792 -4.07792,-4.07792 -2.31082,0 -4.07792,1.7671 -4.07792,4.07792 v 25.6909 c 0,11.28225 9.24329,20.52553 20.52553,20.52553 z"
           data-paper-data="{&quot;glyphName&quot;:&quot;U&quot;,&quot;glyphIndex&quot;:3,&quot;word&quot;:2}"
           id="path15"
           style="fill:#6e40c9;fill-opacity:1" /><path
           d="m 339.9008,341.13507 c 0.40779,0 0.81558,0 1.22338,-0.27186 1.7671,-0.54372 2.85454,-2.03896 2.85454,-3.80606 v -42.13851 c 0,-2.31082 -1.90303,-4.07792 -4.07792,-4.07792 -2.31082,0 -4.21385,1.7671 -4.21385,4.07792 v 30.17661 l -25.55497,-32.75929 c -1.08745,-1.35931 -2.99047,-1.90303 -4.62164,-1.35931 -1.63117,0.67965 -2.71861,2.17489 -2.71861,3.94199 v 42.13851 c 0,2.31082 1.7671,4.07792 4.07792,4.07792 2.31082,0 4.07792,-1.7671 4.07792,-4.07792 v -30.17661 l 25.6909,32.75929 c 0.81558,0.95151 1.90303,1.49524 3.26234,1.49524 z"
           data-paper-data="{&quot;glyphName&quot;:&quot;N&quot;,&quot;glyphIndex&quot;:4,&quot;word&quot;:2}"
           id="path17"
           style="fill:#6e40c9;fill-opacity:1" /><path
           d="m 386.52503,341.13507 c 2.17489,0 4.07792,-1.7671 4.07792,-4.07792 0,-2.31082 -1.90303,-4.07792 -4.07792,-4.07792 h -33.03116 c -2.31082,0 -4.07792,1.7671 -4.07792,4.07792 0,2.31082 1.7671,4.07792 4.07792,4.07792 z m 0.27186,-21.06925 c 2.17489,0 4.07792,-1.7671 4.07792,-4.07792 0,-2.31082 -1.90303,-4.07792 -4.07792,-4.07792 h -33.30302 c -2.31082,0 -4.07792,1.7671 -4.07792,4.07792 0,2.31082 1.7671,4.07792 4.07792,4.07792 z m -0.27186,-21.06926 c 2.17489,0 4.07792,-1.7671 4.07792,-4.07792 0,-2.31082 -1.90303,-4.07792 -4.07792,-4.07792 h -33.03116 c -2.31082,0 -4.07792,1.7671 -4.07792,4.07792 0,2.31082 1.7671,4.07792 4.07792,4.07792 z"
           data-paper-data="{&quot;glyphName&quot;:&quot;E&quot;,&quot;glyphIndex&quot;:5,&quot;word&quot;:2}"
           id="path19"
           style="fill:#6e40c9;fill-opacity:1" /><path
           d="m 417.10943,341.13507 c 11.69004,0 20.79739,-6.38874 20.79739,-14.68051 0,-8.15584 -9.10736,-14.54458 -20.79739,-14.54458 -7.20433,0 -12.50562,-3.39827 -12.50562,-6.52467 0,-2.99047 5.3013,-6.38874 12.50562,-6.38874 4.07792,0 7.74805,1.08745 10.33073,2.99047 0,0 0.13593,0 0.13593,0.13593 0.54372,0.40779 1.08745,0.81558 1.35931,1.35931 1.35931,1.7671 3.94199,2.17489 5.70909,0.81558 1.90303,-1.35931 2.31082,-3.94199 0.95151,-5.70909 -3.26234,-4.34978 -9.24329,-7.20433 -16.17575,-7.74805 -0.27186,0 -0.40779,0 -0.54372,0 -0.54372,0 -1.08745,0 -1.7671,0 -11.55411,0 -20.79739,6.38874 -20.79739,14.54458 0,8.29177 9.24329,14.68051 20.79739,14.68051 7.20433,0 12.50562,3.39827 12.50562,6.38874 0,3.12641 -5.3013,6.52467 -12.50562,6.52467 -4.07792,0 -7.74805,-1.08745 -10.1948,-2.99047 -0.13593,0 -0.13593,0 -0.13593,-0.13593 -0.54372,-0.40779 -1.08745,-0.81558 -1.35931,-1.35931 -1.35931,-1.7671 -3.94199,-2.17489 -5.84502,-0.81558 -1.7671,1.22338 -2.17489,3.80606 -0.81558,5.70909 3.12641,4.34978 9.10736,7.20433 16.17575,7.74805 0.13593,0 0.27186,0 0.54372,0 0.54372,0 1.08745,0 1.63117,0 z"
           data-paper-data="{&quot;glyphName&quot;:&quot;S&quot;,&quot;glyphIndex&quot;:6,&quot;lastGlyphOfWord&quot;:true,&quot;word&quot;:2}"
           id="path21"
           style="fill:#6e40c9;fill-opacity:1" /></g><g
         data-paper-data="{&quot;isIcon&quot;:&quot;true&quot;,&quot;iconType&quot;:&quot;icon&quot;,&quot;rawIconId&quot;:&quot;166980&quot;,&quot;selectedEffects&quot;:{&quot;container&quot;:&quot;&quot;,&quot;transformation&quot;:&quot;&quot;,&quot;pattern&quot;:&quot;&quot;},&quot;isDetailed&quot;:false,&quot;iconStyle&quot;:&quot;standalone&quot;,&quot;bounds&quot;:{&quot;x&quot;:205.79025475366134,&quot;y&quot;:115.00000000000003,&quot;width&quot;:138.41949049267734,&quot;height&quot;:138.41949049267734},&quot;fillRule&quot;:&quot;evenodd&quot;,&quot;suitableAsStandaloneIcon&quot;:true}"
         fill-rule="evenodd"
         id="g27"
         style="fill:#6e40c9;fill-opacity:1"><path
           d="M 271.72823,124.57079 254.11128,115 v 120.8416 l 17.61695,9.57094 z m 48.32101,19.0722 -17.61695,-9.57079 v 93.76244 l 17.61695,9.57079 z m -72.48152,20.01761 -17.61695,-9.57094 v 85.75549 l 17.61695,9.57079 z m 48.32101,6.11645 -17.61695,-9.57094 v 71.63209 l 17.61695,9.57079 z m 48.32102,8.00696 -17.61695,-9.57094 v 55.61803 l 17.61695,9.57094 z m -120.80254,24.96626 -17.61695,-9.57094 v 50.66937 l 17.61695,9.57079 z"
           data-paper-data="{&quot;isPathIcon&quot;:true}"
           id="path25"
           style="fill:#6e40c9;fill-opacity:1" /></g></g></g></svg>
